<?xml version="1.0" standalone="no"?>
<!DOCTYPE svg PUBLIC "-//W3C//DTD SVG 20010904//EN"
 "http://www.w3.org/TR/2001/REC-SVG-20010904/DTD/svg10.dtd">
<svg version="1.0" xmlns="http://www.w3.org/2000/svg"
 width="1024.000000pt" height="1024.000000pt" viewBox="0 0 1024.000000 1024.000000"
 preserveAspectRatio="xMidYMid meet">
<metadata>
Created by potrace 1.14, written by Peter Selinger 2001-2017
</metadata>
<g transform="translate(0.000000,1024.000000) scale(0.100000,-0.100000)"
fill="#000000" stroke="none">
<path d="M0 5120 l0 -5120 5120 0 5120 0 0 5120 0 5120 -5120 0 -5120 0 0
-5120z m2144 4338 c9 -15 16 -70 20 -163 10 -222 54 -622 92 -848 27 -159 23
-160 -239 -108 -353 71 -666 153 -947 250 -177 61 -292 108 -302 124 -14 21
-10 741 4 755 9 9 175 12 685 12 l673 0 14 -22z m1520 6 c23 -22 21 -42 -23
-220 -136 -547 -355 -947 -630 -1148 -68 -49 -99 -56 -123 -28 -26 29 -119
442 -183 816 -36 211 -75 488 -75 536 0 62 -17 60 525 60 435 0 495 -2 509
-16z m676 6 c13 -8 15 -90 16 -622 2 -893 38 -1676 119 -2558 20 -223 21 -258
9 -277 -8 -13 -24 -23 -35 -23 -52 0 -949 237 -969 256 -34 33 -506 1438 -496
1475 4 16 28 37 70 62 404 235 705 796 835 1555 10 62 24 119 31 127 10 12 48
15 209 15 108 0 203 -5 211 -10z m2202 -7 c8 -10 26 -62 41 -116 99 -358 337
-766 619 -1063 l101 -106 -7 -56 c-60 -510 -68 -646 -72 -1189 -1 -265 -5
-487 -9 -492 -14 -24 -755 -246 -786 -236 -18 6 -378 337 -391 359 -31 54
-144 1869 -165 2638 -5 194 -3 250 7 263 11 13 56 15 330 15 290 0 318 -2 332
-17z m1086 5 c21 -21 13 -60 -32 -170 -63 -151 -121 -333 -175 -548 -42 -167
-49 -186 -73 -200 -25 -13 -29 -13 -55 6 -112 83 -357 452 -477 718 -56 125
-67 171 -44 194 17 17 839 17 856 0z m1448 -14 c17 -25 16 -28 -16 -107 -60
-149 -193 -400 -291 -547 -127 -190 -244 -334 -393 -484 -120 -120 -352 -315
-419 -351 -33 -18 -36 -18 -61 -2 -33 22 -33 45 -6 264 37 303 96 578 171 810
46 143 122 328 163 397 l27 46 404 0 405 0 16 -26z m392 14 c9 -9 12 -211 12
-847 l0 -836 -97 -95 c-259 -254 -556 -477 -918 -689 -170 -100 -527 -281
-553 -281 -10 0 -27 9 -37 20 -22 24 -34 218 -35 568 l0 232 47 33 c277 192
393 286 573 467 380 380 643 797 814 1290 26 74 52 138 59 142 19 12 122 9
135 -4z m-8475 -1162 c352 -140 842 -285 1324 -391 12 -3 26 -13 31 -23 5 -9
28 -102 52 -207 54 -244 141 -587 224 -886 36 -130 66 -248 66 -261 0 -32 -18
-48 -53 -48 -37 0 -585 182 -872 290 -121 45 -314 123 -429 172 -216 92 -534
248 -561 274 -13 13 -15 86 -15 568 0 416 3 555 12 564 21 21 56 13 221 -52z
m8477 -1525 c6 -13 10 -140 10 -345 l0 -326 -193 -193 c-106 -105 -229 -237
-273 -292 -256 -322 -434 -669 -553 -1074 -22 -74 -46 -138 -53 -142 -7 -5
-23 -9 -35 -9 -14 0 -214 180 -635 573 -527 492 -613 576 -616 603 -2 17 3 36
10 42 7 5 94 39 193 75 779 280 1403 604 1950 1011 135 101 174 116 195 77z
m-8429 -380 c652 -317 1563 -651 2771 -1015 76 -23 89 -30 94 -52 4 -14 3 -34
-2 -44 -5 -10 -270 -262 -589 -559 -431 -402 -581 -547 -583 -566 -3 -20 14
-44 79 -115 46 -50 93 -93 106 -96 24 -6 29 -3 222 174 108 99 137 111 165 70
14 -20 16 -112 16 -800 0 -775 0 -778 -21 -799 -24 -24 5 -26 -369 27 -338 48
-362 53 -377 84 -6 14 -28 81 -48 149 -135 465 -412 1000 -755 1456 -257 342
-517 621 -892 959 l-98 88 0 557 c0 420 3 560 12 569 24 24 70 10 269 -87z
m5581 -822 c519 -484 969 -907 1001 -939 l57 -58 0 -794 c0 -620 -3 -798 -12
-811 -15 -18 -184 -94 -468 -207 -348 -140 -306 -131 -635 -128 -262 3 -284 4
-304 22 l-21 19 0 903 c0 807 -2 904 -16 918 -14 14 -80 16 -579 16 -499 0
-565 -2 -579 -16 -14 -14 -16 -110 -16 -914 0 -869 -1 -899 -19 -921 l-19 -24
-672 0 -672 0 -19 24 c-18 22 -19 53 -19 967 l0 945 38 39 c20 21 471 444
1001 939 687 641 971 901 987 901 16 0 295 -254 966 -881z m2846 109 c9 -9 12
-208 12 -835 l0 -823 -122 -91 c-122 -91 -466 -322 -584 -392 -71 -43 -107
-47 -128 -15 -31 51 -26 424 10 653 84 536 304 1011 663 1428 64 75 79 87 106
87 17 0 36 -5 43 -12z m-8499 -825 c398 -410 754 -902 981 -1353 76 -152 165
-364 221 -531 80 -235 73 -241 -192 -175 -412 102 -857 255 -1119 384 l-95 47
-3 864 c-1 630 1 867 9 877 6 8 26 14 43 14 27 0 48 -17 155 -127z m7244 -771
l135 -123 0 -232 c0 -128 5 -268 11 -312 8 -65 7 -84 -4 -102 -8 -12 -79 -54
-159 -94 -130 -66 -146 -72 -170 -61 l-26 12 0 509 c0 475 1 511 18 520 34 21
63 4 195 -117z m1248 -1041 l24 -19 0 -1121 c0 -1062 -1 -1121 -18 -1138 -17
-17 -80 -18 -1175 -21 -636 -1 -1172 0 -1190 3 -26 5 -37 14 -47 38 -7 18 -57
222 -110 455 -77 333 -96 427 -88 445 8 17 48 37 159 81 356 141 914 403 1279
601 334 181 717 416 994 608 69 48 130 87 137 87 6 0 22 -9 35 -19z m-8484
-725 c684 -277 1596 -493 2558 -605 398 -47 792 -75 1260 -91 272 -9 312 -12
326 -28 12 -12 41 -140 95 -411 l77 -394 -27 -24 -27 -23 -2224 2 c-2120 3
-2225 4 -2242 21 -17 17 -18 64 -21 793 l-2 775 24 24 c14 14 29 25 35 25 5 0
80 -29 168 -64z"/>
</g>
</svg>
