<?xml version="1.0" encoding="UTF-8"?>
<svg id="Layer_1" data-name="Layer 1" xmlns="http://www.w3.org/2000/svg" viewBox="0 0 1414.16 312.87">
  <defs>
    <style>
      .cls-1 {
        fill: #fff;
      }

      .cls-2 {
        fill: #bad3d9;
      }

      .cls-3 {
        fill: #a9d962;
      }

      .cls-4 {
        fill: #78a658;
      }

      .cls-5 {
        fill: #4d7343;
      }
    </style>
  </defs>
  <g>
    <path class="cls-3" d="m254.27,13.23h24.06c1.25,0,2.11,1.25,1.67,2.41-3.41,8.97-13.13,30.35-36.39,46.64-1.24.87-2.94-.11-2.81-1.62,2.45-27.63,9.26-41.69,11.9-46.51.31-.57.91-.92,1.56-.92Z"/>
    <path class="cls-4" d="m233.22,15.74c-3.59,8.08-6.32,17.03-8.34,26.39-.3,1.4-2.04,1.9-3.03.86-3.82-4.01-11.09-12.95-16.9-27.32-.47-1.17.4-2.44,1.66-2.44h24.99c1.29,0,2.15,1.33,1.63,2.51Z"/>
    <path class="cls-5" d="m114.11,13.23h11.22c1,0,1.81.83,1.78,1.83-1.12,45.09,2.21,85.94,4.38,109.36.11,1.22-1.02,2.19-2.21,1.89-5.69-1.43-19.72-5-29.98-7.82-.56-.15-1.01-.57-1.2-1.12-3.5-9.79-12.49-35.77-15.6-46.17-.24-.82.13-1.69.88-2.09,16.73-8.8,25.67-31.56,28.96-54.35.13-.88.88-1.54,1.77-1.54Z"/>
    <path class="cls-4" d="m104.98,15.37c-2.14,10.71-8.34,34.43-23.36,43.83-1.03.64-2.38.09-2.68-1.09-4.46-17.72-6.84-33.33-7.86-42.91-.11-1.05.72-1.97,1.77-1.97h30.37c1.13,0,1.97,1.03,1.75,2.13Z"/>
    <path class="cls-3" d="m12.23,13.23h41.6c.96,0,1.74.75,1.78,1.71.49,11.5,1.76,22.93,3.59,34.28.2,1.22-.87,2.27-2.09,2.05-19.42-3.56-34.63-8.03-45.59-12.63-.66-.28-1.08-.93-1.08-1.64V15.02c0-.99.8-1.78,1.78-1.78Z"/>
    <path class="cls-4" d="m12.93,49.35c17.46,7.56,37.87,12.49,47.9,14.67.69.15,1.22.69,1.36,1.38,2.96,14.29,6.68,28.44,10.75,42.46.4,1.37-.88,2.63-2.24,2.2-11.29-3.53-40.46-12.93-59.36-23.56-.56-.31-.9-.91-.9-1.55v-33.97c0-1.28,1.31-2.15,2.49-1.64Z"/>
    <path class="cls-2" d="m10.45,294v-49.04c0-1.28,1.31-2.15,2.49-1.64,12.9,5.59,58.9,23.64,137.56,24.63.85.01,1.57.61,1.73,1.45,1.55,8.09,3.16,16.17,4.82,24.24.23,1.11-.61,2.14-1.74,2.14H12.23c-.99,0-1.78-.8-1.78-1.78Z"/>
    <path class="cls-3" d="m292.3,190.14c-7.61,5.87-15.67,11.29-23.96,16.24-1.13.68-2.58-.05-2.7-1.36-.86-9.37-1.61-40.72,24.25-68.75,1.11-1.2,3.1-.43,3.1,1.2v51.25c0,.55-.26,1.08-.69,1.42Z"/>
    <path class="cls-4" d="m292.51,68.32c-11.33,12.06-26.93,23.52-49.53,34.05-1.14.53-2.47-.25-2.54-1.51-.45-7.81-.66-15.89-.5-23.98.01-.61.34-1.17.86-1.49,5.82-3.54,35.41-22.79,46.76-60.88.23-.76.92-1.28,1.71-1.28h1.93c.99,0,1.78.8,1.78,1.78v52.08c0,.45-.17.89-.48,1.22Z"/>
    <path class="cls-4" d="m57.56,228.54c-7-24.41-23.25-48.97-44.09-69.34-1.13-1.1-3.03-.3-3.03,1.28v53.91c0,.68.39,1.31,1.01,1.61,17.65,8.49,36.8,13.17,44,14.77,1.32.29,2.48-.93,2.1-2.23Z"/>
    <path class="cls-5" d="m255.85,191.51l-7.98-7.37c-1.14-1.06-2.99-.24-2.99,1.31v30.73c0,1.33,1.4,2.19,2.59,1.59,2.85-1.43,5.68-2.89,8.49-4.4.65-.35,1.02-1.07.92-1.8-.77-6.16-.91-12.41-.46-18.62.04-.54-.17-1.07-.57-1.44Z"/>
    <path class="cls-5" d="m216.93,140.91l39.1,36.47c1,.93,2.63.44,2.95-.9,1.35-5.57,3.16-11.01,5.42-16.24,6.2-14.33,16.13-26.93,27.97-37.02.4-.34.63-.83.63-1.35v-20.11c0-1.49-1.72-2.32-2.89-1.39-21.03,16.66-46.59,28.84-72.53,37.55-1.28.43-1.63,2.07-.64,2.99Z"/>
    <path class="cls-5" d="m181.78,108.13l11.57,10.8c.45.42,1.08.58,1.67.42,8-2.1,15.95-4.49,23.78-7.21.74-.26,1.22-.97,1.19-1.75-.63-16.71-.23-35.68,2.35-53.95.08-.58-.12-1.15-.54-1.55-3.47-3.24-18.46-18.87-23.53-40.29-.19-.8-.91-1.36-1.73-1.36h-18.87c-1,0-1.8.81-1.78,1.81.22,13.69,2.76,67.19,5.33,91.97.04.43.24.82.56,1.12Z"/>
    <path class="cls-5" d="m90.3,184.14l-8.43,7.79c-.72.67-1.84.62-2.51-.09l-4.69-5.02c-.67-.72-.63-1.85.09-2.52l37.28-34.78c1.01-.94.61-2.62-.71-3.01-29.31-8.7-69.34-21.74-98.28-36.62-1.19-.61-2.6.25-2.6,1.59v34.44c0,.52.23,1.02.63,1.36,39.41,33.54,53.03,68.07,57.27,85,.17.68.73,1.2,1.42,1.32,7.14,1.25,14.32,2.29,21.53,3.13,1.06.12,1.99-.71,1.99-1.77v-49.48c0-1.56-1.85-2.37-2.99-1.31Z"/>
    <path class="cls-1" d="m167.87,111.72l-63.57,59.44c-.36.34-.57.81-.57,1.3v60.28c0,.99.8,1.78,1.78,1.78h41.97c.99,0,1.78-.8,1.78-1.78v-57.09c0-.99.8-1.78,1.78-1.78h35.35c.99,0,1.78.8,1.78,1.78v57.09c0,.99.8,1.78,1.78,1.78h18.33c.21,0,.42-.04.62-.11,8.28-3.01,16.44-6.34,24.48-9.96.64-.29,1.05-.93,1.05-1.63v-50.37c0-.49-.2-.97-.57-1.3l-63.57-59.44c-.69-.64-1.75-.64-2.44,0Z"/>
    <path class="cls-2" d="m207.93,266.73c1.34,5.93,5.27,22.75,6.42,27.68.19.81.91,1.38,1.74,1.38h75.12c.99,0,1.78-.8,1.78-1.78v-71.04c0-1.45-1.64-2.29-2.82-1.45-34.6,24.84-73.26,40.16-81.14,43.17-.83.32-1.3,1.19-1.1,2.06Z"/>
  </g>
  <g>
    <path class="cls-1" d="m383.75,121.82c8.51,5.01,18.26,7.51,29.24,7.51,7.86,0,15.13-1.4,21.81-4.2,6.68-2.8,12.52-6.73,17.53-11.79,5.01-5.06,8.86-10.88,11.55-17.45l-20.52-7.43c-1.83,4.1-4.23,7.7-7.19,10.83-2.96,3.13-6.36,5.57-10.18,7.35-3.83,1.78-8.05,2.66-12.68,2.66-6.68,0-12.6-1.64-17.77-4.93-5.17-3.29-9.21-7.81-12.12-13.57-2.91-5.76-4.36-12.41-4.36-19.95s1.43-14.16,4.28-19.87c2.85-5.71,6.84-10.2,11.96-13.49,5.12-3.28,10.96-4.93,17.53-4.93,4.52,0,8.73.84,12.6,2.5,3.88,1.67,7.32,3.99,10.34,6.95,3.01,2.96,5.44,6.44,7.27,10.42l20.52-7.59c-2.69-6.35-6.54-11.98-11.55-16.88-5.01-4.9-10.85-8.73-17.53-11.47-6.68-2.75-13.9-4.12-21.65-4.12-10.99,0-20.71,2.5-29.16,7.51-8.46,5.01-15.11,11.9-19.95,20.68-4.85,8.78-7.27,18.88-7.27,30.3s2.42,21.52,7.27,30.3c4.85,8.78,11.53,15.67,20.04,20.68Z"/>
    <path class="cls-1" d="m550.01,108.97c3.55-6.36,5.33-13.68,5.33-21.97s-1.78-15.62-5.33-21.97c-3.55-6.35-8.51-11.34-14.86-14.95-6.36-3.61-13.68-5.41-21.97-5.41s-15.46,1.81-21.81,5.41c-6.36,3.61-11.31,8.59-14.86,14.95-3.56,6.36-5.33,13.68-5.33,21.97s1.8,15.62,5.41,21.97c3.61,6.36,8.59,11.34,14.95,14.95,6.36,3.61,13.68,5.41,21.97,5.41s15.43-1.81,21.73-5.41c6.3-3.61,11.23-8.59,14.78-14.95Zm-19.07-10.26c-1.72,3.39-4.07,6.06-7.03,8-2.96,1.94-6.44,2.91-10.42,2.91s-7.54-.97-10.66-2.91c-3.13-1.94-5.55-4.6-7.27-8-1.72-3.39-2.59-7.3-2.59-11.71s.86-8.32,2.59-11.71c1.72-3.39,4.12-6.06,7.19-8s6.6-2.91,10.58-2.91,7.35.97,10.42,2.91c3.07,1.94,5.47,4.6,7.19,8,1.72,3.39,2.59,7.3,2.59,11.71s-.86,8.32-2.59,11.71Z"/>
    <path class="cls-1" d="m640.33,127.39v-42.33c0-6.79,1.4-11.9,4.2-15.35,2.8-3.45,6.79-5.11,11.96-5.01,2.8,0,5.22.67,7.27,2.02,2.05,1.35,3.66,3.53,4.85,6.54,1.18,3.02,1.78,7.27,1.78,12.76v41.36h21.33v-46.21c0-12.39-2.48-21.57-7.43-27.55-4.96-5.98-12.17-8.97-21.65-8.97-5.71,0-10.72,1.48-15.03,4.44-4.31,2.96-7.65,7.19-10.02,12.68-2.05-5.82-5.31-10.12-9.78-12.93-4.47-2.8-9.99-4.2-16.56-4.2-4.74,0-9.05,1.05-12.93,3.15-3.88,2.1-7.06,5.2-9.53,9.29l-.97-10.5h-20.04v80.79h21.33v-42.33c0-6.79,1.37-11.9,4.12-15.35,2.75-3.45,6.71-5.11,11.88-5.01,2.8,0,5.25.67,7.35,2.02,2.1,1.35,3.72,3.53,4.85,6.54,1.13,3.02,1.7,7.27,1.7,12.76v41.36h21.33Z"/>
    <path class="cls-1" d="m809.66,127.39h21.33v-46.21c0-12.39-2.48-21.57-7.43-27.55-4.96-5.98-12.17-8.97-21.65-8.97-5.71,0-10.72,1.48-15.03,4.44-4.31,2.96-7.65,7.19-10.02,12.68-2.05-5.82-5.31-10.12-9.78-12.93-4.47-2.8-9.99-4.2-16.56-4.2-4.74,0-9.05,1.05-12.93,3.15-3.88,2.1-7.06,5.2-9.53,9.29l-.97-10.5h-20.04v80.79h21.33v-42.33c0-6.79,1.37-11.9,4.12-15.35,2.75-3.45,6.71-5.11,11.88-5.01,2.8,0,5.25.67,7.35,2.02,2.1,1.35,3.72,3.53,4.85,6.54,1.13,3.02,1.7,7.27,1.7,12.76v41.36h21.33v-42.33c0-6.79,1.4-11.9,4.2-15.35,2.8-3.45,6.79-5.11,11.96-5.01,2.8,0,5.22.67,7.27,2.02,2.05,1.35,3.66,3.53,4.85,6.54,1.18,3.02,1.78,7.27,1.78,12.76v41.36Z"/>
    <path class="cls-1" d="m920.83,108.97c3.56-6.36,5.33-13.68,5.33-21.97s-1.78-15.62-5.33-21.97c-3.55-6.35-8.51-11.34-14.86-14.95-6.36-3.61-13.68-5.41-21.97-5.41s-15.46,1.81-21.81,5.41c-6.36,3.61-11.31,8.59-14.86,14.95-3.56,6.36-5.33,13.68-5.33,21.97s1.8,15.62,5.41,21.97c3.61,6.36,8.59,11.34,14.95,14.95,6.35,3.61,13.68,5.41,21.97,5.41s15.43-1.81,21.73-5.41c6.3-3.61,11.23-8.59,14.78-14.95Zm-19.07-10.26c-1.72,3.39-4.07,6.06-7.03,8-2.96,1.94-6.44,2.91-10.42,2.91s-7.54-.97-10.66-2.91c-3.13-1.94-5.55-4.6-7.27-8-1.72-3.39-2.59-7.3-2.59-11.71s.86-8.32,2.59-11.71c1.72-3.39,4.12-6.06,7.19-8,3.07-1.94,6.6-2.91,10.58-2.91s7.35.97,10.42,2.91c3.07,1.94,5.47,4.6,7.19,8,1.72,3.39,2.59,7.3,2.59,11.71s-.86,8.32-2.59,11.71Z"/>
    <path class="cls-1" d="m1013.41,127.39v-45.73c.11-8.62-1.02-15.64-3.39-21.09-2.37-5.44-5.82-9.45-10.34-12.04s-9.96-3.88-16.32-3.88-11.5,1.59-16.08,4.77c-3.01,2.09-5.57,4.8-7.69,8.1l-.95-10.92h-20.04v80.79h21.33v-42.33c0-6.79,1.48-11.9,4.44-15.35,2.96-3.45,7.19-5.11,12.68-5.01,3.01,0,5.65.67,7.92,2.02,2.26,1.35,4.01,3.53,5.25,6.54,1.24,3.02,1.86,7.27,1.86,12.76v41.36h21.33Z"/>
    <path class="cls-1" d="m1103.89,127.39v-45.73c0-8.62-1.19-15.64-3.55-21.09-2.37-5.44-5.79-9.45-10.26-12.04-4.47-2.59-9.94-3.88-16.4-3.88s-11.5,1.59-16.08,4.77c-2.85,1.98-5.3,4.49-7.35,7.55V14.29h-21.33v113.1h21.33v-42.33c0-6.79,1.48-11.9,4.44-15.35,2.96-3.45,7.19-5.11,12.68-5.01,3.01,0,5.66.67,7.92,2.02,2.26,1.35,4.04,3.53,5.33,6.54,1.29,3.02,1.94,7.27,1.94,12.76v41.36h21.33Z"/>
    <path class="cls-1" d="m1172.48,49.35c-5.44-3.12-12.25-4.69-20.44-4.69-6.79,0-12.52,1.05-17.21,3.15-4.69,2.1-8.48,4.79-11.39,8.08-2.91,3.29-5.12,6.65-6.62,10.1l18.74,6.46c1.94-3.12,4.31-5.44,7.11-6.95,2.8-1.51,5.92-2.26,9.37-2.26,3.77,0,6.76.94,8.97,2.83,2.21,1.89,3.82,4.55,4.85,8,.41,1.38.72,2.91.96,4.52h-18.98c-10.45,0-18.56,2.18-24.32,6.54-5.76,4.36-8.64,10.85-8.64,19.47,0,7.86,2.67,13.95,8,18.26,5.33,4.31,12.84,6.46,22.54,6.46s16.78-3.07,20.92-9.21c.47-.7.91-1.43,1.32-2.19l.37,9.46h19.87l.48-44.76c.11-7.76-1.16-14.46-3.8-20.12-2.64-5.65-6.68-10.04-12.12-13.17Zm-7.51,53.24c-1.62,2.64-3.8,4.79-6.54,6.46-2.75,1.67-5.9,2.5-9.45,2.5-3.88,0-6.9-.67-9.05-2.02-2.16-1.35-3.23-3.2-3.23-5.57,0-3.01,1.35-5.36,4.04-7.03,2.69-1.67,7.54-2.5,14.54-2.5h12.12c0,2.8-.81,5.52-2.42,8.16Z"/>
    <path class="cls-1" d="m1255.77,88.94c0,6.68-1.45,11.77-4.36,15.27-2.91,3.5-7.17,5.2-12.76,5.09-2.91,0-5.52-.67-7.84-2.02-2.32-1.35-4.1-3.56-5.33-6.63-1.24-3.07-1.86-7.3-1.86-12.68v-41.36h-21.33v45.73c0,8.62,1.16,15.65,3.47,21.08,2.32,5.44,5.74,9.45,10.26,12.04,4.52,2.58,10.02,3.88,16.48,3.88s11.47-1.59,16-4.77c2.96-2.08,5.49-4.76,7.62-8.03l.94,10.86h20.04V46.6h-21.33v42.33Z"/>
    <path class="cls-1" d="m1354.57,94.51c-1.45-3.5-3.77-6.68-6.95-9.53-3.18-2.85-7.41-4.93-12.68-6.22l-10.5-2.59c-2.8-.65-4.96-1.43-6.46-2.34-1.51-.91-2.26-2.07-2.26-3.47,0-2.15.78-3.85,2.34-5.09,1.56-1.24,3.8-1.86,6.71-1.86s5.82.67,8.73,2.02c2.91,1.35,4.74,3.1,5.49,5.25l17.61-8.08c-1.19-3.55-3.34-6.68-6.46-9.37-3.13-2.69-6.87-4.79-11.23-6.3-4.36-1.51-9.08-2.26-14.14-2.26-9.8,0-17.37,2.26-22.7,6.79-5.33,4.52-8,10.93-8,19.23,0,5.82,2.23,10.96,6.71,15.43,4.47,4.47,10.58,7.73,18.34,9.78l7.43,1.94c2.69.65,4.82,1.43,6.38,2.34,1.56.92,2.34,2.34,2.34,4.28s-.97,3.42-2.91,4.44c-1.94,1.03-4.69,1.54-8.24,1.54s-6.9-.94-9.69-2.83c-2.8-1.88-5.01-4.12-6.63-6.7l-18.26,8.4c1.94,4.31,4.63,7.95,8.08,10.91,3.45,2.96,7.43,5.23,11.96,6.79,4.52,1.56,9.37,2.34,14.54,2.34,6.25,0,11.82-1.03,16.72-3.07,4.9-2.05,8.78-4.93,11.63-8.64,2.85-3.72,4.28-8,4.28-12.85,0-3.34-.73-6.76-2.18-10.26Z"/>
    <polygon class="cls-1" points="363.07 291.47 385.21 291.47 385.21 245.91 427.22 245.91 427.22 225.71 385.21 225.71 385.21 198.57 435.62 198.57 435.62 178.37 363.07 178.37 363.07 291.47"/>
    <path class="cls-1" d="m506.23,214.16c-6.36-3.61-13.68-5.41-21.97-5.41s-15.46,1.81-21.81,5.41c-6.36,3.61-11.31,8.59-14.86,14.95-3.55,6.36-5.33,13.68-5.33,21.97s1.8,15.62,5.41,21.97c3.61,6.36,8.59,11.34,14.95,14.95,6.35,3.61,13.68,5.41,21.97,5.41s15.43-1.81,21.73-5.41c6.3-3.61,11.23-8.59,14.78-14.95,3.56-6.35,5.33-13.68,5.33-21.97s-1.78-15.62-5.33-21.97c-3.56-6.35-8.51-11.33-14.86-14.95Zm-4.2,48.63c-1.72,3.39-4.07,6.06-7.03,8-2.96,1.94-6.44,2.91-10.42,2.91s-7.54-.97-10.66-2.91c-3.13-1.94-5.55-4.6-7.27-8-1.72-3.39-2.59-7.3-2.59-11.71s.86-8.32,2.59-11.71c1.72-3.39,4.12-6.06,7.19-8,3.07-1.94,6.6-2.91,10.58-2.91s7.35.97,10.42,2.91c3.07,1.94,5.47,4.6,7.19,8,1.72,3.39,2.59,7.3,2.59,11.71s-.86,8.32-2.59,11.71Z"/>
    <path class="cls-1" d="m590.89,253.02c0,6.68-1.45,11.77-4.36,15.27-2.91,3.5-7.17,5.2-12.76,5.09-2.91,0-5.52-.67-7.84-2.02-2.32-1.35-4.1-3.55-5.33-6.62-1.24-3.07-1.86-7.3-1.86-12.68v-41.36h-21.33v45.73c0,8.62,1.16,15.65,3.47,21.09,2.32,5.44,5.74,9.45,10.26,12.04,4.52,2.59,10.02,3.88,16.48,3.88s11.47-1.59,16-4.77c2.96-2.08,5.49-4.76,7.62-8.04l.94,10.86h20.04v-80.79h-21.33v42.33Z"/>
    <path class="cls-1" d="m690.1,212.62c-4.52-2.58-9.96-3.88-16.32-3.88s-11.5,1.59-16.08,4.77c-3.01,2.09-5.57,4.8-7.69,8.1l-.95-10.92h-20.04v80.79h21.33v-42.33c0-6.79,1.48-11.9,4.44-15.35,2.96-3.45,7.19-5.11,12.68-5.01,3.01,0,5.66.67,7.92,2.02,2.26,1.35,4.01,3.53,5.25,6.54,1.24,3.02,1.86,7.27,1.86,12.76v41.36h21.33v-45.73c.11-8.62-1.03-15.65-3.39-21.09-2.37-5.44-5.82-9.45-10.34-12.04Z"/>
    <path class="cls-1" d="m775.57,221.37c-1.98-2.96-4.31-5.46-7.03-7.46-4.69-3.45-10.42-5.17-17.21-5.17-7.43,0-13.87,1.72-19.31,5.17-5.44,3.45-9.67,8.32-12.68,14.62-3.02,6.3-4.52,13.81-4.52,22.54s1.51,16.1,4.52,22.46c3.01,6.36,7.24,11.26,12.68,14.7,5.44,3.45,11.88,5.17,19.31,5.17,6.79,0,12.52-1.72,17.21-5.17,2.85-2.1,5.29-4.74,7.32-7.91l.84,11.15h20.2v-113.1h-21.33v43Zm-8.97,49.58c-2.86,1.94-6.12,2.91-9.78,2.91-3.88,0-7.3-.97-10.26-2.91-2.96-1.94-5.31-4.63-7.03-8.08-1.72-3.45-2.58-7.38-2.58-11.79s.86-8.35,2.58-11.79c1.72-3.45,4.04-6.11,6.95-8,2.91-1.88,6.3-2.83,10.18-2.83s7.08.94,9.94,2.83c2.85,1.89,5.09,4.55,6.71,8,1.2,2.57,1.95,5.4,2.26,8.5v6.58c-.31,3.1-1.06,5.94-2.26,8.5-1.62,3.45-3.85,6.14-6.71,8.08Z"/>
    <path class="cls-1" d="m866.94,213.43c-5.44-3.12-12.25-4.69-20.44-4.69-6.79,0-12.52,1.05-17.21,3.15-4.69,2.1-8.48,4.79-11.39,8.08-2.91,3.29-5.12,6.65-6.62,10.1l18.74,6.46c1.94-3.12,4.31-5.44,7.11-6.95,2.8-1.51,5.92-2.26,9.37-2.26,3.77,0,6.76.94,8.97,2.83,2.21,1.89,3.82,4.55,4.85,8,.41,1.38.72,2.91.96,4.52h-18.98c-10.45,0-18.56,2.18-24.32,6.54-5.76,4.36-8.64,10.85-8.64,19.47,0,7.86,2.67,13.95,8,18.26,5.33,4.31,12.85,6.46,22.54,6.46s16.78-3.07,20.92-9.21c.47-.7.9-1.43,1.32-2.19l.37,9.46h19.87l.48-44.76c.11-7.76-1.16-14.46-3.8-20.12-2.64-5.65-6.68-10.04-12.12-13.17Zm-7.51,53.24c-1.62,2.64-3.8,4.79-6.54,6.46-2.75,1.67-5.9,2.5-9.45,2.5-3.88,0-6.9-.67-9.05-2.02-2.16-1.35-3.23-3.2-3.23-5.57,0-3.01,1.35-5.36,4.04-7.03,2.69-1.67,7.54-2.5,14.54-2.5h12.12c0,2.8-.81,5.52-2.42,8.16Z"/>
    <path class="cls-1" d="m938.11,272.97c-1.29.48-2.48.73-3.56.73-2.91,0-5.12-.89-6.62-2.67-1.51-1.78-2.26-4.39-2.26-7.84v-34.42h20.2v-18.1h-20.2v-25.21h-21.33v25.21h-13.09v18.1h13.09v39.1c0,8.19,2.29,14.49,6.87,18.9,4.58,4.42,11.33,6.62,20.28,6.62,3.12,0,6.27-.62,9.45-1.86,3.18-1.24,6.06-2.83,8.64-4.77l-7.43-16c-1.4.97-2.75,1.7-4.04,2.18Z"/>
    <path class="cls-1" d="m973.5,173.04c-3.23,0-6.09,1.21-8.56,3.64-2.48,2.42-3.72,5.31-3.72,8.64s1.24,6.22,3.72,8.64c2.48,2.42,5.33,3.63,8.56,3.63s6.22-1.21,8.64-3.63c2.42-2.42,3.64-5.3,3.64-8.64s-1.21-6.22-3.64-8.64c-2.42-2.42-5.31-3.64-8.64-3.64Z"/>
    <rect class="cls-1" x="962.83" y="210.69" width="21.33" height="80.79"/>
    <path class="cls-1" d="m1061.88,214.16c-6.36-3.61-13.68-5.41-21.97-5.41s-15.46,1.81-21.81,5.41c-6.36,3.61-11.31,8.59-14.86,14.95-3.56,6.36-5.33,13.68-5.33,21.97s1.8,15.62,5.41,21.97c3.61,6.36,8.59,11.34,14.95,14.95,6.35,3.61,13.68,5.41,21.97,5.41s15.43-1.81,21.73-5.41,11.23-8.59,14.78-14.95c3.56-6.35,5.33-13.68,5.33-21.97s-1.78-15.62-5.33-21.97c-3.55-6.35-8.51-11.33-14.86-14.95Zm-4.2,48.63c-1.72,3.39-4.07,6.06-7.03,8-2.96,1.94-6.44,2.91-10.42,2.91s-7.54-.97-10.66-2.91c-3.13-1.94-5.55-4.6-7.27-8-1.72-3.39-2.59-7.3-2.59-11.71s.86-8.32,2.59-11.71c1.72-3.39,4.12-6.06,7.19-8,3.07-1.94,6.6-2.91,10.58-2.91s7.35.97,10.42,2.91c3.07,1.94,5.47,4.6,7.19,8,1.72,3.39,2.59,7.3,2.59,11.71s-.86,8.32-2.59,11.71Z"/>
    <path class="cls-1" d="m1155.59,212.62c-4.52-2.58-9.96-3.88-16.32-3.88s-11.5,1.59-16.08,4.77c-3.01,2.09-5.57,4.8-7.69,8.1l-.95-10.92h-20.04v80.79h21.33v-42.33c0-6.79,1.48-11.9,4.44-15.35,2.96-3.45,7.19-5.11,12.68-5.01,3.01,0,5.65.67,7.92,2.02,2.26,1.35,4.01,3.53,5.25,6.54,1.24,3.02,1.86,7.27,1.86,12.76v41.36h21.33v-45.73c.11-8.62-1.02-15.65-3.39-21.09-2.37-5.44-5.82-9.45-10.34-12.04Z"/>
  </g>
</svg>