<?xml version="1.0" encoding="UTF-8"?>
<svg id="Layer_1" data-name="Layer 1" xmlns="http://www.w3.org/2000/svg" viewBox="0 0 256 256">
  <path id="Path_89" data-name="Path 89" d="m1.01,128c63.02,8.83,64.81,17.25,9.98,49.43,61.3-16.88,65.99-9.98,27.22,40.37,50.35-38.77,57.24-34.09,40.37,27.22,32.18-54.83,40.6-53.04,49.43,9.98,8.83-63.02,17.25-64.81,49.43-9.98-16.88-61.3-9.98-65.99,40.37-27.22-38.77-50.35-34.09-57.24,27.22-40.37-54.83-32.18-53.04-40.6,9.98-49.43-63.02-8.83-64.81-17.25-9.98-49.43-61.3,16.88-65.99,9.98-27.22-40.37-50.35,38.77-57.24,34.09-40.37-27.22-32.18,54.83-40.6,53.04-49.43-9.98-8.83,63.02-17.25,64.81-49.43,9.98,16.88,61.3,9.98,65.99-40.37,27.22,38.77,50.35,34.09,57.24-27.22,40.37,54.83,32.18,53.04,40.6-9.98,49.43" style="fill: #bad3d9;"/>
  <g>
    <g>
      <path d="m219.91,168.94c-.21-.41-1.7-3.71-6.71-5.81h0c-.19-1.28-.57-2.53-1.26-3.64-1.19-1.96-3.07-3.21-5.45-3.64-4.36-.77-8.32,1.02-11.17,3-4.28-19.37-19.46-36.06-40.73-44.08h0s-.03-.01-.05-.02c-.07-.03-.14-.05-.21-.08-.62-.23-1.23-.45-1.85-.66-.03,0-.05-.02-.08-.03,0,0,0,0-.01,0-29.12-10.03-53.86.79-53.86.79h0c-5.31,1.98-10.31,4.48-14.92,7.58-8.6-4.36-21.24,0-22.78.55-1,.36-1.75,1.19-2,2.21s0,2.11.7,2.89l8.15,9.24c-4.6,6.09-7.81,12.73-9.58,19.82h-.49c-7.62,0-13.84,6.22-13.84,13.84v20.54c0,7.62,6.22,13.84,13.84,13.84h12.13c4.04,4.81,8.88,9.07,14.37,12.66v13.64c0,4.02,3.28,7.3,7.3,7.3h11.96c4.02,0,7.3-3.28,7.3-7.3v-2.92c9.62,1.92,19.8,2.04,29.46.4v2.49c0,4.02,3.28,7.3,7.3,7.3h11.96c4.02,0,7.3-3.28,7.3-7.3v-12.24c18.75-11.3,29.88-29.63,29.88-49.38,0-1.26-.09-2.51-.17-3.77,1.11-1.09,3.38-3.09,6-3.85-.89.45-1.51,1-1.98,1.55-2.53,3.07-1.06,7.47-.89,7.96.11.28.23.53.4.79.77,1.09,2.94,4.09,5.87,4.09.4,0,.83-.06,1.28-.19,1.45-.43,2.41-1.47,3.02-2.66,1.06-.28,1.89-1.06,2.24-2.13.06-.19.23-.77.43-1.6.89.68,1.19,1.23,1.19,1.23.66,1.64,2.53,2.41,4.17,1.75,1.64-.66,2.41-2.53,1.75-4.17Z" style="fill: #13292b;"/>
      <path d="m161.93,214.76h0c-1,.57-1.62,1.62-1.62,2.77v14.07c0,.51-.4.92-.92.92h-11.94c-.51,0-.92-.41-.92-.92v-6.36c0-.98-.45-1.87-1.19-2.49-.77-.62-1.75-.83-2.68-.62-11.17,2.47-23.26,2.3-34.38-.51-.94-.26-1.96-.02-2.75.57-.79.6-1.23,1.53-1.23,2.51v6.9c0,.51-.4.92-.92.92h-11.96c-.51,0-.92-.4-.92-.92v-15.39c0-1.11-.57-2.13-1.51-2.72-5.96-3.7-11.09-8.19-15.24-13.39-.6-.77-1.53-1.19-2.49-1.19h-13.64c-4.11,0-7.45-3.34-7.45-7.45v-20.54c0-4.11,3.34-7.45,7.45-7.45h3.02c1.51,0,2.83-1.06,3.13-2.55,1.57-7.85,5.13-15.16,10.54-21.71,1-1.21.98-2.96-.06-4.15l-6.53-7.41c4.56-.94,10.71-1.45,14.09,1.09,1.11.83,2.64.85,3.77.04,5.82-4.16,12.38-7.3,19.46-9.44.01-.02.02-.03.04-.05,19.1-5.86,36.31-2.07,44.03.32.03.01.05.02.07.02.14.04.27.09.41.13,24.33,8,40.64,28.13,40.64,50.23-.02,17.98-10.58,34.74-28.29,44.78Z" style="fill: #fff;"/>
      <path d="m85.08,151.84c-4.24,0-7.68,3.45-7.68,7.68s3.45,7.68,7.68,7.68,7.66-3.47,7.66-7.68-3.45-7.68-7.66-7.68Zm0,8.96c-.7,0-1.3-.57-1.3-1.3s.57-1.3,1.3-1.3,1.28.6,1.28,1.32-.57,1.28-1.28,1.28Z" style="fill: #13292b;"/>
      <path d="m146.12,131.12c-5.14-4.1-11.38-6.5-18.12-6.5-6.74,0-12.98,2.4-18.12,6.5" style="fill: none; stroke: #012626; stroke-linecap: round; stroke-linejoin: round; stroke-width: 10px;"/>
    </g>
    <path d="m103.51,75.28h-6.12c-.81,0-1.59.32-2.16.9-.57.57-.9,1.35-.9,2.16,0,7.3,2.91,14.31,8.08,19.47,5.16,5.16,12.17,8.07,19.47,8.08h3.06v18.73h6.12v-18.73h3.06c7.3,0,14.31-2.91,19.47-8.08,5.16-5.16,8.07-12.17,8.08-19.47,0-.81-.32-1.59-.9-2.16-.57-.57-1.35-.9-2.16-.9h-6.12c-4.11,0-8.17.92-11.88,2.7-3.71,1.78-6.97,4.36-9.55,7.57v-13.33h3.06c7.3,0,14.31-2.91,19.47-8.08,5.16-5.16,8.07-12.17,8.08-19.47,0-.81-.32-1.59-.9-2.16-.57-.57-1.35-.9-2.16-.9h-6.12c-4.11,0-8.17.92-11.88,2.7-3.71,1.78-6.97,4.36-9.55,7.57v-10.27c5.68,0,11.13-2.27,15.14-6.28s6.28-9.46,6.28-15.14c0-.81-.32-1.59-.9-2.16-.57-.57-1.35-.9-2.16-.9h-3.06c-7.53.01-14.51,3.98-18.37,10.45-3.86-6.47-10.83-10.43-18.37-10.45h-3.06c-.81,0-1.59.32-2.16.9-.57.57-.9,1.35-.9,2.16,0,5.68,2.27,11.13,6.28,15.14,4.02,4.02,9.46,6.28,15.14,6.28v10.27c-2.58-3.21-5.84-5.79-9.55-7.57-3.71-1.78-7.77-2.7-11.88-2.7h-6.12c-.81,0-1.59.32-2.16.9-.57.57-.9,1.35-.9,2.16,0,7.3,2.91,14.31,8.08,19.47s12.17,8.07,19.47,8.08h3.06v13.33c-2.58-3.21-5.84-5.79-9.55-7.57-3.71-1.78-7.77-2.7-11.88-2.7h0Z" style="fill: #13292b;"/>
    <path d="m146.06,23.24c-.7,3.4-2.53,6.47-5.2,8.69-2.67,2.22-6.02,3.48-9.49,3.55.7-3.4,2.53-6.47,5.2-8.69,2.67-2.22,6.02-3.48,9.49-3.55Z" style="fill: #fff;"/>
    <path d="m109.94,23.24c3.47.07,6.82,1.33,9.49,3.55,2.67,2.23,4.5,5.29,5.2,8.69-3.47-.07-6.82-1.33-9.49-3.55-2.67-2.23-4.5-5.29-5.2-8.69h0Z" style="fill: #fff;"/>
    <path d="m121.88,99.77c-5.15,0-10.13-1.87-14.02-5.24-3.89-3.37-6.44-8.03-7.19-13.13h2.84c5.15,0,10.13,1.87,14.02,5.24,3.89,3.37,6.44,8.03,7.19,13.13h-2.84Z" style="fill: #fff;"/>
    <path d="m152.49,81.4h2.84c-.74,5.1-3.29,9.76-7.19,13.13-3.89,3.37-8.87,5.23-14.02,5.24h-2.84c.74-5.1,3.29-9.76,7.19-13.13,3.89-3.37,8.87-5.23,14.02-5.24Z" style="fill: #fff;"/>
    <path d="m152.49,47.73h2.84c-.74,5.1-3.29,9.76-7.19,13.13-3.89,3.37-8.87,5.23-14.02,5.24h-2.84c.74-5.1,3.29-9.76,7.19-13.13,3.89-3.37,8.87-5.23,14.02-5.24Z" style="fill: #fff;"/>
    <path d="m121.88,66.1c-5.15,0-10.13-1.87-14.02-5.24-3.89-3.37-6.44-8.03-7.19-13.13h2.84c5.15,0,10.13,1.87,14.02,5.24,3.89,3.37,6.44,8.03,7.19,13.13h-2.84Z" style="fill: #fff;"/>
  </g>
</svg>