<?xml version="1.0" encoding="UTF-8"?>
<svg id="Layer_1" data-name="Layer 1" xmlns="http://www.w3.org/2000/svg" xmlns:xlink="http://www.w3.org/1999/xlink" viewBox="0 0 256 256">
  <defs>
    <style>
      .cls-1, .cls-2 {
        fill: none;
      }

      .cls-3 {
        fill: #4d7343;
      }

      .cls-2 {
        clip-path: url(#clippath);
      }
    </style>
    <clipPath id="clippath">
      <rect class="cls-1" x="1" y="1.3" width="254" height="253.4"/>
    </clipPath>
  </defs>
  <g class="cls-2">
    <g id="Group_10" data-name="Group 10">
      <path id="Path_73" data-name="Path 73" class="cls-3" d="m79.96,106.86H27.61c-14.7,0-26.61-11.92-26.61-26.61V27.91c0-14.7,11.92-26.61,26.61-26.61h52.34c14.7,0,26.61,11.91,26.61,26.61v52.33c0,14.7-11.92,26.61-26.61,26.61m171.37,125.75l-90.35-90.35h56.74c7.2-.23,12.85-6.24,12.62-13.44-.22-6.88-5.74-12.4-12.62-12.62h-88.2c-7.2,0-13.04,5.84-13.04,13.04v88.19c.23,7.2,6.24,12.85,13.44,12.62,6.88-.22,12.4-5.74,12.62-12.62v-56.76l90.35,90.35h0c5.18,4.99,13.43,4.84,18.42-.34,4.86-5.04,4.87-13.02.01-18.07h0Z"/>
    </g>
  </g>
</svg>