<?xml version="1.0" encoding="UTF-8"?>
<svg id="Layer_1" data-name="Layer 1" xmlns="http://www.w3.org/2000/svg" xmlns:xlink="http://www.w3.org/1999/xlink" viewBox="0 0 256 256">
  <defs>
    <style>
      .cls-1, .cls-2 {
        fill: none;
      }

      .cls-3 {
        fill: #4d7343;
      }

      .cls-2 {
        clip-path: url(#clippath);
      }
    </style>
    <clipPath id="clippath">
      <rect class="cls-1" x="9.29" y="1" width="237.42" height="254"/>
    </clipPath>
  </defs>
  <g id="Group_15" data-name="Group 15">
    <g class="cls-2">
      <g id="Group_14" data-name="Group 14">
        <path id="Path_82" data-name="Path 82" class="cls-3" d="m246.71,162.76c-.09-14.8-9.21-28.04-22.99-33.42V13.83c-.08-7.09-5.88-12.77-12.97-12.7-6.98.07-12.62,5.72-12.7,12.7v115.5c-18.46,7.06-27.69,27.75-20.63,46.21,3.63,9.49,11.14,17,20.63,20.63v45.99c-.08,7.09,5.61,12.9,12.7,12.97s12.9-5.61,12.97-12.7c0-.09,0-.18,0-.27v-45.99c13.91-5.22,23.09-18.56,22.99-33.42m-35.83,9.89c-5.46,0-9.89-4.43-9.89-9.89s4.43-9.89,9.89-9.89,9.89,4.43,9.89,9.89c.1,5.36-4.16,9.79-9.51,9.89-.13,0-.25,0-.38,0"/>
        <path id="Path_83" data-name="Path 83" class="cls-3" d="m140.83,59.82V13.83c-.08-7.09-5.88-12.77-12.97-12.7-6.98.07-12.62,5.72-12.7,12.7v45.99c-18.46,7.06-27.69,27.75-20.63,46.21,3.63,9.49,11.14,17,20.63,20.63v115.5c-.08,7.09,5.61,12.9,12.7,12.97s12.9-5.61,12.97-12.7c0-.09,0-.18,0-.27v-115.5c18.46-7.06,27.69-27.75,20.63-46.21-3.63-9.49-11.14-17-20.63-20.63m-12.83,43.32c-5.46,0-9.89-4.43-9.89-9.89s4.43-9.89,9.89-9.89,9.89,4.43,9.89,9.89c.01,5.45-4.39,9.88-9.84,9.89-.02,0-.03,0-.05,0"/>
        <path id="Path_84" data-name="Path 84" class="cls-3" d="m57.95,129.34V13.83c.08-7.09-5.61-12.9-12.7-12.97-7.09-.08-12.9,5.61-12.97,12.7,0,.09,0,.18,0,.28v115.5c-18.46,7.06-27.69,27.75-20.63,46.21,3.63,9.49,11.14,17,20.63,20.63v45.99c-.08,7.09,5.61,12.9,12.7,12.97s12.9-5.61,12.97-12.7c0-.09,0-.18,0-.28v-45.99c18.46-7.06,27.69-27.75,20.63-46.21-3.63-9.49-11.14-17-20.63-20.63Zm-12.83,43.31c-5.46,0-9.89-4.43-9.89-9.89,0-5.46,4.43-9.89,9.89-9.89s9.89,4.43,9.89,9.89c.01,5.45-4.39,9.88-9.84,9.89-.02,0-.03,0-.05,0"/>
      </g>
    </g>
  </g>
</svg>