<?xml version="1.0" encoding="UTF-8"?>
<svg id="Layer_1" data-name="Layer 1" xmlns="http://www.w3.org/2000/svg" xmlns:xlink="http://www.w3.org/1999/xlink" viewBox="0 0 256 256">
  <defs>
    <style>
      .cls-1, .cls-2 {
        fill: none;
      }

      .cls-3 {
        fill: #4d7343;
      }

      .cls-2 {
        clip-path: url(#clippath);
      }
    </style>
    <clipPath id="clippath">
      <rect class="cls-1" x="1" y="3.99" width="254" height="248.01"/>
    </clipPath>
  </defs>
  <g id="Group_17" data-name="Group 17">
    <g class="cls-2">
      <g id="Group_16" data-name="Group 16">
        <path id="Path_85" data-name="Path 85" class="cls-3" d="m136.14,222.03c2.52,5.5,6.54,10.19,11.59,13.53,2.79,1.84,6.04,2.87,9.39,2.96,1.95,0,3.88-.43,5.65-1.27,8.8-4.23,10.9-17.53,4.77-30.3-2.52-5.5-6.54-10.19-11.59-13.53-4.37-3.16-10.08-3.8-15.04-1.68-8.8,4.23-10.9,17.53-4.77,30.3h0Zm8-23.57h0c.75-.36,1.58-.54,2.41-.53,1.95.11,3.83.74,5.45,1.82,3.83,2.6,6.88,6.2,8.81,10.41,4.54,9.44,2.97,18.3-1.28,20.34-2.68.87-5.61.39-7.86-1.29-3.83-2.6-6.88-6.2-8.81-10.41-4.53-9.44-2.97-18.3,1.28-20.34Z"/>
        <path id="Path_86" data-name="Path 86" class="cls-3" d="m230.36,134.12c-18.5-10.89-40.3-8.47-49.36,5.3l-12.1-7.12,60.8-55.43,25.29-23.06L209.58,3.99l-80.47,73.38C92.56,8.53,60.21,9.57,58.79,9.64c-2.06.12-3.63,1.88-3.51,3.94.03.49.15.96.36,1.4l33.93,70.65L24.89,47.58c-1.78-1.05-4.06-.45-5.11,1.32-.25.42-.41.88-.48,1.36-.2,1.37-3.79,32.55,58.58,73.79L1,194.16l45.42,49.82,56.59-51.6h0l18.09-16.5h0l8.21-7.48,4.73,9.86c-14.48,7.8-18.75,29.35-9.44,48.73,7.42,15.45,21.3,25.02,34.3,25.02,3.68.02,7.33-.8,10.65-2.38,15.27-7.33,19.95-29.42,10.44-49.23-4.18-9.09-11.19-16.59-19.99-21.35l-14.55-30.32c1.82-.5,3.16-.83,4.1-1.04l30.04,17.67c4.01,9.17,10.89,16.79,19.6,21.71,7.26,4.36,15.54,6.72,24.01,6.83,11.08,0,20.89-4.51,25.95-13.08,8.57-14.61.14-35.56-18.79-46.7h0Zm-21.27-119.59l35.36,38.79-17.02,15.52-17.69-19.4h0c-1.39-1.52-3.75-1.63-5.27-.24-1.52,1.39-1.63,3.75-.24,5.27h0l17.67,19.39-12.58,11.47-12.07-13.24c-1.36-1.55-3.72-1.7-5.27-.34-1.55,1.36-1.7,3.72-.34,5.27.03.04.06.07.09.1l12.07,13.24-12.58,11.47-12.07-13.24c-1.4-1.51-3.76-1.61-5.27-.21-1.5,1.39-1.61,3.72-.24,5.24l12.07,13.24-12.58,11.47-17.68-19.4c-1.4-1.51-3.76-1.61-5.27-.21-1.5,1.39-1.61,3.72-.24,5.24l17.69,19.39-5.45,4.97-10.91-6.42c-5.16-10.56-11.23-22.87-18.1-36.69-.17-.34-.34-.66-.51-1L209.09,14.54ZM27.49,57.76l67.88,39.93,19.31,40.2c-6.61-3.98-14.04-8.47-22.42-13.55C42.13,93.92,30.25,69,27.49,57.76h0Zm91.36,110.08l-17.68-19.39c-1.38-1.53-3.74-1.66-5.27-.28-1.53,1.38-1.66,3.74-.28,5.27.01.01.02.02.03.04l17.68,19.39-12.58,11.47-12.07-13.24h0c-1.38-1.53-3.74-1.66-5.27-.28-1.53,1.38-1.66,3.74-.28,5.27.01.01.02.02.03.04l12.07,13.24-12.58,11.47-12.07-13.24h0c-1.35-1.56-3.71-1.73-5.26-.38-1.56,1.35-1.73,3.71-.38,5.26.04.05.09.1.13.15l12.07,13.24-12.58,11.47-17.69-19.39c-1.4-1.51-3.76-1.61-5.27-.21-1.5,1.39-1.61,3.72-.24,5.24l17.67,19.39-12.12,11.05-35.36-38.78,72.83-66.4c1.33.83,2.63,1.66,4.01,2.5,12.77,7.73,23.35,14.12,32.16,19.39l5.4,11.25-7.1,6.47Zm36.77,17.34h0c7.79,3.98,14.01,10.47,17.65,18.43,7.73,16.11,4.62,33.73-6.94,39.28-11.56,5.55-27.26-3.03-35-19.14-7.74-16.11-4.62-33.73,6.94-39.28h0c.65-.31,1.31-.57,1.99-.79,1.96-.65,3.02-2.76,2.37-4.71-.05-.15-.11-.3-.18-.45l-15.63-32.57-.03-.07-25.16-52.4-.03-.06L65.58,18.43c10.99,3.7,34.8,17.64,60.9,70.13,7.14,14.36,13.43,27.11,18.7,37.92h0c-2.99,6.71-5.61,13.59-7.85,20.58-.21.84-.12,1.73.26,2.51l16.25,33.86c.37.77,1,1.4,1.78,1.76h0Zm87.11-8.15c-6.52,11.05-24.34,12.67-39.74,3.61h0c-7.62-4.29-13.57-11.03-16.88-19.13-.3-.8-.87-1.48-1.61-1.92l-32.35-19.05c-.74-.44-1.62-.61-2.47-.47-.61.1-1.36.25-2.18.44,1.33-3.41,2.84-7.06,4.01-9.8l29.08,17.11c1.78,1.04,4.06.45,5.11-1.33.08-.13.15-.27.21-.41.28-.66.6-1.3.95-1.93,6.52-11.05,24.34-12.67,39.74-3.61,15.4,9.06,22.63,25.43,16.14,36.48h0Z"/>
        <path id="Path_87" data-name="Path 87" class="cls-3" d="m224.46,145.18c-12.2-7.18-25.63-6.21-30.59,2.21h0c-2.52,4.77-2.36,10.5.42,15.13,5.95,10.41,16.83,17.02,28.81,17.49,5.68.4,11.13-2.28,14.28-7.01,2.52-4.77,2.36-10.5-.42-15.13-2.9-5.31-7.24-9.71-12.51-12.69h0Zm6.49,24.03c-2.39,4.05-11.34,4.87-20.37-.44h0c-4.04-2.27-7.38-5.61-9.65-9.65-1.49-2.39-1.73-5.35-.63-7.95,1.9-2.39,4.89-3.63,7.92-3.3,9.15.46,17.45,5.49,22.09,13.38,1.49,2.39,1.73,5.35.64,7.95h0Z"/>
        <path id="Path_88" data-name="Path 88" class="cls-3" d="m128.73,121.56c-2.75-.09-5.05,2.06-5.15,4.81-.09,2.75,2.06,5.05,4.8,5.15,2.75.09,5.05-2.06,5.15-4.81.03-.91-.19-1.82-.64-2.61-.85-1.51-2.43-2.48-4.17-2.54"/>
      </g>
    </g>
  </g>
</svg>