<?xml version="1.0" encoding="UTF-8"?>
<svg id="Layer_1" data-name="Layer 1" xmlns="http://www.w3.org/2000/svg" viewBox="0 0 256 256">
  <path id="Path_89" data-name="Path 89" d="M2,127.99c63.02,8.83,64.81,17.25,9.98,49.43,61.3-16.88,65.99-9.98,27.22,40.37,50.35-38.77,57.24-34.09,40.37,27.22,32.18-54.83,40.6-53.04,49.43,9.98,8.83-63.02,17.25-64.81,49.43-9.98-16.88-61.3-9.98-65.99,40.37-27.22-38.77-50.35-34.09-57.24,27.22-40.37-54.83-32.18-53.04-40.6,9.98-49.43-63.02-8.83-64.81-17.25-9.98-49.43-61.3,16.88-65.99,9.98-27.22-40.37-50.35,38.77-57.24,34.09-40.37-27.22-32.18,54.83-40.6,53.04-49.43-9.98-8.83,63.02-17.25,64.81-49.43,9.98,16.88,61.3,9.98,65.99-40.37,27.22,38.77,50.35,34.09,57.24-27.22,40.37,54.83,32.18,53.04,40.6-9.98,49.43" style="fill: #bad3d9; stroke-width: 0px;"/>
  <path id="Path_90" data-name="Path 90" d="M231.67,129.54l-101.82-94.97c-.48-.45-1.23-.45-1.72,0L26.31,129.54c-.51.47-.54,1.27-.06,1.78,0,0,0,0,0,0l5.95,6.38c.47.51,1.27.54,1.78.06,0,0,0,0,0,0l10.83-10.1c.51-.47,1.3-.45,1.78.06.22.23.34.54.34.86v64.88c0,.7.56,1.26,1.26,1.26h161.63c.7,0,1.26-.56,1.26-1.26v-64.88c0-.7.56-1.26,1.26-1.26.32,0,.63.12.86.34l10.83,10.1c.51.47,1.3.45,1.78-.06h0s5.95-6.38,5.95-6.38c.47-.51.45-1.3-.06-1.78h0" style="fill: #4d7343; stroke-width: 0px;"/>
  <path id="Path_91" data-name="Path 91" d="M199.83,115.92v66.3c0,.7-.56,1.26-1.26,1.26h-46.83c-.7,0-1.26-.56-1.26-1.26v-63.23c0-.7-.56-1.26-1.26-1.26h-40.45c-.7,0-1.26.56-1.26,1.26v63.23c0,.69-.56,1.26-1.26,1.26h-46.84c-.7,0-1.26-.56-1.26-1.26v-66.3c0-.35.14-.68.4-.92l69.58-65.05c.48-.45,1.24-.45,1.72,0l69.58,65.05c.25.24.4.57.4.92" style="fill: #fff; stroke-width: 0px;"/>
  <rect x="2" y="1" width="254" height="254" style="fill: none; stroke-width: 0px;"/>
</svg>