<?xml version="1.0" encoding="UTF-8"?>
<svg id="Layer_1" data-name="Layer 1" xmlns="http://www.w3.org/2000/svg" xmlns:xlink="http://www.w3.org/1999/xlink" viewBox="0 0 256 256">
  <defs>
    <style>
      .cls-1, .cls-2 {
        fill: none;
      }

      .cls-3 {
        fill: #4d7343;
      }

      .cls-2 {
        clip-path: url(#clippath);
      }
    </style>
    <clipPath id="clippath">
      <rect class="cls-1" x="26.18" y="1" width="203.65" height="254"/>
    </clipPath>
  </defs>
  <g class="cls-2">
    <g id="Group_12" data-name="Group 12">
      <path id="Path_74" data-name="Path 74" class="cls-3" d="m128.39,35.95c4.84-.04,8.76-3.96,8.8-8.8V9.8c0-4.86-3.94-8.81-8.81-8.81s-8.81,3.94-8.81,8.81v17.61c.06,4.78,3.99,8.6,8.77,8.54.01,0,.02,0,.03,0h0Z"/>
      <path id="Path_75" data-name="Path 75" class="cls-3" d="m47.28,95.98h17.61c4.86,0,8.81-3.94,8.81-8.81s-3.94-8.81-8.81-8.81h-17.61c-4.84.04-8.76,3.96-8.8,8.8-.05,4.81,3.81,8.75,8.62,8.81.06,0,.12,0,.18,0Z"/>
      <path id="Path_76" data-name="Path 76" class="cls-3" d="m183.09,87.45c.04,4.84,3.96,8.76,8.8,8.8h17.61c4.86,0,8.81-3.94,8.81-8.81s-3.94-8.81-8.81-8.81h-17.61c-4.81-.05-8.75,3.81-8.8,8.62,0,.06,0,.12,0,.19"/>
      <path id="Path_77" data-name="Path 77" class="cls-3" d="m78.77,50.09c1.64,1.63,3.83,2.58,6.14,2.67,2.33.03,4.57-.94,6.14-2.67,3.39-3.28,3.48-8.68.2-12.07-.07-.07-.13-.14-.2-.2l-12.54-12.54c-3.39-3.39-8.88-3.39-12.27,0-3.39,3.39-3.39,8.88,0,12.27l12.54,12.54Z"/>
      <path id="Path_78" data-name="Path 78" class="cls-3" d="m171.88,52.49c2.33.03,4.57-.94,6.14-2.67l12.54-12.54c3.39-3.39,3.39-8.88,0-12.27-3.39-3.39-8.88-3.39-12.27,0h0l-12.54,12.54c-3.39,3.28-3.48,8.68-.2,12.07.07.07.13.14.2.2,1.57,1.73,3.8,2.71,6.14,2.67h0Z"/>
      <path id="Path_79" data-name="Path 79" class="cls-3" d="m209.5,129.87c-2.18,6.38-4.76,12.62-7.74,18.68,1.87,5.07,1.87,11.47-1.87,18.68-1.03,1.86-2.19,3.64-3.47,5.34-3.93,5.18-8.21,10.08-12.81,14.67l-1.07,1.07c-1.24,1.32-3.2,1.65-4.8.8-1.67-1.1-2.13-3.35-1.03-5.02.07-.11.15-.21.23-.31.27-.53.8-.8,1.07-1.34,6.4-6.94,12.27-13.34,14.94-18.41,4.8-9.34,1.6-15.48-2.93-18.14-3.73-2.13-9.07-2.13-11.74,2.13-4.58,6.61-9.67,12.86-15.21,18.68-6.4,7.2-12.54,14.67-16.01,20.54-4.01,6.67-9.07,22.42-10.14,39.22-.53,8.27-.8,17.34-.8,23.21-.11,2.83,2.09,5.22,4.92,5.33.05,0,.1,0,.15,0h32.82c2.8,0,5.07-2.27,5.07-5.06h0v-9.34c.02-2.23,1.12-4.31,2.93-5.6,10.51-7.16,20.18-15.48,28.82-24.81,13.34-15.74,18.41-61.9,18.94-75.77,1.07-14.41-16.27-17.61-20.28-4.54h0Z"/>
      <path id="Path_80" data-name="Path 80" class="cls-3" d="m109.46,186.96c-3.47-5.87-9.87-13.61-16.01-20.54-5.55-5.82-10.63-12.07-15.21-18.68-2.93-4.27-8-4.27-11.74-2.13-4.54,2.67-7.74,8.8-2.93,18.14,2.67,5.07,8.54,11.47,14.94,18.41.27.53.8.8,1.07,1.34,1.28,1.52,1.08,3.79-.44,5.07-.11.1-.24.19-.36.27-1.58.96-3.62.62-4.8-.8l-1.07-1.07c-5.07-5.34-9.34-10.41-12.81-14.67-1.34-1.87-2.4-3.73-3.47-5.34-3.73-7.2-3.73-13.61-1.87-18.68-3.02-6.03-5.61-12.27-7.74-18.68-4.01-12.81-21.61-9.6-20.81,4.01.8,13.87,5.6,60.03,18.94,75.77,6.14,7.2,17.07,16.81,28.82,24.81,1.87,1.25,2.97,3.36,2.93,5.6v9.33c0,2.8,2.27,5.07,5.06,5.07h32.82c2.83-.03,5.1-2.35,5.07-5.19,0-.05,0-.1,0-.15-.27-5.6-.53-14.94-.8-23.21-.53-16.28-5.6-32.02-9.6-38.69h0Z"/>
      <path id="Path_81" data-name="Path 81" class="cls-3" d="m141.2,157.35v-45.36c12.76-7.07,17.37-23.15,10.29-35.91-7.07-12.76-23.15-17.37-35.91-10.29-12.76,7.07-17.37,23.15-10.29,35.91,2.4,4.33,5.97,7.9,10.29,10.29v12.01c.06.57.24,1.11.53,1.6l7.74,7.74-6.67,6.93c-.8.92-.8,2.28,0,3.2l6.67,6.67-6.67,6.94c-.8.92-.8,2.28,0,3.2l9.87,9.87c.92.8,2.28.8,3.2,0l10.67-10.67c0-1.07.27-1.6.27-2.13h0Zm-12.81-69.9c-4.13,0-7.47-3.34-7.47-7.47,0-4.13,3.35-7.47,7.47-7.47,4.13,0,7.47,3.35,7.47,7.47h0c-.09,4.09-3.38,7.38-7.47,7.47"/>
    </g>
  </g>
</svg>