<?xml version="1.0" encoding="UTF-8"?>
<svg id="Layer_1" data-name="Layer 1" xmlns="http://www.w3.org/2000/svg" xmlns:xlink="http://www.w3.org/1999/xlink" viewBox="0 0 256 256">
  <defs>
    <style>
      .cls-1, .cls-2 {
        fill: none;
      }

      .cls-3 {
        fill: #012626;
      }

      .cls-4 {
        fill: #fff;
      }

      .cls-5 {
        fill: #bad3d9;
      }

      .cls-2 {
        clip-path: url(#clippath);
      }
    </style>
    <clipPath id="clippath">
      <rect class="cls-1" x="2" y="1" width="254" height="254"/>
    </clipPath>
  </defs>
  <g class="cls-2">
    <g id="Group_26" data-name="Group 26">
      <path id="Path_89" data-name="Path 89" class="cls-5" d="m2,127.99c63.02,8.83,64.81,17.25,9.98,49.43,61.3-16.88,65.99-9.98,27.22,40.37,50.35-38.77,57.24-34.09,40.37,27.22,32.18-54.83,40.6-53.04,49.43,9.98,8.83-63.02,17.25-64.81,49.43-9.98-16.88-61.3-9.98-65.99,40.37-27.22-38.77-50.35-34.09-57.24,27.22-40.37-54.83-32.18-53.04-40.6,9.98-49.43-63.02-8.83-64.81-17.25-9.98-49.43-61.3,16.88-65.99,9.98-27.22-40.37-50.35,38.77-57.24,34.09-40.37-27.22-32.18,54.83-40.6,53.04-49.43-9.98-8.83,63.02-17.25,64.81-49.43,9.98,16.88,61.3,9.98,65.99-40.37,27.22,38.77,50.35,34.09,57.24-27.22,40.37,54.83,32.18,53.04,40.6-9.98,49.43"/>
      <path id="Path_90" data-name="Path 90" class="cls-3" d="m202.61,125.27l-73-68.09c-.35-.32-.88-.32-1.23,0L55.38,125.27c-.36.34-.38.91-.04,1.28,0,0,0,0,0,0l4.26,4.57c.34.36.91.38,1.28.04,0,0,0,0,0,0l7.76-7.24c.36-.34.94-.32,1.28.04.16.17.24.39.24.62v46.51c0,.5.4.9.9.9h115.87c.5,0,.9-.4.9-.9v-46.51c0-.5.4-.9.9-.9.23,0,.45.09.62.24l7.76,7.24c.36.34.94.32,1.28-.04h0s4.26-4.57,4.26-4.57c.34-.36.32-.94-.04-1.28h0"/>
      <path id="Path_91" data-name="Path 91" class="cls-4" d="m179.77,115.51v47.53c0,.5-.4.9-.9.9h-33.58c-.5,0-.9-.4-.9-.9v-45.33c0-.5-.4-.9-.9-.9h-29c-.5,0-.9.4-.9.9v45.33c0,.5-.4.9-.9.9h-33.58c-.5,0-.9-.4-.9-.9v-47.53c0-.25.1-.49.29-.66l49.88-46.64c.35-.32.89-.32,1.23,0l49.88,46.64c.18.17.29.41.29.66"/>
    </g>
  </g>
</svg>