<?xml version="1.0" encoding="UTF-8"?>
<svg id="Layer_2" xmlns="http://www.w3.org/2000/svg" viewBox="0 0 800 600">
  <line x1="87.02" y1="67.96" x2="710.89" y2="67.96" style="fill: none; stroke: gray; stroke-miterlimit: 10; stroke-width: 1.24px;"/>
  <line x1="87.02" y1="532.93" x2="710.89" y2="532.93" style="fill: none; stroke: gray; stroke-miterlimit: 10; stroke-width: 1.24px;"/>
  <line x1="187.5" y1="577.05" x2="187.5" y2="17.62" style="fill: none; stroke: #a9d962; stroke-dasharray: 7.42 7.42; stroke-miterlimit: 10; stroke-width: 1.24px;"/>
  <line x1="612.4" y1="577.05" x2="612.4" y2="17.62" style="fill: none; stroke: #a9d962; stroke-dasharray: 7.42 7.42; stroke-miterlimit: 10; stroke-width: 1.24px;"/>
  <line x1="137.26" y1="577.05" x2="137.26" y2="17.62" style="fill: none; stroke: gray; stroke-miterlimit: 10; stroke-width: 1.24px;"/>
  <line x1="663.04" y1="577.05" x2="663.04" y2="17.62" style="fill: none; stroke: gray; stroke-miterlimit: 10; stroke-width: 1.24px;"/>
  <polygon points="372.86 531.94 382.39 531.94 382.39 512.35 400.46 512.35 400.46 503.66 382.39 503.66 382.39 491.98 404.07 491.98 404.07 483.3 372.86 483.3 372.86 531.94" style="fill: #a9d962;"/>
  <polygon points="372.86 117.45 382.39 117.45 382.39 97.85 400.46 97.85 400.46 89.16 382.39 89.16 382.39 77.49 404.07 77.49 404.07 68.8 372.86 68.8 372.86 117.45" style="fill: #a9d962;"/>
  <polygon points="186.85 258.92 186.85 249.4 167.25 249.4 167.25 231.33 158.56 231.33 158.56 249.4 146.88 249.4 146.88 227.72 138.2 227.72 138.2 258.92 186.85 258.92" style="fill: #a9d962;"/>
  <polygon points="661.49 258.92 661.49 249.4 641.89 249.4 641.89 231.33 633.2 231.33 633.2 249.4 621.53 249.4 621.53 227.72 612.84 227.72 612.84 258.92 661.49 258.92" style="fill: #a9d962;"/>
  <line x1="87.02" y1="483.44" x2="710.89" y2="483.44" style="fill: none; stroke: #a9d962; stroke-dasharray: 7.42 7.42; stroke-miterlimit: 10; stroke-width: 1.24px;"/>
  <line x1="87.02" y1="116.28" x2="710.89" y2="116.28" style="fill: none; stroke: #a9d962; stroke-dasharray: 7.42 7.42; stroke-miterlimit: 10; stroke-width: 1.24px;"/>
  <g>
    <path d="M475.42,116.28h17.83c.92,0,1.57.92,1.24,1.79-2.53,6.64-9.73,22.48-26.96,34.55-.92.64-2.18-.08-2.08-1.2,1.82-20.47,6.86-30.89,8.82-34.46.23-.42.68-.68,1.16-.68Z" style="fill: #a9d962;"/>
    <path d="M459.82,118.14c-2.66,5.99-4.68,12.61-6.18,19.55-.22,1.04-1.51,1.41-2.25.64-2.83-2.97-8.21-9.59-12.52-20.24-.35-.87.29-1.81,1.23-1.81h18.51c.96,0,1.59.99,1.2,1.86Z" style="fill: #78a658;"/>
    <path d="M371.58,116.28h8.31c.74,0,1.34.61,1.32,1.36-.83,33.41,1.64,63.67,3.25,81.02.08.91-.75,1.62-1.64,1.4-4.21-1.06-14.61-3.7-22.21-5.8-.41-.11-.75-.42-.89-.83-2.59-7.26-9.25-26.5-11.56-34.21-.18-.61.1-1.25.66-1.55,12.39-6.52,19.02-23.38,21.46-40.26.09-.65.65-1.14,1.31-1.14Z" style="fill: #4d7343;"/>
    <path d="M364.81,117.86c-1.58,7.93-6.18,25.51-17.31,32.47-.76.48-1.76.06-1.98-.8-3.3-13.13-5.07-24.69-5.82-31.79-.08-.78.53-1.46,1.31-1.46h22.5c.83,0,1.46.76,1.3,1.58Z" style="fill: #78a658;"/>
    <path d="M296.1,116.28h30.82c.71,0,1.29.56,1.32,1.27.36,8.52,1.3,16.99,2.66,25.4.15.9-.64,1.68-1.55,1.52-14.39-2.64-25.66-5.95-33.77-9.36-.49-.21-.8-.69-.8-1.22v-16.28c0-.73.59-1.32,1.32-1.32Z" style="fill: #a9d962;"/>
    <path d="M296.62,143.04c12.94,5.6,28.06,9.26,35.49,10.87.51.11.9.51,1.01,1.02,2.19,10.59,4.95,21.07,7.97,31.45.29,1.01-.65,1.95-1.66,1.63-8.37-2.61-29.97-9.58-43.98-17.45-.41-.23-.67-.67-.67-1.15v-25.17c0-.95.97-1.59,1.84-1.21Z" style="fill: #78a658;"/>
    <path d="M294.78,324.29v-36.33c0-.95.97-1.59,1.84-1.21,9.56,4.14,43.64,17.51,101.92,18.25.63,0,1.16.45,1.28,1.07,1.15,6,2.34,11.98,3.57,17.96.17.82-.46,1.59-1.29,1.59h-106c-.73,0-1.32-.59-1.32-1.32Z" style="fill: #bad3d9;"/>
    <path d="M503.59,247.35c-5.64,4.35-11.61,8.36-17.75,12.03-.84.5-1.91-.04-2-1.01-.64-6.94-1.19-30.16,17.97-50.93.82-.89,2.3-.32,2.3.89v37.97c0,.41-.19.8-.51,1.05Z" style="fill: #a9d962;"/>
    <path d="M503.75,157.1c-8.4,8.93-19.95,17.42-36.69,25.23-.85.39-1.83-.19-1.88-1.12-.33-5.79-.49-11.77-.37-17.77,0-.45.25-.87.64-1.1,4.31-2.62,26.23-16.88,34.64-45.1.17-.56.68-.95,1.27-.95h1.43c.73,0,1.32.59,1.32,1.32v38.59c0,.34-.13.66-.36.91Z" style="fill: #78a658;"/>
    <path d="M329.68,275.79c-5.19-18.09-17.23-36.28-32.66-51.37-.84-.82-2.24-.22-2.24.95v39.94c0,.51.29.97.75,1.19,13.07,6.29,27.26,9.76,32.6,10.94.98.22,1.83-.69,1.56-1.65Z" style="fill: #78a658;"/>
    <path d="M476.59,248.36l-5.91-5.46c-.85-.78-2.22-.18-2.22.97v22.76c0,.98,1.04,1.62,1.92,1.18,2.11-1.06,4.21-2.14,6.29-3.26.48-.26.75-.79.68-1.34-.57-4.57-.67-9.19-.34-13.8.03-.4-.12-.79-.42-1.06Z" style="fill: #4d7343;"/>
    <path d="M447.75,210.88l28.97,27.02c.74.69,1.95.32,2.19-.66,1-4.13,2.34-8.16,4.02-12.03,4.59-10.61,11.95-19.95,20.72-27.43.29-.25.47-.62.47-1v-14.9c0-1.11-1.28-1.72-2.14-1.03-15.58,12.34-34.51,21.36-53.73,27.82-.95.32-1.21,1.54-.48,2.22Z" style="fill: #4d7343;"/>
    <path d="M421.72,186.59l8.57,8c.33.31.8.43,1.24.31,5.93-1.56,11.82-3.32,17.62-5.34.55-.19.91-.72.89-1.3-.47-12.38-.17-26.44,1.74-39.97.06-.43-.09-.85-.4-1.15-2.57-2.4-13.67-13.98-17.43-29.85-.14-.59-.67-1.01-1.28-1.01h-13.98c-.74,0-1.33.6-1.32,1.34.16,10.14,2.04,49.78,3.95,68.14.03.32.18.61.41.83Z" style="fill: #4d7343;"/>
    <path d="M353.94,242.9l-6.25,5.77c-.53.49-1.37.46-1.86-.07l-3.48-3.72c-.5-.53-.47-1.37.06-1.87l27.62-25.77c.75-.7.46-1.94-.52-2.23-21.71-6.45-51.37-16.11-72.81-27.13-.88-.45-1.92.19-1.92,1.17v25.51c0,.39.17.75.47,1.01,29.2,24.85,39.29,50.43,42.43,62.98.13.51.54.89,1.05.98,5.29.93,10.61,1.7,15.95,2.32.78.09,1.47-.53,1.47-1.31v-36.66c0-1.15-1.37-1.75-2.22-.97Z" style="fill: #4d7343;"/>
    <path d="M411.4,189.25l-47.1,44.04c-.27.25-.42.6-.42.97v44.66c0,.73.59,1.32,1.32,1.32h31.09c.73,0,1.32-.59,1.32-1.32v-42.3c0-.73.59-1.32,1.32-1.32h26.19c.73,0,1.32.59,1.32,1.32v42.3c0,.73.59,1.32,1.32,1.32h13.58c.16,0,.31-.03.46-.08,6.13-2.23,12.18-4.7,18.14-7.38.47-.21.78-.69.78-1.21v-37.32c0-.37-.15-.72-.42-.97l-47.1-44.04c-.51-.47-1.3-.47-1.81,0Z" style="fill: #fff;"/>
    <path d="M441.09,304.09c1,4.39,3.91,16.85,4.76,20.51.14.6.67,1.02,1.29,1.02h55.65c.73,0,1.32-.59,1.32-1.32v-52.63c0-1.08-1.22-1.7-2.09-1.07-25.63,18.4-54.28,29.76-60.11,31.98-.61.23-.96.88-.82,1.52Z" style="fill: #bad3d9;"/>
  </g>
  <g>
    <path d="M225.9,393.31c-.79,1.76-1.82,3.32-3.1,4.66-1.28,1.35-2.74,2.4-4.38,3.17-1.65.77-3.47,1.15-5.46,1.15-2.88,0-5.43-.71-7.65-2.12-2.23-1.41-3.96-3.36-5.22-5.84-1.25-2.48-1.88-5.34-1.88-8.59s.61-6.1,1.84-8.56c1.23-2.46,2.94-4.39,5.15-5.81,2.2-1.41,4.72-2.12,7.55-2.12,1.95,0,3.76.36,5.43,1.08,1.67.72,3.15,1.72,4.45,2.99,1.3,1.28,2.34,2.77,3.13,4.49l8.83-3.27c-1.16-2.74-2.82-5.16-4.97-7.27-2.16-2.11-4.67-3.76-7.55-4.94-2.88-1.18-5.98-1.77-9.32-1.77-4.73,0-8.92,1.08-12.56,3.23-3.64,2.16-6.5,5.12-8.59,8.9-2.09,3.78-3.13,8.13-3.13,13.04s1.04,9.26,3.13,13.04c2.09,3.78,4.96,6.75,8.63,8.9,3.66,2.16,7.86,3.23,12.59,3.23,3.38,0,6.51-.6,9.39-1.81,2.87-1.21,5.39-2.9,7.55-5.08,2.16-2.18,3.81-4.68,4.97-7.51l-8.83-3.2Z" style="fill: #fff;"/>
    <path d="M245.93,408.58c2.74,1.55,5.89,2.33,9.46,2.33s6.64-.78,9.36-2.33c2.71-1.55,4.83-3.7,6.36-6.43,1.53-2.74,2.3-5.89,2.3-9.46s-.77-6.72-2.3-9.46c-1.53-2.74-3.66-4.88-6.4-6.43-2.74-1.55-5.89-2.33-9.46-2.33s-6.65.78-9.39,2.33c-2.74,1.55-4.87,3.7-6.4,6.43-1.53,2.74-2.3,5.89-2.3,9.46s.78,6.72,2.33,9.46c1.55,2.74,3.7,4.88,6.43,6.43ZM247.67,387.64c.74-1.46,1.77-2.61,3.1-3.44,1.32-.84,2.84-1.25,4.56-1.25s3.17.42,4.49,1.25c1.32.83,2.35,1.98,3.1,3.44.74,1.46,1.11,3.14,1.11,5.04s-.37,3.58-1.11,5.04c-.74,1.46-1.75,2.61-3.03,3.44-1.28.83-2.77,1.25-4.49,1.25s-3.25-.42-4.59-1.25c-1.35-.83-2.39-1.98-3.13-3.44-.74-1.46-1.11-3.14-1.11-5.04s.37-3.58,1.11-5.04Z" style="fill: #fff;"/>
    <path d="M287.25,391.85c0-2.92.59-5.12,1.77-6.61,1.18-1.48,2.89-2.2,5.11-2.16,1.21,0,2.26.29,3.17.87.9.58,1.6,1.52,2.09,2.82.49,1.3.73,3.13.73,5.49v17.81h9.18v-18.22c0-2.92.6-5.12,1.81-6.61,1.21-1.48,2.92-2.2,5.15-2.16,1.21,0,2.25.29,3.13.87.88.58,1.58,1.52,2.09,2.82.51,1.3.77,3.13.77,5.49v17.81h9.18v-19.89c0-5.33-1.07-9.29-3.2-11.86-2.13-2.57-5.24-3.86-9.32-3.86-2.46,0-4.61.64-6.47,1.91-1.86,1.28-3.29,3.1-4.31,5.46-.88-2.5-2.28-4.36-4.21-5.56-1.92-1.21-4.3-1.81-7.13-1.81-2.04,0-3.9.45-5.56,1.36s-3.04,2.24-4.1,4l-.42-4.52h-8.63v34.78h9.18v-18.22Z" style="fill: #fff;"/>
    <path d="M381.5,392.27v17.81h9.18v-19.89c0-5.33-1.07-9.29-3.2-11.86-2.13-2.57-5.24-3.86-9.32-3.86-2.46,0-4.61.64-6.47,1.91-1.86,1.28-3.29,3.1-4.31,5.46-.88-2.5-2.28-4.36-4.21-5.56-1.92-1.21-4.3-1.81-7.13-1.81-2.04,0-3.9.45-5.56,1.36-1.67.9-3.04,2.24-4.1,4l-.42-4.52h-8.63v34.78h9.18v-18.22c0-2.92.59-5.12,1.77-6.61,1.18-1.48,2.89-2.2,5.11-2.16,1.21,0,2.26.29,3.17.87.9.58,1.6,1.52,2.09,2.82.49,1.3.73,3.13.73,5.49v17.81h9.18v-18.22c0-2.92.6-5.12,1.81-6.61,1.21-1.48,2.92-2.2,5.15-2.16,1.21,0,2.25.29,3.13.87.88.58,1.58,1.52,2.09,2.82.51,1.3.77,3.13.77,5.49Z" style="fill: #fff;"/>
    <path d="M403.48,408.58c2.74,1.55,5.89,2.33,9.46,2.33s6.64-.78,9.36-2.33c2.71-1.55,4.83-3.7,6.36-6.43,1.53-2.74,2.3-5.89,2.3-9.46s-.77-6.72-2.3-9.46c-1.53-2.74-3.66-4.88-6.4-6.43-2.74-1.55-5.89-2.33-9.46-2.33s-6.65.78-9.39,2.33c-2.74,1.55-4.87,3.7-6.4,6.43-1.53,2.74-2.3,5.89-2.3,9.46s.78,6.72,2.33,9.46c1.55,2.74,3.7,4.88,6.43,6.43ZM405.22,387.64c.74-1.46,1.77-2.61,3.1-3.44,1.32-.84,2.84-1.25,4.56-1.25s3.16.42,4.49,1.25c1.32.83,2.35,1.98,3.1,3.44.74,1.46,1.11,3.14,1.11,5.04s-.37,3.58-1.11,5.04c-.74,1.46-1.75,2.61-3.03,3.44-1.28.83-2.77,1.25-4.49,1.25s-3.25-.42-4.59-1.25c-1.35-.83-2.39-1.98-3.13-3.44-.74-1.46-1.11-3.14-1.11-5.04s.37-3.58,1.11-5.04Z" style="fill: #fff;"/>
    <path d="M457.84,386.77c.53,1.3.8,3.13.8,5.49v17.81h9.18v-19.69c.05-3.71-.44-6.73-1.46-9.08-1.02-2.34-2.5-4.07-4.45-5.18s-4.29-1.67-7.03-1.67-4.95.68-6.92,2.05c-1.3.9-2.4,2.07-3.31,3.49l-.41-4.7h-8.63v34.78h9.18v-18.22c0-2.92.64-5.12,1.91-6.61,1.27-1.48,3.1-2.2,5.46-2.16,1.3,0,2.43.29,3.41.87.97.58,1.73,1.52,2.26,2.82Z" style="fill: #fff;"/>
    <path d="M506.07,410.07v-19.69c0-3.71-.51-6.73-1.53-9.08-1.02-2.34-2.49-4.07-4.42-5.18-1.92-1.11-4.28-1.67-7.06-1.67s-4.95.68-6.92,2.05c-1.23.85-2.28,1.94-3.16,3.25v-18.38h-9.18v48.69h9.18v-18.22c0-2.92.64-5.12,1.91-6.61,1.28-1.48,3.1-2.2,5.46-2.16,1.3,0,2.43.29,3.41.87.97.58,1.74,1.52,2.3,2.82.56,1.3.83,3.13.83,5.49v17.81h9.18Z" style="fill: #fff;"/>
    <path d="M513.83,391.88c-2.48,1.88-3.72,4.67-3.72,8.38,0,3.39,1.15,6.01,3.44,7.86,2.3,1.86,5.53,2.78,9.7,2.78s7.22-1.32,9.01-3.96c.2-.3.39-.62.57-.94l.16,4.07h8.56l.21-19.27c.05-3.34-.5-6.23-1.63-8.66-1.14-2.43-2.88-4.32-5.22-5.67-2.34-1.34-5.28-2.02-8.8-2.02-2.92,0-5.39.45-7.41,1.36-2.02.9-3.65,2.06-4.9,3.48-1.25,1.42-2.2,2.86-2.85,4.35l8.07,2.78c.83-1.34,1.85-2.34,3.06-2.99,1.21-.65,2.55-.97,4.03-.97,1.62,0,2.91.41,3.86,1.22.95.81,1.65,1.96,2.09,3.44.18.6.31,1.25.41,1.95h-8.17c-4.5,0-7.99.94-10.47,2.82ZM532.71,395.88c0,1.21-.35,2.38-1.04,3.51-.7,1.14-1.63,2.06-2.82,2.78-1.18.72-2.54,1.08-4.07,1.08-1.67,0-2.97-.29-3.9-.87-.93-.58-1.39-1.38-1.39-2.4,0-1.3.58-2.31,1.74-3.03,1.16-.72,3.25-1.08,6.26-1.08h5.22Z" style="fill: #fff;"/>
    <path d="M570.07,393.52c0,2.88-.63,5.07-1.88,6.57-1.25,1.51-3.08,2.24-5.5,2.19-1.25,0-2.38-.29-3.37-.87-1-.58-1.76-1.53-2.3-2.85-.53-1.32-.8-3.14-.8-5.46v-17.81h-9.18v19.68c0,3.71.5,6.74,1.5,9.08,1,2.34,2.47,4.07,4.42,5.18,1.95,1.11,4.31,1.67,7.1,1.67s4.94-.68,6.89-2.05c1.27-.89,2.36-2.05,3.28-3.46l.41,4.68h8.63v-34.78h-9.18v18.22Z" style="fill: #fff;"/>
    <path d="M611.9,395.92c-.63-1.51-1.62-2.87-2.99-4.1-1.37-1.23-3.19-2.12-5.46-2.68l-4.52-1.11c-1.21-.28-2.13-.61-2.78-1.01-.65-.39-.97-.89-.97-1.5,0-.93.34-1.66,1.01-2.19.67-.53,1.63-.8,2.89-.8s2.5.29,3.76.87c1.25.58,2.04,1.33,2.36,2.26l7.58-3.48c-.51-1.53-1.44-2.87-2.78-4.03-1.35-1.16-2.96-2.06-4.83-2.71-1.88-.65-3.91-.97-6.09-.97-4.22,0-7.48.97-9.77,2.92-2.3,1.95-3.44,4.71-3.44,8.28,0,2.5.96,4.72,2.89,6.64,1.92,1.92,4.56,3.33,7.89,4.21l3.2.83c1.16.28,2.07.62,2.75,1.01.67.39,1.01,1.01,1.01,1.84s-.42,1.47-1.25,1.91c-.83.44-2.02.66-3.55.66s-2.97-.41-4.17-1.22c-1.21-.81-2.16-1.77-2.85-2.89l-7.86,3.62c.83,1.86,1.99,3.42,3.48,4.69,1.48,1.28,3.2,2.25,5.15,2.92,1.95.67,4.03,1.01,6.26,1.01,2.69,0,5.09-.44,7.2-1.32,2.11-.88,3.78-2.12,5.01-3.72,1.23-1.6,1.84-3.44,1.84-5.53,0-1.44-.31-2.91-.94-4.42Z" style="fill: #fff;"/>
    <polygon points="230.7 481.84 240.23 481.84 240.23 462.22 258.31 462.22 258.31 453.53 240.23 453.53 240.23 441.84 261.93 441.84 261.93 433.15 230.7 433.15 230.7 481.84" style="fill: #fff;"/>
    <path d="M291.63,448.56c-2.74-1.55-5.89-2.33-9.46-2.33s-6.65.78-9.39,2.33c-2.74,1.55-4.87,3.7-6.4,6.43-1.53,2.74-2.3,5.89-2.3,9.46s.78,6.72,2.33,9.46c1.55,2.74,3.7,4.88,6.43,6.43,2.74,1.55,5.89,2.33,9.46,2.33s6.64-.78,9.36-2.33c2.71-1.55,4.83-3.7,6.36-6.43,1.53-2.74,2.3-5.89,2.3-9.46s-.77-6.72-2.3-9.46c-1.53-2.74-3.66-4.88-6.4-6.43ZM289.82,469.49c-.74,1.46-1.75,2.61-3.03,3.44-1.28.83-2.77,1.25-4.49,1.25s-3.25-.42-4.59-1.25c-1.35-.83-2.39-1.98-3.13-3.44-.74-1.46-1.11-3.14-1.11-5.04s.37-3.58,1.11-5.04c.74-1.46,1.77-2.61,3.1-3.44,1.32-.84,2.84-1.25,4.56-1.25s3.16.42,4.49,1.25c1.32.83,2.35,1.98,3.1,3.44.74,1.46,1.11,3.14,1.11,5.04s-.37,3.58-1.11,5.04Z" style="fill: #fff;"/>
    <path d="M327.38,465.28c0,2.88-.63,5.07-1.88,6.57-1.25,1.51-3.08,2.24-5.49,2.19-1.25,0-2.38-.29-3.37-.87-1-.58-1.76-1.53-2.3-2.85-.53-1.32-.8-3.14-.8-5.46v-17.81h-9.18v19.68c0,3.71.5,6.74,1.5,9.08,1,2.34,2.47,4.07,4.42,5.18,1.95,1.11,4.31,1.67,7.09,1.67s4.94-.68,6.89-2.05c1.27-.89,2.36-2.05,3.28-3.46l.41,4.68h8.63v-34.78h-9.18v18.22Z" style="fill: #fff;"/>
    <path d="M369.39,447.89c-1.95-1.11-4.29-1.67-7.03-1.67s-4.95.68-6.92,2.05c-1.3.9-2.4,2.07-3.31,3.49l-.41-4.7h-8.63v34.78h9.18v-18.22c0-2.92.64-5.12,1.91-6.61,1.28-1.48,3.1-2.2,5.46-2.16,1.3,0,2.43.29,3.41.87.97.58,1.73,1.52,2.26,2.82.53,1.3.8,3.13.8,5.49v17.81h9.18v-19.69c.05-3.71-.44-6.73-1.46-9.08-1.02-2.34-2.5-4.07-4.45-5.18Z" style="fill: #fff;"/>
    <path d="M405.49,451.66c-.85-1.27-1.86-2.35-3.03-3.21-2.02-1.48-4.49-2.23-7.41-2.23-3.2,0-5.97.74-8.31,2.23-2.34,1.48-4.16,3.58-5.46,6.29-1.3,2.71-1.95,5.95-1.95,9.7s.65,6.93,1.95,9.67c1.3,2.74,3.12,4.85,5.46,6.33,2.34,1.48,5.11,2.23,8.31,2.23,2.92,0,5.39-.74,7.41-2.23,1.23-.9,2.28-2.04,3.15-3.41l.36,4.8h8.69v-48.69h-9.18v18.51ZM401.63,473c-1.23.83-2.63,1.25-4.21,1.25-1.67,0-3.14-.42-4.42-1.25-1.28-.83-2.28-1.99-3.03-3.48-.74-1.48-1.11-3.18-1.11-5.08s.37-3.59,1.11-5.08c.74-1.48,1.74-2.63,2.99-3.44,1.25-.81,2.71-1.22,4.38-1.22s3.05.41,4.28,1.22c1.23.81,2.19,1.96,2.89,3.44.52,1.1.84,2.32.97,3.66v2.85c-.13,1.33-.46,2.55-.97,3.65-.7,1.48-1.66,2.64-2.89,3.48Z" style="fill: #fff;"/>
    <path d="M444.13,448.24c-2.34-1.34-5.28-2.02-8.8-2.02-2.92,0-5.39.45-7.41,1.36s-3.65,2.06-4.9,3.48c-1.25,1.42-2.2,2.86-2.85,4.35l8.07,2.78c.83-1.34,1.85-2.34,3.06-2.99,1.21-.65,2.55-.97,4.03-.97,1.62,0,2.91.41,3.86,1.22.95.81,1.65,1.96,2.09,3.44.18.6.31,1.25.41,1.95h-8.17c-4.5,0-7.99.94-10.47,2.82-2.48,1.88-3.72,4.67-3.72,8.38,0,3.39,1.15,6.01,3.44,7.86,2.3,1.86,5.53,2.78,9.7,2.78s7.22-1.32,9.01-3.96c.2-.3.39-.62.57-.94l.16,4.07h8.56l.21-19.27c.05-3.34-.5-6.23-1.63-8.66-1.14-2.43-2.88-4.32-5.22-5.67ZM440.9,471.16c-.7,1.14-1.63,2.06-2.82,2.78-1.18.72-2.54,1.08-4.07,1.08-1.67,0-2.97-.29-3.9-.87-.93-.58-1.39-1.38-1.39-2.4,0-1.3.58-2.31,1.74-3.03,1.16-.72,3.25-1.08,6.26-1.08h5.22c0,1.21-.35,2.38-1.04,3.51Z" style="fill: #fff;"/>
    <path d="M474.08,473.87c-.56.21-1.07.31-1.53.31-1.25,0-2.2-.38-2.85-1.15-.65-.77-.97-1.89-.97-3.37v-14.82h8.69v-7.79h-8.69v-10.85h-9.18v10.85h-5.63v7.79h5.63v16.83c0,3.52.98,6.24,2.96,8.14,1.97,1.9,4.88,2.85,8.73,2.85,1.34,0,2.7-.27,4.07-.8,1.37-.53,2.61-1.22,3.72-2.05l-3.2-6.89c-.6.42-1.18.73-1.74.94Z" style="fill: #fff;"/>
    <path d="M488.61,430.85c-1.39,0-2.62.52-3.69,1.56-1.07,1.04-1.6,2.29-1.6,3.72s.53,2.68,1.6,3.72c1.07,1.04,2.3,1.57,3.69,1.57s2.68-.52,3.72-1.57,1.57-2.28,1.57-3.72-.52-2.68-1.57-3.72-2.28-1.56-3.72-1.56Z" style="fill: #fff;"/>
    <rect x="484.02" y="447.06" width="9.18" height="34.78" style="fill: #fff;"/>
    <path d="M525.97,448.56c-2.74-1.55-5.89-2.33-9.46-2.33s-6.65.78-9.39,2.33c-2.74,1.55-4.87,3.7-6.4,6.43-1.53,2.74-2.3,5.89-2.3,9.46s.78,6.72,2.33,9.46c1.55,2.74,3.7,4.88,6.43,6.43,2.74,1.55,5.89,2.33,9.46,2.33s6.64-.78,9.36-2.33c2.71-1.55,4.83-3.7,6.36-6.43,1.53-2.74,2.3-5.89,2.3-9.46s-.77-6.72-2.3-9.46c-1.53-2.74-3.66-4.88-6.4-6.43ZM524.16,469.49c-.74,1.46-1.75,2.61-3.03,3.44-1.28.83-2.77,1.25-4.49,1.25s-3.25-.42-4.59-1.25c-1.35-.83-2.39-1.98-3.13-3.44-.74-1.46-1.11-3.14-1.11-5.04s.37-3.58,1.11-5.04c.74-1.46,1.77-2.61,3.1-3.44,1.32-.84,2.84-1.25,4.56-1.25s3.16.42,4.49,1.25c1.32.83,2.35,1.98,3.1,3.44.74,1.46,1.11,3.14,1.11,5.04s-.37,3.58-1.11,5.04Z" style="fill: #fff;"/>
    <path d="M565.61,447.89c-1.95-1.11-4.29-1.67-7.03-1.67s-4.95.68-6.92,2.05c-1.3.9-2.4,2.07-3.31,3.49l-.41-4.7h-8.63v34.78h9.18v-18.22c0-2.92.64-5.12,1.91-6.61,1.27-1.48,3.1-2.2,5.46-2.16,1.3,0,2.43.29,3.41.87.97.58,1.73,1.52,2.26,2.82.53,1.3.8,3.13.8,5.49v17.81h9.18v-19.69c.05-3.71-.44-6.73-1.46-9.08-1.02-2.34-2.5-4.07-4.45-5.18Z" style="fill: #fff;"/>
  </g>
</svg>