<?xml version="1.0" encoding="UTF-8"?>
<svg id="Layer_2" xmlns="http://www.w3.org/2000/svg" viewBox="0 0 800 350">
  <rect x="73.64" y="106.95" width="135.47" height="135.47"/>
  <path d="M184.05,117.07h9.9c.51,0,.87.51.69.99-1.4,3.69-5.4,12.48-14.97,19.18-.51.36-1.21-.05-1.15-.67,1.01-11.36,3.81-17.15,4.9-19.13.13-.23.37-.38.64-.38Z" style="fill: #fff;"/>
  <path d="M175.39,118.1c-1.48,3.32-2.6,7-3.43,10.86-.12.58-.84.78-1.25.35-1.57-1.65-4.56-5.33-6.95-11.24-.19-.48.16-1.01.68-1.01h10.28c.53,0,.88.55.67,1.03Z" style="fill: #fff;"/>
  <path d="M126.39,117.07h4.61c.41,0,.74.34.73.75-.46,18.55.91,35.35,1.8,44.98.05.5-.42.9-.91.78-2.34-.59-8.11-2.05-12.33-3.22-.23-.06-.41-.23-.49-.46-1.44-4.03-5.14-14.71-6.42-18.99-.1-.34.05-.69.36-.86,6.88-3.62,10.56-12.98,11.91-22.35.05-.36.36-.63.73-.63Z" style="fill: #fff;"/>
  <path d="M122.64,117.95c-.88,4.4-3.43,14.16-9.61,18.03-.42.26-.98.04-1.1-.45-1.83-7.29-2.81-13.71-3.23-17.65-.05-.43.29-.81.73-.81h12.49c.46,0,.81.42.72.88Z" style="fill: #fff;"/>
  <path d="M84.49,117.07h17.11c.39,0,.71.31.73.7.2,4.73.72,9.43,1.48,14.1.08.5-.36.93-.86.84-7.99-1.46-14.25-3.3-18.75-5.19-.27-.11-.45-.38-.45-.67v-9.04c0-.41.33-.73.73-.73Z" style="fill: #fff;"/>
  <path d="M84.78,131.92c7.18,3.11,15.58,5.14,19.7,6.04.28.06.5.28.56.57,1.22,5.88,2.75,11.7,4.42,17.46.16.56-.36,1.08-.92.91-4.65-1.45-16.64-5.32-24.42-9.69-.23-.13-.37-.37-.37-.64v-13.97c0-.53.54-.88,1.02-.67Z" style="fill: #fff;"/>
  <path d="M83.75,232.55v-20.17c0-.53.54-.88,1.02-.67,5.31,2.3,24.23,9.72,56.58,10.13.35,0,.65.25.71.59.64,3.33,1.3,6.65,1.98,9.97.09.45-.25.88-.72.88h-58.85c-.41,0-.73-.33-.73-.73Z" style="fill: #fff;"/>
  <path d="M199.69,189.84c-3.13,2.41-6.45,4.64-9.86,6.68-.46.28-1.06-.02-1.11-.56-.36-3.85-.66-16.75,9.98-28.28.45-.49,1.28-.18,1.28.49v21.08c0,.23-.11.44-.29.58Z" style="fill: #fff;"/>
  <path d="M199.77,139.73c-4.66,4.96-11.08,9.67-20.37,14.01-.47.22-1.02-.1-1.04-.62-.18-3.21-.27-6.53-.2-9.86,0-.25.14-.48.35-.61,2.39-1.46,14.56-9.37,19.23-25.04.09-.31.38-.53.7-.53h.79c.41,0,.73.33.73.73v21.42c0,.19-.07.37-.2.5Z" style="fill: #fff;"/>
  <path d="M103.13,205.63c-2.88-10.04-9.56-20.14-18.13-28.52-.46-.45-1.25-.12-1.25.53v22.17c0,.28.16.54.41.66,7.26,3.49,15.14,5.42,18.1,6.08.54.12,1.02-.38.86-.92Z" style="fill: #fff;"/>
  <g>
    <path d="M184.69,190.4l-3.28-3.03c-.47-.43-1.23-.1-1.23.54v12.64c0,.55.58.9,1.06.65,1.17-.59,2.34-1.19,3.49-1.81.27-.14.42-.44.38-.74-.31-2.53-.37-5.1-.19-7.66.02-.22-.07-.44-.23-.59Z" style="fill: #fff;"/>
    <path d="M168.68,169.59l16.08,15c.41.38,1.08.18,1.21-.37.55-2.29,1.3-4.53,2.23-6.68,2.55-5.89,6.63-11.08,11.5-15.23.16-.14.26-.34.26-.56v-8.27c0-.61-.71-.95-1.19-.57-8.65,6.85-19.16,11.86-29.83,15.45-.53.18-.67.85-.26,1.23Z" style="fill: #fff;"/>
  </g>
  <path d="M154.23,156.1l4.76,4.44c.18.17.44.24.69.17,3.29-.86,6.56-1.85,9.78-2.97.3-.11.5-.4.49-.72-.26-6.87-.1-14.68.97-22.19.03-.24-.05-.47-.22-.64-1.43-1.33-7.59-7.76-9.68-16.57-.08-.33-.37-.56-.71-.56h-7.76c-.41,0-.74.33-.73.74.09,5.63,1.13,27.64,2.19,37.83.02.18.1.34.23.46Z" style="fill: #fff;"/>
  <path d="M116.6,187.37l-3.47,3.2c-.3.27-.76.26-1.03-.04l-1.93-2.07c-.28-.3-.26-.76.04-1.04l15.34-14.31c.41-.39.25-1.08-.29-1.24-12.05-3.58-28.52-8.94-40.42-15.06-.49-.25-1.07.1-1.07.65v14.16c0,.21.1.42.26.56,16.21,13.79,21.81,28,23.56,34.96.07.28.3.49.58.54,2.94.52,5.89.94,8.86,1.29.44.05.82-.29.82-.73v-20.35c0-.64-.76-.97-1.23-.54Z" style="fill: #fff;"/>
  <path d="M148.5,157.58l-26.15,24.45c-.15.14-.23.33-.23.54v24.8c0,.41.33.73.73.73h17.26c.41,0,.73-.33.73-.73v-23.48c0-.41.33-.73.73-.73h14.54c.41,0,.73.33.73.73v23.48c0,.41.33.73.73.73h7.54c.09,0,.17-.02.25-.04,3.4-1.24,6.76-2.61,10.07-4.09.26-.12.43-.38.43-.67v-20.72c0-.2-.08-.4-.23-.54l-26.15-24.45c-.28-.26-.72-.26-1,0Z" style="fill: #fff;"/>
  <path d="M164.98,221.34c.55,2.44,2.17,9.36,2.64,11.38.08.33.37.57.71.57h30.9c.41,0,.73-.33.73-.73v-29.22c0-.6-.68-.94-1.16-.6-14.23,10.22-30.13,16.52-33.37,17.75-.34.13-.53.49-.45.85Z" style="fill: #fff;"/>
  <g>
    <path d="M256.47,160.18c4.11,2.42,8.82,3.63,14.12,3.63,3.8,0,7.31-.68,10.53-2.03,3.22-1.35,6.05-3.25,8.47-5.7,2.42-2.44,4.28-5.25,5.58-8.43l-9.91-3.59c-.89,1.98-2.04,3.72-3.47,5.23-1.43,1.51-3.07,2.69-4.92,3.55-1.85.86-3.89,1.29-6.13,1.29-3.23,0-6.09-.79-8.58-2.38-2.5-1.59-4.45-3.77-5.85-6.55-1.4-2.78-2.11-5.99-2.11-9.64s.69-6.84,2.07-9.6c1.38-2.76,3.3-4.93,5.77-6.52,2.47-1.59,5.29-2.38,8.47-2.38,2.18,0,4.21.4,6.09,1.21,1.87.81,3.54,1.93,4.99,3.36,1.46,1.43,2.63,3.11,3.51,5.03l9.91-3.67c-1.3-3.07-3.16-5.79-5.58-8.15-2.42-2.37-5.24-4.21-8.47-5.54-3.23-1.33-6.71-1.99-10.46-1.99-5.31,0-10,1.21-14.08,3.63-4.08,2.42-7.3,5.75-9.64,9.99-2.34,4.24-3.51,9.12-3.51,14.63s1.17,10.39,3.51,14.63c2.34,4.24,5.57,7.57,9.68,9.99Z"/>
    <path d="M336.77,153.97c1.72-3.07,2.58-6.61,2.58-10.61s-.86-7.54-2.58-10.61c-1.72-3.07-4.11-5.47-7.18-7.22-3.07-1.74-6.61-2.61-10.61-2.61s-7.47.87-10.53,2.61c-3.07,1.74-5.46,4.15-7.18,7.22-1.72,3.07-2.58,6.61-2.58,10.61s.87,7.54,2.61,10.61c1.74,3.07,4.15,5.48,7.22,7.22,3.07,1.74,6.61,2.61,10.61,2.61s7.45-.87,10.5-2.61c3.04-1.74,5.42-4.15,7.14-7.22ZM327.56,149.02c-.83,1.64-1.96,2.93-3.39,3.86-1.43.94-3.11,1.4-5.03,1.4s-3.64-.47-5.15-1.4c-1.51-.94-2.68-2.22-3.51-3.86-.83-1.64-1.25-3.52-1.25-5.66s.42-4.02,1.25-5.66c.83-1.64,1.99-2.93,3.47-3.86s3.19-1.4,5.11-1.4,3.55.47,5.03,1.4c1.48.94,2.64,2.22,3.47,3.86.83,1.64,1.25,3.52,1.25,5.66s-.42,4.02-1.25,5.66Z"/>
    <path d="M380.38,162.87v-20.44c0-3.28.68-5.75,2.03-7.41,1.35-1.66,3.28-2.47,5.77-2.42,1.35,0,2.52.33,3.51.98.99.65,1.77,1.7,2.34,3.16.57,1.46.86,3.51.86,6.16v19.98h10.3v-22.32c0-5.98-1.2-10.42-3.59-13.3-2.39-2.89-5.88-4.33-10.46-4.33-2.76,0-5.18.72-7.26,2.15-2.08,1.43-3.69,3.47-4.84,6.13-.99-2.81-2.56-4.89-4.72-6.24-2.16-1.35-4.83-2.03-8-2.03-2.29,0-4.37.51-6.24,1.52-1.87,1.01-3.41,2.51-4.6,4.49l-.47-5.07h-9.68v39.01h10.3v-20.44c0-3.28.66-5.75,1.99-7.41,1.33-1.66,3.24-2.47,5.74-2.42,1.35,0,2.54.33,3.55.98,1.01.65,1.79,1.7,2.34,3.16.55,1.46.82,3.51.82,6.16v19.98h10.3Z"/>
    <path d="M462.16,162.87h10.3v-22.32c0-5.98-1.2-10.42-3.59-13.3-2.39-2.89-5.88-4.33-10.46-4.33-2.76,0-5.18.72-7.26,2.15-2.08,1.43-3.69,3.47-4.84,6.13-.99-2.81-2.56-4.89-4.72-6.24-2.16-1.35-4.83-2.03-8-2.03-2.29,0-4.37.51-6.24,1.52-1.87,1.01-3.41,2.51-4.6,4.49l-.47-5.07h-9.68v39.01h10.3v-20.44c0-3.28.66-5.75,1.99-7.41,1.33-1.66,3.24-2.47,5.74-2.42,1.35,0,2.54.33,3.55.98,1.01.65,1.79,1.7,2.34,3.16.55,1.46.82,3.51.82,6.16v19.98h10.3v-20.44c0-3.28.68-5.75,2.03-7.41,1.35-1.66,3.28-2.47,5.77-2.42,1.35,0,2.52.33,3.51.98.99.65,1.77,1.7,2.34,3.16.57,1.46.86,3.51.86,6.16v19.98Z"/>
    <path d="M515.84,153.97c1.72-3.07,2.58-6.61,2.58-10.61s-.86-7.54-2.58-10.61c-1.72-3.07-4.11-5.47-7.18-7.22-3.07-1.74-6.61-2.61-10.61-2.61s-7.47.87-10.53,2.61c-3.07,1.74-5.46,4.15-7.18,7.22-1.72,3.07-2.58,6.61-2.58,10.61s.87,7.54,2.61,10.61c1.74,3.07,4.15,5.48,7.22,7.22,3.07,1.74,6.61,2.61,10.61,2.61s7.45-.87,10.5-2.61c3.04-1.74,5.42-4.15,7.14-7.22ZM506.63,149.02c-.83,1.64-1.96,2.93-3.39,3.86-1.43.94-3.11,1.4-5.03,1.4s-3.64-.47-5.15-1.4c-1.51-.94-2.68-2.22-3.51-3.86-.83-1.64-1.25-3.52-1.25-5.66s.42-4.02,1.25-5.66c.83-1.64,1.99-2.93,3.47-3.86,1.48-.94,3.19-1.4,5.11-1.4s3.55.47,5.03,1.4c1.48.94,2.64,2.22,3.47,3.86.83,1.64,1.25,3.52,1.25,5.66s-.42,4.02-1.25,5.66Z"/>
    <path d="M560.55,162.87v-22.08c.05-4.16-.49-7.56-1.64-10.18-1.14-2.63-2.81-4.56-4.99-5.81-2.18-1.25-4.81-1.87-7.88-1.87s-5.55.77-7.76,2.3c-1.45,1.01-2.69,2.32-3.72,3.91l-.46-5.28h-9.68v39.01h10.3v-20.44c0-3.28.71-5.75,2.15-7.41,1.43-1.66,3.47-2.47,6.13-2.42,1.46,0,2.73.33,3.82.98,1.09.65,1.94,1.7,2.54,3.16.6,1.46.9,3.51.9,6.16v19.98h10.3Z"/>
    <path d="M604.25,162.87v-22.08c0-4.16-.57-7.56-1.72-10.18-1.14-2.63-2.8-4.56-4.96-5.81-2.16-1.25-4.8-1.87-7.92-1.87s-5.55.77-7.76,2.3c-1.37.95-2.56,2.17-3.55,3.65v-20.62h-10.3v54.62h10.3v-20.44c0-3.28.71-5.75,2.15-7.41,1.43-1.66,3.47-2.47,6.13-2.42,1.46,0,2.73.33,3.82.98,1.09.65,1.95,1.7,2.58,3.16.62,1.46.94,3.51.94,6.16v19.98h10.3Z"/>
    <path d="M637.37,125.18c-2.63-1.51-5.92-2.26-9.87-2.26-3.28,0-6.05.51-8.31,1.52-2.26,1.01-4.1,2.32-5.5,3.9-1.4,1.59-2.47,3.21-3.2,4.88l9.05,3.12c.94-1.51,2.08-2.63,3.43-3.36,1.35-.73,2.86-1.09,4.53-1.09,1.82,0,3.26.46,4.33,1.37,1.07.91,1.85,2.2,2.34,3.86.2.67.35,1.41.46,2.18h-9.16c-5.05,0-8.96,1.05-11.74,3.16-2.78,2.11-4.17,5.24-4.17,9.4,0,3.8,1.29,6.74,3.86,8.82,2.57,2.08,6.2,3.12,10.88,3.12s8.1-1.48,10.1-4.45c.23-.34.44-.69.64-1.06l.18,4.57h9.6l.23-21.61c.05-3.75-.56-6.98-1.83-9.71-1.28-2.73-3.23-4.85-5.85-6.36ZM633.74,150.89c-.78,1.28-1.83,2.31-3.16,3.12-1.33.81-2.85,1.21-4.56,1.21-1.87,0-3.33-.32-4.37-.97-1.04-.65-1.56-1.55-1.56-2.69,0-1.46.65-2.59,1.95-3.39,1.3-.81,3.64-1.21,7.02-1.21h5.85c0,1.35-.39,2.67-1.17,3.94Z"/>
    <path d="M677.59,144.3c0,3.23-.7,5.68-2.11,7.37-1.4,1.69-3.46,2.51-6.16,2.46-1.4,0-2.67-.32-3.78-.97-1.12-.65-1.98-1.72-2.58-3.2-.6-1.48-.9-3.52-.9-6.13v-19.98h-10.3v22.08c0,4.16.56,7.56,1.68,10.18,1.12,2.63,2.77,4.56,4.96,5.81,2.18,1.25,4.84,1.87,7.96,1.87s5.54-.77,7.73-2.3c1.43-1,2.65-2.3,3.68-3.88l.46,5.25h9.68v-39.01h-10.3v20.44Z"/>
    <path d="M725.31,146.99c-.7-1.69-1.82-3.22-3.36-4.6-1.54-1.38-3.58-2.38-6.13-3l-5.07-1.25c-1.35-.31-2.39-.69-3.12-1.13-.73-.44-1.09-1-1.09-1.68,0-1.04.38-1.86,1.13-2.46.75-.6,1.83-.9,3.24-.9s2.81.33,4.21.98c1.4.65,2.29,1.5,2.65,2.54l8.51-3.9c-.57-1.72-1.61-3.22-3.12-4.53-1.51-1.3-3.32-2.31-5.42-3.04-2.11-.73-4.38-1.09-6.83-1.09-4.73,0-8.39,1.09-10.96,3.28-2.58,2.18-3.86,5.28-3.86,9.29,0,2.81,1.08,5.29,3.24,7.45,2.16,2.16,5.11,3.73,8.86,4.72l3.59.94c1.3.31,2.33.69,3.08,1.13.75.44,1.13,1.13,1.13,2.07s-.47,1.65-1.4,2.15c-.94.5-2.26.74-3.98.74s-3.33-.45-4.68-1.37c-1.35-.91-2.42-1.99-3.2-3.24l-8.82,4.06c.94,2.08,2.24,3.84,3.9,5.27,1.66,1.43,3.59,2.52,5.77,3.28,2.18.75,4.53,1.13,7.02,1.13,3.02,0,5.71-.5,8.08-1.48,2.37-.99,4.24-2.38,5.62-4.17,1.38-1.79,2.07-3.86,2.07-6.2,0-1.61-.35-3.26-1.05-4.95Z"/>
    <polygon points="246.49 242.11 257.18 242.11 257.18 220.11 277.46 220.11 277.46 210.35 257.18 210.35 257.18 197.24 281.52 197.24 281.52 187.49 246.49 187.49 246.49 242.11"/>
    <path d="M315.62,204.77c-3.07-1.74-6.61-2.61-10.61-2.61s-7.47.87-10.53,2.61c-3.07,1.74-5.46,4.15-7.18,7.22-1.72,3.07-2.58,6.61-2.58,10.61s.87,7.54,2.61,10.61c1.74,3.07,4.15,5.48,7.22,7.22,3.07,1.74,6.61,2.61,10.61,2.61s7.45-.87,10.5-2.61c3.04-1.74,5.42-4.15,7.14-7.22,1.72-3.07,2.58-6.61,2.58-10.61s-.86-7.54-2.58-10.61c-1.72-3.07-4.11-5.47-7.18-7.22ZM313.59,228.26c-.83,1.64-1.96,2.93-3.39,3.86-1.43.94-3.11,1.41-5.03,1.41s-3.64-.47-5.15-1.41c-1.51-.94-2.68-2.22-3.51-3.86-.83-1.64-1.25-3.52-1.25-5.66s.42-4.02,1.25-5.66c.83-1.64,1.99-2.93,3.47-3.86,1.48-.94,3.19-1.4,5.11-1.4s3.55.47,5.03,1.4c1.48.94,2.64,2.22,3.47,3.86.83,1.64,1.25,3.52,1.25,5.66s-.42,4.02-1.25,5.66Z"/>
    <path d="M356.51,223.54c0,3.23-.7,5.68-2.11,7.37-1.4,1.69-3.46,2.51-6.16,2.46-1.4,0-2.67-.32-3.78-.98-1.12-.65-1.98-1.72-2.57-3.2-.6-1.48-.9-3.52-.9-6.13v-19.98h-10.3v22.08c0,4.16.56,7.56,1.68,10.18,1.12,2.63,2.77,4.56,4.96,5.81,2.18,1.25,4.84,1.87,7.96,1.87s5.54-.77,7.72-2.3c1.43-1,2.65-2.3,3.68-3.88l.46,5.25h9.68v-39.01h-10.3v20.44Z"/>
    <path d="M404.42,204.03c-2.18-1.25-4.81-1.87-7.88-1.87s-5.55.77-7.76,2.3c-1.45,1.01-2.69,2.32-3.72,3.91l-.46-5.28h-9.68v39.01h10.3v-20.44c0-3.28.71-5.75,2.15-7.41,1.43-1.66,3.47-2.47,6.12-2.42,1.46,0,2.73.33,3.82.97,1.09.65,1.94,1.7,2.54,3.16.6,1.46.9,3.51.9,6.16v19.98h10.3v-22.08c.05-4.16-.5-7.56-1.64-10.18-1.14-2.63-2.81-4.56-4.99-5.81Z"/>
    <path d="M445.69,208.26c-.95-1.43-2.08-2.64-3.39-3.6-2.26-1.66-5.03-2.5-8.31-2.5-3.59,0-6.7.83-9.32,2.5-2.63,1.67-4.67,4.02-6.13,7.06-1.46,3.04-2.18,6.67-2.18,10.89s.73,7.78,2.18,10.85c1.46,3.07,3.5,5.44,6.13,7.1,2.63,1.66,5.74,2.5,9.32,2.5,3.28,0,6.05-.83,8.31-2.5,1.38-1.01,2.55-2.29,3.54-3.82l.41,5.38h9.75v-54.62h-10.3v20.77ZM441.36,232.2c-1.38.94-2.95,1.4-4.72,1.4-1.87,0-3.52-.47-4.96-1.4-1.43-.94-2.56-2.24-3.39-3.9-.83-1.66-1.25-3.56-1.25-5.7s.42-4.03,1.25-5.7c.83-1.66,1.95-2.95,3.36-3.86,1.4-.91,3.04-1.37,4.92-1.37s3.42.46,4.8,1.37c1.38.91,2.46,2.2,3.24,3.86.58,1.24.94,2.61,1.09,4.11v3.18c-.15,1.5-.51,2.87-1.09,4.11-.78,1.67-1.86,2.97-3.24,3.9Z"/>
    <path d="M489.82,204.42c-2.63-1.51-5.92-2.26-9.87-2.26-3.28,0-6.05.51-8.31,1.52-2.26,1.01-4.1,2.31-5.5,3.9-1.4,1.59-2.47,3.21-3.2,4.88l9.05,3.12c.94-1.51,2.08-2.63,3.43-3.36,1.35-.73,2.86-1.09,4.53-1.09,1.82,0,3.26.46,4.33,1.37,1.07.91,1.85,2.2,2.34,3.86.2.67.35,1.41.46,2.18h-9.17c-5.05,0-8.96,1.05-11.74,3.16-2.78,2.11-4.17,5.24-4.17,9.4,0,3.8,1.29,6.74,3.86,8.82,2.58,2.08,6.2,3.12,10.89,3.12s8.1-1.48,10.1-4.45c.23-.34.44-.69.64-1.06l.18,4.57h9.6l.23-21.61c.05-3.75-.56-6.98-1.83-9.71-1.28-2.73-3.23-4.85-5.85-6.36ZM486.19,230.13c-.78,1.28-1.83,2.32-3.16,3.12-1.33.81-2.85,1.21-4.56,1.21-1.87,0-3.33-.32-4.37-.98-1.04-.65-1.56-1.55-1.56-2.69,0-1.46.65-2.59,1.95-3.39,1.3-.81,3.64-1.21,7.02-1.21h5.85c0,1.35-.39,2.67-1.17,3.94Z"/>
    <path d="M524.19,233.18c-.62.23-1.2.35-1.72.35-1.4,0-2.47-.43-3.2-1.29-.73-.86-1.09-2.12-1.09-3.78v-16.62h9.75v-8.74h-9.75v-12.17h-10.3v12.17h-6.32v8.74h6.32v18.88c0,3.95,1.1,7,3.32,9.13,2.21,2.13,5.47,3.2,9.79,3.2,1.51,0,3.03-.3,4.56-.9,1.53-.6,2.93-1.37,4.17-2.3l-3.59-7.73c-.68.47-1.33.82-1.95,1.05Z"/>
    <path d="M541.28,184.91c-1.56,0-2.94.59-4.14,1.76-1.2,1.17-1.79,2.56-1.79,4.17s.6,3,1.79,4.17c1.2,1.17,2.58,1.76,4.14,1.76s3-.59,4.17-1.76c1.17-1.17,1.76-2.56,1.76-4.17s-.59-3-1.76-4.17c-1.17-1.17-2.56-1.76-4.17-1.76Z"/>
    <rect x="536.13" y="203.1" width="10.3" height="39.01"/>
    <path d="M583.96,204.77c-3.07-1.74-6.61-2.61-10.61-2.61s-7.47.87-10.53,2.61c-3.07,1.74-5.46,4.15-7.18,7.22-1.72,3.07-2.58,6.61-2.58,10.61s.87,7.54,2.61,10.61c1.74,3.07,4.15,5.48,7.22,7.22,3.07,1.74,6.61,2.61,10.61,2.61s7.45-.87,10.5-2.61,5.42-4.15,7.14-7.22c1.72-3.07,2.58-6.61,2.58-10.61s-.86-7.54-2.58-10.61c-1.72-3.07-4.11-5.47-7.18-7.22ZM581.93,228.26c-.83,1.64-1.96,2.93-3.39,3.86-1.43.94-3.11,1.41-5.03,1.41s-3.64-.47-5.15-1.41c-1.51-.94-2.68-2.22-3.51-3.86-.83-1.64-1.25-3.52-1.25-5.66s.42-4.02,1.25-5.66c.83-1.64,1.99-2.93,3.47-3.86,1.48-.94,3.19-1.4,5.11-1.4s3.55.47,5.03,1.4c1.48.94,2.64,2.22,3.47,3.86.83,1.64,1.25,3.52,1.25,5.66s-.42,4.02-1.25,5.66Z"/>
    <path d="M629.21,204.03c-2.18-1.25-4.81-1.87-7.88-1.87s-5.55.77-7.76,2.3c-1.45,1.01-2.69,2.32-3.72,3.91l-.46-5.28h-9.68v39.01h10.3v-20.44c0-3.28.71-5.75,2.15-7.41,1.43-1.66,3.47-2.47,6.13-2.42,1.46,0,2.73.33,3.82.97,1.09.65,1.94,1.7,2.54,3.16.6,1.46.9,3.51.9,6.16v19.98h10.3v-22.08c.05-4.16-.49-7.56-1.64-10.18-1.14-2.63-2.81-4.56-4.99-5.81Z"/>
  </g>
</svg>