<?xml version="1.0" encoding="UTF-8"?>
<svg id="Layer_2" xmlns="http://www.w3.org/2000/svg" viewBox="0 0 500 500">
  <g>
    <g>
      <rect x="132.87" y="88.32" width="234.26" height="234.26" style="fill: #012626;"/>
      <path d="M322.42,105.69h16.99c.88,0,1.49.88,1.18,1.7-2.41,6.33-9.28,21.43-25.7,32.93-.88.62-2.08-.08-1.98-1.15,1.73-19.51,6.54-29.45,8.41-32.84.22-.4.64-.65,1.11-.65h0Z" style="fill: #a9d962;"/>
      <path d="M307.56,107.46c-2.54,5.71-4.46,12.02-5.89,18.64-.21.99-1.44,1.34-2.14.61-2.7-2.84-7.83-9.15-11.93-19.29-.33-.82.28-1.73,1.17-1.73h17.65c.91,0,1.52.94,1.15,1.77h0Z" style="fill: #78a658;"/>
      <path d="M223.44,105.69h7.92c.71,0,1.27.58,1.26,1.29-.79,31.84,1.56,60.69,3.09,77.22.08.87-.72,1.55-1.56,1.34-4.02-1.01-13.93-3.53-21.17-5.53-.39-.11-.71-.4-.85-.79-2.47-6.92-8.82-25.26-11.01-32.61-.17-.58.09-1.19.63-1.47,11.82-6.21,18.13-22.29,20.45-38.38.09-.62.62-1.09,1.25-1.09h0Z" style="fill: #4d7343;"/>
      <path d="M217,107.19c-1.51,7.56-5.89,24.31-16.5,30.95-.72.45-1.68.06-1.89-.77-3.15-12.52-4.83-23.53-5.55-30.31-.08-.74.5-1.39,1.26-1.39h21.45c.79,0,1.39.73,1.24,1.5h0Z" style="fill: #78a658;"/>
      <path d="M151.5,105.69h29.37c.68,0,1.23.53,1.26,1.21.35,8.13,1.24,16.19,2.54,24.21.14.86-.62,1.6-1.47,1.44-13.72-2.52-24.46-5.67-32.19-8.92-.47-.2-.77-.65-.77-1.16v-15.52c0-.7.56-1.26,1.26-1.26Z" style="fill: #a9d962;"/>
      <path d="M151.99,131.19c12.33,5.34,26.75,8.82,33.82,10.36.48.1.86.49.96.97,2.09,10.09,4.72,20.09,7.59,29.98.28.96-.62,1.86-1.58,1.56-7.97-2.49-28.57-9.13-41.92-16.64-.39-.22-.64-.64-.64-1.1v-23.99c0-.91.93-1.51,1.76-1.16h0Z" style="fill: #78a658;"/>
      <path d="M150.24,303.96v-34.63c0-.91.93-1.52,1.76-1.16,9.11,3.95,41.6,16.69,97.15,17.39.6,0,1.11.43,1.22,1.02,1.09,5.71,2.23,11.42,3.4,17.12.16.78-.43,1.51-1.23,1.51h-101.04c-.7,0-1.26-.56-1.26-1.26h0Z" style="fill: #bad3d9;"/>
      <path d="M349.28,230.62c-5.37,4.15-11.07,7.97-16.92,11.47-.8.48-1.82-.03-1.9-.96-.61-6.62-1.14-28.75,17.13-48.55.78-.85,2.19-.3,2.19.85v36.19c0,.39-.18.76-.49,1h0Z" style="fill: #a9d962;"/>
      <path d="M349.43,144.59c-8,8.52-19.02,16.61-34.97,24.05-.8.38-1.74-.18-1.79-1.06-.32-5.52-.47-11.22-.35-16.93,0-.43.24-.83.61-1.05,4.11-2.5,25-16.09,33.02-42.99.16-.54.65-.91,1.21-.91h1.36c.7,0,1.26.56,1.26,1.26v36.78c0,.32-.12.63-.34.87h0Z" style="fill: #78a658;"/>
      <path d="M183.51,257.73c-4.94-17.24-16.42-34.58-31.13-48.97-.79-.78-2.14-.21-2.14.9v38.07c0,.48.28.93.71,1.14,12.46,6,25.99,9.31,31.08,10.43.93.21,1.75-.66,1.49-1.58h0Z" style="fill: #78a658;"/>
      <g>
        <path d="M323.54,231.58l-5.63-5.21c-.81-.74-2.12-.17-2.12.93v21.7c0,.94.99,1.55,1.83,1.12,2.01-1.01,4.01-2.05,6-3.1.46-.24.71-.75.65-1.27-.54-4.35-.64-8.76-.33-13.15.03-.38-.12-.76-.4-1.02h0Z" style="fill: #4d7343;"/>
        <path d="M296.05,195.85l27.61,25.76c.71.66,1.86.31,2.08-.63.95-3.93,2.23-7.78,3.83-11.47,4.38-10.12,11.39-19.02,19.75-26.14.28-.24.44-.59.44-.95v-14.21c0-1.05-1.22-1.64-2.04-.98-14.85,11.76-32.9,20.37-51.22,26.52-.9.31-1.15,1.46-.46,2.11h0Z" style="fill: #4d7343;"/>
      </g>
      <path d="M271.24,172.7l8.17,7.62c.32.3.76.41,1.18.3,5.65-1.49,11.27-3.17,16.79-5.09.52-.18.87-.69.84-1.24-.44-11.8-.16-25.2,1.66-38.1.06-.4-.08-.81-.39-1.1-2.45-2.29-13.03-13.33-16.62-28.45-.13-.56-.64-.96-1.22-.96h-13.33c-.71,0-1.27.57-1.26,1.27.15,9.67,1.95,47.45,3.77,64.95.03.3.17.58.39.79h0Z" style="fill: #4d7343;"/>
      <path d="M206.63,226.38l-5.95,5.5c-.51.47-1.3.44-1.77-.07l-3.32-3.55c-.47-.51-.45-1.31.06-1.78l26.33-24.56c.71-.66.43-1.85-.5-2.13-20.69-6.15-48.97-15.35-69.4-25.86-.84-.43-1.83.18-1.83,1.12v24.32c0,.37.16.72.45.96,27.83,23.68,37.45,48.07,40.45,60.03.12.48.51.85,1,.94,5.05.88,10.11,1.62,15.21,2.21.75.08,1.41-.5,1.41-1.26v-34.94c0-1.1-1.31-1.67-2.12-.93h0Z" style="fill: #4d7343;"/>
      <path d="M261.4,175.24l-44.9,41.98c-.25.24-.4.57-.4.92v42.57c0,.7.56,1.26,1.26,1.26h29.64c.7,0,1.26-.56,1.26-1.26v-40.32c0-.7.56-1.26,1.26-1.26h24.96c.7,0,1.26.56,1.26,1.26v40.32c0,.7.56,1.26,1.26,1.26h12.95c.15,0,.3-.03.44-.08,5.84-2.13,11.61-4.48,17.29-7.03.45-.2.74-.65.74-1.15v-35.57c0-.35-.15-.68-.4-.92l-44.9-41.98c-.48-.45-1.24-.45-1.72,0h0Z" style="fill: #fff;"/>
      <path d="M289.7,284.7c.95,4.19,3.72,16.06,4.54,19.55.13.57.64.97,1.23.97h53.05c.7,0,1.26-.56,1.26-1.26v-50.17c0-1.03-1.16-1.62-1.99-1.02-24.43,17.54-51.73,28.36-57.3,30.48-.59.22-.92.84-.78,1.45h0Z" style="fill: #bad3d9;"/>
    </g>
    <g>
      <path d="M153.13,362.15c-.44.98-1.01,1.84-1.72,2.58s-1.52,1.33-2.43,1.75-1.92.64-3.03.64c-1.59,0-3.01-.39-4.24-1.18s-2.2-1.86-2.89-3.24c-.69-1.37-1.04-2.96-1.04-4.76s.34-3.38,1.02-4.74c.68-1.36,1.63-2.44,2.85-3.22s2.62-1.18,4.18-1.18c1.08,0,2.08.2,3.01.6s1.75.95,2.47,1.66c.72.71,1.3,1.54,1.74,2.49l4.9-1.81c-.64-1.52-1.56-2.86-2.76-4.03-1.19-1.17-2.59-2.08-4.18-2.74-1.59-.65-3.32-.98-5.17-.98-2.62,0-4.94.6-6.96,1.79-2.02,1.19-3.61,2.84-4.76,4.94-1.16,2.1-1.74,4.5-1.74,7.23s.58,5.14,1.74,7.23c1.16,2.1,2.75,3.74,4.78,4.94s4.36,1.79,6.98,1.79c1.87,0,3.61-.34,5.21-1,1.59-.67,2.99-1.61,4.18-2.82s2.11-2.6,2.76-4.16l-4.9-1.77h0Z" style="fill: #012626;"/>
      <path d="M164.23,370.61c1.52.86,3.26,1.29,5.24,1.29s3.68-.43,5.19-1.29,2.68-2.05,3.53-3.57,1.27-3.26,1.27-5.24-.42-3.73-1.27-5.24-2.03-2.7-3.55-3.57-3.27-1.29-5.24-1.29-3.69.43-5.21,1.29c-1.52.86-2.7,2.05-3.55,3.57s-1.27,3.27-1.27,5.24.43,3.73,1.29,5.24,2.05,2.71,3.57,3.57h0ZM165.2,359c.41-.81.98-1.45,1.72-1.91.73-.46,1.57-.69,2.52-.69s1.75.23,2.49.69,1.3,1.1,1.72,1.91c.41.81.62,1.74.62,2.79s-.2,1.99-.62,2.79c-.41.81-.97,1.45-1.68,1.91-.71.46-1.54.69-2.49.69s-1.8-.23-2.55-.69-1.33-1.1-1.74-1.91c-.41-.81-.62-1.74-.62-2.79s.2-1.99.62-2.79h0Z" style="fill: #012626;"/>
      <path d="M187.14,361.34c0-1.62.33-2.84.98-3.66.65-.82,1.6-1.22,2.83-1.19.67,0,1.25.16,1.75.48s.89.84,1.16,1.56.41,1.74.41,3.05v9.87h5.09v-10.1c0-1.62.33-2.84,1-3.66.67-.82,1.62-1.22,2.85-1.19.67,0,1.25.16,1.74.48s.87.84,1.16,1.56c.28.72.42,1.74.42,3.05v9.87h5.09v-11.03c0-2.96-.59-5.15-1.77-6.57-1.18-1.43-2.9-2.14-5.17-2.14-1.36,0-2.56.35-3.59,1.06-1.03.71-1.83,1.72-2.39,3.03-.49-1.39-1.27-2.42-2.33-3.08s-2.38-1-3.95-1c-1.13,0-2.16.25-3.08.75-.92.5-1.68,1.24-2.28,2.22l-.23-2.51h-4.78v19.28h5.09v-10.1h0Z" style="fill: #012626;"/>
      <path d="M239.38,361.57v9.87h5.09v-11.03c0-2.96-.59-5.15-1.77-6.57-1.18-1.43-2.9-2.14-5.17-2.14-1.36,0-2.56.35-3.59,1.06-1.03.71-1.83,1.72-2.39,3.03-.49-1.39-1.27-2.42-2.33-3.08s-2.38-1-3.95-1c-1.13,0-2.16.25-3.08.75-.92.5-1.68,1.24-2.28,2.22l-.23-2.51h-4.78v19.28h5.09v-10.1c0-1.62.33-2.84.98-3.66.65-.82,1.6-1.22,2.83-1.19.67,0,1.25.16,1.75.48s.89.84,1.16,1.56.41,1.74.41,3.05v9.87h5.09v-10.1c0-1.62.33-2.84,1-3.66.67-.82,1.62-1.22,2.85-1.19.67,0,1.25.16,1.74.48s.87.84,1.16,1.56c.28.72.42,1.74.42,3.05h0Z" style="fill: #012626;"/>
      <path d="M251.57,370.61c1.52.86,3.26,1.29,5.24,1.29s3.68-.43,5.19-1.29,2.68-2.05,3.53-3.57c.85-1.52,1.27-3.26,1.27-5.24s-.42-3.73-1.27-5.24-2.03-2.7-3.55-3.57-3.27-1.29-5.24-1.29-3.69.43-5.21,1.29c-1.52.86-2.7,2.05-3.55,3.57s-1.27,3.27-1.27,5.24.43,3.73,1.29,5.24c.86,1.52,2.05,2.71,3.57,3.57h0ZM252.53,359c.41-.81.98-1.45,1.72-1.91.73-.46,1.57-.69,2.52-.69s1.75.23,2.49.69c.73.46,1.3,1.1,1.72,1.91.41.81.62,1.74.62,2.79s-.2,1.99-.62,2.79c-.41.81-.97,1.45-1.68,1.91-.71.46-1.54.69-2.49.69s-1.8-.23-2.55-.69-1.33-1.1-1.74-1.91c-.41-.81-.62-1.74-.62-2.79s.2-1.99.62-2.79Z" style="fill: #012626;"/>
      <path d="M281.7,358.52c.3.72.44,1.74.44,3.05v9.87h5.09v-10.91c.03-2.06-.24-3.73-.81-5.03-.57-1.3-1.39-2.25-2.47-2.87-1.08-.62-2.38-.92-3.89-.92s-2.74.38-3.84,1.14c-.72.5-1.33,1.15-1.84,1.93l-.23-2.61h-4.78v19.28h5.09v-10.1c0-1.62.35-2.84,1.06-3.66.71-.82,1.72-1.22,3.03-1.19.72,0,1.35.16,1.89.48s.96.84,1.25,1.56h0Z" style="fill: #012626;"/>
      <path d="M308.44,371.44v-10.91c0-2.06-.28-3.73-.85-5.03-.57-1.3-1.38-2.25-2.45-2.87s-2.37-.92-3.91-.92-2.74.38-3.84,1.14c-.68.47-1.26,1.07-1.75,1.8v-10.19h-5.09v26.99h5.09v-10.1c0-1.62.35-2.84,1.06-3.66.71-.82,1.72-1.22,3.03-1.19.72,0,1.35.16,1.89.48s.96.84,1.27,1.56c.31.72.46,1.74.46,3.05v9.87h5.09,0Z" style="fill: #012626;"/>
      <path d="M312.74,361.36c-1.38,1.04-2.06,2.59-2.06,4.65,0,1.88.64,3.33,1.91,4.36,1.27,1.03,3.07,1.54,5.38,1.54s4-.73,4.99-2.2c.11-.17.22-.34.31-.52l.09,2.26h4.74l.12-10.68c.03-1.85-.28-3.45-.91-4.8-.63-1.35-1.59-2.4-2.89-3.14-1.3-.75-2.93-1.12-4.88-1.12-1.62,0-2.99.25-4.11.75-1.12.5-2.02,1.14-2.72,1.93-.69.78-1.22,1.59-1.58,2.41l4.47,1.54c.46-.75,1.03-1.3,1.7-1.66.67-.36,1.41-.54,2.24-.54.9,0,1.61.23,2.14.68.53.45.91,1.09,1.16,1.91.1.33.17.69.23,1.08h-4.53c-2.49,0-4.43.52-5.8,1.56h0ZM323.2,363.57c0,.67-.19,1.32-.58,1.95-.39.63-.91,1.14-1.56,1.54s-1.41.6-2.25.6c-.92,0-1.64-.16-2.16-.48s-.77-.76-.77-1.33c0-.72.32-1.28.96-1.68s1.8-.6,3.47-.6h2.89,0Z" style="fill: #012626;"/>
      <path d="M343.91,362.26c0,1.59-.35,2.81-1.04,3.64-.69.84-1.71,1.24-3.05,1.21-.69,0-1.32-.16-1.87-.48-.55-.32-.98-.85-1.27-1.58-.3-.73-.44-1.74-.44-3.03v-9.87h-5.09v10.91c0,2.06.27,3.73.83,5.03.55,1.3,1.37,2.26,2.45,2.87,1.08.62,2.39.92,3.93.92s2.74-.38,3.82-1.14c.71-.5,1.31-1.14,1.82-1.92l.23,2.59h4.78v-19.28h-5.09v10.1h0Z" style="fill: #012626;"/>
      <path d="M367.1,363.59c-.35-.84-.9-1.59-1.66-2.28-.76-.68-1.77-1.18-3.03-1.48l-2.51-.62c-.67-.15-1.18-.34-1.54-.56-.36-.22-.54-.49-.54-.83,0-.51.19-.92.56-1.21.37-.3.91-.44,1.6-.44s1.39.16,2.08.48,1.13.74,1.31,1.25l4.2-1.93c-.28-.85-.8-1.59-1.54-2.24-.75-.64-1.64-1.14-2.68-1.5-1.04-.36-2.17-.54-3.37-.54-2.34,0-4.15.54-5.42,1.62-1.27,1.08-1.91,2.61-1.91,4.59,0,1.39.53,2.62,1.6,3.68s2.52,1.84,4.38,2.33l1.77.46c.64.15,1.15.34,1.52.56s.56.56.56,1.02-.23.82-.69,1.06c-.46.24-1.12.37-1.97.37s-1.64-.22-2.31-.68c-.67-.45-1.19-.98-1.58-1.6l-4.36,2.01c.46,1.03,1.1,1.9,1.93,2.6.82.71,1.77,1.25,2.85,1.62,1.08.37,2.24.56,3.47.56,1.49,0,2.82-.24,3.99-.73,1.17-.49,2.09-1.18,2.78-2.06.68-.89,1.02-1.91,1.02-3.07,0-.8-.17-1.61-.52-2.45h0Z" style="fill: #012626;"/>
      <polygon points="155.79 411.22 161.07 411.22 161.07 400.35 171.1 400.35 171.1 395.53 161.07 395.53 161.07 389.05 173.1 389.05 173.1 384.23 155.79 384.23 155.79 411.22" style="fill: #012626;"/>
      <path d="M189.57,392.77c-1.52-.86-3.27-1.29-5.24-1.29s-3.69.43-5.21,1.29c-1.52.86-2.7,2.05-3.55,3.57s-1.27,3.27-1.27,5.24.43,3.73,1.29,5.24,2.05,2.71,3.57,3.57c1.52.86,3.26,1.29,5.24,1.29s3.68-.43,5.19-1.29,2.68-2.05,3.53-3.57,1.27-3.26,1.27-5.24-.42-3.73-1.27-5.24c-.85-1.52-2.03-2.7-3.55-3.57h0ZM188.57,404.38c-.41.81-.97,1.45-1.68,1.91-.71.46-1.54.69-2.49.69s-1.8-.23-2.55-.69-1.33-1.1-1.74-1.91c-.41-.81-.62-1.74-.62-2.79s.2-1.99.62-2.79c.41-.81.98-1.45,1.72-1.91.73-.46,1.57-.69,2.52-.69s1.75.23,2.49.69c.73.46,1.3,1.1,1.72,1.91.41.81.62,1.74.62,2.79s-.21,1.99-.62,2.79Z" style="fill: #012626;"/>
      <path d="M209.39,402.04c0,1.59-.35,2.81-1.04,3.64-.69.84-1.71,1.24-3.05,1.21-.69,0-1.32-.16-1.87-.48s-.98-.85-1.27-1.58c-.3-.73-.44-1.74-.44-3.03v-9.87h-5.09v10.91c0,2.06.27,3.73.83,5.03.55,1.3,1.37,2.26,2.45,2.87,1.08.62,2.39.92,3.93.92s2.74-.38,3.82-1.14c.71-.5,1.31-1.14,1.82-1.92l.23,2.59h4.78v-19.28h-5.09v10.1h0Z" style="fill: #012626;"/>
      <path d="M232.67,392.4c-1.08-.62-2.38-.92-3.89-.92s-2.74.38-3.84,1.14c-.72.5-1.33,1.14-1.84,1.93l-.23-2.61h-4.78v19.28h5.09v-10.1c0-1.62.35-2.84,1.06-3.66.71-.82,1.72-1.22,3.03-1.19.72,0,1.35.16,1.89.48.54.32.96.84,1.25,1.56.3.72.44,1.74.44,3.05v9.87h5.09v-10.91c.03-2.06-.24-3.73-.81-5.03-.57-1.3-1.39-2.25-2.47-2.87h0Z" style="fill: #012626;"/>
      <path d="M252.69,394.49c-.47-.71-1.03-1.3-1.68-1.78-1.12-.82-2.49-1.23-4.11-1.23-1.77,0-3.31.41-4.61,1.23-1.3.82-2.31,1.99-3.03,3.49-.72,1.5-1.08,3.3-1.08,5.38s.36,3.84,1.08,5.36c.72,1.52,1.73,2.69,3.03,3.51,1.3.82,2.83,1.23,4.61,1.23,1.62,0,2.99-.41,4.11-1.23.68-.5,1.26-1.13,1.75-1.89l.2,2.66h4.82v-26.99h-5.09v10.26h0ZM250.54,406.32c-.68.46-1.46.69-2.33.69-.92,0-1.74-.23-2.45-.69-.71-.46-1.27-1.1-1.68-1.93-.41-.82-.62-1.76-.62-2.81s.2-1.99.62-2.82c.41-.82.96-1.46,1.66-1.91.69-.45,1.5-.68,2.43-.68s1.69.23,2.37.68c.68.45,1.21,1.09,1.6,1.91.29.61.47,1.29.54,2.03v1.58c-.07.74-.25,1.41-.54,2.03-.39.82-.92,1.46-1.6,1.93Z" style="fill: #012626;"/>
      <path d="M274.1,392.6c-1.3-.75-2.93-1.12-4.88-1.12-1.62,0-2.99.25-4.11.75-1.12.5-2.02,1.14-2.72,1.93-.69.78-1.22,1.59-1.58,2.41l4.47,1.54c.46-.75,1.03-1.3,1.7-1.66.67-.36,1.41-.54,2.24-.54.9,0,1.61.23,2.14.68.53.45.91,1.09,1.16,1.91.1.33.17.69.23,1.08h-4.53c-2.49,0-4.43.52-5.8,1.56-1.37,1.04-2.06,2.59-2.06,4.65,0,1.88.64,3.33,1.91,4.36,1.27,1.03,3.07,1.54,5.38,1.54s4-.73,4.99-2.2c.11-.17.22-.34.31-.52l.09,2.26h4.74l.12-10.68c.03-1.85-.28-3.45-.91-4.8-.63-1.35-1.59-2.4-2.89-3.14h0ZM272.31,405.3c-.39.63-.91,1.14-1.56,1.54s-1.41.6-2.25.6c-.92,0-1.64-.16-2.16-.48s-.77-.76-.77-1.33c0-.72.32-1.28.96-1.68s1.8-.6,3.47-.6h2.89c0,.67-.19,1.32-.58,1.95h0Z" style="fill: #012626;"/>
      <path d="M290.7,406.8c-.31.12-.59.17-.85.17-.69,0-1.22-.21-1.58-.64s-.54-1.05-.54-1.87v-8.21h4.82v-4.32h-4.82v-6.02h-5.09v6.02h-3.12v4.32h3.12v9.33c0,1.95.55,3.46,1.64,4.51,1.09,1.06,2.7,1.58,4.84,1.58.75,0,1.5-.15,2.25-.44.76-.3,1.45-.68,2.06-1.14l-1.77-3.82c-.34.23-.65.41-.96.52h0Z" style="fill: #012626;"/>
      <path d="M298.76,382.96c-.77,0-1.45.29-2.04.87-.59.58-.89,1.27-.89,2.06s.3,1.48.89,2.06c.59.58,1.27.87,2.04.87s1.48-.29,2.06-.87.87-1.26.87-2.06-.29-1.48-.87-2.06-1.27-.87-2.06-.87Z" style="fill: #012626;"/>
      <rect x="296.21" y="391.94" width="5.09" height="19.28" style="fill: #012626;"/>
      <path d="M319.46,392.77c-1.52-.86-3.27-1.29-5.24-1.29s-3.69.43-5.21,1.29c-1.52.86-2.7,2.05-3.55,3.57-.85,1.52-1.27,3.27-1.27,5.24s.43,3.73,1.29,5.24,2.05,2.71,3.57,3.57c1.52.86,3.26,1.29,5.24,1.29s3.68-.43,5.19-1.29,2.68-2.05,3.53-3.57,1.27-3.26,1.27-5.24-.42-3.73-1.27-5.24-2.03-2.7-3.55-3.57h0ZM318.46,404.38c-.41.81-.97,1.45-1.68,1.91-.71.46-1.54.69-2.49.69s-1.8-.23-2.55-.69-1.33-1.1-1.74-1.91c-.41-.81-.62-1.74-.62-2.79s.2-1.99.62-2.79c.41-.81.98-1.45,1.72-1.91.73-.46,1.57-.69,2.52-.69s1.75.23,2.49.69c.73.46,1.3,1.1,1.72,1.91.41.81.62,1.74.62,2.79s-.21,1.99-.62,2.79Z" style="fill: #012626;"/>
      <path d="M341.44,392.4c-1.08-.62-2.38-.92-3.89-.92s-2.74.38-3.84,1.14c-.72.5-1.33,1.15-1.84,1.93l-.23-2.61h-4.78v19.28h5.09v-10.1c0-1.62.35-2.84,1.06-3.66.71-.82,1.72-1.22,3.03-1.19.72,0,1.35.16,1.89.48s.96.84,1.25,1.56.44,1.74.44,3.05v9.87h5.09v-10.91c.03-2.06-.24-3.73-.81-5.03-.57-1.3-1.39-2.25-2.47-2.87h0Z" style="fill: #012626;"/>
    </g>
  </g>
  <g>
    <line x1="30.88" y1="36.17" x2="458.55" y2="463.83" style="fill: none; stroke: #ff004a; stroke-miterlimit: 10; stroke-width: 3px;"/>
    <line x1="469.12" y1="36.17" x2="41.45" y2="463.83" style="fill: none; stroke: #ff004a; stroke-miterlimit: 10; stroke-width: 3px;"/>
  </g>
</svg>