<?xml version="1.0" encoding="UTF-8"?>
<svg id="Layer_2" xmlns="http://www.w3.org/2000/svg" viewBox="0 0 500 500">
  <g>
    <rect x="152.55" y="139.1" width="192.67" height="126.71" style="fill: #012626;"/>
    <path d="M308.45,148.5h13.98c.72,0,1.23.48.97.92-1.98,3.43-7.63,11.59-21.14,17.81-.72.33-1.71-.04-1.63-.62,1.42-10.55,5.38-15.93,6.91-17.76.18-.22.53-.35.91-.35h0Z" style="fill: #a9d962;"/>
    <path d="M296.23,149.46c-2.09,3.09-3.67,6.5-4.85,10.08-.17.53-1.19.72-1.76.33-2.22-1.53-6.44-4.95-9.82-10.44-.27-.45.23-.93.96-.93h14.51c.75,0,1.25.51.94.96h0Z" style="fill: #78a658;"/>
    <path d="M227.04,148.5h6.51c.58,0,1.05.32,1.03.7-.65,17.22,1.28,32.83,2.54,41.77.07.47-.59.84-1.28.72-3.3-.55-11.46-1.91-17.41-2.99-.32-.06-.58-.22-.7-.43-2.03-3.74-7.25-13.67-9.06-17.64-.14-.31.07-.65.51-.8,9.72-3.36,14.91-12.06,16.82-20.76.07-.34.51-.59,1.02-.59h0Z" style="fill: #4d7343;"/>
    <path d="M221.74,149.31c-1.24,4.09-4.84,13.15-13.57,16.74-.6.24-1.38.03-1.55-.41-2.59-6.77-3.97-12.73-4.56-16.39-.07-.4.41-.75,1.03-.75h17.64c.65,0,1.14.39,1.02.81h0Z" style="fill: #78a658;"/>
    <path d="M167.87,148.5h24.16c.56,0,1.01.29,1.03.65.29,4.4,1.02,8.76,2.09,13.09.12.47-.51.87-1.21.78-11.28-1.36-20.11-3.07-26.48-4.82-.38-.11-.63-.35-.63-.63v-8.4c0-.38.46-.68,1.04-.68Z" style="fill: #a9d962;"/>
    <path d="M168.28,162.3c10.14,2.89,22,4.77,27.82,5.61.4.06.71.26.79.53,1.72,5.46,3.88,10.87,6.25,16.22.23.52-.51,1-1.3.84-6.56-1.35-23.5-4.94-34.48-9-.32-.12-.53-.35-.53-.59v-12.98c0-.49.76-.82,1.45-.63h0Z" style="fill: #78a658;"/>
    <path d="M166.84,255.74v-18.73c0-.49.76-.82,1.45-.63,7.5,2.13,34.21,9.03,79.9,9.41.49,0,.91.23,1.01.55.9,3.09,1.83,6.18,2.8,9.26.13.42-.36.82-1.01.82h-83.1c-.57,0-1.04-.31-1.04-.68h0Z" style="fill: #bad3d9;"/>
    <path d="M330.54,216.07c-4.42,2.24-9.1,4.31-13.92,6.21-.66.26-1.5-.02-1.57-.52-.5-3.58-.94-15.55,14.09-26.26.64-.46,1.8-.16,1.8.46v19.57c0,.21-.15.41-.4.54h0Z" style="fill: #a9d962;"/>
    <path d="M330.66,169.54c-6.58,4.61-15.64,8.98-28.77,13.01-.66.2-1.43-.1-1.47-.57-.26-2.99-.38-6.07-.29-9.16,0-.23.2-.45.5-.57,3.38-1.35,20.56-8.7,27.16-23.25.13-.29.53-.49.99-.49h1.12c.57,0,1.04.31,1.04.68v19.89c0,.17-.1.34-.28.47h0Z" style="fill: #78a658;"/>
    <path d="M194.2,230.74c-4.06-9.32-13.5-18.7-25.61-26.49-.65-.42-1.76-.11-1.76.49v20.59c0,.26.23.5.58.62,10.25,3.24,21.38,5.03,25.56,5.64.77.11,1.44-.36,1.22-.85h0Z" style="fill: #78a658;"/>
    <g>
      <path d="M309.37,216.6l-4.63-2.82c-.67-.4-1.74-.09-1.74.5v11.74c0,.51.81.84,1.5.61,1.66-.55,3.3-1.11,4.93-1.68.38-.13.59-.41.54-.69-.44-2.35-.53-4.74-.27-7.11.02-.21-.1-.41-.33-.55h0Z" style="fill: #4d7343;"/>
      <path d="M286.76,197.27l22.71,13.93c.58.36,1.53.17,1.71-.34.78-2.13,1.84-4.21,3.15-6.2,3.6-5.47,9.37-10.29,16.24-14.14.23-.13.36-.32.36-.52v-7.68c0-.57-1-.89-1.68-.53-12.21,6.36-27.06,11.02-42.12,14.34-.74.17-.95.79-.38,1.14h0Z" style="fill: #4d7343;"/>
    </g>
    <path d="M266.35,184.75l6.72,4.12c.26.16.63.22.97.16,4.65-.8,9.27-1.71,13.81-2.75.43-.1.71-.37.69-.67-.36-6.38-.14-13.63,1.37-20.61.05-.22-.07-.44-.32-.59-2.01-1.24-10.72-7.21-13.67-15.39-.11-.31-.53-.52-1.01-.52h-10.96c-.58,0-1.04.31-1.04.69.12,5.23,1.6,25.67,3.1,35.13.03.16.14.31.32.43h0Z" style="fill: #4d7343;"/>
    <path d="M213.21,213.78l-4.9,2.98c-.42.25-1.07.24-1.46-.04l-2.73-1.92c-.39-.27-.37-.71.05-.96l21.65-13.29c.59-.36.36-1-.41-1.15-17.02-3.32-40.28-8.3-57.08-13.99-.69-.23-1.51.1-1.51.61v13.15c0,.2.14.39.37.52,22.89,12.81,30.8,26,33.27,32.47.1.26.42.46.82.51,4.15.48,8.32.87,12.51,1.2.61.05,1.16-.27,1.16-.68v-18.9c0-.6-1.08-.9-1.74-.5h0Z" style="fill: #4d7343;"/>
    <path d="M258.26,186.12l-36.93,22.71c-.21.13-.33.31-.33.5v23.03c0,.38.46.68,1.04.68h24.38c.57,0,1.04-.31,1.04-.68v-21.81c0-.38.46-.68,1.04-.68h20.53c.57,0,1.04.31,1.04.68v21.81c0,.38.46.68,1.04.68h10.65c.12,0,.24-.02.36-.04,4.81-1.15,9.55-2.42,14.22-3.8.37-.11.61-.35.61-.62v-19.24c0-.19-.12-.37-.33-.5l-36.93-22.71c-.4-.24-1.02-.24-1.42,0h0Z" style="fill: #fff;"/>
    <path d="M281.53,245.33c.78,2.27,3.06,8.69,3.73,10.57.11.31.53.53,1.01.53h43.63c.57,0,1.04-.31,1.04-.68v-27.14c0-.55-.96-.88-1.64-.55-20.1,9.49-42.55,15.34-47.12,16.49-.48.12-.75.46-.64.79h0Z" style="fill: #bad3d9;"/>
    <path d="M89.15,306.8c-.73,1.07-1.67,2.01-2.85,2.82s-2.52,1.45-4.03,1.92-3.19.69-5.03.69c-2.65,0-4.99-.43-7.04-1.28s-3.65-2.03-4.8-3.54c-1.15-1.5-1.73-3.24-1.73-5.2s.56-3.69,1.7-5.18c1.13-1.49,2.71-2.66,4.74-3.52s4.34-1.28,6.95-1.28c1.79,0,3.46.22,4.99.65s2.9,1.04,4.1,1.81c1.2.77,2.15,1.68,2.88,2.72l8.13-1.98c-1.07-1.66-2.59-3.12-4.58-4.4-1.98-1.28-4.3-2.27-6.95-2.99-2.65-.71-5.51-1.07-8.58-1.07-4.35,0-8.21.65-11.56,1.96-3.35,1.3-5.99,3.1-7.91,5.39-1.92,2.29-2.88,4.92-2.88,7.89s.96,5.61,2.88,7.89c1.92,2.29,4.57,4.08,7.94,5.39,3.37,1.3,7.24,1.96,11.59,1.96,3.11,0,5.99-.37,8.64-1.09,2.65-.73,4.96-1.75,6.95-3.07,1.98-1.32,3.51-2.84,4.58-4.55l-8.13-1.94h0Z" style="fill: #012626;"/>
    <path d="M107.59,316.04c2.52.94,5.42,1.41,8.71,1.41s6.11-.47,8.61-1.41,4.45-2.24,5.86-3.89,2.11-3.56,2.11-5.73-.7-4.07-2.11-5.73-3.37-2.95-5.89-3.89c-2.52-.94-5.42-1.41-8.71-1.41s-6.13.47-8.64,1.41c-2.52.94-4.48,2.24-5.89,3.89s-2.11,3.57-2.11,5.73.72,4.07,2.15,5.73c1.43,1.66,3.4,2.96,5.92,3.89h0ZM109.19,303.37c.68-.89,1.63-1.58,2.85-2.08,1.22-.51,2.61-.76,4.19-.76s2.91.25,4.13.76,2.17,1.2,2.85,2.08c.68.89,1.02,1.9,1.02,3.05s-.34,2.17-1.02,3.05c-.68.89-1.61,1.58-2.78,2.08-1.18.51-2.55.76-4.13.76s-2.99-.25-4.23-.76-2.2-1.2-2.88-2.08c-.68-.89-1.02-1.9-1.02-3.05s.34-2.17,1.02-3.05h0Z" style="fill: #012626;"/>
    <path d="M145.62,305.91c0-1.77.55-3.1,1.63-4,1.09-.9,2.66-1.33,4.71-1.3,1.11,0,2.08.18,2.91.53s1.47.92,1.92,1.71.67,1.89.67,3.33v10.78h8.45v-11.03c0-1.77.55-3.1,1.66-4,1.11-.9,2.69-1.33,4.74-1.3,1.11,0,2.07.18,2.88.53s1.45.92,1.92,1.71c.47.79.7,1.89.7,3.33v10.78h8.45v-12.04c0-3.23-.98-5.62-2.95-7.18-1.96-1.56-4.82-2.34-8.58-2.34-2.26,0-4.25.39-5.96,1.16-1.71.77-3.03,1.87-3.97,3.31-.81-1.52-2.1-2.64-3.88-3.37-1.77-.73-3.96-1.09-6.56-1.09-1.88,0-3.59.27-5.12.82-1.54.55-2.8,1.36-3.78,2.42l-.38-2.74h-7.94v21.05h8.45v-11.03h0Z" style="fill: #012626;"/>
    <path d="M232.37,306.17v10.78h8.45v-12.04c0-3.23-.98-5.62-2.95-7.18-1.96-1.56-4.82-2.34-8.58-2.34-2.26,0-4.25.39-5.96,1.16-1.71.77-3.03,1.87-3.97,3.31-.81-1.52-2.1-2.64-3.88-3.37-1.77-.73-3.96-1.09-6.56-1.09-1.88,0-3.59.27-5.12.82-1.54.55-2.8,1.36-3.78,2.42l-.38-2.74h-7.94v21.05h8.45v-11.03c0-1.77.55-3.1,1.63-4,1.09-.9,2.66-1.33,4.71-1.3,1.11,0,2.08.18,2.91.53s1.47.92,1.92,1.71.67,1.89.67,3.33v10.78h8.45v-11.03c0-1.77.55-3.1,1.66-4,1.11-.9,2.69-1.33,4.74-1.3,1.11,0,2.07.18,2.88.53s1.45.92,1.92,1.71c.47.79.7,1.89.7,3.33h0Z" style="fill: #012626;"/>
    <path d="M252.6,316.04c2.52.94,5.42,1.41,8.71,1.41s6.11-.47,8.61-1.41,4.45-2.24,5.86-3.89c1.41-1.66,2.11-3.56,2.11-5.73s-.7-4.07-2.11-5.73c-1.41-1.66-3.37-2.95-5.89-3.89s-5.42-1.41-8.71-1.41-6.13.47-8.64,1.41c-2.52.94-4.48,2.24-5.89,3.89s-2.11,3.57-2.11,5.73.72,4.07,2.15,5.73c1.43,1.66,3.4,2.96,5.92,3.89h0ZM254.2,303.37c.68-.89,1.63-1.58,2.85-2.08,1.22-.51,2.61-.76,4.19-.76s2.91.25,4.13.76c1.22.51,2.17,1.2,2.85,2.08.68.89,1.02,1.9,1.02,3.05s-.34,2.17-1.02,3.05c-.68.89-1.61,1.58-2.78,2.08-1.18.51-2.55.76-4.13.76s-2.99-.25-4.23-.76-2.2-1.2-2.88-2.08c-.68-.89-1.02-1.9-1.02-3.05s.34-2.17,1.02-3.05Z" style="fill: #012626;"/>
    <path d="M302.64,302.84c.49.79.73,1.89.73,3.33v10.78h8.45v-11.92c.04-2.25-.41-4.08-1.35-5.49-.94-1.42-2.3-2.46-4.1-3.14-1.79-.67-3.95-1.01-6.47-1.01s-4.56.41-6.37,1.24c-1.19.54-2.21,1.25-3.05,2.11l-.38-2.85h-7.94v21.05h8.45v-11.03c0-1.77.59-3.1,1.76-4,1.17-.9,2.85-1.33,5.03-1.3,1.2,0,2.24.18,3.14.53s1.59.92,2.08,1.71h0Z" style="fill: #012626;"/>
    <path d="M347.04,316.95v-11.92c0-2.25-.47-4.08-1.41-5.49-.94-1.42-2.29-2.46-4.06-3.14s-3.94-1.01-6.5-1.01-4.56.41-6.37,1.24c-1.13.51-2.1,1.17-2.91,1.97v-11.13h-8.45v29.47h8.45v-11.03c0-1.77.59-3.1,1.76-4,1.17-.9,2.85-1.33,5.03-1.3,1.2,0,2.24.18,3.14.53s1.6.92,2.11,1.71c.51.79.77,1.89.77,3.33v10.78h8.45,0Z" style="fill: #012626;"/>
    <path d="M354.17,305.94c-2.29,1.14-3.43,2.83-3.43,5.07,0,2.05,1.06,3.63,3.17,4.76,2.11,1.12,5.09,1.68,8.93,1.68s6.65-.8,8.29-2.4c.19-.18.36-.37.52-.57l.15,2.46h7.87l.19-11.66c.04-2.02-.46-3.77-1.5-5.24-1.05-1.47-2.65-2.62-4.8-3.43-2.15-.81-4.86-1.22-8.1-1.22-2.69,0-4.96.27-6.82.82-1.86.55-3.36,1.25-4.51,2.11-1.15.86-2.03,1.73-2.63,2.63l7.43,1.68c.77-.81,1.71-1.42,2.82-1.81,1.11-.39,2.35-.59,3.71-.59,1.49,0,2.68.25,3.55.74.87.49,1.52,1.19,1.92,2.08.16.36.28.76.38,1.18h-7.52c-4.14,0-7.35.57-9.63,1.71h0ZM371.56,308.36c0,.73-.32,1.44-.96,2.13-.64.69-1.5,1.25-2.59,1.68s-2.34.65-3.74.65c-1.54,0-2.73-.18-3.59-.53s-1.28-.83-1.28-1.45c0-.79.53-1.4,1.6-1.83s2.99-.65,5.76-.65h4.8,0Z" style="fill: #012626;"/>
    <path d="M405.94,306.93c0,1.74-.58,3.07-1.73,3.98-1.15.91-2.84,1.36-5.06,1.33-1.15,0-2.19-.18-3.11-.53-.92-.35-1.62-.93-2.11-1.73-.49-.8-.73-1.9-.73-3.31v-10.78h-8.45v11.92c0,2.25.46,4.08,1.38,5.49.92,1.42,2.27,2.46,4.06,3.14,1.79.67,3.97,1.01,6.53,1.01s4.54-.41,6.34-1.24c1.17-.54,2.18-1.24,3.02-2.09l.38,2.83h7.94v-21.05h-8.45v11.03h0Z" style="fill: #012626;"/>
    <path d="M444.45,308.38c-.58-.91-1.5-1.74-2.75-2.48-1.26-.74-2.94-1.28-5.03-1.62l-4.16-.67c-1.11-.17-1.96-.37-2.56-.61-.6-.24-.9-.54-.9-.91,0-.56.31-1,.93-1.33.62-.32,1.5-.48,2.66-.48s2.3.18,3.46.53,1.88.81,2.18,1.37l6.98-2.11c-.47-.93-1.32-1.74-2.56-2.44-1.24-.7-2.72-1.25-4.45-1.64-1.73-.39-3.6-.59-5.6-.59-3.88,0-6.88.59-9,1.77-2.11,1.18-3.17,2.85-3.17,5.01,0,1.52.89,2.86,2.66,4.02,1.77,1.16,4.19,2.01,7.27,2.55l2.94.51c1.07.17,1.91.37,2.53.61s.93.61.93,1.12-.38.89-1.15,1.16c-.77.27-1.86.4-3.26.4s-2.73-.24-3.84-.74c-1.11-.49-1.98-1.07-2.63-1.75l-7.24,2.19c.77,1.12,1.83,2.07,3.2,2.84,1.37.77,2.94,1.36,4.74,1.77,1.79.41,3.71.61,5.76.61,2.48,0,4.68-.27,6.62-.8,1.94-.53,3.48-1.28,4.61-2.25,1.13-.97,1.7-2.08,1.7-3.35,0-.87-.29-1.76-.86-2.67h0Z" style="fill: #012626;"/>
    <polygon points="93.57 360.39 102.34 360.39 102.34 348.52 118.98 348.52 118.98 343.25 102.34 343.25 102.34 336.18 122.31 336.18 122.31 330.92 93.57 330.92 93.57 360.39" style="fill: #012626;"/>
    <path d="M149.65,340.24c-2.52-.94-5.42-1.41-8.71-1.41s-6.13.47-8.64,1.41c-2.52.94-4.48,2.24-5.89,3.89s-2.11,3.57-2.11,5.73.72,4.07,2.15,5.73c1.43,1.66,3.4,2.96,5.92,3.89,2.52.94,5.42,1.41,8.71,1.41s6.11-.47,8.61-1.41,4.45-2.24,5.86-3.89c1.41-1.66,2.11-3.56,2.11-5.73s-.7-4.07-2.11-5.73c-1.41-1.66-3.37-2.95-5.89-3.89h0ZM147.99,352.92c-.68.89-1.61,1.58-2.78,2.08-1.18.51-2.55.76-4.13.76s-2.99-.25-4.23-.76-2.2-1.2-2.88-2.08c-.68-.89-1.02-1.9-1.02-3.05s.34-2.17,1.02-3.05c.68-.89,1.63-1.58,2.85-2.08,1.22-.51,2.61-.76,4.19-.76s2.91.25,4.13.76c1.21.51,2.17,1.2,2.85,2.08.68.89,1.02,1.9,1.02,3.05s-.34,2.17-1.02,3.05Z" style="fill: #012626;"/>
    <path d="M182.56,350.37c0,1.74-.58,3.07-1.73,3.98-1.15.91-2.84,1.36-5.06,1.33-1.15,0-2.19-.18-3.11-.53s-1.62-.93-2.11-1.73c-.49-.8-.73-1.9-.73-3.31v-10.78h-8.45v11.92c0,2.25.46,4.08,1.38,5.49.92,1.42,2.27,2.46,4.06,3.14,1.79.67,3.97,1.01,6.53,1.01s4.54-.41,6.34-1.24c1.17-.54,2.18-1.24,3.02-2.09l.38,2.83h7.94v-21.05h-8.45v11.03h0Z" style="fill: #012626;"/>
    <path d="M221.23,339.84c-1.79-.67-3.95-1.01-6.47-1.01s-4.56.41-6.37,1.24c-1.19.54-2.21,1.25-3.05,2.11l-.38-2.85h-7.94v21.05h8.45v-11.03c0-1.77.59-3.1,1.76-4,1.17-.9,2.85-1.33,5.03-1.3,1.2,0,2.24.18,3.14.53.9.35,1.59.92,2.08,1.71.49.79.73,1.89.73,3.33v10.78h8.45v-11.92c.04-2.25-.41-4.08-1.35-5.49-.94-1.42-2.3-2.46-4.1-3.14h0Z" style="fill: #012626;"/>
    <path d="M254.46,342.12c-.78-.77-1.71-1.42-2.78-1.94-1.86-.9-4.13-1.35-6.82-1.35-2.94,0-5.5.45-7.65,1.35-2.15.9-3.83,2.17-5.03,3.81-1.2,1.64-1.79,3.6-1.79,5.87s.6,4.2,1.79,5.85c1.2,1.66,2.87,2.93,5.03,3.83,2.15.9,4.71,1.35,7.65,1.35,2.69,0,4.96-.45,6.82-1.35,1.13-.55,2.1-1.24,2.9-2.06l.33,2.9h8v-29.47h-8.45v11.21h0ZM250.9,355.04c-1.13.51-2.42.76-3.88.76-1.54,0-2.89-.25-4.06-.76-1.18-.51-2.1-1.21-2.78-2.11-.68-.9-1.02-1.92-1.02-3.07s.34-2.17,1.02-3.07c.68-.9,1.6-1.59,2.75-2.08,1.15-.49,2.5-.74,4.03-.74s2.81.25,3.94.74c1.13.49,2.01,1.19,2.66,2.08.48.67.77,1.41.9,2.21v1.72c-.12.81-.42,1.54-.9,2.21-.64.9-1.53,1.6-2.66,2.11Z" style="fill: #012626;"/>
    <path d="M290.02,340.05c-2.15-.81-4.86-1.22-8.1-1.22-2.69,0-4.96.27-6.82.82-1.86.55-3.36,1.25-4.51,2.11-1.15.86-2.03,1.73-2.63,2.63l7.43,1.68c.77-.81,1.71-1.42,2.82-1.81,1.11-.39,2.35-.59,3.71-.59,1.49,0,2.68.25,3.55.74.87.49,1.52,1.19,1.92,2.08.16.36.28.76.38,1.18h-7.52c-4.14,0-7.35.57-9.64,1.71-2.28,1.14-3.43,2.83-3.43,5.07,0,2.05,1.06,3.63,3.17,4.76,2.11,1.12,5.09,1.68,8.93,1.68s6.65-.8,8.29-2.4c.19-.18.36-.37.52-.57l.15,2.47h7.87l.19-11.66c.04-2.02-.46-3.77-1.5-5.24-1.05-1.47-2.65-2.62-4.8-3.43h0ZM287.05,353.93c-.64.69-1.5,1.25-2.59,1.68s-2.34.65-3.74.65c-1.54,0-2.73-.18-3.59-.53s-1.28-.83-1.28-1.45c0-.79.53-1.4,1.6-1.83s2.99-.65,5.76-.65h4.8c0,.73-.32,1.44-.96,2.13h0Z" style="fill: #012626;"/>
    <path d="M317.58,355.57c-.51.13-.98.19-1.41.19-1.15,0-2.03-.23-2.63-.69s-.9-1.14-.9-2.04v-8.97h8v-4.72h-8v-6.57h-8.45v6.57h-5.19v4.72h5.19v10.19c0,2.13.9,3.78,2.72,4.93,1.81,1.15,4.49,1.73,8.04,1.73,1.24,0,2.49-.16,3.74-.48,1.26-.32,2.4-.74,3.43-1.24l-2.94-4.17c-.56.25-1.09.44-1.6.57h0Z" style="fill: #012626;"/>
    <path d="M330.96,329.52c-1.28,0-2.41.32-3.39.95-.98.63-1.47,1.38-1.47,2.25s.49,1.62,1.47,2.25c.98.63,2.11.95,3.39.95s2.46-.32,3.43-.95,1.44-1.38,1.44-2.25-.48-1.62-1.44-2.25-2.1-.95-3.43-.95Z" style="fill: #012626;"/>
    <rect x="326.74" y="339.34" width="8.45" height="21.05" style="fill: #012626;"/>
    <path d="M365.35,340.24c-2.52-.94-5.42-1.41-8.71-1.41s-6.13.47-8.64,1.41c-2.52.94-4.48,2.24-5.89,3.89-1.41,1.66-2.11,3.57-2.11,5.73s.72,4.07,2.15,5.73c1.43,1.66,3.4,2.96,5.92,3.89,2.52.94,5.42,1.41,8.71,1.41s6.11-.47,8.61-1.41c2.5-.94,4.45-2.24,5.86-3.89s2.11-3.56,2.11-5.73-.7-4.07-2.11-5.73-3.37-2.95-5.89-3.89h0ZM363.68,352.92c-.68.89-1.61,1.58-2.78,2.08-1.18.51-2.55.76-4.13.76s-2.99-.25-4.23-.76-2.2-1.2-2.88-2.08c-.68-.89-1.02-1.9-1.02-3.05s.34-2.17,1.02-3.05c.68-.89,1.63-1.58,2.85-2.08,1.22-.51,2.61-.76,4.19-.76s2.91.25,4.13.76c1.21.51,2.17,1.2,2.85,2.08.68.89,1.02,1.9,1.02,3.05s-.34,2.17-1.02,3.05Z" style="fill: #012626;"/>
    <path d="M401.84,339.84c-1.79-.67-3.95-1.01-6.47-1.01s-4.56.41-6.37,1.24c-1.2.54-2.21,1.25-3.05,2.11l-.38-2.85h-7.94v21.05h8.45v-11.03c0-1.77.59-3.1,1.76-4,1.17-.9,2.85-1.33,5.03-1.3,1.2,0,2.24.18,3.14.53s1.59.92,2.08,1.71c.49.79.73,1.89.73,3.33v10.78h8.45v-11.92c.04-2.25-.41-4.08-1.35-5.49-.94-1.42-2.3-2.46-4.1-3.14h0Z" style="fill: #012626;"/>
  </g>
  <g>
    <line x1="30.88" y1="36.17" x2="458.55" y2="463.83" style="fill: none; stroke: #ff004a; stroke-miterlimit: 10; stroke-width: 3px;"/>
    <line x1="469.12" y1="36.17" x2="41.45" y2="463.83" style="fill: none; stroke: #ff004a; stroke-miterlimit: 10; stroke-width: 3px;"/>
  </g>
</svg>