<?xml version="1.0" encoding="UTF-8"?>
<svg id="Layer_2" xmlns="http://www.w3.org/2000/svg" viewBox="0 0 800 600">
  <line x1="87.02" y1="67.96" x2="710.89" y2="67.96" style="fill: none; stroke: gray; stroke-miterlimit: 10; stroke-width: 1.24px;"/>
  <line x1="87.02" y1="532.93" x2="710.89" y2="532.93" style="fill: none; stroke: gray; stroke-miterlimit: 10; stroke-width: 1.24px;"/>
  <line x1="187.5" y1="577.05" x2="187.5" y2="17.62" style="fill: none; stroke: #a9d962; stroke-dasharray: 7.42 7.42; stroke-miterlimit: 10; stroke-width: 1.24px;"/>
  <line x1="612.4" y1="577.05" x2="612.4" y2="17.62" style="fill: none; stroke: #a9d962; stroke-dasharray: 7.42 7.42; stroke-miterlimit: 10; stroke-width: 1.24px;"/>
  <line x1="137.26" y1="577.05" x2="137.26" y2="17.62" style="fill: none; stroke: gray; stroke-miterlimit: 10; stroke-width: 1.24px;"/>
  <line x1="663.04" y1="577.05" x2="663.04" y2="17.62" style="fill: none; stroke: gray; stroke-miterlimit: 10; stroke-width: 1.24px;"/>
  <g>
    <g>
      <rect x="294.41" y="117.47" width="209.16" height="209.16" style="fill: #012626;"/>
      <path d="M463.66,132.98h15.17c.79,0,1.33.79,1.05,1.52-2.15,5.66-8.28,19.14-22.95,29.4-.79.55-1.86-.07-1.77-1.02,1.54-17.42,5.84-26.29,7.51-29.32.2-.36.58-.58.99-.58h0Z" style="fill: #a9d962;"/>
      <path d="M450.38,134.56c-2.27,5.1-3.98,10.73-5.26,16.64-.19.88-1.29,1.2-1.91.54-2.41-2.53-6.99-8.17-10.66-17.23-.3-.73.25-1.54,1.05-1.54h15.76c.81,0,1.36.84,1.02,1.58h0Z" style="fill: #78a658;"/>
      <path d="M375.28,132.98h7.07c.63,0,1.14.52,1.12,1.15-.71,28.43,1.39,54.18,2.76,68.95.07.77-.64,1.38-1.39,1.19-3.59-.9-12.44-3.15-18.9-4.93-.35-.1-.63-.36-.76-.71-2.2-6.18-7.87-22.56-9.83-29.11-.16-.52.08-1.07.56-1.31,10.55-5.55,16.18-19.9,18.26-34.27.08-.55.55-.97,1.11-.97h0Z" style="fill: #4d7343;"/>
      <path d="M369.53,134.32c-1.35,6.75-5.26,21.71-14.73,27.64-.65.4-1.5.05-1.69-.68-2.81-11.18-4.31-21.01-4.95-27.06-.07-.66.45-1.24,1.12-1.24h19.15c.71,0,1.24.65,1.1,1.34h0Z" style="fill: #78a658;"/>
      <path d="M311.05,132.98h26.23c.6,0,1.1.47,1.12,1.08.31,7.25,1.11,14.46,2.27,21.61.13.77-.55,1.43-1.31,1.29-12.25-2.25-21.84-5.06-28.74-7.96-.42-.18-.68-.58-.68-1.03v-13.86c0-.62.5-1.13,1.13-1.13Z" style="fill: #a9d962;"/>
      <path d="M311.49,155.75c11.01,4.77,23.88,7.88,30.2,9.25.43.09.77.44.86.87,1.86,9.01,4.21,17.94,6.78,26.77.25.86-.55,1.66-1.41,1.39-7.12-2.23-25.51-8.15-37.43-14.85-.35-.2-.57-.58-.57-.98v-21.42c0-.81.83-1.35,1.57-1.03h0Z" style="fill: #78a658;"/>
      <path d="M309.92,310v-30.92c0-.81.83-1.36,1.57-1.03,8.14,3.52,37.14,14.9,86.74,15.53.53,0,.99.39,1.09.91.97,5.1,1.99,10.2,3.04,15.29.14.7-.39,1.35-1.1,1.35h-90.21c-.62,0-1.13-.5-1.13-1.13h0Z" style="fill: #bad3d9;"/>
      <path d="M487.63,244.52c-4.8,3.7-9.88,7.12-15.11,10.24-.71.43-1.62-.03-1.7-.86-.55-5.91-1.02-25.67,15.29-43.35.7-.76,1.96-.27,1.96.76v32.31c0,.35-.16.68-.44.89h0Z" style="fill: #a9d962;"/>
      <path d="M487.77,167.71c-7.15,7.6-16.98,14.83-31.23,21.47-.72.34-1.56-.16-1.6-.95-.28-4.93-.42-10.02-.31-15.12,0-.39.21-.74.54-.94,3.67-2.23,22.32-14.37,29.48-38.38.14-.48.58-.81,1.08-.81h1.22c.62,0,1.13.5,1.13,1.13v32.84c0,.29-.11.56-.3.77h0Z" style="fill: #78a658;"/>
      <path d="M339.63,268.73c-4.41-15.39-14.66-30.87-27.8-43.72-.71-.7-1.91-.18-1.91.81v33.99c0,.43.25.83.63,1.02,11.13,5.35,23.2,8.31,27.75,9.32.83.18,1.56-.59,1.33-1.41h0Z" style="fill: #78a658;"/>
      <g>
        <path d="M464.65,245.38l-5.03-4.65c-.72-.66-1.89-.16-1.89.83v19.37c0,.84.88,1.38,1.63,1,1.8-.9,3.58-1.83,5.35-2.77.41-.22.64-.67.58-1.14-.48-3.88-.57-7.83-.29-11.74.03-.34-.1-.68-.36-.91h0Z" style="fill: #4d7343;"/>
        <path d="M440.11,213.48l24.65,23c.63.59,1.66.27,1.86-.56.85-3.51,1.99-6.94,3.42-10.24,3.91-9.03,10.17-16.98,17.63-23.34.25-.21.39-.52.39-.85v-12.68c0-.94-1.09-1.47-1.82-.88-13.26,10.5-29.37,18.18-45.73,23.68-.81.27-1.03,1.31-.41,1.89h0Z" style="fill: #4d7343;"/>
      </g>
      <path d="M417.95,192.81l7.3,6.81c.28.26.68.37,1.05.27,5.05-1.33,10.06-2.83,14.99-4.55.47-.16.77-.61.75-1.1-.39-10.53-.15-22.5,1.48-34.02.05-.36-.08-.73-.34-.98-2.19-2.04-11.64-11.9-14.84-25.4-.12-.5-.58-.86-1.09-.86h-11.9c-.63,0-1.13.51-1.13,1.14.13,8.63,1.74,42.36,3.36,57.99.03.27.15.52.35.71h0Z" style="fill: #4d7343;"/>
      <path d="M360.27,240.73l-5.32,4.91c-.45.42-1.16.39-1.58-.06l-2.96-3.17c-.42-.45-.4-1.17.05-1.59l23.51-21.93c.64-.59.39-1.65-.45-1.9-18.48-5.49-43.72-13.71-61.96-23.09-.75-.39-1.64.16-1.64,1v21.71c0,.33.15.64.4.86,24.85,21.14,33.44,42.92,36.11,53.6.11.43.46.76.89.84,4.5.79,9.03,1.44,13.58,1.97.67.08,1.26-.45,1.26-1.12v-31.2c0-.98-1.17-1.49-1.89-.83h0Z" style="fill: #4d7343;"/>
      <path d="M409.17,195.07l-40.09,37.48c-.23.21-.36.51-.36.82v38.01c0,.62.5,1.13,1.13,1.13h26.46c.62,0,1.13-.5,1.13-1.13v-36c0-.62.5-1.13,1.13-1.13h22.28c.62,0,1.13.5,1.13,1.13v36c0,.62.5,1.13,1.13,1.13h11.56c.13,0,.26-.03.39-.07,5.22-1.9,10.37-4,15.44-6.28.4-.18.66-.58.66-1.03v-31.76c0-.31-.13-.61-.36-.82l-40.09-37.48c-.43-.4-1.1-.4-1.54,0h0Z" style="fill: #fff;"/>
      <path d="M434.44,292.81c.85,3.74,3.33,14.34,4.05,17.45.12.51.57.87,1.1.87h47.36c.62,0,1.13-.5,1.13-1.13v-44.79c0-.92-1.04-1.45-1.78-.91-21.81,15.66-46.19,25.32-51.16,27.22-.52.2-.82.75-.69,1.3h0Z" style="fill: #bad3d9;"/>
    </g>
    <g>
      <path d="M225.59,394.27c-.79,1.76-1.82,3.31-3.09,4.66-1.28,1.34-2.73,2.4-4.38,3.16s-3.46,1.15-5.46,1.15c-2.87,0-5.42-.71-7.65-2.12s-3.96-3.36-5.21-5.84c-1.25-2.48-1.88-5.34-1.88-8.59s.61-6.09,1.84-8.55c1.23-2.46,2.94-4.39,5.14-5.8,2.2-1.41,4.71-2.12,7.54-2.12,1.95,0,3.75.36,5.42,1.08s3.15,1.72,4.45,2.99c1.3,1.28,2.34,2.77,3.13,4.48l8.82-3.27c-1.16-2.73-2.81-5.16-4.97-7.26-2.15-2.11-4.67-3.75-7.54-4.93-2.87-1.18-5.98-1.77-9.31-1.77-4.73,0-8.91,1.08-12.54,3.23-3.64,2.15-6.5,5.12-8.59,8.9-2.09,3.78-3.13,8.12-3.13,13.03s1.04,9.26,3.13,13.03c2.09,3.78,4.96,6.74,8.62,8.9,3.66,2.15,7.85,3.23,12.58,3.23,3.38,0,6.51-.6,9.38-1.81,2.87-1.2,5.39-2.9,7.54-5.08s3.81-4.68,4.97-7.51l-8.82-3.2h0Z" style="fill: #012626;"/>
      <path d="M245.61,409.53c2.73,1.55,5.88,2.33,9.45,2.33s6.64-.78,9.35-2.33c2.71-1.55,4.83-3.69,6.36-6.43s2.29-5.88,2.29-9.45-.76-6.72-2.29-9.45-3.66-4.87-6.39-6.43c-2.73-1.55-5.89-2.33-9.45-2.33s-6.65.78-9.38,2.33c-2.73,1.55-4.87,3.69-6.39,6.43s-2.29,5.89-2.29,9.45.78,6.72,2.33,9.45c1.55,2.73,3.69,4.88,6.43,6.43h0ZM247.34,388.61c.74-1.46,1.77-2.61,3.09-3.44,1.32-.84,2.84-1.25,4.55-1.25s3.16.42,4.48,1.25,2.35,1.98,3.09,3.44c.74,1.46,1.11,3.14,1.11,5.04s-.37,3.58-1.11,5.04c-.74,1.46-1.75,2.61-3.02,3.44-1.28.84-2.77,1.25-4.48,1.25s-3.25-.42-4.59-1.25-2.39-1.98-3.13-3.44c-.74-1.46-1.11-3.14-1.11-5.04s.37-3.58,1.11-5.04h0Z" style="fill: #012626;"/>
      <path d="M286.89,392.81c0-2.92.59-5.12,1.77-6.6,1.18-1.48,2.88-2.2,5.11-2.15,1.2,0,2.26.29,3.16.87s1.6,1.52,2.09,2.82.73,3.13.73,5.49v17.79h9.17v-18.21c0-2.92.6-5.12,1.81-6.6,1.2-1.48,2.92-2.2,5.14-2.15,1.2,0,2.25.29,3.13.87s1.57,1.52,2.09,2.82c.51,1.3.76,3.13.76,5.49v17.79h9.17v-19.88c0-5.33-1.07-9.28-3.2-11.85-2.13-2.57-5.24-3.86-9.31-3.86-2.46,0-4.61.64-6.47,1.91-1.86,1.28-3.29,3.09-4.31,5.46-.88-2.5-2.28-4.35-4.21-5.56s-4.3-1.81-7.12-1.81c-2.04,0-3.89.45-5.56,1.36-1.67.9-3.04,2.24-4.1,4l-.42-4.52h-8.62v34.75h9.17v-18.21h0Z" style="fill: #012626;"/>
      <path d="M381.06,393.23v17.79h9.17v-19.88c0-5.33-1.07-9.28-3.2-11.85-2.13-2.57-5.24-3.86-9.31-3.86-2.46,0-4.61.64-6.47,1.91-1.86,1.28-3.29,3.09-4.31,5.46-.88-2.5-2.28-4.35-4.21-5.56s-4.3-1.81-7.12-1.81c-2.04,0-3.89.45-5.56,1.36-1.67.9-3.04,2.24-4.1,4l-.42-4.52h-8.62v34.75h9.17v-18.21c0-2.92.59-5.12,1.77-6.6,1.18-1.48,2.88-2.2,5.11-2.15,1.2,0,2.26.29,3.16.87s1.6,1.52,2.09,2.82.73,3.13.73,5.49v17.79h9.17v-18.21c0-2.92.6-5.12,1.81-6.6,1.2-1.48,2.92-2.2,5.14-2.15,1.2,0,2.25.29,3.13.87s1.57,1.52,2.09,2.82c.51,1.3.76,3.13.76,5.49h0Z" style="fill: #012626;"/>
      <path d="M403.03,409.53c2.73,1.55,5.88,2.33,9.45,2.33s6.64-.78,9.35-2.33c2.71-1.55,4.83-3.69,6.36-6.43,1.53-2.73,2.29-5.88,2.29-9.45s-.76-6.72-2.29-9.45-3.66-4.87-6.39-6.43c-2.73-1.55-5.89-2.33-9.45-2.33s-6.65.78-9.38,2.33c-2.73,1.55-4.87,3.69-6.39,6.43s-2.29,5.89-2.29,9.45.78,6.72,2.33,9.45c1.55,2.73,3.69,4.88,6.43,6.43h0ZM404.77,388.61c.74-1.46,1.77-2.61,3.09-3.44,1.32-.84,2.84-1.25,4.55-1.25s3.16.42,4.48,1.25c1.32.84,2.35,1.98,3.09,3.44.74,1.46,1.11,3.14,1.11,5.04s-.37,3.58-1.11,5.04c-.74,1.46-1.75,2.61-3.02,3.44-1.28.84-2.77,1.25-4.48,1.25s-3.25-.42-4.59-1.25-2.39-1.98-3.13-3.44c-.74-1.46-1.11-3.14-1.11-5.04s.37-3.58,1.11-5.04Z" style="fill: #012626;"/>
      <path d="M457.34,387.74c.53,1.3.8,3.13.8,5.49v17.79h9.17v-19.67c.05-3.71-.44-6.73-1.46-9.07-1.02-2.34-2.5-4.06-4.45-5.18-1.95-1.11-4.29-1.67-7.02-1.67s-4.95.68-6.91,2.05c-1.29.9-2.4,2.07-3.31,3.48l-.41-4.7h-8.62v34.75h9.17v-18.21c0-2.92.64-5.12,1.91-6.6,1.27-1.48,3.09-2.2,5.46-2.15,1.3,0,2.43.29,3.4.87s1.73,1.52,2.26,2.82h0Z" style="fill: #012626;"/>
      <path d="M505.54,411.02v-19.67c0-3.71-.51-6.73-1.53-9.07-1.02-2.34-2.49-4.06-4.41-5.18-1.92-1.11-4.27-1.67-7.05-1.67s-4.95.68-6.91,2.05c-1.23.85-2.28,1.94-3.16,3.25v-18.37h-9.17v48.65h9.17v-18.21c0-2.92.64-5.12,1.91-6.6,1.27-1.48,3.09-2.2,5.46-2.15,1.3,0,2.43.29,3.4.87s1.74,1.52,2.29,2.82c.56,1.3.84,3.13.84,5.49v17.79h9.17,0Z" style="fill: #012626;"/>
      <path d="M513.29,392.85c-2.48,1.88-3.72,4.67-3.72,8.38,0,3.38,1.15,6,3.44,7.85,2.29,1.86,5.52,2.78,9.69,2.78s7.22-1.32,9-3.96c.2-.3.39-.62.57-.94l.16,4.07h8.55l.21-19.25c.05-3.34-.5-6.22-1.63-8.65-1.14-2.43-2.87-4.32-5.21-5.66-2.34-1.34-5.27-2.02-8.79-2.02-2.92,0-5.39.45-7.4,1.36-2.02.9-3.65,2.06-4.9,3.48-1.25,1.41-2.2,2.86-2.85,4.35l8.06,2.78c.84-1.34,1.85-2.34,3.06-2.99,1.2-.65,2.55-.97,4.03-.97,1.62,0,2.91.41,3.86,1.22.95.81,1.65,1.96,2.09,3.44.18.6.31,1.25.42,1.94h-8.16c-4.5,0-7.98.94-10.46,2.82h0ZM532.16,396.85c0,1.2-.35,2.38-1.04,3.51-.7,1.14-1.63,2.06-2.81,2.78s-2.54,1.08-4.06,1.08c-1.67,0-2.96-.29-3.89-.87s-1.39-1.38-1.39-2.4c0-1.3.58-2.3,1.74-3.02s3.24-1.08,6.26-1.08h5.21,0Z" style="fill: #012626;"/>
      <path d="M569.48,394.48c0,2.87-.63,5.06-1.88,6.57-1.25,1.51-3.08,2.24-5.49,2.19-1.25,0-2.38-.29-3.37-.87-.99-.58-1.76-1.53-2.29-2.85-.53-1.32-.8-3.14-.8-5.46v-17.79h-9.17v19.67c0,3.71.5,6.73,1.49,9.07.99,2.34,2.47,4.07,4.41,5.18,1.95,1.11,4.31,1.67,7.09,1.67s4.93-.68,6.88-2.05c1.27-.89,2.36-2.05,3.28-3.46l.41,4.67h8.62v-34.75h-9.17v18.21h0Z" style="fill: #012626;"/>
      <path d="M611.29,396.88c-.63-1.51-1.62-2.87-2.99-4.1-1.37-1.23-3.19-2.12-5.46-2.67l-4.52-1.11c-1.2-.28-2.13-.61-2.78-1.01-.65-.39-.97-.89-.97-1.49,0-.93.34-1.65,1.01-2.19.67-.53,1.63-.8,2.88-.8s2.5.29,3.75.87,2.04,1.33,2.36,2.26l7.57-3.48c-.51-1.53-1.44-2.87-2.78-4.03-1.34-1.16-2.96-2.06-4.83-2.71-1.88-.65-3.9-.97-6.08-.97-4.22,0-7.47.97-9.77,2.92-2.29,1.95-3.44,4.7-3.44,8.27,0,2.5.96,4.71,2.88,6.64s4.55,3.33,7.89,4.21l3.19.84c1.16.28,2.07.61,2.75,1.01s1.01,1.01,1.01,1.84-.42,1.47-1.25,1.91c-.84.44-2.02.66-3.54.66s-2.96-.4-4.17-1.22c-1.2-.81-2.15-1.77-2.85-2.88l-7.85,3.61c.84,1.86,1.99,3.42,3.48,4.69,1.48,1.28,3.19,2.25,5.14,2.92,1.95.67,4.03,1.01,6.26,1.01,2.69,0,5.08-.44,7.19-1.32,2.11-.88,3.77-2.12,5-3.72,1.23-1.6,1.84-3.44,1.84-5.52,0-1.44-.31-2.91-.94-4.41h0Z" style="fill: #012626;"/>
      <polygon points="230.39 482.73 239.91 482.73 239.91 463.13 257.98 463.13 257.98 454.44 239.91 454.44 239.91 442.77 261.59 442.77 261.59 434.08 230.39 434.08 230.39 482.73" style="fill: #012626;"/>
      <path d="M291.27,449.48c-2.73-1.55-5.89-2.33-9.45-2.33s-6.65.78-9.38,2.33c-2.73,1.55-4.87,3.69-6.39,6.43-1.53,2.73-2.29,5.89-2.29,9.45s.78,6.72,2.33,9.45c1.55,2.73,3.69,4.88,6.43,6.43,2.73,1.55,5.88,2.33,9.45,2.33s6.64-.78,9.35-2.33,4.83-3.69,6.36-6.43,2.29-5.88,2.29-9.45-.76-6.72-2.29-9.45c-1.53-2.73-3.66-4.87-6.39-6.43h0ZM289.46,470.4c-.74,1.46-1.75,2.61-3.02,3.44-1.28.84-2.77,1.25-4.48,1.25s-3.25-.42-4.59-1.25-2.39-1.98-3.13-3.44c-.74-1.46-1.11-3.14-1.11-5.04s.37-3.58,1.11-5.04c.74-1.46,1.77-2.61,3.09-3.44,1.32-.84,2.84-1.25,4.55-1.25s3.16.42,4.48,1.25c1.32.84,2.35,1.98,3.09,3.44.74,1.46,1.11,3.14,1.11,5.04s-.37,3.58-1.11,5.04Z" style="fill: #012626;"/>
      <path d="M326.99,466.19c0,2.87-.63,5.06-1.88,6.57-1.25,1.51-3.08,2.24-5.49,2.19-1.25,0-2.38-.29-3.37-.87s-1.76-1.53-2.29-2.85c-.53-1.32-.8-3.14-.8-5.46v-17.79h-9.17v19.67c0,3.71.5,6.73,1.49,9.07.99,2.34,2.47,4.07,4.41,5.18,1.95,1.11,4.31,1.67,7.09,1.67s4.93-.68,6.88-2.05c1.27-.89,2.36-2.05,3.28-3.46l.41,4.67h8.62v-34.75h-9.17v18.21h0Z" style="fill: #012626;"/>
      <path d="M368.97,448.81c-1.95-1.11-4.29-1.67-7.02-1.67s-4.95.68-6.91,2.05c-1.29.9-2.4,2.06-3.31,3.48l-.41-4.7h-8.62v34.75h9.17v-18.21c0-2.92.64-5.12,1.91-6.6,1.27-1.48,3.09-2.2,5.46-2.15,1.3,0,2.43.29,3.4.87.97.58,1.73,1.52,2.26,2.82.53,1.3.8,3.13.8,5.49v17.79h9.17v-19.67c.05-3.71-.44-6.73-1.46-9.07-1.02-2.34-2.5-4.06-4.45-5.18h0Z" style="fill: #012626;"/>
      <path d="M405.04,452.58c-.85-1.27-1.86-2.35-3.02-3.21-2.02-1.48-4.48-2.23-7.4-2.23-3.19,0-5.97.74-8.3,2.23-2.34,1.48-4.16,3.58-5.46,6.29-1.3,2.71-1.95,5.94-1.95,9.69s.65,6.93,1.95,9.66c1.3,2.73,3.12,4.84,5.46,6.32,2.34,1.48,5.11,2.23,8.3,2.23,2.92,0,5.39-.74,7.4-2.23,1.23-.9,2.28-2.04,3.15-3.4l.36,4.79h8.69v-48.65h-9.17v18.5h0ZM401.19,473.91c-1.23.84-2.63,1.25-4.21,1.25-1.67,0-3.14-.42-4.41-1.25-1.28-.84-2.28-1.99-3.02-3.48-.74-1.48-1.11-3.17-1.11-5.07s.37-3.59,1.11-5.08c.74-1.48,1.74-2.63,2.99-3.44,1.25-.81,2.71-1.22,4.38-1.22s3.05.41,4.27,1.22c1.23.81,2.19,1.96,2.88,3.44.52,1.1.84,2.32.97,3.65v2.84c-.13,1.33-.46,2.55-.97,3.65-.7,1.48-1.66,2.64-2.88,3.48Z" style="fill: #012626;"/>
      <path d="M443.65,449.16c-2.34-1.34-5.27-2.02-8.79-2.02-2.92,0-5.39.45-7.4,1.36-2.02.9-3.65,2.06-4.9,3.48-1.25,1.41-2.2,2.86-2.85,4.35l8.06,2.78c.84-1.34,1.85-2.34,3.06-2.99,1.2-.65,2.55-.97,4.03-.97,1.62,0,2.91.41,3.86,1.22.95.81,1.65,1.96,2.09,3.44.18.6.31,1.25.42,1.94h-8.16c-4.5,0-7.98.94-10.46,2.82-2.48,1.88-3.72,4.67-3.72,8.38,0,3.38,1.15,6,3.44,7.85,2.29,1.86,5.52,2.78,9.69,2.78s7.22-1.32,9-3.96c.2-.3.39-.62.57-.94l.16,4.07h8.55l.21-19.25c.05-3.34-.5-6.22-1.63-8.65-1.14-2.43-2.87-4.32-5.21-5.66h0ZM440.42,472.06c-.7,1.14-1.63,2.06-2.81,2.78s-2.54,1.08-4.06,1.08c-1.67,0-2.96-.29-3.89-.87s-1.39-1.38-1.39-2.4c0-1.3.58-2.3,1.74-3.02s3.24-1.08,6.26-1.08h5.21c0,1.2-.35,2.38-1.04,3.51h0Z" style="fill: #012626;"/>
      <path d="M473.57,474.77c-.55.21-1.07.31-1.53.31-1.25,0-2.2-.38-2.85-1.15s-.97-1.89-.97-3.37v-14.8h8.69v-7.78h-8.69v-10.84h-9.17v10.84h-5.63v7.78h5.63v16.82c0,3.52.98,6.23,2.96,8.13,1.97,1.9,4.87,2.85,8.72,2.85,1.34,0,2.7-.27,4.06-.8,1.36-.53,2.61-1.22,3.72-2.05l-3.19-6.88c-.6.42-1.18.73-1.74.94h0Z" style="fill: #012626;"/>
      <path d="M488.09,431.78c-1.39,0-2.62.52-3.68,1.56-1.07,1.04-1.6,2.28-1.6,3.72s.53,2.67,1.6,3.72c1.07,1.04,2.29,1.57,3.68,1.57s2.67-.52,3.72-1.57,1.57-2.28,1.57-3.72-.52-2.67-1.57-3.72-2.28-1.56-3.72-1.56Z" style="fill: #012626;"/>
      <rect x="483.5" y="447.98" width="9.17" height="34.75" style="fill: #012626;"/>
      <path d="M525.42,449.48c-2.73-1.55-5.89-2.33-9.45-2.33s-6.65.78-9.38,2.33c-2.73,1.55-4.87,3.69-6.39,6.43-1.53,2.73-2.29,5.89-2.29,9.45s.78,6.72,2.33,9.45c1.55,2.73,3.69,4.88,6.43,6.43,2.73,1.55,5.88,2.33,9.45,2.33s6.64-.78,9.35-2.33c2.71-1.55,4.83-3.69,6.36-6.43s2.29-5.88,2.29-9.45-.76-6.72-2.29-9.45-3.66-4.87-6.39-6.43h0ZM523.61,470.4c-.74,1.46-1.75,2.61-3.02,3.44-1.28.84-2.77,1.25-4.48,1.25s-3.25-.42-4.59-1.25-2.39-1.98-3.13-3.44c-.74-1.46-1.11-3.14-1.11-5.04s.37-3.58,1.11-5.04c.74-1.46,1.77-2.61,3.09-3.44,1.32-.84,2.84-1.25,4.55-1.25s3.16.42,4.48,1.25c1.32.84,2.35,1.98,3.09,3.44.74,1.46,1.11,3.14,1.11,5.04s-.37,3.58-1.11,5.04Z" style="fill: #012626;"/>
      <path d="M565.03,448.81c-1.95-1.11-4.29-1.67-7.02-1.67s-4.95.68-6.91,2.05c-1.3.9-2.4,2.07-3.31,3.48l-.41-4.7h-8.62v34.75h9.17v-18.21c0-2.92.64-5.12,1.91-6.6,1.27-1.48,3.09-2.2,5.46-2.15,1.3,0,2.43.29,3.4.87s1.73,1.52,2.26,2.82c.53,1.3.8,3.13.8,5.49v17.79h9.17v-19.67c.05-3.71-.44-6.73-1.46-9.07-1.02-2.34-2.5-4.06-4.45-5.18h0Z" style="fill: #012626;"/>
    </g>
  </g>
  <polygon points="372.86 531.94 382.39 531.94 382.39 512.35 400.46 512.35 400.46 503.66 382.39 503.66 382.39 491.98 404.07 491.98 404.07 483.3 372.86 483.3 372.86 531.94" style="fill: #a9d962;"/>
  <polygon points="372.86 117.45 382.39 117.45 382.39 97.85 400.46 97.85 400.46 89.16 382.39 89.16 382.39 77.49 404.07 77.49 404.07 68.8 372.86 68.8 372.86 117.45" style="fill: #a9d962;"/>
  <polygon points="186.85 258.92 186.85 249.4 167.25 249.4 167.25 231.33 158.56 231.33 158.56 249.4 146.88 249.4 146.88 227.72 138.2 227.72 138.2 258.92 186.85 258.92" style="fill: #a9d962;"/>
  <polygon points="661.49 258.92 661.49 249.4 641.89 249.4 641.89 231.33 633.2 231.33 633.2 249.4 621.53 249.4 621.53 227.72 612.84 227.72 612.84 258.92 661.49 258.92" style="fill: #a9d962;"/>
  <line x1="87.02" y1="483.44" x2="710.89" y2="483.44" style="fill: none; stroke: #a9d962; stroke-dasharray: 7.42 7.42; stroke-miterlimit: 10; stroke-width: 1.24px;"/>
  <line x1="87.02" y1="116.28" x2="710.89" y2="116.28" style="fill: none; stroke: #a9d962; stroke-dasharray: 7.42 7.42; stroke-miterlimit: 10; stroke-width: 1.24px;"/>
</svg>