<?xml version="1.0" encoding="UTF-8"?>
<svg id="Layer_2" xmlns="http://www.w3.org/2000/svg" viewBox="0 0 500 500">
  <g>
    <path d="M335.02,87.06h19.95c1.03,0,1.75,1.03,1.39,2-2.83,7.44-10.89,25.16-30.18,38.67-1.03.72-2.44-.09-2.32-1.35,2.03-22.91,7.68-34.57,9.87-38.56.26-.47.76-.76,1.3-.76h0Z" style="fill: #a9d962;"/>
    <path d="M317.57,89.14c-2.98,6.7-5.24,14.12-6.92,21.88-.25,1.16-1.69,1.57-2.51.71-3.17-3.33-9.19-10.74-14.01-22.65-.39-.97.33-2.03,1.37-2.03h20.72c1.07,0,1.78,1.1,1.35,2.08h0Z" style="fill: #78a658;"/>
    <path d="M218.81,87.06h9.3c.83,0,1.5.68,1.47,1.52-.93,37.39,1.83,71.25,3.63,90.67.09,1.02-.84,1.82-1.83,1.57-4.71-1.19-16.35-4.14-24.86-6.49-.46-.13-.83-.47-.99-.93-2.9-8.12-10.35-29.66-12.93-38.28-.2-.68.1-1.4.73-1.73,13.87-7.29,21.28-26.17,24.01-45.06.1-.73.72-1.28,1.46-1.28h0Z" style="fill: #4d7343;"/>
    <path d="M211.25,88.82c-1.77,8.88-6.91,28.54-19.37,36.34-.85.53-1.98.07-2.22-.9-3.7-14.7-5.67-27.63-6.51-35.58-.09-.87.59-1.63,1.47-1.63h25.18c.93,0,1.63.86,1.45,1.77h0Z" style="fill: #78a658;"/>
    <path d="M134.35,87.06h34.49c.79,0,1.44.62,1.47,1.42.41,9.54,1.46,19.01,2.98,28.42.17,1.01-.72,1.88-1.73,1.69-16.1-2.95-28.71-6.66-37.79-10.47-.55-.23-.9-.77-.9-1.36v-18.22c0-.82.66-1.48,1.48-1.48Z" style="fill: #a9d962;"/>
    <path d="M134.93,117c14.48,6.27,31.4,10.36,39.71,12.17.57.12,1.01.57,1.13,1.14,2.45,11.85,5.54,23.58,8.92,35.2.33,1.13-.73,2.18-1.85,1.83-9.36-2.93-33.54-10.72-49.22-19.53-.46-.26-.75-.76-.75-1.29v-28.17c0-1.07,1.09-1.78,2.06-1.36h0Z" style="fill: #78a658;"/>
    <path d="M132.87,319.84v-40.66c0-1.07,1.09-1.78,2.06-1.36,10.7,4.63,48.84,19.6,114.06,20.42.7.01,1.3.51,1.44,1.2,1.28,6.71,2.62,13.41,4,20.1.19.92-.51,1.78-1.45,1.78h-118.62c-.82,0-1.48-.66-1.48-1.48h0Z" style="fill: #bad3d9;"/>
    <path d="M366.55,233.73c-6.31,4.87-13,9.36-19.87,13.47-.94.56-2.14-.04-2.24-1.13-.72-7.77-1.34-33.76,20.11-57,.92-.99,2.57-.35,2.57.99v42.49c0,.46-.21.89-.57,1.18h0Z" style="fill: #a9d962;"/>
    <path d="M366.73,132.73c-9.4,10-22.33,19.5-41.06,28.23-.94.44-2.05-.21-2.1-1.25-.37-6.48-.55-13.17-.41-19.88.01-.51.28-.97.71-1.24,4.83-2.94,29.35-18.89,38.77-50.47.19-.63.76-1.07,1.42-1.07h1.6c.82,0,1.48.66,1.48,1.48v43.18c0,.38-.14.74-.4,1.02h0Z" style="fill: #78a658;"/>
    <path d="M171.93,265.57c-5.8-20.24-19.28-40.6-36.55-57.49-.93-.92-2.51-.24-2.51,1.06v44.7c0,.57.33,1.09.83,1.34,14.63,7.04,30.51,10.93,36.49,12.25,1.09.24,2.05-.77,1.74-1.85h0Z" style="fill: #78a658;"/>
    <g>
      <path d="M336.33,234.87l-6.61-6.11c-.95-.87-2.48-.2-2.48,1.09v25.47c0,1.1,1.16,1.82,2.15,1.32,2.36-1.19,4.71-2.4,7.04-3.64.54-.29.84-.88.77-1.5-.63-5.11-.75-10.29-.39-15.44.03-.45-.14-.89-.47-1.19h0Z" style="fill: #4d7343;"/>
      <path d="M304.06,192.92l32.42,30.24c.83.77,2.18.36,2.45-.74,1.12-4.62,2.62-9.13,4.49-13.46,5.14-11.88,13.37-22.33,23.19-30.69.33-.28.52-.69.52-1.12v-16.68c0-1.24-1.43-1.93-2.4-1.15-17.43,13.81-38.62,23.91-60.13,31.14-1.06.36-1.35,1.72-.54,2.48h0Z" style="fill: #4d7343;"/>
    </g>
    <path d="M274.93,165.74l9.59,8.95c.37.35.89.48,1.39.35,6.64-1.74,13.23-3.72,19.71-5.98.61-.22,1.02-.81.99-1.45-.52-13.85-.19-29.59,1.95-44.73.07-.47-.1-.96-.45-1.29-2.88-2.69-15.3-15.65-19.51-33.41-.15-.66-.76-1.13-1.44-1.13h-15.65c-.83,0-1.49.67-1.48,1.5.18,11.35,2.29,55.71,4.42,76.26.04.35.2.68.46.93h0Z" style="fill: #4d7343;"/>
    <path d="M199.07,228.76l-6.99,6.46c-.6.55-1.53.52-2.08-.08l-3.89-4.17c-.56-.6-.52-1.53.07-2.09l30.91-28.84c.84-.78.51-2.18-.59-2.5-24.3-7.22-57.49-18.02-81.48-30.36-.98-.51-2.15.21-2.15,1.31v28.55c0,.43.19.84.52,1.13,32.68,27.8,43.97,56.44,47.49,70.48.14.57.6.99,1.18,1.1,5.92,1.04,11.87,1.9,17.85,2.59.88.1,1.65-.59,1.65-1.47v-41.02c0-1.29-1.53-1.96-2.48-1.09h-.01Z" style="fill: #4d7343;"/>
    <path d="M263.38,168.71l-52.71,49.28c-.3.28-.47.67-.47,1.08v49.98c0,.82.66,1.48,1.48,1.48h34.8c.82,0,1.48-.66,1.48-1.48v-47.33c0-.82.66-1.48,1.48-1.48h29.3c.82,0,1.48.66,1.48,1.48v47.33c0,.82.66,1.48,1.48,1.48h15.2c.18,0,.35-.03.51-.09,6.86-2.5,13.64-5.26,20.3-8.25.53-.24.87-.77.87-1.35v-41.76c0-.41-.17-.8-.47-1.08l-52.71-49.28c-.57-.53-1.45-.53-2.02,0h0Z" style="fill: #fff;"/>
    <path d="M296.6,297.23c1.12,4.92,4.37,18.86,5.33,22.95.15.67.75,1.14,1.44,1.14h62.28c.82,0,1.48-.66,1.48-1.48v-58.9c0-1.2-1.36-1.9-2.34-1.2-28.69,20.6-60.74,33.3-67.27,35.79-.69.26-1.08.99-.91,1.71h0Z" style="fill: #bad3d9;"/>
  </g>
  <g>
    <path d="M153.13,362.15c-.44.98-1.01,1.84-1.72,2.58s-1.52,1.33-2.43,1.75-1.92.64-3.03.64c-1.59,0-3.01-.39-4.24-1.18s-2.2-1.86-2.89-3.24c-.69-1.37-1.04-2.96-1.04-4.76s.34-3.38,1.02-4.74c.68-1.36,1.63-2.44,2.85-3.22s2.62-1.18,4.18-1.18c1.08,0,2.08.2,3.01.6s1.75.95,2.47,1.66c.72.71,1.3,1.54,1.74,2.49l4.9-1.81c-.64-1.52-1.56-2.86-2.76-4.03-1.19-1.17-2.59-2.08-4.18-2.74-1.59-.65-3.32-.98-5.17-.98-2.62,0-4.94.6-6.96,1.79-2.02,1.19-3.61,2.84-4.76,4.94-1.16,2.1-1.74,4.5-1.74,7.23s.58,5.14,1.74,7.23c1.16,2.1,2.75,3.74,4.78,4.94s4.36,1.79,6.98,1.79c1.87,0,3.61-.34,5.21-1,1.59-.67,2.99-1.61,4.18-2.82s2.11-2.6,2.76-4.16l-4.9-1.77h0Z" style="fill: #fff;"/>
    <path d="M164.23,370.61c1.52.86,3.26,1.29,5.24,1.29s3.68-.43,5.19-1.29,2.68-2.05,3.53-3.57,1.27-3.26,1.27-5.24-.42-3.73-1.27-5.24-2.03-2.7-3.55-3.57-3.27-1.29-5.24-1.29-3.69.43-5.21,1.29c-1.52.86-2.7,2.05-3.55,3.57s-1.27,3.27-1.27,5.24.43,3.73,1.29,5.24,2.05,2.71,3.57,3.57h0ZM165.2,359c.41-.81.98-1.45,1.72-1.91.73-.46,1.57-.69,2.52-.69s1.75.23,2.49.69,1.3,1.1,1.72,1.91c.41.81.62,1.74.62,2.79s-.2,1.99-.62,2.79c-.41.81-.97,1.45-1.68,1.91-.71.46-1.54.69-2.49.69s-1.8-.23-2.55-.69-1.33-1.1-1.74-1.91c-.41-.81-.62-1.74-.62-2.79s.2-1.99.62-2.79h0Z" style="fill: #fff;"/>
    <path d="M187.14,361.34c0-1.62.33-2.84.98-3.66.65-.82,1.6-1.22,2.83-1.19.67,0,1.25.16,1.75.48s.89.84,1.16,1.56.41,1.74.41,3.05v9.87h5.09v-10.1c0-1.62.33-2.84,1-3.66.67-.82,1.62-1.22,2.85-1.19.67,0,1.25.16,1.74.48s.87.84,1.16,1.56c.28.72.42,1.74.42,3.05v9.87h5.09v-11.03c0-2.96-.59-5.15-1.77-6.57-1.18-1.43-2.9-2.14-5.17-2.14-1.36,0-2.56.35-3.59,1.06-1.03.71-1.83,1.72-2.39,3.03-.49-1.39-1.27-2.42-2.33-3.08s-2.38-1-3.95-1c-1.13,0-2.16.25-3.08.75-.92.5-1.68,1.24-2.28,2.22l-.23-2.51h-4.78v19.28h5.09v-10.1h0Z" style="fill: #fff;"/>
    <path d="M239.38,361.57v9.87h5.09v-11.03c0-2.96-.59-5.15-1.77-6.57-1.18-1.43-2.9-2.14-5.17-2.14-1.36,0-2.56.35-3.59,1.06-1.03.71-1.83,1.72-2.39,3.03-.49-1.39-1.27-2.42-2.33-3.08s-2.38-1-3.95-1c-1.13,0-2.16.25-3.08.75-.92.5-1.68,1.24-2.28,2.22l-.23-2.51h-4.78v19.28h5.09v-10.1c0-1.62.33-2.84.98-3.66.65-.82,1.6-1.22,2.83-1.19.67,0,1.25.16,1.75.48s.89.84,1.16,1.56.41,1.74.41,3.05v9.87h5.09v-10.1c0-1.62.33-2.84,1-3.66.67-.82,1.62-1.22,2.85-1.19.67,0,1.25.16,1.74.48s.87.84,1.16,1.56c.28.72.42,1.74.42,3.05h0Z" style="fill: #fff;"/>
    <path d="M251.57,370.61c1.52.86,3.26,1.29,5.24,1.29s3.68-.43,5.19-1.29,2.68-2.05,3.53-3.57c.85-1.52,1.27-3.26,1.27-5.24s-.42-3.73-1.27-5.24-2.03-2.7-3.55-3.57-3.27-1.29-5.24-1.29-3.69.43-5.21,1.29c-1.52.86-2.7,2.05-3.55,3.57s-1.27,3.27-1.27,5.24.43,3.73,1.29,5.24c.86,1.52,2.05,2.71,3.57,3.57h0ZM252.53,359c.41-.81.98-1.45,1.72-1.91.73-.46,1.57-.69,2.52-.69s1.75.23,2.49.69c.73.46,1.3,1.1,1.72,1.91.41.81.62,1.74.62,2.79s-.2,1.99-.62,2.79c-.41.81-.97,1.45-1.68,1.91-.71.46-1.54.69-2.49.69s-1.8-.23-2.55-.69-1.33-1.1-1.74-1.91c-.41-.81-.62-1.74-.62-2.79s.2-1.99.62-2.79Z" style="fill: #fff;"/>
    <path d="M281.7,358.52c.3.72.44,1.74.44,3.05v9.87h5.09v-10.91c.03-2.06-.24-3.73-.81-5.03-.57-1.3-1.39-2.25-2.47-2.87-1.08-.62-2.38-.92-3.89-.92s-2.74.38-3.84,1.14c-.72.5-1.33,1.15-1.84,1.93l-.23-2.61h-4.78v19.28h5.09v-10.1c0-1.62.35-2.84,1.06-3.66.71-.82,1.72-1.22,3.03-1.19.72,0,1.35.16,1.89.48s.96.84,1.25,1.56h0Z" style="fill: #fff;"/>
    <path d="M308.44,371.44v-10.91c0-2.06-.28-3.73-.85-5.03-.57-1.3-1.38-2.25-2.45-2.87s-2.37-.92-3.91-.92-2.74.38-3.84,1.14c-.68.47-1.26,1.07-1.75,1.8v-10.19h-5.09v26.99h5.09v-10.1c0-1.62.35-2.84,1.06-3.66.71-.82,1.72-1.22,3.03-1.19.72,0,1.35.16,1.89.48s.96.84,1.27,1.56c.31.72.46,1.74.46,3.05v9.87h5.09,0Z" style="fill: #fff;"/>
    <path d="M312.74,361.36c-1.38,1.04-2.06,2.59-2.06,4.65,0,1.88.64,3.33,1.91,4.36,1.27,1.03,3.07,1.54,5.38,1.54s4-.73,4.99-2.2c.11-.17.22-.34.31-.52l.09,2.26h4.74l.12-10.68c.03-1.85-.28-3.45-.91-4.8-.63-1.35-1.59-2.4-2.89-3.14-1.3-.75-2.93-1.12-4.88-1.12-1.62,0-2.99.25-4.11.75-1.12.5-2.02,1.14-2.72,1.93-.69.78-1.22,1.59-1.58,2.41l4.47,1.54c.46-.75,1.03-1.3,1.7-1.66.67-.36,1.41-.54,2.24-.54.9,0,1.61.23,2.14.68.53.45.91,1.09,1.16,1.91.1.33.17.69.23,1.08h-4.53c-2.49,0-4.43.52-5.8,1.56h0ZM323.2,363.57c0,.67-.19,1.32-.58,1.95-.39.63-.91,1.14-1.56,1.54s-1.41.6-2.25.6c-.92,0-1.64-.16-2.16-.48s-.77-.76-.77-1.33c0-.72.32-1.28.96-1.68s1.8-.6,3.47-.6h2.89,0Z" style="fill: #fff;"/>
    <path d="M343.91,362.26c0,1.59-.35,2.81-1.04,3.64-.69.84-1.71,1.24-3.05,1.21-.69,0-1.32-.16-1.87-.48-.55-.32-.98-.85-1.27-1.58-.3-.73-.44-1.74-.44-3.03v-9.87h-5.09v10.91c0,2.06.27,3.73.83,5.03.55,1.3,1.37,2.26,2.45,2.87,1.08.62,2.39.92,3.93.92s2.74-.38,3.82-1.14c.71-.5,1.31-1.14,1.82-1.92l.23,2.59h4.78v-19.28h-5.09v10.1h0Z" style="fill: #fff;"/>
    <path d="M367.1,363.59c-.35-.84-.9-1.59-1.66-2.28-.76-.68-1.77-1.18-3.03-1.48l-2.51-.62c-.67-.15-1.18-.34-1.54-.56-.36-.22-.54-.49-.54-.83,0-.51.19-.92.56-1.21.37-.3.91-.44,1.6-.44s1.39.16,2.08.48,1.13.74,1.31,1.25l4.2-1.93c-.28-.85-.8-1.59-1.54-2.24-.75-.64-1.64-1.14-2.68-1.5-1.04-.36-2.17-.54-3.37-.54-2.34,0-4.15.54-5.42,1.62-1.27,1.08-1.91,2.61-1.91,4.59,0,1.39.53,2.62,1.6,3.68s2.52,1.84,4.38,2.33l1.77.46c.64.15,1.15.34,1.52.56s.56.56.56,1.02-.23.82-.69,1.06c-.46.24-1.12.37-1.97.37s-1.64-.22-2.31-.68c-.67-.45-1.19-.98-1.58-1.6l-4.36,2.01c.46,1.03,1.1,1.9,1.93,2.6.82.71,1.77,1.25,2.85,1.62,1.08.37,2.24.56,3.47.56,1.49,0,2.82-.24,3.99-.73,1.17-.49,2.09-1.18,2.78-2.06.68-.89,1.02-1.91,1.02-3.07,0-.8-.17-1.61-.52-2.45h0Z" style="fill: #fff;"/>
    <polygon points="155.79 411.22 161.07 411.22 161.07 400.35 171.1 400.35 171.1 395.53 161.07 395.53 161.07 389.05 173.1 389.05 173.1 384.23 155.79 384.23 155.79 411.22" style="fill: #fff;"/>
    <path d="M189.57,392.77c-1.52-.86-3.27-1.29-5.24-1.29s-3.69.43-5.21,1.29c-1.52.86-2.7,2.05-3.55,3.57s-1.27,3.27-1.27,5.24.43,3.73,1.29,5.24,2.05,2.71,3.57,3.57c1.52.86,3.26,1.29,5.24,1.29s3.68-.43,5.19-1.29,2.68-2.05,3.53-3.57,1.27-3.26,1.27-5.24-.42-3.73-1.27-5.24c-.85-1.52-2.03-2.7-3.55-3.57h0ZM188.57,404.38c-.41.81-.97,1.45-1.68,1.91-.71.46-1.54.69-2.49.69s-1.8-.23-2.55-.69-1.33-1.1-1.74-1.91c-.41-.81-.62-1.74-.62-2.79s.2-1.99.62-2.79c.41-.81.98-1.45,1.72-1.91.73-.46,1.57-.69,2.52-.69s1.75.23,2.49.69c.73.46,1.3,1.1,1.72,1.91.41.81.62,1.74.62,2.79s-.21,1.99-.62,2.79Z" style="fill: #fff;"/>
    <path d="M209.39,402.04c0,1.59-.35,2.81-1.04,3.64-.69.84-1.71,1.24-3.05,1.21-.69,0-1.32-.16-1.87-.48s-.98-.85-1.27-1.58c-.3-.73-.44-1.74-.44-3.03v-9.87h-5.09v10.91c0,2.06.27,3.73.83,5.03.55,1.3,1.37,2.26,2.45,2.87,1.08.62,2.39.92,3.93.92s2.74-.38,3.82-1.14c.71-.5,1.31-1.14,1.82-1.92l.23,2.59h4.78v-19.28h-5.09v10.1h0Z" style="fill: #fff;"/>
    <path d="M232.67,392.4c-1.08-.62-2.38-.92-3.89-.92s-2.74.38-3.84,1.14c-.72.5-1.33,1.14-1.84,1.93l-.23-2.61h-4.78v19.28h5.09v-10.1c0-1.62.35-2.84,1.06-3.66.71-.82,1.72-1.22,3.03-1.19.72,0,1.35.16,1.89.48.54.32.96.84,1.25,1.56.3.72.44,1.74.44,3.05v9.87h5.09v-10.91c.03-2.06-.24-3.73-.81-5.03-.57-1.3-1.39-2.25-2.47-2.87h0Z" style="fill: #fff;"/>
    <path d="M252.69,394.49c-.47-.71-1.03-1.3-1.68-1.78-1.12-.82-2.49-1.23-4.11-1.23-1.77,0-3.31.41-4.61,1.23-1.3.82-2.31,1.99-3.03,3.49-.72,1.5-1.08,3.3-1.08,5.38s.36,3.84,1.08,5.36c.72,1.52,1.73,2.69,3.03,3.51,1.3.82,2.83,1.23,4.61,1.23,1.62,0,2.99-.41,4.11-1.23.68-.5,1.26-1.13,1.75-1.89l.2,2.66h4.82v-26.99h-5.09v10.26h0ZM250.54,406.32c-.68.46-1.46.69-2.33.69-.92,0-1.74-.23-2.45-.69-.71-.46-1.27-1.1-1.68-1.93-.41-.82-.62-1.76-.62-2.81s.2-1.99.62-2.82c.41-.82.96-1.46,1.66-1.91.69-.45,1.5-.68,2.43-.68s1.69.23,2.37.68c.68.45,1.21,1.09,1.6,1.91.29.61.47,1.29.54,2.03v1.58c-.07.74-.25,1.41-.54,2.03-.39.82-.92,1.46-1.6,1.93Z" style="fill: #fff;"/>
    <path d="M274.1,392.6c-1.3-.75-2.93-1.12-4.88-1.12-1.62,0-2.99.25-4.11.75-1.12.5-2.02,1.14-2.72,1.93-.69.78-1.22,1.59-1.58,2.41l4.47,1.54c.46-.75,1.03-1.3,1.7-1.66.67-.36,1.41-.54,2.24-.54.9,0,1.61.23,2.14.68.53.45.91,1.09,1.16,1.91.1.33.17.69.23,1.08h-4.53c-2.49,0-4.43.52-5.8,1.56-1.37,1.04-2.06,2.59-2.06,4.65,0,1.88.64,3.33,1.91,4.36,1.27,1.03,3.07,1.54,5.38,1.54s4-.73,4.99-2.2c.11-.17.22-.34.31-.52l.09,2.26h4.74l.12-10.68c.03-1.85-.28-3.45-.91-4.8-.63-1.35-1.59-2.4-2.89-3.14h0ZM272.31,405.3c-.39.63-.91,1.14-1.56,1.54s-1.41.6-2.25.6c-.92,0-1.64-.16-2.16-.48s-.77-.76-.77-1.33c0-.72.32-1.28.96-1.68s1.8-.6,3.47-.6h2.89c0,.67-.19,1.32-.58,1.95h0Z" style="fill: #fff;"/>
    <path d="M290.7,406.8c-.31.12-.59.17-.85.17-.69,0-1.22-.21-1.58-.64s-.54-1.05-.54-1.87v-8.21h4.82v-4.32h-4.82v-6.02h-5.09v6.02h-3.12v4.32h3.12v9.33c0,1.95.55,3.46,1.64,4.51,1.09,1.06,2.7,1.58,4.84,1.58.75,0,1.5-.15,2.25-.44.76-.3,1.45-.68,2.06-1.14l-1.77-3.82c-.34.23-.65.41-.96.52h0Z" style="fill: #fff;"/>
    <path d="M298.76,382.96c-.77,0-1.45.29-2.04.87-.59.58-.89,1.27-.89,2.06s.3,1.48.89,2.06c.59.58,1.27.87,2.04.87s1.48-.29,2.06-.87.87-1.26.87-2.06-.29-1.48-.87-2.06-1.27-.87-2.06-.87Z" style="fill: #fff;"/>
    <rect x="296.21" y="391.94" width="5.09" height="19.28" style="fill: #fff;"/>
    <path d="M319.46,392.77c-1.52-.86-3.27-1.29-5.24-1.29s-3.69.43-5.21,1.29c-1.52.86-2.7,2.05-3.55,3.57-.85,1.52-1.27,3.27-1.27,5.24s.43,3.73,1.29,5.24,2.05,2.71,3.57,3.57c1.52.86,3.26,1.29,5.24,1.29s3.68-.43,5.19-1.29,2.68-2.05,3.53-3.57,1.27-3.26,1.27-5.24-.42-3.73-1.27-5.24-2.03-2.7-3.55-3.57h0ZM318.46,404.38c-.41.81-.97,1.45-1.68,1.91-.71.46-1.54.69-2.49.69s-1.8-.23-2.55-.69-1.33-1.1-1.74-1.91c-.41-.81-.62-1.74-.62-2.79s.2-1.99.62-2.79c.41-.81.98-1.45,1.72-1.91.73-.46,1.57-.69,2.52-.69s1.75.23,2.49.69c.73.46,1.3,1.1,1.72,1.91.41.81.62,1.74.62,2.79s-.21,1.99-.62,2.79Z" style="fill: #fff;"/>
    <path d="M341.44,392.4c-1.08-.62-2.38-.92-3.89-.92s-2.74.38-3.84,1.14c-.72.5-1.33,1.15-1.84,1.93l-.23-2.61h-4.78v19.28h5.09v-10.1c0-1.62.35-2.84,1.06-3.66.71-.82,1.72-1.22,3.03-1.19.72,0,1.35.16,1.89.48s.96.84,1.25,1.56.44,1.74.44,3.05v9.87h5.09v-10.91c.03-2.06-.24-3.73-.81-5.03-.57-1.3-1.39-2.25-2.47-2.87h0Z" style="fill: #fff;"/>
  </g>
  <g>
    <line x1="30.88" y1="36.17" x2="458.55" y2="463.83" style="fill: none; stroke: #ffce00; stroke-miterlimit: 10; stroke-width: 3px;"/>
    <line x1="469.12" y1="36.17" x2="41.45" y2="463.83" style="fill: none; stroke: #ffce00; stroke-miterlimit: 10; stroke-width: 3px;"/>
  </g>
</svg>