<?xml version="1.0" encoding="UTF-8"?>
<svg id="Layer_2" xmlns="http://www.w3.org/2000/svg" viewBox="0 0 500 500">
  <g>
    <path d="M85.1,223.29c-.75,1.67-1.72,3.13-2.92,4.4s-2.58,2.26-4.14,2.99-3.27,1.08-5.15,1.08c-2.71,0-5.12-.67-7.22-2s-3.74-3.17-4.92-5.51c-1.18-2.34-1.77-5.04-1.77-8.11s.58-5.75,1.74-8.07c1.16-2.32,2.78-4.15,4.86-5.48s4.45-2,7.12-2c1.84,0,3.54.34,5.12,1.02s2.97,1.62,4.2,2.82c1.23,1.21,2.21,2.62,2.95,4.23l8.33-3.08c-1.09-2.58-2.66-4.87-4.69-6.86-2.03-1.99-4.41-3.54-7.12-4.66-2.71-1.11-5.65-1.67-8.79-1.67-4.46,0-8.41,1.02-11.85,3.05-3.44,2.03-6.14,4.84-8.11,8.4-1.97,3.57-2.95,7.67-2.95,12.31s.98,8.74,2.95,12.31c1.97,3.57,4.68,6.37,8.14,8.4s7.42,3.05,11.88,3.05c3.19,0,6.15-.57,8.86-1.7,2.71-1.14,5.09-2.74,7.12-4.79,2.03-2.06,3.6-4.42,4.69-7.09l-8.33-3.02h0Z" style="fill: #012626;"/>
    <path d="M104,237.7c2.58,1.47,5.55,2.2,8.92,2.2s6.27-.73,8.83-2.2,4.56-3.49,6.01-6.07,2.16-5.55,2.16-8.92-.72-6.34-2.16-8.92-3.46-4.6-6.04-6.07-5.56-2.2-8.92-2.2-6.28.73-8.86,2.2c-2.58,1.47-4.6,3.49-6.04,6.07s-2.16,5.56-2.16,8.92.73,6.34,2.2,8.92c1.47,2.58,3.49,4.61,6.07,6.07h0ZM105.64,217.94c.7-1.38,1.67-2.46,2.92-3.25,1.25-.79,2.68-1.18,4.3-1.18s2.99.39,4.23,1.18,2.22,1.87,2.92,3.25c.7,1.38,1.05,2.97,1.05,4.76s-.35,3.38-1.05,4.76c-.7,1.38-1.65,2.46-2.85,3.25-1.21.79-2.62,1.18-4.23,1.18s-3.06-.39-4.33-1.18-2.26-1.87-2.95-3.25c-.7-1.38-1.05-2.97-1.05-4.76s.35-3.38,1.05-4.76h0Z" style="fill: #012626;"/>
    <path d="M142.99,221.91c0-2.76.56-4.83,1.67-6.24,1.11-1.4,2.72-2.08,4.83-2.03,1.14,0,2.13.27,2.99.82s1.51,1.44,1.97,2.66.69,2.95.69,5.19v16.8h8.66v-17.2c0-2.76.57-4.83,1.7-6.24,1.14-1.4,2.76-2.08,4.86-2.03,1.14,0,2.12.27,2.95.82s1.49,1.44,1.97,2.66c.48,1.23.72,2.95.72,5.19v16.8h8.66v-18.77c0-5.03-1.01-8.76-3.02-11.19-2.01-2.43-4.94-3.64-8.79-3.64-2.32,0-4.35.6-6.11,1.8-1.75,1.21-3.11,2.92-4.07,5.15-.83-2.36-2.16-4.11-3.97-5.25s-4.06-1.7-6.73-1.7c-1.93,0-3.68.43-5.25,1.28-1.57.85-2.87,2.11-3.87,3.77l-.39-4.27h-8.14v32.82h8.66v-17.2h0Z" style="fill: #012626;"/>
    <path d="M231.92,222.31v16.8h8.66v-18.77c0-5.03-1.01-8.76-3.02-11.19-2.01-2.43-4.94-3.64-8.79-3.64-2.32,0-4.35.6-6.11,1.8-1.75,1.21-3.11,2.92-4.07,5.15-.83-2.36-2.16-4.11-3.97-5.25s-4.06-1.7-6.73-1.7c-1.93,0-3.68.43-5.25,1.28-1.57.85-2.87,2.11-3.87,3.77l-.39-4.27h-8.14v32.82h8.66v-17.2c0-2.76.56-4.83,1.67-6.24,1.11-1.4,2.72-2.08,4.83-2.03,1.14,0,2.13.27,2.99.82s1.51,1.44,1.97,2.66.69,2.95.69,5.19v16.8h8.66v-17.2c0-2.76.57-4.83,1.7-6.24,1.14-1.4,2.76-2.08,4.86-2.03,1.14,0,2.12.27,2.95.82s1.49,1.44,1.97,2.66c.48,1.23.72,2.95.72,5.19h0Z" style="fill: #012626;"/>
    <path d="M252.67,237.7c2.58,1.47,5.55,2.2,8.92,2.2s6.27-.73,8.83-2.2,4.56-3.49,6.01-6.07c1.44-2.58,2.16-5.55,2.16-8.92s-.72-6.34-2.16-8.92-3.46-4.6-6.04-6.07-5.56-2.2-8.92-2.2-6.28.73-8.86,2.2c-2.58,1.47-4.6,3.49-6.04,6.07s-2.16,5.56-2.16,8.92.73,6.34,2.2,8.92c1.47,2.58,3.49,4.61,6.07,6.07h0ZM254.31,217.94c.7-1.38,1.67-2.46,2.92-3.25,1.25-.79,2.68-1.18,4.3-1.18s2.99.39,4.23,1.18c1.25.79,2.22,1.87,2.92,3.25.7,1.38,1.05,2.97,1.05,4.76s-.35,3.38-1.05,4.76c-.7,1.38-1.65,2.46-2.85,3.25-1.21.79-2.62,1.18-4.23,1.18s-3.06-.39-4.33-1.18-2.26-1.87-2.95-3.25c-.7-1.38-1.05-2.97-1.05-4.76s.35-3.38,1.05-4.76Z" style="fill: #012626;"/>
    <path d="M303.96,217.12c.5,1.23.75,2.95.75,5.19v16.8h8.66v-18.57c.04-3.5-.42-6.36-1.38-8.56-.96-2.21-2.36-3.84-4.2-4.89-1.84-1.05-4.05-1.57-6.63-1.57s-4.67.65-6.53,1.93c-1.22.85-2.26,1.95-3.12,3.29l-.38-4.44h-8.14v32.82h8.66v-17.2c0-2.76.6-4.83,1.8-6.24,1.2-1.4,2.92-2.08,5.15-2.03,1.23,0,2.3.27,3.22.82s1.63,1.44,2.13,2.66h0Z" style="fill: #012626;"/>
    <path d="M349.48,239.11v-18.57c0-3.5-.48-6.36-1.44-8.56-.96-2.21-2.35-3.84-4.17-4.89s-4.04-1.57-6.66-1.57-4.67.65-6.53,1.93c-1.16.8-2.15,1.83-2.99,3.07v-17.35h-8.66v45.94h8.66v-17.2c0-2.76.6-4.83,1.8-6.24,1.2-1.4,2.92-2.08,5.15-2.03,1.23,0,2.3.27,3.22.82s1.64,1.44,2.16,2.66c.53,1.23.79,2.95.79,5.19v16.8h8.66,0Z" style="fill: #012626;"/>
    <path d="M356.8,221.95c-2.34,1.77-3.51,4.41-3.51,7.91,0,3.2,1.08,5.67,3.25,7.42,2.16,1.75,5.22,2.62,9.15,2.62s6.82-1.25,8.5-3.74c.19-.28.37-.58.54-.89l.15,3.84h8.07l.2-18.18c.04-3.15-.47-5.88-1.54-8.17-1.07-2.3-2.71-4.08-4.92-5.35-2.21-1.27-4.98-1.9-8.3-1.9-2.76,0-5.09.43-6.99,1.28-1.9.85-3.45,1.95-4.63,3.28-1.18,1.34-2.08,2.7-2.69,4.1l7.61,2.62c.79-1.27,1.75-2.21,2.89-2.82,1.14-.61,2.41-.92,3.81-.92,1.53,0,2.75.38,3.64,1.15.9.77,1.55,1.85,1.97,3.25.17.56.29,1.18.39,1.84h-7.71c-4.25,0-7.54.89-9.88,2.66h0ZM374.62,225.72c0,1.14-.33,2.24-.98,3.31-.66,1.07-1.54,1.95-2.66,2.62s-2.39,1.02-3.84,1.02c-1.57,0-2.8-.27-3.68-.82s-1.31-1.3-1.31-2.26c0-1.23.55-2.18,1.64-2.85s3.06-1.02,5.91-1.02h4.92,0Z" style="fill: #012626;"/>
    <path d="M409.86,223.49c0,2.71-.59,4.78-1.77,6.2-1.18,1.42-2.91,2.11-5.19,2.07-1.18,0-2.24-.27-3.18-.82-.94-.55-1.67-1.44-2.16-2.69-.5-1.24-.75-2.97-.75-5.15v-16.8h-8.66v18.57c0,3.5.47,6.36,1.41,8.56.94,2.21,2.33,3.84,4.17,4.89,1.84,1.05,4.07,1.57,6.7,1.57s4.66-.65,6.5-1.93c1.2-.84,2.23-1.93,3.1-3.26l.38,4.41h8.14v-32.82h-8.66v17.2h0Z" style="fill: #012626;"/>
    <path d="M449.34,225.76c-.59-1.42-1.53-2.71-2.82-3.87-1.29-1.16-3.01-2-5.15-2.53l-4.27-1.05c-1.14-.26-2.01-.58-2.62-.95-.61-.37-.92-.84-.92-1.41,0-.88.32-1.56.95-2.07.63-.5,1.54-.75,2.72-.75s2.36.27,3.54.82,1.93,1.26,2.23,2.13l7.15-3.28c-.48-1.44-1.36-2.71-2.62-3.81-1.27-1.09-2.79-1.95-4.56-2.56-1.77-.61-3.69-.92-5.74-.92-3.98,0-7.06.92-9.22,2.76-2.16,1.84-3.25,4.44-3.25,7.81,0,2.36.91,4.45,2.72,6.27s4.3,3.14,7.45,3.97l3.02.79c1.09.26,1.96.58,2.59.95s.95.95.95,1.74-.39,1.39-1.18,1.8c-.79.42-1.9.62-3.35.62s-2.8-.38-3.94-1.15c-1.14-.77-2.03-1.67-2.69-2.72l-7.42,3.41c.79,1.75,1.88,3.23,3.28,4.43,1.4,1.21,3.02,2.12,4.86,2.76,1.84.63,3.81.95,5.91.95,2.54,0,4.8-.42,6.79-1.25,1.99-.83,3.56-2,4.73-3.51,1.16-1.51,1.74-3.25,1.74-5.22,0-1.36-.29-2.75-.88-4.17h0Z" style="fill: #012626;"/>
    <polygon points="89.63 306.83 98.62 306.83 98.62 288.32 115.69 288.32 115.69 280.12 98.62 280.12 98.62 269.09 119.1 269.09 119.1 260.89 89.63 260.89 89.63 306.83" style="fill: #012626;"/>
    <path d="M147.13,275.43c-2.58-1.47-5.56-2.2-8.92-2.2s-6.28.73-8.86,2.2c-2.58,1.47-4.6,3.49-6.04,6.07s-2.16,5.56-2.16,8.92.73,6.34,2.2,8.92c1.47,2.58,3.49,4.61,6.07,6.07,2.58,1.47,5.55,2.2,8.92,2.2s6.27-.73,8.83-2.2,4.56-3.49,6.01-6.07,2.16-5.55,2.16-8.92-.72-6.34-2.16-8.92c-1.44-2.58-3.46-4.6-6.04-6.07h0ZM145.42,295.18c-.7,1.38-1.65,2.46-2.85,3.25-1.21.79-2.62,1.18-4.23,1.18s-3.06-.39-4.33-1.18-2.26-1.87-2.95-3.25c-.7-1.38-1.05-2.97-1.05-4.76s.35-3.38,1.05-4.76c.7-1.38,1.67-2.46,2.92-3.25,1.25-.79,2.68-1.18,4.3-1.18s2.99.39,4.23,1.18c1.24.79,2.22,1.87,2.92,3.25.7,1.38,1.05,2.97,1.05,4.76s-.35,3.38-1.05,4.76Z" style="fill: #012626;"/>
    <path d="M180.86,291.21c0,2.71-.59,4.78-1.77,6.2-1.18,1.42-2.91,2.11-5.19,2.07-1.18,0-2.24-.27-3.18-.82s-1.67-1.44-2.16-2.69c-.5-1.24-.75-2.97-.75-5.15v-16.8h-8.66v18.57c0,3.5.47,6.36,1.41,8.56.94,2.21,2.33,3.84,4.17,4.89,1.84,1.05,4.07,1.57,6.7,1.57s4.66-.65,6.5-1.93c1.2-.84,2.23-1.93,3.1-3.26l.38,4.41h8.14v-32.82h-8.66v17.2h0Z" style="fill: #012626;"/>
    <path d="M220.51,274.8c-1.84-1.05-4.05-1.57-6.63-1.57s-4.67.65-6.53,1.93c-1.22.85-2.26,1.95-3.12,3.29l-.38-4.44h-8.14v32.82h8.66v-17.2c0-2.76.6-4.83,1.8-6.24,1.2-1.4,2.92-2.08,5.15-2.03,1.23,0,2.3.27,3.22.82.92.55,1.63,1.44,2.13,2.66.5,1.23.75,2.95.75,5.19v16.8h8.66v-18.57c.04-3.5-.42-6.36-1.38-8.56-.96-2.21-2.36-3.84-4.2-4.89h0Z" style="fill: #012626;"/>
    <path d="M254.57,278.36c-.8-1.2-1.75-2.22-2.85-3.03-1.9-1.4-4.23-2.1-6.99-2.1-3.02,0-5.63.7-7.84,2.1-2.21,1.4-3.93,3.38-5.15,5.94-1.23,2.56-1.84,5.61-1.84,9.15s.61,6.54,1.84,9.12c1.23,2.58,2.94,4.57,5.15,5.97,2.21,1.4,4.83,2.1,7.84,2.1,2.76,0,5.09-.7,6.99-2.1,1.16-.85,2.15-1.93,2.97-3.22l.34,4.53h8.2v-45.94h-8.66v17.47h0ZM250.93,298.5c-1.16.79-2.49,1.18-3.97,1.18-1.57,0-2.97-.39-4.17-1.18-1.21-.79-2.16-1.88-2.85-3.28-.7-1.4-1.05-3-1.05-4.79s.35-3.39,1.05-4.79c.7-1.4,1.64-2.48,2.82-3.25,1.18-.77,2.56-1.15,4.14-1.15s2.88.38,4.04,1.15c1.16.77,2.07,1.85,2.72,3.25.49,1.04.79,2.19.92,3.45v2.68c-.13,1.26-.43,2.41-.92,3.45-.66,1.4-1.57,2.49-2.72,3.28Z" style="fill: #012626;"/>
    <path d="M291.03,275.13c-2.21-1.27-4.98-1.9-8.3-1.9-2.76,0-5.09.43-6.99,1.28-1.9.85-3.45,1.95-4.63,3.28-1.18,1.34-2.08,2.7-2.69,4.1l7.61,2.62c.79-1.27,1.75-2.21,2.89-2.82,1.14-.61,2.41-.92,3.81-.92,1.53,0,2.74.38,3.64,1.15.9.77,1.55,1.85,1.97,3.25.17.56.29,1.18.39,1.84h-7.71c-4.25,0-7.54.89-9.88,2.66-2.34,1.77-3.51,4.41-3.51,7.91,0,3.2,1.08,5.67,3.25,7.42,2.16,1.75,5.22,2.62,9.15,2.62s6.82-1.25,8.5-3.74c.19-.28.37-.58.54-.89l.15,3.85h8.07l.2-18.18c.04-3.15-.47-5.88-1.54-8.17-1.07-2.3-2.71-4.08-4.92-5.35h0ZM287.98,296.76c-.66,1.07-1.54,1.95-2.66,2.62s-2.39,1.02-3.84,1.02c-1.57,0-2.8-.27-3.68-.82s-1.31-1.3-1.31-2.26c0-1.23.55-2.18,1.64-2.85s3.06-1.02,5.91-1.02h4.92c0,1.14-.33,2.24-.98,3.31h0Z" style="fill: #012626;"/>
    <path d="M319.28,299.31c-.52.2-1.01.3-1.44.3-1.18,0-2.08-.36-2.69-1.08s-.92-1.78-.92-3.18v-13.98h8.2v-7.35h-8.2v-10.24h-8.66v10.24h-5.32v7.35h5.32v15.88c0,3.33.93,5.89,2.79,7.68,1.86,1.8,4.6,2.69,8.24,2.69,1.27,0,2.55-.25,3.84-.75,1.29-.5,2.46-1.15,3.51-1.93l-3.02-6.5c-.57.39-1.11.69-1.64.88h0Z" style="fill: #012626;"/>
    <path d="M333,258.72c-1.31,0-2.47.49-3.48,1.47-1.01.98-1.51,2.16-1.51,3.51s.5,2.53,1.51,3.51c1.01.98,2.16,1.48,3.48,1.48s2.53-.49,3.51-1.48,1.48-2.15,1.48-3.51-.49-2.53-1.48-3.51-2.16-1.47-3.51-1.47Z" style="fill: #012626;"/>
    <rect x="328.67" y="274.01" width="8.66" height="32.82" style="fill: #012626;"/>
    <path d="M368.25,275.43c-2.58-1.47-5.56-2.2-8.92-2.2s-6.28.73-8.86,2.2c-2.58,1.47-4.6,3.49-6.04,6.07-1.44,2.58-2.16,5.56-2.16,8.92s.73,6.34,2.2,8.92,3.49,4.61,6.07,6.07c2.58,1.47,5.55,2.2,8.92,2.2s6.27-.73,8.83-2.2,4.56-3.49,6.01-6.07,2.16-5.55,2.16-8.92-.72-6.34-2.16-8.92-3.46-4.6-6.04-6.07h0ZM366.54,295.18c-.7,1.38-1.65,2.46-2.85,3.25-1.21.79-2.62,1.18-4.23,1.18s-3.06-.39-4.33-1.18-2.26-1.87-2.95-3.25c-.7-1.38-1.05-2.97-1.05-4.76s.35-3.38,1.05-4.76c.7-1.38,1.67-2.46,2.92-3.25,1.25-.79,2.68-1.18,4.3-1.18s2.99.39,4.23,1.18c1.24.79,2.22,1.87,2.92,3.25.7,1.38,1.05,2.97,1.05,4.76s-.35,3.38-1.05,4.76Z" style="fill: #012626;"/>
    <path d="M405.66,274.8c-1.84-1.05-4.05-1.57-6.63-1.57s-4.67.65-6.53,1.93c-1.23.85-2.26,1.95-3.12,3.29l-.38-4.44h-8.14v32.82h8.66v-17.2c0-2.76.6-4.83,1.8-6.24,1.2-1.4,2.92-2.08,5.15-2.03,1.23,0,2.3.27,3.22.82s1.63,1.44,2.13,2.66.75,2.95.75,5.19v16.8h8.66v-18.57c.04-3.5-.42-6.36-1.38-8.56-.96-2.21-2.36-3.84-4.2-4.89h0Z" style="fill: #012626;"/>
  </g>
  <g>
    <line x1="30.88" y1="36.17" x2="458.55" y2="463.83" style="fill: none; stroke: #ff004a; stroke-miterlimit: 10; stroke-width: 3px;"/>
    <line x1="469.12" y1="36.17" x2="41.45" y2="463.83" style="fill: none; stroke: #ff004a; stroke-miterlimit: 10; stroke-width: 3px;"/>
  </g>
</svg>