<?xml version="1.0" encoding="UTF-8"?>
<svg id="Layer_2" xmlns="http://www.w3.org/2000/svg" viewBox="0 0 800 350">
  <line x1="26.61" y1="115.74" x2="773.39" y2="115.74" style="fill: none; stroke: #a9d962; stroke-dasharray: 6.21 6.21; stroke-miterlimit: 10; stroke-width: 1.04px;"/>
  <line x1="26.61" y1="67.76" x2="773.39" y2="67.76" style="fill: none; stroke: gray; stroke-miterlimit: 10; stroke-width: 1.04px;"/>
  <line x1="26.61" y1="280.77" x2="773.39" y2="280.77" style="fill: none; stroke: gray; stroke-miterlimit: 10; stroke-width: 1.04px;"/>
  <line x1="26.61" y1="233.36" x2="773.39" y2="233.36" style="fill: none; stroke: #a9d962; stroke-dasharray: 6.21 6.21; stroke-miterlimit: 10; stroke-width: 1.04px;"/>
  <line x1="682" y1="319.42" x2="682" y2="30.58" style="fill: none; stroke: #a9d962; stroke-dasharray: 6.21 6.21; stroke-miterlimit: 10; stroke-width: 1.04px;"/>
  <line x1="115.89" y1="319.42" x2="115.89" y2="30.58" style="fill: none; stroke: #a9d962; stroke-dasharray: 6.21 6.21; stroke-miterlimit: 10; stroke-width: 1.04px;"/>
  <line x1="66.2" y1="319.42" x2="66.2" y2="30.58" style="fill: none; stroke: gray; stroke-miterlimit: 10; stroke-width: 1.04px;"/>
  <line x1="730.86" y1="319.42" x2="730.86" y2="30.58" style="fill: none; stroke: gray; stroke-miterlimit: 10; stroke-width: 1.04px;"/>
  <polygon points="360.81 281.02 370.05 281.02 370.05 261.99 387.6 261.99 387.6 253.55 370.05 253.55 370.05 242.22 391.11 242.22 391.11 233.78 360.81 233.78 360.81 281.02" style="fill: #a9d962;"/>
  <g>
    <path d="M274.56,162.18c3.55,2.09,7.63,3.14,12.21,3.14,3.28,0,6.32-.59,9.11-1.76,2.79-1.17,5.23-2.81,7.32-4.93,2.09-2.11,3.7-4.54,4.83-7.29l-8.57-3.1c-.77,1.71-1.77,3.22-3,4.52-1.24,1.31-2.66,2.33-4.25,3.07-1.6.74-3.36,1.11-5.3,1.11-2.79,0-5.26-.69-7.42-2.06-2.16-1.37-3.85-3.26-5.06-5.67-1.21-2.41-1.82-5.18-1.82-8.33s.6-5.92,1.79-8.3c1.19-2.38,2.86-4.26,4.99-5.64,2.14-1.37,4.58-2.06,7.32-2.06,1.89,0,3.64.35,5.26,1.05,1.62.7,3.06,1.66,4.32,2.9,1.26,1.24,2.27,2.69,3.04,4.35l8.57-3.17c-1.13-2.65-2.73-5-4.83-7.05-2.09-2.05-4.53-3.64-7.32-4.79-2.79-1.15-5.8-1.72-9.04-1.72-4.59,0-8.65,1.05-12.18,3.14-3.53,2.09-6.31,4.97-8.33,8.64-2.02,3.67-3.04,7.89-3.04,12.65s1.01,8.99,3.04,12.65c2.02,3.67,4.81,6.55,8.37,8.64Z" style="fill: #fff;"/>
    <path d="M344,156.81c1.48-2.65,2.23-5.71,2.23-9.18s-.74-6.52-2.23-9.18c-1.48-2.65-3.55-4.73-6.21-6.24-2.66-1.51-5.71-2.26-9.18-2.26s-6.46.75-9.11,2.26c-2.66,1.51-4.72,3.59-6.21,6.24-1.48,2.66-2.23,5.71-2.23,9.18s.75,6.52,2.26,9.18c1.51,2.65,3.59,4.74,6.24,6.24,2.65,1.51,5.71,2.26,9.18,2.26s6.45-.75,9.08-2.26c2.63-1.51,4.69-3.59,6.17-6.24ZM336.04,152.53c-.72,1.42-1.7,2.53-2.94,3.34-1.24.81-2.69,1.21-4.35,1.21s-3.15-.41-4.45-1.21c-1.31-.81-2.32-1.92-3.04-3.34-.72-1.42-1.08-3.05-1.08-4.89s.36-3.48,1.08-4.89c.72-1.42,1.72-2.53,3-3.34s2.76-1.21,4.42-1.21,3.07.41,4.35,1.21c1.28.81,2.28,1.92,3,3.34.72,1.42,1.08,3.05,1.08,4.89s-.36,3.48-1.08,4.89Z" style="fill: #fff;"/>
    <path d="M381.73,164.51v-17.68c0-2.83.58-4.97,1.75-6.41,1.17-1.44,2.83-2.14,4.99-2.09,1.17,0,2.18.28,3.04.84.85.56,1.53,1.47,2.02,2.73.49,1.26.74,3.04.74,5.33v17.28h8.91v-19.3c0-5.17-1.04-9.01-3.1-11.51-2.07-2.5-5.08-3.75-9.04-3.75-2.39,0-4.48.62-6.28,1.86-1.8,1.24-3.2,3-4.18,5.3-.86-2.43-2.22-4.23-4.08-5.4-1.87-1.17-4.17-1.75-6.92-1.75-1.98,0-3.78.44-5.4,1.32-1.62.88-2.95,2.17-3.98,3.88l-.4-4.39h-8.37v33.74h8.91v-17.68c0-2.83.57-4.97,1.72-6.41,1.15-1.44,2.8-2.14,4.96-2.09,1.17,0,2.19.28,3.07.84.88.56,1.55,1.47,2.02,2.73.47,1.26.71,3.04.71,5.33v17.28h8.91Z" style="fill: #fff;"/>
    <path d="M452.45,164.51h8.91v-19.3c0-5.17-1.04-9.01-3.1-11.51-2.07-2.5-5.08-3.75-9.04-3.75-2.39,0-4.48.62-6.28,1.86-1.8,1.24-3.2,3-4.18,5.3-.86-2.43-2.22-4.23-4.08-5.4-1.87-1.17-4.17-1.75-6.92-1.75-1.98,0-3.78.44-5.4,1.32-1.62.88-2.95,2.17-3.98,3.88l-.4-4.39h-8.37v33.74h8.91v-17.68c0-2.83.57-4.97,1.72-6.41,1.15-1.44,2.8-2.14,4.96-2.09,1.17,0,2.19.28,3.07.84.88.56,1.55,1.47,2.02,2.73.47,1.26.71,3.04.71,5.33v17.28h8.91v-17.68c0-2.83.58-4.97,1.75-6.41,1.17-1.44,2.83-2.14,4.99-2.09,1.17,0,2.18.28,3.04.84.85.56,1.53,1.47,2.02,2.73.49,1.26.74,3.04.74,5.33v17.28Z" style="fill: #fff;"/>
    <path d="M498.88,156.81c1.48-2.65,2.23-5.71,2.23-9.18s-.74-6.52-2.23-9.18c-1.48-2.65-3.55-4.73-6.21-6.24-2.66-1.51-5.71-2.26-9.18-2.26s-6.46.75-9.11,2.26c-2.66,1.51-4.72,3.59-6.21,6.24-1.48,2.66-2.23,5.71-2.23,9.18s.75,6.52,2.26,9.18c1.51,2.65,3.59,4.74,6.24,6.24,2.65,1.51,5.71,2.26,9.18,2.26s6.45-.75,9.08-2.26c2.63-1.51,4.69-3.59,6.17-6.24ZM490.92,152.53c-.72,1.42-1.7,2.53-2.94,3.34-1.24.81-2.69,1.21-4.35,1.21s-3.15-.41-4.45-1.21c-1.31-.81-2.32-1.92-3.04-3.34-.72-1.42-1.08-3.05-1.08-4.89s.36-3.48,1.08-4.89c.72-1.42,1.72-2.53,3-3.34,1.28-.81,2.76-1.21,4.42-1.21s3.07.41,4.35,1.21c1.28.81,2.28,1.92,3,3.34.72,1.42,1.08,3.05,1.08,4.89s-.36,3.48-1.08,4.89Z" style="fill: #fff;"/>
    <path d="M537.55,164.51v-19.1c.04-3.6-.43-6.53-1.42-8.81-.99-2.27-2.43-3.95-4.32-5.03-1.89-1.08-4.16-1.62-6.82-1.62s-4.8.66-6.71,1.99c-1.26.87-2.33,2-3.21,3.38l-.4-4.56h-8.37v33.74h8.91v-17.68c0-2.83.62-4.97,1.86-6.41,1.24-1.44,3-2.14,5.3-2.09,1.26,0,2.36.28,3.31.84.94.56,1.68,1.47,2.19,2.73.52,1.26.78,3.04.78,5.33v17.28h8.91Z" style="fill: #fff;"/>
    <path d="M575.34,164.51v-19.1c0-3.6-.5-6.53-1.48-8.81-.99-2.27-2.42-3.95-4.29-5.03-1.87-1.08-4.15-1.62-6.85-1.62s-4.8.66-6.71,1.99c-1.19.83-2.21,1.88-3.07,3.15v-17.83h-8.91v47.24h8.91v-17.68c0-2.83.62-4.97,1.86-6.41,1.24-1.44,3-2.14,5.3-2.09,1.26,0,2.36.28,3.31.84.94.56,1.69,1.47,2.23,2.73.54,1.26.81,3.04.81,5.33v17.28h8.91Z" style="fill: #fff;"/>
    <path d="M603.99,131.91c-2.27-1.3-5.12-1.96-8.54-1.96-2.83,0-5.23.44-7.19,1.32-1.96.88-3.54,2-4.76,3.37-1.21,1.37-2.14,2.78-2.77,4.22l7.83,2.7c.81-1.3,1.8-2.27,2.97-2.9,1.17-.63,2.47-.94,3.91-.94,1.57,0,2.82.39,3.75,1.18.92.79,1.6,1.9,2.02,3.34.17.58.3,1.22.4,1.89h-7.93c-4.36,0-7.75.91-10.16,2.73-2.41,1.82-3.61,4.53-3.61,8.13,0,3.28,1.11,5.83,3.34,7.63,2.23,1.8,5.37,2.7,9.41,2.7s7.01-1.28,8.74-3.85c.2-.29.38-.6.55-.92l.16,3.95h8.3l.2-18.69c.04-3.24-.48-6.04-1.59-8.4-1.1-2.36-2.79-4.19-5.06-5.5ZM600.85,154.15c-.67,1.1-1.59,2-2.73,2.7-1.15.7-2.46,1.05-3.95,1.05-1.62,0-2.88-.28-3.78-.84-.9-.56-1.35-1.34-1.35-2.33,0-1.26.56-2.24,1.69-2.94,1.12-.7,3.15-1.05,6.07-1.05h5.06c0,1.17-.34,2.31-1.01,3.41Z" style="fill: #fff;"/>
    <path d="M638.78,148.45c0,2.79-.61,4.92-1.82,6.38-1.21,1.46-2.99,2.17-5.33,2.13-1.21,0-2.31-.28-3.27-.84-.97-.56-1.71-1.49-2.23-2.77-.52-1.28-.78-3.05-.78-5.3v-17.28h-8.91v19.1c0,3.6.48,6.54,1.45,8.81.97,2.27,2.4,3.95,4.29,5.03,1.89,1.08,4.18,1.62,6.88,1.62s4.79-.66,6.68-1.99c1.23-.87,2.29-1.99,3.18-3.36l.39,4.54h8.37v-33.74h-8.91v17.68Z" style="fill: #fff;"/>
    <path d="M680.05,150.77c-.61-1.46-1.58-2.79-2.9-3.98-1.33-1.19-3.09-2.06-5.3-2.6l-4.39-1.08c-1.17-.27-2.07-.6-2.7-.98-.63-.38-.94-.87-.94-1.45,0-.9.33-1.61.98-2.13.65-.52,1.59-.78,2.8-.78s2.43.28,3.64.84c1.21.56,1.98,1.29,2.29,2.19l7.36-3.37c-.5-1.48-1.4-2.79-2.7-3.91-1.31-1.12-2.87-2-4.69-2.63-1.82-.63-3.79-.94-5.91-.94-4.09,0-7.25.94-9.48,2.83-2.23,1.89-3.34,4.57-3.34,8.03,0,2.43.93,4.58,2.8,6.44,1.87,1.87,4.42,3.23,7.66,4.08l3.1.81c1.12.27,2.01.6,2.67.98.65.38.98.98.98,1.79s-.41,1.43-1.21,1.86c-.81.43-1.96.64-3.44.64s-2.88-.39-4.05-1.18c-1.17-.79-2.09-1.72-2.77-2.8l-7.63,3.51c.81,1.8,1.93,3.32,3.37,4.56,1.44,1.24,3.1,2.18,4.99,2.83,1.89.65,3.91.98,6.07.98,2.61,0,4.94-.43,6.98-1.28,2.05-.85,3.67-2.06,4.86-3.61,1.19-1.55,1.79-3.34,1.79-5.37,0-1.39-.3-2.82-.91-4.28Z" style="fill: #fff;"/>
    <polygon points="265.92 233.04 275.17 233.04 275.17 214.01 292.71 214.01 292.71 205.58 275.17 205.58 275.17 194.24 296.22 194.24 296.22 185.8 265.92 185.8 265.92 233.04" style="fill: #fff;"/>
    <path d="M325.71,200.75c-2.66-1.51-5.71-2.26-9.18-2.26s-6.46.75-9.11,2.26c-2.66,1.51-4.72,3.59-6.21,6.24-1.48,2.66-2.23,5.71-2.23,9.18s.75,6.52,2.26,9.18c1.51,2.66,3.59,4.74,6.24,6.24,2.65,1.51,5.71,2.26,9.18,2.26s6.44-.75,9.08-2.26c2.63-1.51,4.69-3.59,6.17-6.24,1.48-2.65,2.23-5.71,2.23-9.18s-.74-6.52-2.23-9.18c-1.48-2.65-3.55-4.73-6.21-6.24ZM323.96,221.06c-.72,1.42-1.7,2.53-2.94,3.34-1.24.81-2.69,1.22-4.35,1.22s-3.15-.41-4.45-1.22c-1.31-.81-2.32-1.92-3.04-3.34-.72-1.42-1.08-3.05-1.08-4.89s.36-3.48,1.08-4.89c.72-1.42,1.72-2.53,3-3.34,1.28-.81,2.76-1.21,4.42-1.21s3.07.41,4.35,1.21c1.28.81,2.28,1.92,3,3.34.72,1.42,1.08,3.05,1.08,4.89s-.36,3.48-1.08,4.89Z" style="fill: #fff;"/>
    <path d="M361.08,216.98c0,2.79-.61,4.92-1.82,6.38-1.21,1.46-2.99,2.17-5.33,2.13-1.21,0-2.31-.28-3.27-.84-.97-.56-1.71-1.48-2.23-2.77-.52-1.28-.78-3.05-.78-5.3v-17.28h-8.91v19.1c0,3.6.48,6.54,1.45,8.81.97,2.27,2.4,3.95,4.29,5.03,1.89,1.08,4.18,1.62,6.88,1.62s4.79-.66,6.68-1.99c1.23-.87,2.29-1.99,3.18-3.36l.39,4.54h8.37v-33.74h-8.91v17.68Z" style="fill: #fff;"/>
    <path d="M402.51,200.11c-1.89-1.08-4.16-1.62-6.82-1.62s-4.8.66-6.71,1.99c-1.26.87-2.33,2-3.21,3.38l-.4-4.56h-8.37v33.74h8.91v-17.68c0-2.83.62-4.97,1.86-6.41,1.24-1.44,3-2.14,5.3-2.09,1.26,0,2.36.28,3.31.84.94.56,1.68,1.47,2.19,2.73.52,1.26.78,3.04.78,5.33v17.28h8.91v-19.1c.04-3.6-.43-6.53-1.42-8.81-.99-2.27-2.43-3.95-4.32-5.03Z" style="fill: #fff;"/>
    <path d="M438.21,203.76c-.82-1.24-1.8-2.28-2.94-3.11-1.96-1.44-4.35-2.16-7.19-2.16-3.1,0-5.79.72-8.06,2.16-2.27,1.44-4.04,3.48-5.3,6.11-1.26,2.63-1.89,5.77-1.89,9.41s.63,6.73,1.89,9.38c1.26,2.65,3.03,4.7,5.3,6.14,2.27,1.44,4.96,2.16,8.06,2.16,2.83,0,5.23-.72,7.19-2.16,1.19-.88,2.21-1.98,3.06-3.31l.35,4.66h8.44v-47.24h-8.91v17.96ZM434.47,224.47c-1.19.81-2.55,1.21-4.08,1.21-1.62,0-3.05-.4-4.29-1.21-1.24-.81-2.22-1.93-2.94-3.37-.72-1.44-1.08-3.08-1.08-4.93s.36-3.49,1.08-4.93c.72-1.44,1.69-2.55,2.9-3.34,1.21-.79,2.63-1.18,4.25-1.18s2.96.39,4.15,1.18c1.19.79,2.13,1.9,2.8,3.34.5,1.07.82,2.26.94,3.55v2.75c-.13,1.3-.44,2.48-.94,3.55-.67,1.44-1.61,2.56-2.8,3.37Z" style="fill: #fff;"/>
    <path d="M476.38,200.45c-2.27-1.3-5.12-1.96-8.54-1.96-2.83,0-5.23.44-7.19,1.32-1.96.88-3.54,2-4.76,3.37-1.21,1.37-2.14,2.78-2.77,4.22l7.83,2.7c.81-1.3,1.8-2.27,2.97-2.9,1.17-.63,2.47-.94,3.91-.94,1.57,0,2.82.39,3.75,1.18.92.79,1.6,1.9,2.02,3.34.17.58.3,1.22.4,1.89h-7.93c-4.36,0-7.75.91-10.16,2.73-2.41,1.82-3.61,4.53-3.61,8.13,0,3.29,1.11,5.83,3.34,7.63,2.23,1.8,5.37,2.7,9.41,2.7s7.01-1.28,8.74-3.85c.2-.29.38-.6.55-.91l.16,3.95h8.3l.2-18.69c.04-3.24-.48-6.04-1.59-8.4-1.1-2.36-2.79-4.19-5.06-5.5ZM473.24,222.68c-.67,1.1-1.59,2-2.73,2.7-1.15.7-2.46,1.05-3.95,1.05-1.62,0-2.88-.28-3.78-.84-.9-.56-1.35-1.34-1.35-2.33,0-1.26.56-2.24,1.69-2.94,1.12-.7,3.15-1.05,6.07-1.05h5.06c0,1.17-.34,2.31-1.01,3.41Z" style="fill: #fff;"/>
    <path d="M506.1,225.32c-.54.2-1.04.3-1.48.3-1.21,0-2.14-.37-2.77-1.11-.63-.74-.94-1.83-.94-3.27v-14.37h8.44v-7.56h-8.44v-10.53h-8.91v10.53h-5.47v7.56h5.47v16.33c0,3.42.96,6.05,2.87,7.9,1.91,1.85,4.73,2.77,8.47,2.77,1.3,0,2.62-.26,3.95-.78,1.33-.52,2.53-1.18,3.61-1.99l-3.1-6.68c-.59.41-1.15.71-1.69.91Z" style="fill: #fff;"/>
    <path d="M520.88,183.57c-1.35,0-2.54.51-3.58,1.52-1.04,1.01-1.55,2.22-1.55,3.61s.52,2.6,1.55,3.61c1.03,1.01,2.23,1.52,3.58,1.52s2.6-.51,3.61-1.52c1.01-1.01,1.52-2.22,1.52-3.61s-.51-2.6-1.52-3.61c-1.01-1.01-2.22-1.52-3.61-1.52Z" style="fill: #fff;"/>
    <rect x="516.43" y="199.3" width="8.91" height="33.74" style="fill: #fff;"/>
    <path d="M557.8,200.75c-2.66-1.51-5.71-2.26-9.18-2.26s-6.46.75-9.11,2.26c-2.66,1.51-4.72,3.59-6.21,6.24-1.48,2.66-2.23,5.71-2.23,9.18s.75,6.52,2.26,9.18c1.51,2.66,3.59,4.74,6.24,6.24,2.65,1.51,5.71,2.26,9.18,2.26s6.45-.75,9.08-2.26,4.69-3.59,6.17-6.24c1.48-2.65,2.23-5.71,2.23-9.18s-.74-6.52-2.23-9.18c-1.48-2.65-3.55-4.73-6.21-6.24ZM556.04,221.06c-.72,1.42-1.7,2.53-2.94,3.34-1.24.81-2.69,1.22-4.35,1.22s-3.15-.41-4.45-1.22c-1.31-.81-2.32-1.92-3.04-3.34-.72-1.42-1.08-3.05-1.08-4.89s.36-3.48,1.08-4.89c.72-1.42,1.72-2.53,3-3.34,1.28-.81,2.76-1.21,4.42-1.21s3.07.41,4.35,1.21c1.28.81,2.28,1.92,3,3.34.72,1.42,1.08,3.05,1.08,4.89s-.36,3.48-1.08,4.89Z" style="fill: #fff;"/>
    <path d="M596.94,200.11c-1.89-1.08-4.16-1.62-6.82-1.62s-4.8.66-6.71,1.99c-1.26.87-2.33,2-3.21,3.38l-.4-4.56h-8.37v33.74h8.91v-17.68c0-2.83.62-4.97,1.86-6.41,1.24-1.44,3-2.14,5.3-2.09,1.26,0,2.36.28,3.31.84.94.56,1.68,1.47,2.19,2.73.52,1.26.78,3.04.78,5.33v17.28h8.91v-19.1c.04-3.6-.43-6.53-1.42-8.81-.99-2.27-2.43-3.95-4.32-5.03Z" style="fill: #fff;"/>
  </g>
  <polygon points="360.81 115.25 370.05 115.25 370.05 96.22 387.6 96.22 387.6 87.78 370.05 87.78 370.05 76.45 391.11 76.45 391.11 68.01 360.81 68.01 360.81 115.25" style="fill: #a9d962;"/>
  <polygon points="113.99 187.92 113.99 178.67 94.96 178.67 94.96 161.13 86.52 161.13 86.52 178.67 75.18 178.67 75.18 157.62 66.75 157.62 66.75 187.92 113.99 187.92" style="fill: #a9d962;"/>
  <polygon points="729.84 187.92 729.84 178.67 710.8 178.67 710.8 161.13 702.37 161.13 702.37 178.67 691.03 178.67 691.03 157.62 682.59 157.62 682.59 187.92 729.84 187.92" style="fill: #a9d962;"/>
  <g>
    <path d="M217.53,116.15h9.98c.52,0,.88.52.69,1-1.41,3.72-5.45,12.59-15.09,19.34-.52.36-1.22-.05-1.16-.67,1.02-11.46,3.84-17.29,4.94-19.29.13-.24.38-.38.65-.38Z" style="fill: #a9d962;"/>
    <path d="M208.8,117.19c-1.49,3.35-2.62,7.06-3.46,10.94-.13.58-.85.79-1.26.36-1.59-1.66-4.6-5.37-7.01-11.33-.2-.48.16-1.01.69-1.01h10.36c.54,0,.89.55.67,1.04Z" style="fill: #78a658;"/>
    <path d="M159.41,116.15h4.65c.42,0,.75.34.74.76-.46,18.7.92,35.64,1.82,45.35.05.51-.42.91-.92.78-2.36-.59-8.18-2.07-12.43-3.24-.23-.06-.42-.24-.5-.46-1.45-4.06-5.18-14.83-6.47-19.15-.1-.34.05-.7.37-.86,6.94-3.65,10.65-13.09,12.01-22.54.05-.37.36-.64.73-.64Z" style="fill: #4d7343;"/>
    <path d="M155.63,117.03c-.89,4.44-3.46,14.28-9.69,18.18-.43.27-.99.04-1.11-.45-1.85-7.35-2.84-13.82-3.26-17.79-.05-.44.3-.82.74-.82h12.59c.47,0,.82.43.73.88Z" style="fill: #78a658;"/>
    <path d="M117.16,116.15h17.25c.4,0,.72.31.74.71.2,4.77.73,9.51,1.49,14.21.08.51-.36.94-.86.85-8.05-1.48-14.36-3.33-18.9-5.24-.27-.11-.45-.38-.45-.68v-9.11c0-.41.33-.74.74-.74Z" style="fill: #a9d962;"/>
    <path d="M117.46,131.12c7.24,3.14,15.71,5.18,19.86,6.09.28.06.51.29.56.57,1.23,5.92,2.77,11.79,4.46,17.61.16.57-.37,1.09-.93.91-4.68-1.46-16.78-5.36-24.61-9.77-.23-.13-.37-.38-.37-.64v-14.09c0-.53.54-.89,1.03-.68Z" style="fill: #78a658;"/>
    <path d="M116.42,232.57v-20.34c0-.53.54-.89,1.03-.68,5.35,2.32,24.43,9.8,57.04,10.21.35,0,.65.25.72.6.64,3.36,1.31,6.71,2,10.05.09.46-.25.89-.72.89h-59.33c-.41,0-.74-.33-.74-.74Z" style="fill: #bad3d9;"/>
    <path d="M233.3,189.51c-3.16,2.43-6.5,4.68-9.94,6.74-.47.28-1.07-.02-1.12-.56-.36-3.89-.67-16.88,10.06-28.51.46-.5,1.29-.18,1.29.5v21.25c0,.23-.11.45-.29.59Z" style="fill: #a9d962;"/>
    <path d="M233.39,138.99c-4.7,5-11.17,9.75-20.54,14.12-.47.22-1.02-.1-1.05-.63-.19-3.24-.27-6.59-.21-9.94,0-.25.14-.49.36-.62,2.41-1.47,14.68-9.45,19.39-25.24.09-.31.38-.53.71-.53h.8c.41,0,.74.33.74.74v21.6c0,.19-.07.37-.2.51Z" style="fill: #78a658;"/>
    <path d="M135.96,205.43c-2.9-10.12-9.64-20.31-18.28-28.76-.47-.46-1.26-.12-1.26.53v22.35c0,.28.16.54.42.67,7.32,3.52,15.26,5.46,18.25,6.13.55.12,1.03-.39.87-.92Z" style="fill: #78a658;"/>
    <path d="M218.19,190.08l-3.31-3.06c-.47-.44-1.24-.1-1.24.54v12.74c0,.55.58.91,1.07.66,1.18-.59,2.36-1.2,3.52-1.82.27-.14.42-.44.38-.75-.32-2.56-.38-5.15-.19-7.72.02-.22-.07-.44-.23-.6Z" style="fill: #4d7343;"/>
    <path d="M202.05,169.09l16.21,15.12c.42.39,1.09.18,1.22-.37.56-2.31,1.31-4.57,2.25-6.74,2.57-5.94,6.69-11.17,11.6-15.35.16-.14.26-.35.26-.56v-8.34c0-.62-.71-.96-1.2-.58-8.72,6.91-19.32,11.96-30.08,15.57-.53.18-.68.86-.27,1.24Z" style="fill: #4d7343;"/>
    <path d="M187.48,155.5l4.8,4.48c.19.17.45.24.69.18,3.32-.87,6.62-1.86,9.86-2.99.31-.11.51-.4.5-.73-.26-6.93-.1-14.8.97-22.37.03-.24-.05-.48-.23-.64-1.44-1.34-7.65-7.82-9.76-16.71-.08-.33-.38-.56-.72-.56h-7.83c-.41,0-.75.34-.74.75.09,5.68,1.14,27.86,2.21,38.14.02.18.1.34.23.46Z" style="fill: #4d7343;"/>
    <path d="M149.54,187.02l-3.5,3.23c-.3.28-.76.26-1.04-.04l-1.95-2.08c-.28-.3-.26-.77.04-1.05l15.46-14.42c.42-.39.25-1.09-.29-1.25-12.15-3.61-28.75-9.02-40.75-15.18-.49-.25-1.08.1-1.08.66v14.28c0,.22.1.42.26.56,16.34,13.91,21.99,28.23,23.75,35.25.07.28.3.5.59.55,2.96.52,5.94.95,8.93,1.3.44.05.82-.29.82-.74v-20.52c0-.64-.77-.98-1.24-.54Z" style="fill: #4d7343;"/>
    <path d="M181.7,156.99l-26.36,24.65c-.15.14-.23.34-.23.54v25c0,.41.33.74.74.74h17.4c.41,0,.74-.33.74-.74v-23.68c0-.41.33-.74.74-.74h14.66c.41,0,.74.33.74.74v23.68c0,.41.33.74.74.74h7.6c.09,0,.17-.02.26-.05,3.43-1.25,6.82-2.63,10.15-4.13.27-.12.44-.38.44-.68v-20.89c0-.2-.08-.4-.23-.54l-26.36-24.65c-.28-.27-.73-.27-1.01,0Z" style="fill: #fff;"/>
    <path d="M198.32,221.27c.56,2.46,2.19,9.43,2.66,11.48.08.33.38.57.72.57h31.15c.41,0,.74-.33.74-.74v-29.46c0-.6-.68-.95-1.17-.6-14.35,10.3-30.38,16.65-33.65,17.9-.34.13-.54.49-.46.85Z" style="fill: #bad3d9;"/>
  </g>
</svg>