<?xml version="1.0" encoding="UTF-8"?>
<svg id="Layer_2" xmlns="http://www.w3.org/2000/svg" viewBox="0 0 500 500">
  <path d="M318.82,138.94h16.41c.85,0,1.44.56,1.14,1.08-2.32,4.02-8.96,13.61-24.82,20.91-.85.39-2.01-.05-1.91-.73,1.67-12.39,6.32-18.7,8.12-20.85.21-.26.62-.41,1.07-.41h0Z" style="fill: #a9d962;"/>
  <path d="M304.46,140.06c-2.45,3.63-4.31,7.64-5.69,11.84-.2.63-1.39.85-2.07.39-2.61-1.8-7.56-5.81-11.52-12.25-.32-.52.27-1.1,1.13-1.1h17.04c.88,0,1.47.6,1.11,1.13h0Z" style="fill: #78a658;"/>
  <path d="M223.24,138.94h7.65c.69,0,1.23.37,1.21.82-.76,20.22,1.5,38.54,2.99,49.04.08.55-.69.98-1.51.85-3.88-.64-13.45-2.24-20.45-3.51-.38-.07-.69-.26-.82-.5-2.38-4.39-8.51-16.04-10.63-20.71-.17-.37.09-.76.6-.93,11.41-3.94,17.5-14.15,19.75-24.37.09-.39.59-.69,1.2-.69h0Z" style="fill: #4d7343;"/>
  <path d="M217.01,139.89c-1.46,4.8-5.68,15.44-15.93,19.66-.7.29-1.63.04-1.83-.49-3.04-7.95-4.66-14.95-5.36-19.25-.08-.47.49-.88,1.21-.88h20.71c.77,0,1.34.46,1.19.96h0Z" style="fill: #78a658;"/>
  <path d="M153.77,138.94h28.36c.65,0,1.19.34,1.21.77.34,5.16,1.2,10.28,2.45,15.37.14.55-.59,1.02-1.42.92-13.24-1.6-23.62-3.6-31.08-5.66-.45-.13-.74-.42-.74-.73v-9.86c0-.44.54-.8,1.22-.8Z" style="fill: #a9d962;"/>
  <path d="M154.24,155.13c11.91,3.39,25.83,5.6,32.66,6.58.47.07.83.31.93.62,2.02,6.41,4.55,12.76,7.33,19.04.27.61-.6,1.18-1.53.99-7.7-1.58-27.59-5.8-40.48-10.56-.38-.14-.62-.41-.62-.7v-15.24c0-.58.89-.96,1.7-.73h0Z" style="fill: #78a658;"/>
  <path d="M152.55,264.84v-21.99c0-.58.89-.96,1.7-.73,8.8,2.51,40.17,10.6,93.81,11.05.58,0,1.07.27,1.18.65,1.05,3.63,2.15,7.25,3.29,10.87.15.5-.42.96-1.19.96h-97.56c-.67,0-1.22-.36-1.22-.8h0Z" style="fill: #bad3d9;"/>
  <path d="M344.75,218.27c-5.19,2.63-10.69,5.06-16.34,7.29-.77.3-1.76-.02-1.84-.61-.59-4.2-1.1-18.26,16.54-30.83.75-.54,2.12-.19,2.12.54v22.98c0,.25-.17.48-.47.64h0Z" style="fill: #a9d962;"/>
  <path d="M344.89,163.64c-7.73,5.41-18.36,10.55-33.77,15.27-.78.24-1.68-.11-1.73-.67-.3-3.51-.45-7.12-.34-10.75,0-.27.23-.53.59-.67,3.97-1.59,24.14-10.22,31.89-27.3.15-.34.63-.58,1.17-.58h1.32c.67,0,1.22.36,1.22.8v23.36c0,.2-.12.4-.33.55h0Z" style="fill: #78a658;"/>
  <path d="M184.68,235.49c-4.77-10.95-15.86-21.96-30.06-31.1-.77-.5-2.07-.13-2.07.57v24.18c0,.31.27.59.69.72,12.03,3.81,25.1,5.91,30.01,6.63.9.13,1.69-.42,1.43-1h0Z" style="fill: #78a658;"/>
  <g>
    <path d="M319.89,218.89l-5.44-3.31c-.78-.47-2.04-.11-2.04.59v13.78c0,.6.95.98,1.77.71,1.94-.64,3.87-1.3,5.79-1.97.44-.16.69-.48.63-.81-.52-2.76-.62-5.57-.32-8.35.03-.24-.11-.48-.39-.65h0Z" style="fill: #4d7343;"/>
    <path d="M293.35,196.19l26.66,16.36c.68.42,1.79.19,2.01-.4.92-2.5,2.16-4.94,3.7-7.28,4.23-6.43,11-12.08,19.07-16.6.27-.15.43-.37.43-.61v-9.02c0-.67-1.18-1.04-1.97-.62-14.34,7.47-31.77,12.93-49.46,16.84-.87.19-1.11.93-.44,1.34h0Z" style="fill: #4d7343;"/>
  </g>
  <path d="M269.39,181.49l7.89,4.84c.3.19.74.26,1.14.19,5.46-.94,10.88-2.01,16.21-3.23.5-.12.84-.44.81-.79-.43-7.49-.16-16,1.6-24.2.05-.26-.08-.52-.37-.7-2.37-1.45-12.59-8.46-16.05-18.07-.13-.36-.62-.61-1.18-.61h-12.87c-.68,0-1.23.36-1.22.81.15,6.14,1.88,30.13,3.64,41.25.03.19.16.37.38.5h0Z" style="fill: #4d7343;"/>
  <path d="M207,215.58l-5.75,3.49c-.49.3-1.26.28-1.71-.04l-3.2-2.25c-.46-.32-.43-.83.06-1.13l25.42-15.6c.69-.42.42-1.18-.48-1.35-19.98-3.9-47.29-9.75-67.01-16.42-.81-.27-1.77.11-1.77.71v15.44c0,.23.16.46.43.61,26.88,15.04,36.16,30.53,39.06,38.12.12.31.49.54.97.59,4.87.56,9.77,1.03,14.68,1.4.72.05,1.36-.32,1.36-.8v-22.19c0-.7-1.26-1.06-2.04-.59h0Z" style="fill: #4d7343;"/>
  <path d="M259.89,183.1l-43.35,26.66c-.25.15-.39.36-.39.59v27.03c0,.44.54.8,1.22.8h28.62c.67,0,1.22-.36,1.22-.8v-25.6c0-.44.54-.8,1.22-.8h24.1c.67,0,1.22.36,1.22.8v25.6c0,.44.54.8,1.22.8h12.5c.15,0,.29-.02.42-.05,5.64-1.35,11.22-2.84,16.7-4.46.44-.13.72-.42.72-.73v-22.59c0-.22-.14-.43-.39-.59l-43.35-26.66c-.47-.29-1.19-.29-1.66,0h0Z" style="fill: #fff;"/>
  <path d="M287.21,252.62c.92,2.66,3.6,10.2,4.38,12.41.13.36.62.62,1.19.62h51.22c.67,0,1.22-.36,1.22-.8v-31.86c0-.65-1.12-1.03-1.93-.65-23.59,11.14-49.96,18.01-55.33,19.36-.57.14-.89.53-.75.92h0Z" style="fill: #bad3d9;"/>
  <path d="M89.15,306.8c-.73,1.07-1.67,2.01-2.85,2.82s-2.52,1.45-4.03,1.92-3.19.69-5.03.69c-2.65,0-4.99-.43-7.04-1.28s-3.65-2.03-4.8-3.54c-1.15-1.5-1.73-3.24-1.73-5.2s.56-3.69,1.7-5.18c1.13-1.49,2.71-2.66,4.74-3.52s4.34-1.28,6.95-1.28c1.79,0,3.46.22,4.99.65s2.9,1.04,4.1,1.81c1.2.77,2.15,1.68,2.88,2.72l8.13-1.98c-1.07-1.66-2.59-3.12-4.58-4.4-1.98-1.28-4.3-2.27-6.95-2.99-2.65-.71-5.51-1.07-8.58-1.07-4.35,0-8.21.65-11.56,1.96-3.35,1.3-5.99,3.1-7.91,5.39-1.92,2.29-2.88,4.92-2.88,7.89s.96,5.61,2.88,7.89c1.92,2.29,4.57,4.08,7.94,5.39,3.37,1.3,7.24,1.96,11.59,1.96,3.11,0,5.99-.37,8.64-1.09,2.65-.73,4.96-1.75,6.95-3.07,1.98-1.32,3.51-2.84,4.58-4.55l-8.13-1.94h0Z" style="fill: #fff;"/>
  <path d="M107.59,316.04c2.52.94,5.42,1.41,8.71,1.41s6.11-.47,8.61-1.41,4.45-2.24,5.86-3.89,2.11-3.56,2.11-5.73-.7-4.07-2.11-5.73-3.37-2.95-5.89-3.89c-2.52-.94-5.42-1.41-8.71-1.41s-6.13.47-8.64,1.41c-2.52.94-4.48,2.24-5.89,3.89s-2.11,3.57-2.11,5.73.72,4.07,2.15,5.73c1.43,1.66,3.4,2.96,5.92,3.89h0ZM109.19,303.37c.68-.89,1.63-1.58,2.85-2.08,1.22-.51,2.61-.76,4.19-.76s2.91.25,4.13.76,2.17,1.2,2.85,2.08c.68.89,1.02,1.9,1.02,3.05s-.34,2.17-1.02,3.05c-.68.89-1.61,1.58-2.78,2.08-1.18.51-2.55.76-4.13.76s-2.99-.25-4.23-.76-2.2-1.2-2.88-2.08c-.68-.89-1.02-1.9-1.02-3.05s.34-2.17,1.02-3.05h0Z" style="fill: #fff;"/>
  <path d="M145.62,305.91c0-1.77.55-3.1,1.63-4,1.09-.9,2.66-1.33,4.71-1.3,1.11,0,2.08.18,2.91.53s1.47.92,1.92,1.71.67,1.89.67,3.33v10.78h8.45v-11.03c0-1.77.55-3.1,1.66-4,1.11-.9,2.69-1.33,4.74-1.3,1.11,0,2.07.18,2.88.53s1.45.92,1.92,1.71c.47.79.7,1.89.7,3.33v10.78h8.45v-12.04c0-3.23-.98-5.62-2.95-7.18-1.96-1.56-4.82-2.34-8.58-2.34-2.26,0-4.25.39-5.96,1.16-1.71.77-3.03,1.87-3.97,3.31-.81-1.52-2.1-2.64-3.88-3.37-1.77-.73-3.96-1.09-6.56-1.09-1.88,0-3.59.27-5.12.82-1.54.55-2.8,1.36-3.78,2.42l-.38-2.74h-7.94v21.05h8.45v-11.03h0Z" style="fill: #fff;"/>
  <path d="M232.37,306.17v10.78h8.45v-12.04c0-3.23-.98-5.62-2.95-7.18-1.96-1.56-4.82-2.34-8.58-2.34-2.26,0-4.25.39-5.96,1.16-1.71.77-3.03,1.87-3.97,3.31-.81-1.52-2.1-2.64-3.88-3.37s-3.96-1.09-6.56-1.09c-1.88,0-3.59.27-5.12.82-1.54.55-2.8,1.36-3.78,2.42l-.38-2.74h-7.94v21.05h8.45v-11.03c0-1.77.55-3.1,1.63-4,1.09-.9,2.66-1.33,4.71-1.3,1.11,0,2.08.18,2.91.53s1.47.92,1.92,1.71.67,1.89.67,3.33v10.78h8.45v-11.03c0-1.77.55-3.1,1.66-4,1.11-.9,2.69-1.33,4.74-1.3,1.11,0,2.07.18,2.88.53s1.45.92,1.92,1.71c.47.79.7,1.89.7,3.33h0Z" style="fill: #fff;"/>
  <path d="M252.6,316.04c2.52.94,5.42,1.41,8.71,1.41s6.11-.47,8.61-1.41,4.45-2.24,5.86-3.89c1.41-1.66,2.11-3.56,2.11-5.73s-.7-4.07-2.11-5.73c-1.41-1.66-3.37-2.95-5.89-3.89s-5.42-1.41-8.71-1.41-6.13.47-8.64,1.41c-2.52.94-4.48,2.24-5.89,3.89s-2.11,3.57-2.11,5.73.72,4.07,2.15,5.73c1.43,1.66,3.4,2.96,5.92,3.89h0ZM254.2,303.37c.68-.89,1.63-1.58,2.85-2.08,1.22-.51,2.61-.76,4.19-.76s2.91.25,4.13.76c1.22.51,2.17,1.2,2.85,2.08.68.89,1.02,1.9,1.02,3.05s-.34,2.17-1.02,3.05c-.68.89-1.61,1.58-2.78,2.08-1.18.51-2.55.76-4.13.76s-2.99-.25-4.23-.76-2.2-1.2-2.88-2.08c-.68-.89-1.02-1.9-1.02-3.05s.34-2.17,1.02-3.05Z" style="fill: #fff;"/>
  <path d="M302.64,302.84c.49.79.73,1.89.73,3.33v10.78h8.45v-11.92c.04-2.25-.41-4.08-1.35-5.49-.94-1.42-2.3-2.46-4.1-3.14-1.79-.67-3.95-1.01-6.47-1.01s-4.56.41-6.37,1.24c-1.19.54-2.21,1.25-3.05,2.11l-.38-2.85h-7.94v21.05h8.45v-11.03c0-1.77.59-3.1,1.76-4,1.17-.9,2.85-1.33,5.03-1.3,1.2,0,2.24.18,3.14.53s1.59.92,2.08,1.71h0Z" style="fill: #fff;"/>
  <path d="M347.04,316.95v-11.92c0-2.25-.47-4.08-1.41-5.49-.94-1.42-2.29-2.46-4.06-3.14-1.77-.67-3.94-1.01-6.5-1.01s-4.56.41-6.37,1.24c-1.13.51-2.1,1.17-2.91,1.97v-11.13h-8.45v29.47h8.45v-11.03c0-1.77.59-3.1,1.76-4,1.17-.9,2.85-1.33,5.03-1.3,1.2,0,2.24.18,3.14.53s1.6.92,2.11,1.71c.51.79.77,1.89.77,3.33v10.78h8.45,0Z" style="fill: #fff;"/>
  <path d="M354.17,305.94c-2.29,1.14-3.43,2.83-3.43,5.07,0,2.05,1.06,3.63,3.17,4.76,2.11,1.12,5.09,1.68,8.93,1.68s6.65-.8,8.29-2.4c.19-.18.36-.37.52-.57l.15,2.46h7.87l.19-11.66c.04-2.02-.46-3.77-1.5-5.24-1.05-1.47-2.65-2.62-4.8-3.43-2.15-.81-4.86-1.22-8.1-1.22-2.69,0-4.96.27-6.82.82-1.86.55-3.36,1.25-4.51,2.11-1.15.86-2.03,1.73-2.63,2.63l7.43,1.68c.77-.81,1.71-1.42,2.82-1.81,1.11-.39,2.35-.59,3.71-.59,1.49,0,2.68.25,3.55.74.87.49,1.52,1.19,1.92,2.08.16.36.28.76.38,1.18h-7.52c-4.14,0-7.35.57-9.63,1.71h0ZM371.56,308.36c0,.73-.32,1.44-.96,2.13-.64.69-1.5,1.25-2.59,1.68s-2.34.65-3.74.65c-1.54,0-2.73-.18-3.59-.53s-1.28-.83-1.28-1.45c0-.79.53-1.4,1.6-1.83s2.99-.65,5.76-.65h4.8,0Z" style="fill: #fff;"/>
  <path d="M405.94,306.93c0,1.74-.58,3.07-1.73,3.98-1.15.91-2.84,1.36-5.06,1.33-1.15,0-2.19-.18-3.11-.53-.92-.35-1.62-.93-2.11-1.73-.49-.8-.73-1.9-.73-3.31v-10.78h-8.45v11.92c0,2.25.46,4.08,1.38,5.49.92,1.42,2.27,2.46,4.06,3.14,1.79.67,3.97,1.01,6.53,1.01s4.54-.41,6.34-1.24c1.17-.54,2.18-1.24,3.02-2.09l.38,2.83h7.94v-21.05h-8.45v11.03h0Z" style="fill: #fff;"/>
  <path d="M444.45,308.38c-.58-.91-1.5-1.74-2.75-2.48-1.26-.74-2.94-1.28-5.03-1.62l-4.16-.67c-1.11-.17-1.96-.37-2.56-.61-.6-.24-.9-.54-.9-.91,0-.56.31-1,.93-1.33.62-.32,1.5-.48,2.66-.48s2.3.18,3.46.53,1.88.81,2.18,1.37l6.98-2.11c-.47-.93-1.32-1.74-2.56-2.44-1.24-.7-2.72-1.25-4.45-1.64-1.73-.39-3.6-.59-5.6-.59-3.88,0-6.88.59-9,1.77-2.11,1.18-3.17,2.85-3.17,5.01,0,1.52.89,2.86,2.66,4.02s4.19,2.01,7.27,2.55l2.94.51c1.07.17,1.91.37,2.53.61s.93.61.93,1.12-.38.89-1.15,1.16c-.77.27-1.86.4-3.26.4s-2.73-.24-3.84-.74c-1.11-.49-1.98-1.07-2.63-1.75l-7.24,2.19c.77,1.12,1.83,2.07,3.2,2.84,1.37.77,2.94,1.36,4.74,1.77,1.79.41,3.71.61,5.76.61,2.48,0,4.68-.27,6.62-.8,1.94-.53,3.48-1.28,4.61-2.25,1.13-.97,1.7-2.08,1.7-3.35,0-.87-.29-1.76-.86-2.67h0Z" style="fill: #fff;"/>
  <polygon points="93.57 360.39 102.34 360.39 102.34 348.52 118.98 348.52 118.98 343.25 102.34 343.25 102.34 336.18 122.31 336.18 122.31 330.92 93.57 330.92 93.57 360.39" style="fill: #fff;"/>
  <path d="M149.65,340.24c-2.52-.94-5.42-1.41-8.71-1.41s-6.13.47-8.64,1.41c-2.52.94-4.48,2.24-5.89,3.89s-2.11,3.57-2.11,5.73.72,4.07,2.15,5.73c1.43,1.66,3.4,2.96,5.92,3.89,2.52.94,5.42,1.41,8.71,1.41s6.11-.47,8.61-1.41,4.45-2.24,5.86-3.89c1.41-1.66,2.11-3.56,2.11-5.73s-.7-4.07-2.11-5.73c-1.41-1.66-3.37-2.95-5.89-3.89h0ZM147.99,352.92c-.68.89-1.61,1.58-2.78,2.08-1.18.51-2.55.76-4.13.76s-2.99-.25-4.23-.76-2.2-1.2-2.88-2.08c-.68-.89-1.02-1.9-1.02-3.05s.34-2.17,1.02-3.05c.68-.89,1.63-1.58,2.85-2.08,1.22-.51,2.61-.76,4.19-.76s2.91.25,4.13.76c1.21.51,2.17,1.2,2.85,2.08.68.89,1.02,1.9,1.02,3.05s-.34,2.17-1.02,3.05Z" style="fill: #fff;"/>
  <path d="M182.56,350.37c0,1.74-.58,3.07-1.73,3.98-1.15.91-2.84,1.36-5.06,1.33-1.15,0-2.19-.18-3.11-.53s-1.62-.93-2.11-1.73c-.49-.8-.73-1.9-.73-3.31v-10.78h-8.45v11.92c0,2.25.46,4.08,1.38,5.49.92,1.42,2.27,2.46,4.06,3.14,1.79.67,3.97,1.01,6.53,1.01s4.54-.41,6.34-1.24c1.17-.54,2.18-1.24,3.02-2.09l.38,2.83h7.94v-21.05h-8.45v11.03h0Z" style="fill: #fff;"/>
  <path d="M221.23,339.84c-1.79-.67-3.95-1.01-6.47-1.01s-4.56.41-6.37,1.24c-1.19.54-2.21,1.25-3.05,2.11l-.38-2.85h-7.94v21.05h8.45v-11.03c0-1.77.59-3.1,1.76-4,1.17-.9,2.85-1.33,5.03-1.3,1.2,0,2.24.18,3.14.53.9.35,1.59.92,2.08,1.71.49.79.73,1.89.73,3.33v10.78h8.45v-11.92c.04-2.25-.41-4.08-1.35-5.49-.94-1.42-2.3-2.46-4.1-3.14h0Z" style="fill: #fff;"/>
  <path d="M254.46,342.12c-.78-.77-1.71-1.42-2.78-1.94-1.86-.9-4.13-1.35-6.82-1.35-2.94,0-5.5.45-7.65,1.35-2.15.9-3.83,2.17-5.03,3.81-1.2,1.64-1.79,3.6-1.79,5.87s.6,4.2,1.79,5.85c1.2,1.66,2.87,2.93,5.03,3.83,2.15.9,4.71,1.35,7.65,1.35,2.69,0,4.96-.45,6.82-1.35,1.13-.55,2.1-1.24,2.9-2.06l.33,2.9h8v-29.47h-8.45v11.21h0ZM250.9,355.04c-1.13.51-2.42.76-3.88.76-1.54,0-2.89-.25-4.06-.76-1.18-.51-2.1-1.21-2.78-2.11-.68-.9-1.02-1.92-1.02-3.07s.34-2.17,1.02-3.07c.68-.9,1.6-1.59,2.75-2.08,1.15-.49,2.5-.74,4.03-.74s2.81.25,3.94.74c1.13.49,2.01,1.19,2.66,2.08.48.67.77,1.41.9,2.21v1.72c-.12.81-.42,1.54-.9,2.21-.64.9-1.53,1.6-2.66,2.11Z" style="fill: #fff;"/>
  <path d="M290.02,340.05c-2.15-.81-4.86-1.22-8.1-1.22-2.69,0-4.96.27-6.82.82-1.86.55-3.36,1.25-4.51,2.11-1.15.86-2.03,1.73-2.63,2.63l7.43,1.68c.77-.81,1.71-1.42,2.82-1.81,1.11-.39,2.35-.59,3.71-.59,1.49,0,2.68.25,3.55.74.87.49,1.52,1.19,1.92,2.08.16.36.28.76.38,1.18h-7.52c-4.14,0-7.35.57-9.64,1.71-2.28,1.14-3.43,2.83-3.43,5.07,0,2.05,1.06,3.63,3.17,4.76,2.11,1.12,5.09,1.68,8.93,1.68s6.65-.8,8.29-2.4c.19-.18.36-.37.52-.57l.15,2.47h7.87l.19-11.66c.04-2.02-.46-3.77-1.5-5.24-1.05-1.47-2.65-2.62-4.8-3.43h0ZM287.05,353.93c-.64.69-1.5,1.25-2.59,1.68s-2.34.65-3.74.65c-1.54,0-2.73-.18-3.59-.53s-1.28-.83-1.28-1.45c0-.79.53-1.4,1.6-1.83s2.99-.65,5.76-.65h4.8c0,.73-.32,1.44-.96,2.13h0Z" style="fill: #fff;"/>
  <path d="M317.58,355.57c-.51.13-.98.19-1.41.19-1.15,0-2.03-.23-2.63-.69s-.9-1.14-.9-2.04v-8.97h8v-4.72h-8v-6.57h-8.45v6.57h-5.19v4.72h5.19v10.19c0,2.13.9,3.78,2.72,4.93,1.81,1.15,4.49,1.73,8.04,1.73,1.24,0,2.49-.16,3.74-.48,1.26-.32,2.4-.74,3.43-1.24l-2.94-4.17c-.56.25-1.09.44-1.6.57h0Z" style="fill: #fff;"/>
  <path d="M330.96,329.52c-1.28,0-2.41.32-3.39.95-.98.63-1.47,1.38-1.47,2.25s.49,1.62,1.47,2.25c.98.63,2.11.95,3.39.95s2.46-.32,3.43-.95,1.44-1.38,1.44-2.25-.48-1.62-1.44-2.25-2.1-.95-3.43-.95Z" style="fill: #fff;"/>
  <rect x="326.74" y="339.34" width="8.45" height="21.05" style="fill: #fff;"/>
  <path d="M365.35,340.24c-2.52-.94-5.42-1.41-8.71-1.41s-6.13.47-8.64,1.41c-2.52.94-4.48,2.24-5.89,3.89-1.41,1.66-2.11,3.57-2.11,5.73s.72,4.07,2.15,5.73c1.43,1.66,3.4,2.96,5.92,3.89,2.52.94,5.42,1.41,8.71,1.41s6.11-.47,8.61-1.41c2.5-.94,4.45-2.24,5.86-3.89s2.11-3.56,2.11-5.73-.7-4.07-2.11-5.73-3.37-2.95-5.89-3.89h0ZM363.68,352.92c-.68.89-1.61,1.58-2.78,2.08-1.18.51-2.55.76-4.13.76s-2.99-.25-4.23-.76-2.2-1.2-2.88-2.08c-.68-.89-1.02-1.9-1.02-3.05s.34-2.17,1.02-3.05c.68-.89,1.63-1.58,2.85-2.08,1.22-.51,2.61-.76,4.19-.76s2.91.25,4.13.76c1.21.51,2.17,1.2,2.85,2.08.68.89,1.02,1.9,1.02,3.05s-.34,2.17-1.02,3.05Z" style="fill: #fff;"/>
  <path d="M401.84,339.84c-1.79-.67-3.95-1.01-6.47-1.01s-4.56.41-6.37,1.24c-1.2.54-2.21,1.25-3.05,2.11l-.38-2.85h-7.94v21.05h8.45v-11.03c0-1.77.59-3.1,1.76-4,1.17-.9,2.85-1.33,5.03-1.3,1.2,0,2.24.18,3.14.53s1.59.92,2.08,1.71c.49.79.73,1.89.73,3.33v10.78h8.45v-11.92c.04-2.25-.41-4.08-1.35-5.49-.94-1.42-2.3-2.46-4.1-3.14h0Z" style="fill: #fff;"/>
  <g>
    <line x1="30.88" y1="36.17" x2="458.55" y2="463.83" style="fill: none; stroke: #ffce00; stroke-miterlimit: 10; stroke-width: 3px;"/>
    <line x1="469.12" y1="36.17" x2="41.45" y2="463.83" style="fill: none; stroke: #ffce00; stroke-miterlimit: 10; stroke-width: 3px;"/>
  </g>
</svg>