<?xml version="1.0" encoding="UTF-8"?>
<svg id="Layer_2" xmlns="http://www.w3.org/2000/svg" viewBox="0 0 500 500">
  <g>
    <rect x="152.55" y="81.38" width="192.67" height="192.67" style="fill: #091313;"/>
    <path d="M308.45,95.66h13.98c.72,0,1.23.72.97,1.4-1.98,5.21-7.63,17.63-21.14,27.09-.72.51-1.71-.07-1.63-.94,1.42-16.05,5.38-24.22,6.91-27.01.18-.33.53-.53.91-.53h0Z" style="fill: #a2caf5;"/>
    <path d="M296.23,97.12c-2.09,4.7-3.67,9.89-4.85,15.33-.17.81-1.19,1.1-1.76.5-2.22-2.33-6.44-7.52-9.82-15.87-.27-.68.23-1.42.96-1.42h14.51c.75,0,1.25.77.94,1.46h0Z" style="fill: #7db5f1;"/>
    <path d="M227.04,95.66h6.51c.58,0,1.05.48,1.03,1.06-.65,26.19,1.28,49.91,2.54,63.51.07.71-.59,1.27-1.28,1.1-3.3-.83-11.46-2.9-17.41-4.54-.32-.09-.58-.33-.7-.65-2.03-5.69-7.25-20.78-9.06-26.82-.14-.48.07-.98.51-1.21,9.72-5.11,14.91-18.33,16.82-31.57.07-.51.51-.89,1.02-.89h0Z" style="fill: #4695eb;"/>
    <path d="M221.74,96.9c-1.24,6.22-4.84,19.99-13.57,25.46-.6.37-1.38.05-1.55-.63-2.59-10.3-3.97-19.36-4.56-24.93-.07-.61.41-1.14,1.03-1.14h17.64c.65,0,1.14.6,1.02,1.24h0Z" style="fill: #7db5f1;"/>
    <path d="M167.87,95.66h24.16c.56,0,1.01.44,1.03.99.29,6.68,1.02,13.32,2.09,19.91.12.71-.51,1.32-1.21,1.19-11.28-2.07-20.11-4.66-26.48-7.34-.38-.16-.63-.54-.63-.95v-12.77c0-.57.46-1.04,1.04-1.04Z" style="fill: #a2caf5;"/>
    <path d="M168.28,116.64c10.14,4.39,22,7.26,27.82,8.52.4.09.71.4.79.8,1.72,8.3,3.88,16.52,6.25,24.66.23.79-.51,1.53-1.3,1.28-6.56-2.05-23.5-7.51-34.48-13.68-.32-.18-.53-.53-.53-.9v-19.73c0-.75.76-1.25,1.45-.95h0Z" style="fill: #7db5f1;"/>
    <path d="M166.84,258.73v-28.48c0-.75.76-1.25,1.45-.95,7.5,3.24,34.21,13.73,79.9,14.31.49,0,.91.36,1.01.84.9,4.7,1.83,9.39,2.8,14.08.13.64-.36,1.25-1.01,1.25h-83.1c-.57,0-1.04-.46-1.04-1.04h0Z" style="fill: #bbd8f8;"/>
    <path d="M330.54,198.41c-4.42,3.41-9.1,6.56-13.92,9.44-.66.39-1.5-.03-1.57-.79-.5-5.44-.94-23.65,14.09-39.93.64-.7,1.8-.25,1.8.7v29.76c0,.32-.15.63-.4.82h0Z" style="fill: #7db5f1;"/>
    <path d="M330.66,127.66c-6.58,7-15.64,13.66-28.77,19.78-.66.31-1.43-.15-1.47-.87-.26-4.54-.38-9.23-.29-13.93,0-.36.2-.68.5-.87,3.38-2.06,20.56-13.23,27.16-35.36.13-.44.53-.75.99-.75h1.12c.57,0,1.04.46,1.04,1.04v30.25c0,.26-.1.52-.28.71h0Z" style="fill: #7db5f1;"/>
    <path d="M194.2,220.72c-4.06-14.18-13.5-28.44-25.61-40.28-.65-.64-1.76-.17-1.76.74v31.31c0,.4.23.76.58.94,10.25,4.93,21.38,7.65,25.56,8.58.77.17,1.44-.54,1.22-1.3h0Z" style="fill: #7db5f1;"/>
    <g>
      <path d="M309.37,199.21l-4.63-4.28c-.67-.61-1.74-.14-1.74.76v17.84c0,.77.81,1.27,1.5.92,1.66-.83,3.3-1.68,4.93-2.55.38-.2.59-.62.54-1.05-.44-3.58-.53-7.21-.27-10.82.02-.31-.1-.62-.33-.84h0Z" style="fill: #4695eb;"/>
      <path d="M286.76,169.82l22.71,21.19c.58.54,1.53.25,1.71-.52.78-3.23,1.84-6.4,3.15-9.43,3.6-8.32,9.37-15.64,16.24-21.5.23-.2.36-.48.36-.79v-11.68c0-.87-1-1.35-1.68-.81-12.21,9.68-27.06,16.75-42.12,21.81-.74.25-.95,1.2-.38,1.74h0Z" style="fill: #4695eb;"/>
    </g>
    <path d="M266.35,150.78l6.72,6.27c.26.24.63.34.97.25,4.65-1.22,9.27-2.61,13.81-4.19.43-.15.71-.56.69-1.02-.36-9.7-.14-20.73,1.37-31.34.05-.33-.07-.67-.32-.9-2.01-1.88-10.72-10.96-13.67-23.4-.11-.46-.53-.79-1.01-.79h-10.96c-.58,0-1.04.47-1.04,1.05.12,7.95,1.6,39.03,3.1,53.42.03.25.14.48.32.65h0Z" style="fill: #4695eb;"/>
    <path d="M213.21,194.93l-4.9,4.52c-.42.39-1.07.36-1.46-.05l-2.73-2.92c-.39-.42-.37-1.08.05-1.47l21.65-20.2c.59-.55.36-1.52-.41-1.75-17.02-5.05-40.28-12.63-57.08-21.27-.69-.36-1.51.15-1.51.92v20c0,.3.14.59.37.79,22.89,19.48,30.8,39.54,33.27,49.37.1.4.42.7.82.77,4.15.73,8.32,1.33,12.51,1.82.61.07,1.16-.41,1.16-1.03v-28.74c0-.9-1.08-1.37-1.74-.76h0Z" style="fill: #4695eb;"/>
    <path d="M258.26,152.87l-36.93,34.52c-.21.2-.33.47-.33.76v35.01c0,.57.46,1.04,1.04,1.04h24.38c.57,0,1.04-.46,1.04-1.04v-33.16c0-.57.46-1.04,1.04-1.04h20.53c.57,0,1.04.46,1.04,1.04v33.16c0,.57.46,1.04,1.04,1.04h10.65c.12,0,.24-.02.36-.06,4.81-1.75,9.55-3.68,14.22-5.78.37-.17.61-.54.61-.95v-29.26c0-.29-.12-.56-.33-.76l-36.93-34.52c-.4-.37-1.02-.37-1.42,0h0Z" style="fill: #fff;"/>
    <path d="M281.53,242.9c.78,3.45,3.06,13.21,3.73,16.08.11.47.53.8,1.01.8h43.63c.57,0,1.04-.46,1.04-1.04v-41.26c0-.84-.96-1.33-1.64-.84-20.1,14.43-42.55,23.33-47.12,25.07-.48.18-.75.69-.64,1.2h0Z" style="fill: #bbd8f8;"/>
    <path d="M89.15,336.37c-.73,1.62-1.67,3.05-2.85,4.29s-2.52,2.21-4.03,2.91-3.19,1.06-5.03,1.06c-2.65,0-4.99-.65-7.04-1.95s-3.65-3.09-4.8-5.38c-1.15-2.28-1.73-4.92-1.73-7.91s.56-5.61,1.7-7.87c1.13-2.26,2.71-4.05,4.74-5.34,2.03-1.3,4.34-1.95,6.95-1.95,1.79,0,3.46.33,4.99.99s2.9,1.58,4.1,2.75c1.2,1.18,2.15,2.55,2.88,4.13l8.13-3.01c-1.07-2.52-2.59-4.75-4.58-6.69-1.98-1.94-4.3-3.46-6.95-4.54-2.65-1.09-5.51-1.63-8.58-1.63-4.35,0-8.21.99-11.56,2.98-3.35,1.98-5.99,4.72-7.91,8.2-1.92,3.48-2.88,7.48-2.88,12s.96,8.53,2.88,12c1.92,3.48,4.57,6.21,7.94,8.2,3.37,1.98,7.24,2.98,11.59,2.98,3.11,0,5.99-.56,8.64-1.66,2.65-1.11,4.96-2.67,6.95-4.68,1.98-2.01,3.51-4.31,4.58-6.91l-8.13-2.95h0Z" style="fill: #4695eb;"/>
    <path d="M107.59,350.42c2.52,1.43,5.42,2.15,8.71,2.15s6.11-.72,8.61-2.15c2.5-1.43,4.45-3.4,5.86-5.92s2.11-5.42,2.11-8.71-.7-6.19-2.11-8.71-3.37-4.49-5.89-5.92c-2.52-1.43-5.42-2.15-8.71-2.15s-6.13.72-8.64,2.15c-2.52,1.43-4.48,3.4-5.89,5.92s-2.11,5.42-2.11,8.71.72,6.19,2.15,8.71c1.43,2.52,3.4,4.49,5.92,5.92h0ZM109.19,331.15c.68-1.35,1.63-2.4,2.85-3.17,1.22-.77,2.61-1.15,4.19-1.15s2.91.38,4.13,1.15c1.22.77,2.17,1.83,2.85,3.17.68,1.35,1.02,2.89,1.02,4.64s-.34,3.3-1.02,4.64c-.68,1.35-1.61,2.4-2.78,3.17-1.18.77-2.55,1.15-4.13,1.15s-2.99-.38-4.23-1.15-2.2-1.83-2.88-3.17c-.68-1.35-1.02-2.89-1.02-4.64s.34-3.3,1.02-4.64h0Z" style="fill: #4695eb;"/>
    <path d="M145.62,335.02c0-2.69.55-4.71,1.63-6.08,1.09-1.37,2.66-2.03,4.71-1.98,1.11,0,2.08.27,2.91.8s1.47,1.4,1.92,2.6c.45,1.2.67,2.88.67,5.06v16.39h8.45v-16.77c0-2.69.55-4.71,1.66-6.08,1.11-1.37,2.69-2.03,4.74-1.98,1.11,0,2.07.27,2.88.8s1.45,1.4,1.92,2.6c.47,1.2.7,2.88.7,5.06v16.39h8.45v-18.31c0-4.91-.98-8.55-2.95-10.92-1.96-2.37-4.82-3.55-8.58-3.55-2.26,0-4.25.59-5.96,1.76-1.71,1.18-3.03,2.85-3.97,5.03-.81-2.3-2.1-4.01-3.88-5.12-1.77-1.11-3.96-1.66-6.56-1.66-1.88,0-3.59.42-5.12,1.25-1.54.83-2.8,2.06-3.78,3.68l-.38-4.16h-7.94v32.01h8.45v-16.77h0Z" style="fill: #4695eb;"/>
    <path d="M232.37,335.41v16.39h8.45v-18.31c0-4.91-.98-8.55-2.95-10.92-1.96-2.37-4.82-3.55-8.58-3.55-2.26,0-4.25.59-5.96,1.76-1.71,1.18-3.03,2.85-3.97,5.03-.81-2.3-2.1-4.01-3.88-5.12-1.77-1.11-3.96-1.66-6.56-1.66-1.88,0-3.59.42-5.12,1.25-1.54.83-2.8,2.06-3.78,3.68l-.38-4.16h-7.94v32.01h8.45v-16.77c0-2.69.55-4.71,1.63-6.08,1.09-1.37,2.66-2.03,4.71-1.98,1.11,0,2.08.27,2.91.8s1.47,1.4,1.92,2.6.67,2.88.67,5.06v16.39h8.45v-16.77c0-2.69.55-4.71,1.66-6.08,1.11-1.37,2.69-2.03,4.74-1.98,1.11,0,2.07.27,2.88.8s1.45,1.4,1.92,2.6c.47,1.2.7,2.88.7,5.06h0Z" style="fill: #4695eb;"/>
    <path d="M252.6,350.42c2.52,1.43,5.42,2.15,8.71,2.15s6.11-.72,8.61-2.15,4.45-3.4,5.86-5.92c1.41-2.52,2.11-5.42,2.11-8.71s-.7-6.19-2.11-8.71c-1.41-2.52-3.37-4.49-5.89-5.92s-5.42-2.15-8.71-2.15-6.13.72-8.64,2.15c-2.52,1.43-4.48,3.4-5.89,5.92s-2.11,5.42-2.11,8.71.72,6.19,2.15,8.71c1.43,2.52,3.4,4.49,5.92,5.92h0ZM254.2,331.15c.68-1.35,1.63-2.4,2.85-3.17,1.22-.77,2.61-1.15,4.19-1.15s2.91.38,4.13,1.15c1.22.77,2.17,1.83,2.85,3.17.68,1.35,1.02,2.89,1.02,4.64s-.34,3.3-1.02,4.64c-.68,1.35-1.61,2.4-2.78,3.17-1.18.77-2.55,1.15-4.13,1.15s-2.99-.38-4.23-1.15-2.2-1.83-2.88-3.17c-.68-1.35-1.02-2.89-1.02-4.64s.34-3.3,1.02-4.64Z" style="fill: #4695eb;"/>
    <path d="M302.64,330.35c.49,1.2.73,2.88.73,5.06v16.39h8.45v-18.12c.04-3.41-.41-6.2-1.35-8.35-.94-2.15-2.3-3.74-4.1-4.77-1.79-1.02-3.95-1.54-6.47-1.54s-4.56.63-6.37,1.89c-1.19.83-2.21,1.9-3.05,3.21l-.38-4.33h-7.94v32.01h8.45v-16.77c0-2.69.59-4.71,1.76-6.08,1.17-1.37,2.85-2.03,5.03-1.98,1.2,0,2.24.27,3.14.8s1.59,1.4,2.08,2.6h0Z" style="fill: #4695eb;"/>
    <path d="M347.04,351.8v-18.12c0-3.41-.47-6.2-1.41-8.35-.94-2.15-2.29-3.74-4.06-4.77-1.77-1.02-3.94-1.54-6.5-1.54s-4.56.63-6.37,1.89c-1.13.78-2.1,1.78-2.91,2.99v-16.92h-8.45v44.82h8.45v-16.77c0-2.69.59-4.71,1.76-6.08,1.17-1.37,2.85-2.03,5.03-1.98,1.2,0,2.24.27,3.14.8s1.6,1.4,2.11,2.6c.51,1.2.77,2.88.77,5.06v16.39h8.45,0Z" style="fill: #4695eb;"/>
    <path d="M354.17,335.06c-2.29,1.73-3.43,4.3-3.43,7.72,0,3.12,1.06,5.53,3.17,7.24,2.11,1.71,5.09,2.56,8.93,2.56s6.65-1.22,8.29-3.65c.19-.27.36-.57.52-.87l.15,3.75h7.87l.19-17.74c.04-3.07-.46-5.73-1.5-7.97-1.05-2.24-2.65-3.98-4.8-5.22-2.15-1.24-4.86-1.86-8.1-1.86-2.69,0-4.96.42-6.82,1.25-1.86.83-3.36,1.9-4.51,3.2-1.15,1.3-2.03,2.64-2.63,4l7.43,2.56c.77-1.24,1.71-2.15,2.82-2.75,1.11-.6,2.35-.9,3.71-.9,1.49,0,2.68.38,3.55,1.12.87.75,1.52,1.8,1.92,3.17.16.55.28,1.15.38,1.79h-7.52c-4.14,0-7.35.87-9.63,2.6h0ZM371.56,338.74c0,1.11-.32,2.19-.96,3.23-.64,1.05-1.5,1.9-2.59,2.56s-2.34.99-3.74.99c-1.54,0-2.73-.27-3.59-.8s-1.28-1.27-1.28-2.21c0-1.2.53-2.12,1.6-2.78s2.99-.99,5.76-.99h4.8,0Z" style="fill: #4695eb;"/>
    <path d="M405.94,336.56c0,2.65-.58,4.66-1.73,6.05-1.15,1.39-2.84,2.06-5.06,2.01-1.15,0-2.19-.27-3.11-.8-.92-.53-1.62-1.41-2.11-2.63-.49-1.21-.73-2.89-.73-5.03v-16.39h-8.45v18.12c0,3.41.46,6.2,1.38,8.35.92,2.15,2.27,3.75,4.06,4.77,1.79,1.02,3.97,1.54,6.53,1.54s4.54-.63,6.34-1.89c1.17-.82,2.18-1.89,3.02-3.18l.38,4.3h7.94v-32.01h-8.45v16.77h0Z" style="fill: #4695eb;"/>
    <path d="M444.45,338.77c-.58-1.39-1.5-2.65-2.75-3.78-1.26-1.13-2.94-1.95-5.03-2.46l-4.16-1.02c-1.11-.26-1.96-.56-2.56-.93-.6-.36-.9-.82-.9-1.38,0-.85.31-1.52.93-2.01.62-.49,1.5-.73,2.66-.73s2.3.27,3.46.8,1.88,1.23,2.18,2.08l6.98-3.2c-.47-1.41-1.32-2.65-2.56-3.71-1.24-1.07-2.72-1.9-4.45-2.5-1.73-.6-3.6-.9-5.6-.9-3.88,0-6.88.9-9,2.69-2.11,1.79-3.17,4.33-3.17,7.62,0,2.3.89,4.34,2.66,6.11s4.19,3.06,7.27,3.88l2.94.77c1.07.26,1.91.56,2.53.93s.93.93.93,1.7-.38,1.36-1.15,1.76c-.77.41-1.86.61-3.26.61s-2.73-.37-3.84-1.12c-1.11-.75-1.98-1.63-2.63-2.66l-7.24,3.33c.77,1.71,1.83,3.15,3.2,4.32,1.37,1.18,2.94,2.07,4.74,2.69,1.79.62,3.71.93,5.76.93,2.48,0,4.68-.41,6.62-1.22,1.94-.81,3.48-1.95,4.61-3.43,1.13-1.47,1.7-3.17,1.7-5.09,0-1.32-.29-2.68-.86-4.06h0Z" style="fill: #4695eb;"/>
    <polygon points="93.57 417.85 102.34 417.85 102.34 399.8 118.98 399.8 118.98 391.79 102.34 391.79 102.34 381.04 122.31 381.04 122.31 373.04 93.57 373.04 93.57 417.85" style="fill: #4695eb;"/>
    <path d="M149.65,387.22c-2.52-1.43-5.42-2.15-8.71-2.15s-6.13.72-8.64,2.15c-2.52,1.43-4.48,3.4-5.89,5.92-1.41,2.52-2.11,5.42-2.11,8.71s.72,6.19,2.15,8.71c1.43,2.52,3.4,4.49,5.92,5.92,2.52,1.43,5.42,2.15,8.71,2.15s6.11-.72,8.61-2.15,4.45-3.4,5.86-5.92,2.11-5.42,2.11-8.71-.7-6.19-2.11-8.71c-1.41-2.52-3.37-4.49-5.89-5.92h0ZM147.99,406.49c-.68,1.35-1.61,2.4-2.78,3.17-1.18.77-2.55,1.15-4.13,1.15s-2.99-.38-4.23-1.15-2.2-1.83-2.88-3.17c-.68-1.35-1.02-2.89-1.02-4.64s.34-3.3,1.02-4.64c.68-1.35,1.63-2.4,2.85-3.17,1.22-.77,2.61-1.15,4.19-1.15s2.91.38,4.13,1.15c1.21.77,2.17,1.83,2.85,3.17.68,1.35,1.02,2.89,1.02,4.64s-.34,3.3-1.02,4.64Z" style="fill: #4695eb;"/>
    <path d="M182.56,402.62c0,2.65-.58,4.66-1.73,6.05-1.15,1.39-2.84,2.06-5.06,2.01-1.15,0-2.19-.27-3.11-.8s-1.62-1.41-2.11-2.63c-.49-1.21-.73-2.89-.73-5.03v-16.39h-8.45v18.12c0,3.41.46,6.2,1.38,8.35.92,2.15,2.27,3.75,4.06,4.77,1.79,1.02,3.97,1.54,6.53,1.54s4.54-.63,6.34-1.89c1.17-.82,2.18-1.89,3.02-3.18l.38,4.3h7.94v-32.01h-8.45v16.77h0Z" style="fill: #4695eb;"/>
    <path d="M221.23,386.61c-1.79-1.02-3.95-1.54-6.47-1.54s-4.56.63-6.37,1.89c-1.19.83-2.21,1.9-3.05,3.21l-.38-4.33h-7.94v32.01h8.45v-16.77c0-2.69.59-4.71,1.76-6.08,1.17-1.37,2.85-2.03,5.03-1.98,1.2,0,2.24.27,3.14.8.9.53,1.59,1.4,2.08,2.6.49,1.2.73,2.88.73,5.06v16.39h8.45v-18.12c.04-3.41-.41-6.2-1.35-8.35-.94-2.15-2.3-3.74-4.1-4.77h0Z" style="fill: #4695eb;"/>
    <path d="M254.46,390.08c-.78-1.17-1.71-2.16-2.78-2.95-1.86-1.37-4.13-2.05-6.82-2.05-2.94,0-5.5.68-7.65,2.05-2.15,1.37-3.83,3.3-5.03,5.79-1.2,2.5-1.79,5.48-1.79,8.93s.6,6.38,1.79,8.9c1.2,2.52,2.87,4.46,5.03,5.82,2.15,1.37,4.71,2.05,7.65,2.05,2.69,0,4.96-.68,6.82-2.05,1.13-.83,2.1-1.88,2.9-3.14l.33,4.42h8v-44.82h-8.45v17.04h0ZM250.9,409.72c-1.13.77-2.42,1.15-3.88,1.15-1.54,0-2.89-.38-4.06-1.15-1.18-.77-2.1-1.83-2.78-3.2-.68-1.37-1.02-2.92-1.02-4.67s.34-3.31,1.02-4.68c.68-1.37,1.6-2.42,2.75-3.17,1.15-.75,2.5-1.12,4.03-1.12s2.81.38,3.94,1.12c1.13.75,2.01,1.8,2.66,3.17.48,1.02.77,2.14.9,3.36v2.62c-.12,1.23-.42,2.35-.9,3.36-.64,1.37-1.53,2.43-2.66,3.2Z" style="fill: #4695eb;"/>
    <path d="M290.02,386.93c-2.15-1.24-4.86-1.86-8.1-1.86-2.69,0-4.96.42-6.82,1.25-1.86.83-3.36,1.9-4.51,3.2-1.15,1.3-2.03,2.64-2.63,4l7.43,2.56c.77-1.24,1.71-2.15,2.82-2.75,1.11-.6,2.35-.9,3.71-.9,1.49,0,2.68.38,3.55,1.12.87.75,1.52,1.8,1.92,3.17.16.55.28,1.15.38,1.79h-7.52c-4.14,0-7.35.87-9.64,2.6-2.28,1.73-3.43,4.3-3.43,7.72,0,3.12,1.06,5.53,3.17,7.24,2.11,1.71,5.09,2.56,8.93,2.56s6.65-1.22,8.29-3.65c.19-.27.36-.57.52-.87l.15,3.75h7.87l.19-17.74c.04-3.07-.46-5.73-1.5-7.97-1.05-2.24-2.65-3.98-4.8-5.22h0ZM287.05,408.03c-.64,1.05-1.5,1.9-2.59,2.56s-2.34.99-3.74.99c-1.54,0-2.73-.27-3.59-.8s-1.28-1.27-1.28-2.21c0-1.2.53-2.12,1.6-2.78s2.99-.99,5.76-.99h4.8c0,1.11-.32,2.19-.96,3.23h0Z" style="fill: #4695eb;"/>
    <path d="M317.58,410.52c-.51.19-.98.29-1.41.29-1.15,0-2.03-.35-2.63-1.06s-.9-1.74-.9-3.11v-13.64h8v-7.17h-8v-9.99h-8.45v9.99h-5.19v7.17h5.19v15.49c0,3.24.9,5.74,2.72,7.49,1.81,1.75,4.49,2.63,8.04,2.63,1.24,0,2.49-.25,3.74-.73,1.26-.49,2.4-1.12,3.43-1.89l-2.94-6.34c-.56.38-1.09.67-1.6.86h0Z" style="fill: #4695eb;"/>
    <path d="M330.96,370.92c-1.28,0-2.41.48-3.39,1.44-.98.96-1.47,2.1-1.47,3.43s.49,2.46,1.47,3.43c.98.96,2.11,1.44,3.39,1.44s2.46-.48,3.43-1.44,1.44-2.1,1.44-3.43-.48-2.46-1.44-3.43-2.1-1.44-3.43-1.44Z" style="fill: #4695eb;"/>
    <rect x="326.74" y="385.84" width="8.45" height="32.01" style="fill: #4695eb;"/>
    <path d="M365.35,387.22c-2.52-1.43-5.42-2.15-8.71-2.15s-6.13.72-8.64,2.15c-2.52,1.43-4.48,3.4-5.89,5.92-1.41,2.52-2.11,5.42-2.11,8.71s.72,6.19,2.15,8.71c1.43,2.52,3.4,4.49,5.92,5.92,2.52,1.43,5.42,2.15,8.71,2.15s6.11-.72,8.61-2.15c2.5-1.43,4.45-3.4,5.86-5.92s2.11-5.42,2.11-8.71-.7-6.19-2.11-8.71-3.37-4.49-5.89-5.92h0ZM363.68,406.49c-.68,1.35-1.61,2.4-2.78,3.17-1.18.77-2.55,1.15-4.13,1.15s-2.99-.38-4.23-1.15-2.2-1.83-2.88-3.17c-.68-1.35-1.02-2.89-1.02-4.64s.34-3.3,1.02-4.64c.68-1.35,1.63-2.4,2.85-3.17,1.22-.77,2.61-1.15,4.19-1.15s2.91.38,4.13,1.15c1.21.77,2.17,1.83,2.85,3.17.68,1.35,1.02,2.89,1.02,4.64s-.34,3.3-1.02,4.64Z" style="fill: #4695eb;"/>
    <path d="M401.84,386.61c-1.79-1.02-3.95-1.54-6.47-1.54s-4.56.63-6.37,1.89c-1.2.83-2.21,1.9-3.05,3.21l-.38-4.33h-7.94v32.01h8.45v-16.77c0-2.69.59-4.71,1.76-6.08,1.17-1.37,2.85-2.03,5.03-1.98,1.2,0,2.24.27,3.14.8s1.59,1.4,2.08,2.6c.49,1.2.73,2.88.73,5.06v16.39h8.45v-18.12c.04-3.41-.41-6.2-1.35-8.35-.94-2.15-2.3-3.74-4.1-4.77h0Z" style="fill: #4695eb;"/>
  </g>
  <g>
    <line x1="30.88" y1="36.17" x2="458.55" y2="463.83" style="fill: none; stroke: #ff004a; stroke-miterlimit: 10; stroke-width: 3px;"/>
    <line x1="469.12" y1="36.17" x2="41.45" y2="463.83" style="fill: none; stroke: #ff004a; stroke-miterlimit: 10; stroke-width: 3px;"/>
  </g>
</svg>