<?xml version="1.0" encoding="UTF-8"?>
<svg id="Layer_2" xmlns="http://www.w3.org/2000/svg" viewBox="0 0 800 350">
  <line x1="26.61" y1="115.74" x2="773.39" y2="115.74" style="fill: none; stroke: #a9d962; stroke-dasharray: 6.21 6.21; stroke-miterlimit: 10; stroke-width: 1.04px;"/>
  <line x1="26.61" y1="67.76" x2="773.39" y2="67.76" style="fill: none; stroke: gray; stroke-miterlimit: 10; stroke-width: 1.04px;"/>
  <line x1="26.61" y1="280.77" x2="773.39" y2="280.77" style="fill: none; stroke: gray; stroke-miterlimit: 10; stroke-width: 1.04px;"/>
  <line x1="26.61" y1="233.36" x2="773.39" y2="233.36" style="fill: none; stroke: #a9d962; stroke-dasharray: 6.21 6.21; stroke-miterlimit: 10; stroke-width: 1.04px;"/>
  <line x1="682" y1="319.42" x2="682" y2="30.58" style="fill: none; stroke: #a9d962; stroke-dasharray: 6.21 6.21; stroke-miterlimit: 10; stroke-width: 1.04px;"/>
  <line x1="115.89" y1="319.42" x2="115.89" y2="30.58" style="fill: none; stroke: #a9d962; stroke-dasharray: 6.21 6.21; stroke-miterlimit: 10; stroke-width: 1.04px;"/>
  <line x1="66.2" y1="319.42" x2="66.2" y2="30.58" style="fill: none; stroke: gray; stroke-miterlimit: 10; stroke-width: 1.04px;"/>
  <line x1="730.86" y1="319.42" x2="730.86" y2="30.58" style="fill: none; stroke: gray; stroke-miterlimit: 10; stroke-width: 1.04px;"/>
  <polygon points="360.81 281.02 370.05 281.02 370.05 261.99 387.6 261.99 387.6 253.55 370.05 253.55 370.05 242.22 391.11 242.22 391.11 233.78 360.81 233.78 360.81 281.02" style="fill: #a9d962;"/>
  <g>
    <g>
      <rect x="116.42" y="116.15" width="117.17" height="117.17" style="fill: #012626;"/>
      <path d="M211.92,124.9h8.56c.44,0,.75.44.59.86-1.21,3.19-4.67,10.8-12.95,16.59-.44.31-1.05-.04-1-.58.87-9.83,3.3-14.83,4.24-16.54.11-.2.32-.33.56-.33Z" style="fill: #a9d962;"/>
      <path d="M204.43,125.79c-1.28,2.88-2.25,6.06-2.97,9.39-.11.5-.73.68-1.08.31-1.36-1.43-3.94-4.61-6.01-9.72-.17-.42.14-.87.59-.87h8.89c.46,0,.77.47.58.89Z" style="fill: #78a658;"/>
      <path d="M162.05,124.9h3.99c.36,0,.64.29.63.65-.4,16.04.79,30.57,1.56,38.9.04.44-.36.78-.79.67-2.02-.51-7.02-1.78-10.67-2.78-.2-.05-.36-.2-.43-.4-1.24-3.48-4.44-12.73-5.55-16.42-.09-.29.05-.6.31-.74,5.95-3.13,9.13-11.23,10.3-19.33.05-.31.31-.55.63-.55Z" style="fill: #4d7343;"/>
      <path d="M158.8,125.66c-.76,3.81-2.97,12.25-8.31,15.59-.36.23-.85.03-.95-.39-1.59-6.3-2.43-11.86-2.79-15.27-.04-.37.25-.7.63-.7h10.8c.4,0,.7.37.62.76Z" style="fill: #78a658;"/>
      <path d="M125.81,124.9h14.8c.34,0,.62.27.63.61.18,4.09.63,8.16,1.28,12.19.07.43-.31.81-.74.73-6.91-1.27-12.32-2.86-16.22-4.49-.23-.1-.39-.33-.39-.58v-7.82c0-.35.28-.63.63-.63Z" style="fill: #a9d962;"/>
      <path d="M126.06,137.74c6.21,2.69,13.47,4.44,17.04,5.22.24.05.43.25.48.49,1.05,5.08,2.38,10.12,3.83,15.1.14.49-.31.94-.8.78-4.02-1.26-14.39-4.6-21.12-8.38-.2-.11-.32-.32-.32-.55v-12.08c0-.46.47-.76.89-.58Z" style="fill: #78a658;"/>
      <path d="M125.17,224.78v-17.45c0-.46.47-.76.89-.58,4.59,1.99,20.95,8.41,48.94,8.76.3,0,.56.22.62.51.55,2.88,1.12,5.75,1.72,8.62.08.39-.22.76-.62.76h-50.9c-.35,0-.63-.28-.63-.63Z" style="fill: #bad3d9;"/>
      <path d="M225.44,187.83c-2.71,2.09-5.58,4.01-8.53,5.78-.4.24-.92-.02-.96-.48-.31-3.33-.57-14.48,8.63-24.46.39-.43,1.1-.15,1.1.43v18.23c0,.2-.09.38-.25.5Z" style="fill: #a9d962;"/>
      <path d="M225.52,144.49c-4.03,4.29-9.58,8.37-17.62,12.11-.41.19-.88-.09-.9-.54-.16-2.78-.23-5.65-.18-8.53,0-.22.12-.42.31-.53,2.07-1.26,12.6-8.11,16.64-21.66.08-.27.33-.46.61-.46h.69c.35,0,.63.28.63.63v18.53c0,.16-.06.32-.17.44Z" style="fill: #78a658;"/>
      <path d="M141.94,201.49c-2.49-8.69-8.27-17.42-15.68-24.67-.4-.39-1.08-.11-1.08.46v19.18c0,.24.14.47.36.57,6.28,3.02,13.09,4.69,15.65,5.26.47.1.88-.33.75-.79Z" style="fill: #78a658;"/>
      <g>
        <path d="M212.48,188.32l-2.84-2.62c-.41-.38-1.07-.09-1.07.47v10.93c0,.47.5.78.92.57,1.01-.51,2.02-1.03,3.02-1.56.23-.12.36-.38.33-.64-.27-2.19-.32-4.41-.17-6.62.01-.19-.06-.38-.2-.51Z" style="fill: #4d7343;"/>
        <path d="M198.63,170.32l13.91,12.98c.36.33.94.16,1.05-.32.48-1.98,1.12-3.92,1.93-5.78,2.2-5.1,5.74-9.58,9.95-13.17.14-.12.22-.3.22-.48v-7.15c0-.53-.61-.83-1.03-.5-7.48,5.93-16.57,10.26-25.8,13.36-.45.15-.58.74-.23,1.06Z" style="fill: #4d7343;"/>
      </g>
      <path d="M186.13,158.66l4.12,3.84c.16.15.38.21.6.15,2.85-.75,5.68-1.6,8.46-2.56.26-.09.44-.34.43-.62-.22-5.94-.08-12.69.84-19.19.03-.2-.04-.41-.19-.55-1.23-1.15-6.57-6.71-8.37-14.33-.07-.28-.32-.48-.62-.48h-6.71c-.35,0-.64.29-.63.64.08,4.87.98,23.9,1.9,32.72.02.15.09.29.2.4Z" style="fill: #4d7343;"/>
      <path d="M153.58,185.7l-3,2.77c-.26.24-.66.22-.89-.03l-1.67-1.79c-.24-.26-.23-.66.03-.9l13.26-12.37c.36-.33.22-.93-.25-1.07-10.43-3.1-24.67-7.73-34.96-13.03-.42-.22-.92.09-.92.56v12.25c0,.19.08.36.22.48,14.02,11.93,18.87,24.22,20.38,30.24.06.24.26.43.51.47,2.54.45,5.1.81,7.66,1.11.38.04.71-.25.71-.63v-17.6c0-.55-.66-.84-1.07-.47Z" style="fill: #4d7343;"/>
      <path d="M181.18,159.93l-22.62,21.15c-.13.12-.2.29-.2.46v21.45c0,.35.28.63.63.63h14.93c.35,0,.63-.28.63-.63v-20.31c0-.35.28-.63.63-.63h12.57c.35,0,.63.28.63.63v20.31c0,.35.28.63.63.63h6.52c.07,0,.15-.01.22-.04,2.94-1.07,5.85-2.26,8.71-3.54.23-.1.37-.33.37-.58v-17.92c0-.18-.07-.34-.2-.46l-22.62-21.15c-.24-.23-.62-.23-.87,0Z" style="fill: #fff;"/>
      <path d="M195.43,215.08c.48,2.11,1.88,8.09,2.29,9.85.07.29.32.49.62.49h26.72c.35,0,.63-.28.63-.63v-25.27c0-.52-.58-.82-1-.52-12.31,8.84-26.06,14.29-28.86,15.36-.3.11-.46.42-.39.73Z" style="fill: #bad3d9;"/>
    </g>
    <g>
      <path d="M274.56,162.18c3.55,2.09,7.63,3.14,12.21,3.14,3.28,0,6.32-.59,9.11-1.76,2.79-1.17,5.23-2.81,7.32-4.93,2.09-2.11,3.7-4.54,4.83-7.29l-8.57-3.1c-.77,1.71-1.77,3.22-3,4.52-1.24,1.31-2.66,2.33-4.25,3.07-1.6.74-3.36,1.11-5.3,1.11-2.79,0-5.26-.69-7.42-2.06-2.16-1.37-3.85-3.26-5.06-5.67-1.21-2.41-1.82-5.18-1.82-8.33s.6-5.92,1.79-8.3c1.19-2.38,2.86-4.26,4.99-5.64,2.14-1.37,4.58-2.06,7.32-2.06,1.89,0,3.64.35,5.26,1.05,1.62.7,3.06,1.66,4.32,2.9,1.26,1.24,2.27,2.69,3.04,4.35l8.57-3.17c-1.13-2.65-2.73-5-4.83-7.05-2.09-2.05-4.53-3.64-7.32-4.79-2.79-1.15-5.8-1.72-9.04-1.72-4.59,0-8.65,1.05-12.18,3.14-3.53,2.09-6.31,4.97-8.33,8.64-2.02,3.67-3.04,7.89-3.04,12.65s1.01,8.99,3.04,12.65c2.02,3.67,4.81,6.55,8.37,8.64Z" style="fill: #012626;"/>
      <path d="M344,156.81c1.48-2.65,2.23-5.71,2.23-9.18s-.74-6.52-2.23-9.18c-1.48-2.65-3.55-4.73-6.21-6.24-2.66-1.51-5.71-2.26-9.18-2.26s-6.46.75-9.11,2.26c-2.66,1.51-4.72,3.59-6.21,6.24-1.48,2.66-2.23,5.71-2.23,9.18s.75,6.52,2.26,9.18c1.51,2.65,3.59,4.74,6.24,6.24,2.65,1.51,5.71,2.26,9.18,2.26s6.45-.75,9.08-2.26c2.63-1.51,4.69-3.59,6.17-6.24ZM336.04,152.53c-.72,1.42-1.7,2.53-2.94,3.34-1.24.81-2.69,1.21-4.35,1.21s-3.15-.41-4.45-1.21c-1.31-.81-2.32-1.92-3.04-3.34-.72-1.42-1.08-3.05-1.08-4.89s.36-3.48,1.08-4.89c.72-1.42,1.72-2.53,3-3.34s2.76-1.21,4.42-1.21,3.07.41,4.35,1.21c1.28.81,2.28,1.92,3,3.34.72,1.42,1.08,3.05,1.08,4.89s-.36,3.48-1.08,4.89Z" style="fill: #012626;"/>
      <path d="M381.73,164.51v-17.68c0-2.83.58-4.97,1.75-6.41,1.17-1.44,2.83-2.14,4.99-2.09,1.17,0,2.18.28,3.04.84.85.56,1.53,1.47,2.02,2.73.49,1.26.74,3.04.74,5.33v17.28h8.91v-19.3c0-5.17-1.04-9.01-3.1-11.51-2.07-2.5-5.08-3.75-9.04-3.75-2.39,0-4.48.62-6.28,1.86-1.8,1.24-3.2,3-4.18,5.3-.86-2.43-2.22-4.23-4.08-5.4-1.87-1.17-4.17-1.75-6.92-1.75-1.98,0-3.78.44-5.4,1.32-1.62.88-2.95,2.17-3.98,3.88l-.4-4.39h-8.37v33.74h8.91v-17.68c0-2.83.57-4.97,1.72-6.41,1.15-1.44,2.8-2.14,4.96-2.09,1.17,0,2.19.28,3.07.84.88.56,1.55,1.47,2.02,2.73.47,1.26.71,3.04.71,5.33v17.28h8.91Z" style="fill: #012626;"/>
      <path d="M452.45,164.51h8.91v-19.3c0-5.17-1.04-9.01-3.1-11.51-2.07-2.5-5.08-3.75-9.04-3.75-2.39,0-4.48.62-6.28,1.86-1.8,1.24-3.2,3-4.18,5.3-.86-2.43-2.22-4.23-4.08-5.4-1.87-1.17-4.17-1.75-6.92-1.75-1.98,0-3.78.44-5.4,1.32-1.62.88-2.95,2.17-3.98,3.88l-.4-4.39h-8.37v33.74h8.91v-17.68c0-2.83.57-4.97,1.72-6.41,1.15-1.44,2.8-2.14,4.96-2.09,1.17,0,2.19.28,3.07.84.88.56,1.55,1.47,2.02,2.73.47,1.26.71,3.04.71,5.33v17.28h8.91v-17.68c0-2.83.58-4.97,1.75-6.41,1.17-1.44,2.83-2.14,4.99-2.09,1.17,0,2.18.28,3.04.84.85.56,1.53,1.47,2.02,2.73.49,1.26.74,3.04.74,5.33v17.28Z" style="fill: #012626;"/>
      <path d="M498.88,156.81c1.48-2.65,2.23-5.71,2.23-9.18s-.74-6.52-2.23-9.18c-1.48-2.65-3.55-4.73-6.21-6.24-2.66-1.51-5.71-2.26-9.18-2.26s-6.46.75-9.11,2.26c-2.66,1.51-4.72,3.59-6.21,6.24-1.48,2.66-2.23,5.71-2.23,9.18s.75,6.52,2.26,9.18c1.51,2.65,3.59,4.74,6.24,6.24,2.65,1.51,5.71,2.26,9.18,2.26s6.45-.75,9.08-2.26c2.63-1.51,4.69-3.59,6.17-6.24ZM490.92,152.53c-.72,1.42-1.7,2.53-2.94,3.34-1.24.81-2.69,1.21-4.35,1.21s-3.15-.41-4.45-1.21c-1.31-.81-2.32-1.92-3.04-3.34-.72-1.42-1.08-3.05-1.08-4.89s.36-3.48,1.08-4.89c.72-1.42,1.72-2.53,3-3.34,1.28-.81,2.76-1.21,4.42-1.21s3.07.41,4.35,1.21c1.28.81,2.28,1.92,3,3.34.72,1.42,1.08,3.05,1.08,4.89s-.36,3.48-1.08,4.89Z" style="fill: #012626;"/>
      <path d="M537.55,164.51v-19.1c.04-3.6-.43-6.53-1.42-8.81-.99-2.27-2.43-3.95-4.32-5.03-1.89-1.08-4.16-1.62-6.82-1.62s-4.8.66-6.71,1.99c-1.26.87-2.33,2-3.21,3.38l-.4-4.56h-8.37v33.74h8.91v-17.68c0-2.83.62-4.97,1.86-6.41,1.24-1.44,3-2.14,5.3-2.09,1.26,0,2.36.28,3.31.84.94.56,1.68,1.47,2.19,2.73.52,1.26.78,3.04.78,5.33v17.28h8.91Z" style="fill: #012626;"/>
      <path d="M575.34,164.51v-19.1c0-3.6-.5-6.53-1.48-8.81-.99-2.27-2.42-3.95-4.29-5.03-1.87-1.08-4.15-1.62-6.85-1.62s-4.8.66-6.71,1.99c-1.19.83-2.21,1.88-3.07,3.15v-17.83h-8.91v47.24h8.91v-17.68c0-2.83.62-4.97,1.86-6.41,1.24-1.44,3-2.14,5.3-2.09,1.26,0,2.36.28,3.31.84.94.56,1.69,1.47,2.23,2.73.54,1.26.81,3.04.81,5.33v17.28h8.91Z" style="fill: #012626;"/>
      <path d="M603.99,131.91c-2.27-1.3-5.12-1.96-8.54-1.96-2.83,0-5.23.44-7.19,1.32-1.96.88-3.54,2-4.76,3.37-1.21,1.37-2.14,2.78-2.77,4.22l7.83,2.7c.81-1.3,1.8-2.27,2.97-2.9,1.17-.63,2.47-.94,3.91-.94,1.57,0,2.82.39,3.75,1.18.92.79,1.6,1.9,2.02,3.34.17.58.3,1.22.4,1.89h-7.93c-4.36,0-7.75.91-10.16,2.73-2.41,1.82-3.61,4.53-3.61,8.13,0,3.28,1.11,5.83,3.34,7.63,2.23,1.8,5.37,2.7,9.41,2.7s7.01-1.28,8.74-3.85c.2-.29.38-.6.55-.92l.16,3.95h8.3l.2-18.69c.04-3.24-.48-6.04-1.59-8.4-1.1-2.36-2.79-4.19-5.06-5.5ZM600.85,154.15c-.67,1.1-1.59,2-2.73,2.7-1.15.7-2.46,1.05-3.95,1.05-1.62,0-2.88-.28-3.78-.84-.9-.56-1.35-1.34-1.35-2.33,0-1.26.56-2.24,1.69-2.94,1.12-.7,3.15-1.05,6.07-1.05h5.06c0,1.17-.34,2.31-1.01,3.41Z" style="fill: #012626;"/>
      <path d="M638.78,148.45c0,2.79-.61,4.92-1.82,6.38-1.21,1.46-2.99,2.17-5.33,2.13-1.21,0-2.31-.28-3.27-.84-.97-.56-1.71-1.49-2.23-2.77-.52-1.28-.78-3.05-.78-5.3v-17.28h-8.91v19.1c0,3.6.48,6.54,1.45,8.81.97,2.27,2.4,3.95,4.29,5.03,1.89,1.08,4.18,1.62,6.88,1.62s4.79-.66,6.68-1.99c1.23-.87,2.29-1.99,3.18-3.36l.39,4.54h8.37v-33.74h-8.91v17.68Z" style="fill: #012626;"/>
      <path d="M680.05,150.77c-.61-1.46-1.58-2.79-2.9-3.98-1.33-1.19-3.09-2.06-5.3-2.6l-4.39-1.08c-1.17-.27-2.07-.6-2.7-.98-.63-.38-.94-.87-.94-1.45,0-.9.33-1.61.98-2.13.65-.52,1.59-.78,2.8-.78s2.43.28,3.64.84c1.21.56,1.98,1.29,2.29,2.19l7.36-3.37c-.5-1.48-1.4-2.79-2.7-3.91-1.31-1.12-2.87-2-4.69-2.63-1.82-.63-3.79-.94-5.91-.94-4.09,0-7.25.94-9.48,2.83-2.23,1.89-3.34,4.57-3.34,8.03,0,2.43.93,4.58,2.8,6.44,1.87,1.87,4.42,3.23,7.66,4.08l3.1.81c1.12.27,2.01.6,2.67.98.65.38.98.98.98,1.79s-.41,1.43-1.21,1.86c-.81.43-1.96.64-3.44.64s-2.88-.39-4.05-1.18c-1.17-.79-2.09-1.72-2.77-2.8l-7.63,3.51c.81,1.8,1.93,3.32,3.37,4.56,1.44,1.24,3.1,2.18,4.99,2.83,1.89.65,3.91.98,6.07.98,2.61,0,4.94-.43,6.98-1.28,2.05-.85,3.67-2.06,4.86-3.61,1.19-1.55,1.79-3.34,1.79-5.37,0-1.39-.3-2.82-.91-4.28Z" style="fill: #012626;"/>
      <polygon points="265.92 233.04 275.17 233.04 275.17 214.01 292.71 214.01 292.71 205.58 275.17 205.58 275.17 194.24 296.22 194.24 296.22 185.8 265.92 185.8 265.92 233.04" style="fill: #012626;"/>
      <path d="M325.71,200.75c-2.66-1.51-5.71-2.26-9.18-2.26s-6.46.75-9.11,2.26c-2.66,1.51-4.72,3.59-6.21,6.24-1.48,2.66-2.23,5.71-2.23,9.18s.75,6.52,2.26,9.18c1.51,2.66,3.59,4.74,6.24,6.24,2.65,1.51,5.71,2.26,9.18,2.26s6.44-.75,9.08-2.26c2.63-1.51,4.69-3.59,6.17-6.24,1.48-2.65,2.23-5.71,2.23-9.18s-.74-6.52-2.23-9.18c-1.48-2.65-3.55-4.73-6.21-6.24ZM323.96,221.06c-.72,1.42-1.7,2.53-2.94,3.34-1.24.81-2.69,1.22-4.35,1.22s-3.15-.41-4.45-1.22c-1.31-.81-2.32-1.92-3.04-3.34-.72-1.42-1.08-3.05-1.08-4.89s.36-3.48,1.08-4.89c.72-1.42,1.72-2.53,3-3.34,1.28-.81,2.76-1.21,4.42-1.21s3.07.41,4.35,1.21c1.28.81,2.28,1.92,3,3.34.72,1.42,1.08,3.05,1.08,4.89s-.36,3.48-1.08,4.89Z" style="fill: #012626;"/>
      <path d="M361.08,216.98c0,2.79-.61,4.92-1.82,6.38-1.21,1.46-2.99,2.17-5.33,2.13-1.21,0-2.31-.28-3.27-.84-.97-.56-1.71-1.48-2.23-2.77-.52-1.28-.78-3.05-.78-5.3v-17.28h-8.91v19.1c0,3.6.48,6.54,1.45,8.81.97,2.27,2.4,3.95,4.29,5.03,1.89,1.08,4.18,1.62,6.88,1.62s4.79-.66,6.68-1.99c1.23-.87,2.29-1.99,3.18-3.36l.39,4.54h8.37v-33.74h-8.91v17.68Z" style="fill: #012626;"/>
      <path d="M402.51,200.11c-1.89-1.08-4.16-1.62-6.82-1.62s-4.8.66-6.71,1.99c-1.26.87-2.33,2-3.21,3.38l-.4-4.56h-8.37v33.74h8.91v-17.68c0-2.83.62-4.97,1.86-6.41,1.24-1.44,3-2.14,5.3-2.09,1.26,0,2.36.28,3.31.84.94.56,1.68,1.47,2.19,2.73.52,1.26.78,3.04.78,5.33v17.28h8.91v-19.1c.04-3.6-.43-6.53-1.42-8.81-.99-2.27-2.43-3.95-4.32-5.03Z" style="fill: #012626;"/>
      <path d="M438.21,203.76c-.82-1.24-1.8-2.28-2.94-3.11-1.96-1.44-4.35-2.16-7.19-2.16-3.1,0-5.79.72-8.06,2.16-2.27,1.44-4.04,3.48-5.3,6.11-1.26,2.63-1.89,5.77-1.89,9.41s.63,6.73,1.89,9.38c1.26,2.65,3.03,4.7,5.3,6.14,2.27,1.44,4.96,2.16,8.06,2.16,2.83,0,5.23-.72,7.19-2.16,1.19-.88,2.21-1.98,3.06-3.31l.35,4.66h8.44v-47.24h-8.91v17.96ZM434.47,224.47c-1.19.81-2.55,1.21-4.08,1.21-1.62,0-3.05-.4-4.29-1.21-1.24-.81-2.22-1.93-2.94-3.37-.72-1.44-1.08-3.08-1.08-4.93s.36-3.49,1.08-4.93c.72-1.44,1.69-2.55,2.9-3.34,1.21-.79,2.63-1.18,4.25-1.18s2.96.39,4.15,1.18c1.19.79,2.13,1.9,2.8,3.34.5,1.07.82,2.26.94,3.55v2.75c-.13,1.3-.44,2.48-.94,3.55-.67,1.44-1.61,2.56-2.8,3.37Z" style="fill: #012626;"/>
      <path d="M476.38,200.45c-2.27-1.3-5.12-1.96-8.54-1.96-2.83,0-5.23.44-7.19,1.32-1.96.88-3.54,2-4.76,3.37-1.21,1.37-2.14,2.78-2.77,4.22l7.83,2.7c.81-1.3,1.8-2.27,2.97-2.9,1.17-.63,2.47-.94,3.91-.94,1.57,0,2.82.39,3.75,1.18.92.79,1.6,1.9,2.02,3.34.17.58.3,1.22.4,1.89h-7.93c-4.36,0-7.75.91-10.16,2.73-2.41,1.82-3.61,4.53-3.61,8.13,0,3.29,1.11,5.83,3.34,7.63,2.23,1.8,5.37,2.7,9.41,2.7s7.01-1.28,8.74-3.85c.2-.29.38-.6.55-.91l.16,3.95h8.3l.2-18.69c.04-3.24-.48-6.04-1.59-8.4-1.1-2.36-2.79-4.19-5.06-5.5ZM473.24,222.68c-.67,1.1-1.59,2-2.73,2.7-1.15.7-2.46,1.05-3.95,1.05-1.62,0-2.88-.28-3.78-.84-.9-.56-1.35-1.34-1.35-2.33,0-1.26.56-2.24,1.69-2.94,1.12-.7,3.15-1.05,6.07-1.05h5.06c0,1.17-.34,2.31-1.01,3.41Z" style="fill: #012626;"/>
      <path d="M506.1,225.32c-.54.2-1.04.3-1.48.3-1.21,0-2.14-.37-2.77-1.11-.63-.74-.94-1.83-.94-3.27v-14.37h8.44v-7.56h-8.44v-10.53h-8.91v10.53h-5.47v7.56h5.47v16.33c0,3.42.96,6.05,2.87,7.9,1.91,1.85,4.73,2.77,8.47,2.77,1.3,0,2.62-.26,3.95-.78,1.33-.52,2.53-1.18,3.61-1.99l-3.1-6.68c-.59.41-1.15.71-1.69.91Z" style="fill: #012626;"/>
      <path d="M520.88,183.57c-1.35,0-2.54.51-3.58,1.52-1.04,1.01-1.55,2.22-1.55,3.61s.52,2.6,1.55,3.61c1.03,1.01,2.23,1.52,3.58,1.52s2.6-.51,3.61-1.52c1.01-1.01,1.52-2.22,1.52-3.61s-.51-2.6-1.52-3.61c-1.01-1.01-2.22-1.52-3.61-1.52Z" style="fill: #012626;"/>
      <rect x="516.43" y="199.3" width="8.91" height="33.74" style="fill: #012626;"/>
      <path d="M557.8,200.75c-2.66-1.51-5.71-2.26-9.18-2.26s-6.46.75-9.11,2.26c-2.66,1.51-4.72,3.59-6.21,6.24-1.48,2.66-2.23,5.71-2.23,9.18s.75,6.52,2.26,9.18c1.51,2.66,3.59,4.74,6.24,6.24,2.65,1.51,5.71,2.26,9.18,2.26s6.45-.75,9.08-2.26,4.69-3.59,6.17-6.24c1.48-2.65,2.23-5.71,2.23-9.18s-.74-6.52-2.23-9.18c-1.48-2.65-3.55-4.73-6.21-6.24ZM556.04,221.06c-.72,1.42-1.7,2.53-2.94,3.34-1.24.81-2.69,1.22-4.35,1.22s-3.15-.41-4.45-1.22c-1.31-.81-2.32-1.92-3.04-3.34-.72-1.42-1.08-3.05-1.08-4.89s.36-3.48,1.08-4.89c.72-1.42,1.72-2.53,3-3.34,1.28-.81,2.76-1.21,4.42-1.21s3.07.41,4.35,1.21c1.28.81,2.28,1.92,3,3.34.72,1.42,1.08,3.05,1.08,4.89s-.36,3.48-1.08,4.89Z" style="fill: #012626;"/>
      <path d="M596.94,200.11c-1.89-1.08-4.16-1.62-6.82-1.62s-4.8.66-6.71,1.99c-1.26.87-2.33,2-3.21,3.38l-.4-4.56h-8.37v33.74h8.91v-17.68c0-2.83.62-4.97,1.86-6.41,1.24-1.44,3-2.14,5.3-2.09,1.26,0,2.36.28,3.31.84.94.56,1.68,1.47,2.19,2.73.52,1.26.78,3.04.78,5.33v17.28h8.91v-19.1c.04-3.6-.43-6.53-1.42-8.81-.99-2.27-2.43-3.95-4.32-5.03Z" style="fill: #012626;"/>
    </g>
  </g>
  <polygon points="360.81 115.25 370.05 115.25 370.05 96.22 387.6 96.22 387.6 87.78 370.05 87.78 370.05 76.45 391.11 76.45 391.11 68.01 360.81 68.01 360.81 115.25" style="fill: #a9d962;"/>
  <polygon points="113.99 187.92 113.99 178.67 94.96 178.67 94.96 161.13 86.52 161.13 86.52 178.67 75.18 178.67 75.18 157.62 66.75 157.62 66.75 187.92 113.99 187.92" style="fill: #a9d962;"/>
  <polygon points="729.84 187.92 729.84 178.67 710.8 178.67 710.8 161.13 702.37 161.13 702.37 178.67 691.03 178.67 691.03 157.62 682.59 157.62 682.59 187.92 729.84 187.92" style="fill: #a9d962;"/>
</svg>