<?xml version="1.0" encoding="UTF-8"?>
<svg id="Layer_2" xmlns="http://www.w3.org/2000/svg" xmlns:xlink="http://www.w3.org/1999/xlink" viewBox="0 0 500 500">
  <defs>
    <linearGradient id="linear-gradient" x1="75.98" y1="299.44" x2="75.98" y2="372.49" gradientUnits="userSpaceOnUse">
      <stop offset="0" stop-color="#a9d962"/>
      <stop offset=".99" stop-color="#fff"/>
    </linearGradient>
    <linearGradient id="linear-gradient-2" x1="116.2" y1="299.44" x2="116.2" y2="372.49" xlink:href="#linear-gradient"/>
    <linearGradient id="linear-gradient-3" x1="161.72" y1="299.44" x2="161.72" y2="372.49" xlink:href="#linear-gradient"/>
    <linearGradient id="linear-gradient-4" x1="216.26" y1="299.44" x2="216.26" y2="372.49" xlink:href="#linear-gradient"/>
    <linearGradient id="linear-gradient-5" x1="261.22" y1="299.44" x2="261.22" y2="372.49" xlink:href="#linear-gradient"/>
    <linearGradient id="linear-gradient-6" x1="297" y1="299.44" x2="297" y2="372.49" xlink:href="#linear-gradient"/>
    <linearGradient id="linear-gradient-7" x1="332.19" y1="299.44" x2="332.19" y2="372.49" xlink:href="#linear-gradient"/>
    <linearGradient id="linear-gradient-8" x1="365.31" y1="299.44" x2="365.31" y2="372.49" xlink:href="#linear-gradient"/>
    <linearGradient id="linear-gradient-9" x1="399.57" y1="299.44" x2="399.57" y2="372.49" xlink:href="#linear-gradient"/>
    <linearGradient id="linear-gradient-10" x1="431.99" y1="299.44" x2="431.99" y2="372.49" xlink:href="#linear-gradient"/>
    <linearGradient id="linear-gradient-11" x1="107.94" y1="299.44" x2="107.94" y2="372.49" xlink:href="#linear-gradient"/>
    <linearGradient id="linear-gradient-12" x1="140.98" y1="299.44" x2="140.98" y2="372.49" xlink:href="#linear-gradient"/>
    <linearGradient id="linear-gradient-13" x1="176.19" y1="299.44" x2="176.19" y2="372.49" xlink:href="#linear-gradient"/>
    <linearGradient id="linear-gradient-14" x1="211.85" y1="299.44" x2="211.85" y2="372.49" xlink:href="#linear-gradient"/>
    <linearGradient id="linear-gradient-15" x1="246.65" y1="299.44" x2="246.65" y2="372.49" xlink:href="#linear-gradient"/>
    <linearGradient id="linear-gradient-16" x1="281.76" y1="299.44" x2="281.76" y2="372.49" xlink:href="#linear-gradient"/>
    <linearGradient id="linear-gradient-17" x1="310.57" y1="299.44" x2="310.57" y2="372.49" xlink:href="#linear-gradient"/>
    <linearGradient id="linear-gradient-18" x1="330.97" y1="299.44" x2="330.97" y2="372.49" xlink:href="#linear-gradient"/>
    <linearGradient id="linear-gradient-19" x1="330.96" y1="299.44" x2="330.96" y2="372.49" xlink:href="#linear-gradient"/>
    <linearGradient id="linear-gradient-20" x1="356.67" y1="299.44" x2="356.67" y2="372.49" xlink:href="#linear-gradient"/>
    <linearGradient id="linear-gradient-21" x1="392.46" y1="299.44" x2="392.46" y2="372.49" xlink:href="#linear-gradient"/>
    <linearGradient id="linear-gradient-22" x1="308.59" y1="98.21" x2="335.41" y2="98.21" gradientUnits="userSpaceOnUse">
      <stop offset="0" stop-color="#fff"/>
      <stop offset="1" stop-color="#a9d962"/>
      <stop offset="1" stop-color="#78a658"/>
      <stop offset="1" stop-color="#000"/>
    </linearGradient>
    <linearGradient id="linear-gradient-23" x1="284.06" y1="91.71" x2="303.53" y2="91.71" gradientUnits="userSpaceOnUse">
      <stop offset="0" stop-color="#fff"/>
      <stop offset="1" stop-color="#78a658"/>
      <stop offset="1" stop-color="#000"/>
    </linearGradient>
    <linearGradient id="linear-gradient-24" x1="200.59" y1="119.95" x2="234.05" y2="119.95" gradientUnits="userSpaceOnUse">
      <stop offset="0" stop-color="#9fb399"/>
      <stop offset=".99" stop-color="#4d7343"/>
    </linearGradient>
    <linearGradient id="linear-gradient-25" x1="192.86" y1="97.14" x2="216" y2="97.14" xlink:href="#linear-gradient-23"/>
    <linearGradient id="linear-gradient-26" x1="151.51" y1="94.36" x2="184.78" y2="94.36" xlink:href="#linear-gradient-22"/>
    <linearGradient id="linear-gradient-27" x1="151.51" y1="126.68" x2="194.18" y2="126.68" xlink:href="#linear-gradient-23"/>
    <linearGradient id="linear-gradient-28" x1="325.32" y1="189.08" x2="344.19" y2="189.08" xlink:href="#linear-gradient-22"/>
    <linearGradient id="linear-gradient-29" x1="307.98" y1="111.83" x2="344.19" y2="111.83" xlink:href="#linear-gradient-23"/>
    <linearGradient id="linear-gradient-30" x1="151.51" y1="205.16" x2="183.69" y2="205.16" xlink:href="#linear-gradient-23"/>
    <linearGradient id="linear-gradient-31" x1="311.37" y1="209.29" x2="319.57" y2="209.29" xlink:href="#linear-gradient-24"/>
    <linearGradient id="linear-gradient-32" x1="291.93" y1="167.09" x2="344.18" y2="167.09" xlink:href="#linear-gradient-24"/>
    <linearGradient id="linear-gradient-33" x1="264.33" y1="117.58" x2="296.02" y2="117.58" xlink:href="#linear-gradient-24"/>
    <linearGradient id="linear-gradient-34" x1="151.52" y1="190.46" x2="221.17" y2="190.46" xlink:href="#linear-gradient-24"/>
  </defs>
  <g>
    <path d="M89.15,336.37c-.73,1.62-1.67,3.05-2.85,4.29s-2.52,2.21-4.03,2.91-3.19,1.06-5.03,1.06c-2.65,0-4.99-.65-7.04-1.95s-3.65-3.09-4.8-5.38c-1.15-2.28-1.73-4.92-1.73-7.91s.56-5.61,1.7-7.87c1.13-2.26,2.71-4.05,4.74-5.34s4.34-1.95,6.95-1.95c1.79,0,3.46.33,4.99.99s2.9,1.58,4.1,2.75c1.2,1.18,2.15,2.55,2.88,4.13l8.13-3.01c-1.07-2.52-2.59-4.75-4.58-6.69-1.98-1.94-4.3-3.46-6.95-4.54-2.65-1.09-5.51-1.63-8.58-1.63-4.35,0-8.21.99-11.56,2.98-3.35,1.98-5.99,4.72-7.91,8.2-1.92,3.48-2.88,7.48-2.88,12s.96,8.53,2.88,12c1.92,3.48,4.57,6.21,7.94,8.2s7.24,2.98,11.59,2.98c3.11,0,5.99-.56,8.64-1.66,2.65-1.11,4.96-2.67,6.95-4.68s3.51-4.31,4.58-6.91l-8.13-2.95h0Z" style="fill: url(#linear-gradient);"/>
    <path d="M107.59,350.42c2.52,1.43,5.42,2.15,8.71,2.15s6.11-.72,8.61-2.15,4.45-3.4,5.86-5.92,2.11-5.42,2.11-8.71-.7-6.19-2.11-8.71-3.37-4.49-5.89-5.92-5.42-2.15-8.71-2.15-6.13.72-8.64,2.15c-2.52,1.43-4.48,3.4-5.89,5.92s-2.11,5.42-2.11,8.71.72,6.19,2.15,8.71,3.4,4.49,5.92,5.92h0ZM109.19,331.15c.68-1.35,1.63-2.4,2.85-3.17,1.22-.77,2.61-1.15,4.19-1.15s2.91.38,4.13,1.15,2.17,1.83,2.85,3.17c.68,1.35,1.02,2.89,1.02,4.64s-.34,3.3-1.02,4.64c-.68,1.35-1.61,2.4-2.78,3.17-1.18.77-2.55,1.15-4.13,1.15s-2.99-.38-4.23-1.15-2.2-1.83-2.88-3.17c-.68-1.35-1.02-2.89-1.02-4.64s.34-3.3,1.02-4.64h0Z" style="fill: url(#linear-gradient-2);"/>
    <path d="M145.62,335.02c0-2.69.55-4.71,1.63-6.08,1.09-1.37,2.66-2.03,4.71-1.98,1.11,0,2.08.27,2.91.8s1.47,1.4,1.92,2.6.67,2.88.67,5.06v16.39h8.45v-16.77c0-2.69.55-4.71,1.66-6.08,1.11-1.37,2.69-2.03,4.74-1.98,1.11,0,2.07.27,2.88.8s1.45,1.4,1.92,2.6c.47,1.2.7,2.88.7,5.06v16.39h8.45v-18.31c0-4.91-.98-8.55-2.95-10.92-1.96-2.37-4.82-3.55-8.58-3.55-2.26,0-4.25.59-5.96,1.76-1.71,1.18-3.03,2.85-3.97,5.03-.81-2.3-2.1-4.01-3.88-5.12s-3.96-1.66-6.56-1.66c-1.88,0-3.59.42-5.12,1.25-1.54.83-2.8,2.06-3.78,3.68l-.38-4.16h-7.94v32.01h8.45v-16.77h0Z" style="fill: url(#linear-gradient-3);"/>
    <path d="M232.37,335.41v16.39h8.45v-18.31c0-4.91-.98-8.55-2.95-10.92-1.96-2.37-4.82-3.55-8.58-3.55-2.26,0-4.25.59-5.96,1.76-1.71,1.18-3.03,2.85-3.97,5.03-.81-2.3-2.1-4.01-3.88-5.12s-3.96-1.66-6.56-1.66c-1.88,0-3.59.42-5.12,1.25-1.54.83-2.8,2.06-3.78,3.68l-.38-4.16h-7.94v32.01h8.45v-16.77c0-2.69.55-4.71,1.63-6.08,1.09-1.37,2.66-2.03,4.71-1.98,1.11,0,2.08.27,2.91.8s1.47,1.4,1.92,2.6.67,2.88.67,5.06v16.39h8.45v-16.77c0-2.69.55-4.71,1.66-6.08,1.11-1.37,2.69-2.03,4.74-1.98,1.11,0,2.07.27,2.88.8s1.45,1.4,1.92,2.6c.47,1.2.7,2.88.7,5.06h0Z" style="fill: url(#linear-gradient-4);"/>
    <path d="M252.6,350.42c2.52,1.43,5.42,2.15,8.71,2.15s6.11-.72,8.61-2.15,4.45-3.4,5.86-5.92c1.41-2.52,2.11-5.42,2.11-8.71s-.7-6.19-2.11-8.71-3.37-4.49-5.89-5.92-5.42-2.15-8.71-2.15-6.13.72-8.64,2.15c-2.52,1.43-4.48,3.4-5.89,5.92s-2.11,5.42-2.11,8.71.72,6.19,2.15,8.71c1.43,2.52,3.4,4.49,5.92,5.92h0ZM254.2,331.15c.68-1.35,1.63-2.4,2.85-3.17,1.22-.77,2.61-1.15,4.19-1.15s2.91.38,4.13,1.15c1.22.77,2.17,1.83,2.85,3.17.68,1.35,1.02,2.89,1.02,4.64s-.34,3.3-1.02,4.64c-.68,1.35-1.61,2.4-2.78,3.17-1.18.77-2.55,1.15-4.13,1.15s-2.99-.38-4.23-1.15-2.2-1.83-2.88-3.17c-.68-1.35-1.02-2.89-1.02-4.64s.34-3.3,1.02-4.64Z" style="fill: url(#linear-gradient-5);"/>
    <path d="M302.64,330.35c.49,1.2.73,2.88.73,5.06v16.39h8.45v-18.12c.04-3.41-.41-6.2-1.35-8.35-.94-2.15-2.3-3.74-4.1-4.77-1.79-1.02-3.95-1.54-6.47-1.54s-4.56.63-6.37,1.89c-1.19.83-2.21,1.9-3.05,3.21l-.38-4.33h-7.94v32.01h8.45v-16.77c0-2.69.59-4.71,1.76-6.08,1.17-1.37,2.85-2.03,5.03-1.98,1.2,0,2.24.27,3.14.8s1.59,1.4,2.08,2.6h0Z" style="fill: url(#linear-gradient-6);"/>
    <path d="M347.04,351.8v-18.12c0-3.41-.47-6.2-1.41-8.35-.94-2.15-2.29-3.74-4.06-4.77s-3.94-1.54-6.5-1.54-4.56.63-6.37,1.89c-1.13.78-2.1,1.78-2.91,2.99v-16.92h-8.45v44.82h8.45v-16.77c0-2.69.59-4.71,1.76-6.08,1.17-1.37,2.85-2.03,5.03-1.98,1.2,0,2.24.27,3.14.8s1.6,1.4,2.11,2.6c.51,1.2.77,2.88.77,5.06v16.39h8.45,0Z" style="fill: url(#linear-gradient-7);"/>
    <path d="M354.17,335.06c-2.29,1.73-3.43,4.3-3.43,7.72,0,3.12,1.06,5.53,3.17,7.24,2.11,1.71,5.09,2.56,8.93,2.56s6.65-1.22,8.29-3.65c.19-.27.36-.57.52-.87l.15,3.75h7.87l.19-17.74c.04-3.07-.46-5.73-1.5-7.97-1.05-2.24-2.65-3.98-4.8-5.22-2.15-1.24-4.86-1.86-8.1-1.86-2.69,0-4.96.42-6.82,1.25-1.86.83-3.36,1.9-4.51,3.2-1.15,1.3-2.03,2.64-2.63,4l7.43,2.56c.77-1.24,1.71-2.15,2.82-2.75,1.11-.6,2.35-.9,3.71-.9,1.49,0,2.68.38,3.55,1.12.87.75,1.52,1.8,1.92,3.17.16.55.28,1.15.38,1.79h-7.52c-4.14,0-7.35.87-9.63,2.6h0ZM371.56,338.74c0,1.11-.32,2.19-.96,3.23-.64,1.05-1.5,1.9-2.59,2.56s-2.34.99-3.74.99c-1.54,0-2.73-.27-3.59-.8s-1.28-1.27-1.28-2.21c0-1.2.53-2.12,1.6-2.78s2.99-.99,5.76-.99h4.8,0Z" style="fill: url(#linear-gradient-8);"/>
    <path d="M405.94,336.56c0,2.65-.58,4.66-1.73,6.05-1.15,1.39-2.84,2.06-5.06,2.01-1.15,0-2.19-.27-3.11-.8-.92-.53-1.62-1.41-2.11-2.63-.49-1.21-.73-2.89-.73-5.03v-16.39h-8.45v18.12c0,3.41.46,6.2,1.38,8.35.92,2.15,2.27,3.75,4.06,4.77,1.79,1.02,3.97,1.54,6.53,1.54s4.54-.63,6.34-1.89c1.17-.82,2.18-1.89,3.02-3.18l.38,4.3h7.94v-32.01h-8.45v16.77h0Z" style="fill: url(#linear-gradient-9);"/>
    <path d="M444.45,338.77c-.58-1.39-1.5-2.65-2.75-3.78-1.26-1.13-2.94-1.95-5.03-2.46l-4.16-1.02c-1.11-.26-1.96-.56-2.56-.93-.6-.36-.9-.82-.9-1.38,0-.85.31-1.52.93-2.01.62-.49,1.5-.73,2.66-.73s2.3.27,3.46.8,1.88,1.23,2.18,2.08l6.98-3.2c-.47-1.41-1.32-2.65-2.56-3.71-1.24-1.07-2.72-1.9-4.45-2.5-1.73-.6-3.6-.9-5.6-.9-3.88,0-6.88.9-9,2.69-2.11,1.79-3.17,4.33-3.17,7.62,0,2.3.89,4.34,2.66,6.11s4.19,3.06,7.27,3.88l2.94.77c1.07.26,1.91.56,2.53.93s.93.93.93,1.7-.38,1.36-1.15,1.76c-.77.41-1.86.61-3.26.61s-2.73-.37-3.84-1.12c-1.11-.75-1.98-1.63-2.63-2.66l-7.24,3.33c.77,1.71,1.83,3.15,3.2,4.32,1.37,1.18,2.94,2.07,4.74,2.69,1.79.62,3.71.93,5.76.93,2.48,0,4.68-.41,6.62-1.22,1.94-.81,3.48-1.95,4.61-3.43,1.13-1.47,1.7-3.17,1.7-5.09,0-1.32-.29-2.68-.86-4.06h0Z" style="fill: url(#linear-gradient-10);"/>
    <polygon points="93.57 417.85 102.34 417.85 102.34 399.8 118.98 399.8 118.98 391.79 102.34 391.79 102.34 381.04 122.31 381.04 122.31 373.04 93.57 373.04 93.57 417.85" style="fill: url(#linear-gradient-11);"/>
    <path d="M149.65,387.22c-2.52-1.43-5.42-2.15-8.71-2.15s-6.13.72-8.64,2.15c-2.52,1.43-4.48,3.4-5.89,5.92s-2.11,5.42-2.11,8.71.72,6.19,2.15,8.71,3.4,4.49,5.92,5.92c2.52,1.43,5.42,2.15,8.71,2.15s6.11-.72,8.61-2.15,4.45-3.4,5.86-5.92,2.11-5.42,2.11-8.71-.7-6.19-2.11-8.71c-1.41-2.52-3.37-4.49-5.89-5.92h0ZM147.99,406.49c-.68,1.35-1.61,2.4-2.78,3.17-1.18.77-2.55,1.15-4.13,1.15s-2.99-.38-4.23-1.15-2.2-1.83-2.88-3.17c-.68-1.35-1.02-2.89-1.02-4.64s.34-3.3,1.02-4.64c.68-1.35,1.63-2.4,2.85-3.17,1.22-.77,2.61-1.15,4.19-1.15s2.91.38,4.13,1.15c1.21.77,2.17,1.83,2.85,3.17.68,1.35,1.02,2.89,1.02,4.64s-.34,3.3-1.02,4.64Z" style="fill: url(#linear-gradient-12);"/>
    <path d="M182.56,402.62c0,2.65-.58,4.66-1.73,6.05-1.15,1.39-2.84,2.06-5.06,2.01-1.15,0-2.19-.27-3.11-.8s-1.62-1.41-2.11-2.63c-.49-1.21-.73-2.89-.73-5.03v-16.39h-8.45v18.12c0,3.41.46,6.2,1.38,8.35.92,2.15,2.27,3.75,4.06,4.77,1.79,1.02,3.97,1.54,6.53,1.54s4.54-.63,6.34-1.89c1.17-.82,2.18-1.89,3.02-3.18l.38,4.3h7.94v-32.01h-8.45v16.77h0Z" style="fill: url(#linear-gradient-13);"/>
    <path d="M221.23,386.61c-1.79-1.02-3.95-1.54-6.47-1.54s-4.56.63-6.37,1.89c-1.19.83-2.21,1.9-3.05,3.21l-.38-4.33h-7.94v32.01h8.45v-16.77c0-2.69.59-4.71,1.76-6.08,1.17-1.37,2.85-2.03,5.03-1.98,1.2,0,2.24.27,3.14.8.9.53,1.59,1.4,2.08,2.6.49,1.2.73,2.88.73,5.06v16.39h8.45v-18.12c.04-3.41-.41-6.2-1.35-8.35-.94-2.15-2.3-3.74-4.1-4.77h0Z" style="fill: url(#linear-gradient-14);"/>
    <path d="M254.46,390.08c-.78-1.17-1.71-2.16-2.78-2.95-1.86-1.37-4.13-2.05-6.82-2.05-2.94,0-5.5.68-7.65,2.05-2.15,1.37-3.83,3.3-5.03,5.79-1.2,2.5-1.79,5.48-1.79,8.93s.6,6.38,1.79,8.9c1.2,2.52,2.87,4.46,5.03,5.82,2.15,1.37,4.71,2.05,7.65,2.05,2.69,0,4.96-.68,6.82-2.05,1.13-.83,2.1-1.88,2.9-3.14l.33,4.42h8v-44.82h-8.45v17.04h0ZM250.9,409.72c-1.13.77-2.42,1.15-3.88,1.15-1.54,0-2.89-.38-4.06-1.15-1.18-.77-2.1-1.83-2.78-3.2-.68-1.37-1.02-2.92-1.02-4.67s.34-3.31,1.02-4.68c.68-1.37,1.6-2.42,2.75-3.17,1.15-.75,2.5-1.12,4.03-1.12s2.81.38,3.94,1.12c1.13.75,2.01,1.8,2.66,3.17.48,1.02.77,2.14.9,3.36v2.62c-.12,1.23-.42,2.35-.9,3.36-.64,1.37-1.53,2.43-2.66,3.2Z" style="fill: url(#linear-gradient-15);"/>
    <path d="M290.02,386.93c-2.15-1.24-4.86-1.86-8.1-1.86-2.69,0-4.96.42-6.82,1.25-1.86.83-3.36,1.9-4.51,3.2-1.15,1.3-2.03,2.64-2.63,4l7.43,2.56c.77-1.24,1.71-2.15,2.82-2.75,1.11-.6,2.35-.9,3.71-.9,1.49,0,2.68.38,3.55,1.12.87.75,1.52,1.8,1.92,3.17.16.55.28,1.15.38,1.79h-7.52c-4.14,0-7.35.87-9.64,2.6-2.28,1.73-3.43,4.3-3.43,7.72,0,3.12,1.06,5.53,3.17,7.24,2.11,1.71,5.09,2.56,8.93,2.56s6.65-1.22,8.29-3.65c.19-.27.36-.57.52-.87l.15,3.75h7.87l.19-17.74c.04-3.07-.46-5.73-1.5-7.97-1.05-2.24-2.65-3.98-4.8-5.22h0ZM287.05,408.03c-.64,1.05-1.5,1.9-2.59,2.56s-2.34.99-3.74.99c-1.54,0-2.73-.27-3.59-.8s-1.28-1.27-1.28-2.21c0-1.2.53-2.12,1.6-2.78s2.99-.99,5.76-.99h4.8c0,1.11-.32,2.19-.96,3.23h0Z" style="fill: url(#linear-gradient-16);"/>
    <path d="M317.58,410.52c-.51.19-.98.29-1.41.29-1.15,0-2.03-.35-2.63-1.06s-.9-1.74-.9-3.11v-13.64h8v-7.17h-8v-9.99h-8.45v9.99h-5.19v7.17h5.19v15.49c0,3.24.9,5.74,2.72,7.49,1.81,1.75,4.49,2.63,8.04,2.63,1.24,0,2.49-.25,3.74-.73,1.26-.49,2.4-1.12,3.43-1.89l-2.94-6.34c-.56.38-1.09.67-1.6.86h0Z" style="fill: url(#linear-gradient-17);"/>
    <path d="M330.96,370.92c-1.28,0-2.41.48-3.39,1.44-.98.96-1.47,2.1-1.47,3.43s.49,2.46,1.47,3.43c.98.96,2.11,1.44,3.39,1.44s2.46-.48,3.43-1.44,1.44-2.1,1.44-3.43-.48-2.46-1.44-3.43-2.1-1.44-3.43-1.44Z" style="fill: url(#linear-gradient-18);"/>
    <rect x="326.74" y="385.84" width="8.45" height="32.01" style="fill: url(#linear-gradient-19);"/>
    <path d="M365.35,387.22c-2.52-1.43-5.42-2.15-8.71-2.15s-6.13.72-8.64,2.15c-2.52,1.43-4.48,3.4-5.89,5.92-1.41,2.52-2.11,5.42-2.11,8.71s.72,6.19,2.15,8.71,3.4,4.49,5.92,5.92c2.52,1.43,5.42,2.15,8.71,2.15s6.11-.72,8.61-2.15,4.45-3.4,5.86-5.92,2.11-5.42,2.11-8.71-.7-6.19-2.11-8.71-3.37-4.49-5.89-5.92h0ZM363.68,406.49c-.68,1.35-1.61,2.4-2.78,3.17-1.18.77-2.55,1.15-4.13,1.15s-2.99-.38-4.23-1.15-2.2-1.83-2.88-3.17c-.68-1.35-1.02-2.89-1.02-4.64s.34-3.3,1.02-4.64c.68-1.35,1.63-2.4,2.85-3.17,1.22-.77,2.61-1.15,4.19-1.15s2.91.38,4.13,1.15c1.21.77,2.17,1.83,2.85,3.17.68,1.35,1.02,2.89,1.02,4.64s-.34,3.3-1.02,4.64Z" style="fill: url(#linear-gradient-20);"/>
    <path d="M401.84,386.61c-1.79-1.02-3.95-1.54-6.47-1.54s-4.56.63-6.37,1.89c-1.2.83-2.21,1.9-3.05,3.21l-.38-4.33h-7.94v32.01h8.45v-16.77c0-2.69.59-4.71,1.76-6.08,1.17-1.37,2.85-2.03,5.03-1.98,1.2,0,2.24.27,3.14.8s1.59,1.4,2.08,2.6.73,2.88.73,5.06v16.39h8.45v-18.12c.04-3.41-.41-6.2-1.35-8.35-.94-2.15-2.3-3.74-4.1-4.77h0Z" style="fill: url(#linear-gradient-21);"/>
  </g>
  <g>
    <path d="M258.86,148.54l-43.35,40.53c-.25.23-.39.55-.39.89v41.11c0,.67.54,1.22,1.22,1.22h28.62c.67,0,1.22-.54,1.22-1.22v-38.93c0-.67.54-1.22,1.22-1.22h24.1c.67,0,1.22.54,1.22,1.22v38.93c0,.67.54,1.22,1.22,1.22h12.5c.15,0,.29-.03.42-.07,5.64-2.06,11.22-4.32,16.7-6.79.44-.2.72-.63.72-1.11v-34.35c0-.34-.14-.66-.39-.89l-43.35-40.53c-.47-.44-1.19-.44-1.66,0h0Z" style="fill: #fff;"/>
    <path d="M317.78,81.38h16.41c.85,0,1.44.85,1.14,1.64-2.32,6.12-8.96,20.7-24.82,31.8-.85.59-2.01-.08-1.91-1.11,1.67-18.84,6.32-28.43,8.12-31.71.21-.39.62-.63,1.07-.63h0Z" style="fill: url(#linear-gradient-22);"/>
    <path d="M303.43,83.09c-2.45,5.51-4.31,11.61-5.69,18-.2.95-1.39,1.29-2.07.59-2.61-2.74-7.56-8.83-11.52-18.63-.32-.79.27-1.67,1.13-1.67h17.04c.88,0,1.47.91,1.11,1.71h0Z" style="fill: url(#linear-gradient-23);"/>
    <path d="M222.2,81.38h7.65c.69,0,1.23.56,1.21,1.25-.76,30.75,1.5,58.6,2.99,74.57.08.84-.69,1.49-1.51,1.29-3.88-.98-13.45-3.41-20.45-5.34-.38-.1-.69-.39-.82-.76-2.38-6.68-8.51-24.4-10.63-31.48-.17-.56.09-1.15.6-1.42,11.41-6,17.5-21.52,19.75-37.06.09-.6.59-1.05,1.2-1.05h0Z" style="fill: url(#linear-gradient-24);"/>
    <path d="M215.98,82.83c-1.46,7.3-5.68,23.47-15.93,29.89-.7.44-1.63.06-1.83-.74-3.04-12.09-4.66-22.73-5.36-29.26-.08-.72.49-1.34,1.21-1.34h20.71c.77,0,1.34.7,1.19,1.45h0Z" style="fill: url(#linear-gradient-25);"/>
    <path d="M152.73,81.38h28.36c.65,0,1.19.51,1.21,1.17.34,7.85,1.2,15.64,2.45,23.37.14.83-.59,1.55-1.42,1.39-13.24-2.43-23.62-5.48-31.08-8.61-.45-.19-.74-.63-.74-1.12v-14.99c0-.67.54-1.22,1.22-1.22Z" style="fill: url(#linear-gradient-26);"/>
    <path d="M153.21,106.01c11.91,5.16,25.83,8.52,32.66,10.01.47.1.83.47.93.94,2.02,9.74,4.55,19.4,7.33,28.95.27.93-.6,1.79-1.53,1.5-7.7-2.41-27.59-8.82-40.48-16.06-.38-.21-.62-.62-.62-1.06v-23.17c0-.88.89-1.46,1.7-1.12h0Z" style="fill: url(#linear-gradient-27);"/>
    <path d="M151.51,272.83v-33.44c0-.88.89-1.47,1.7-1.12,8.8,3.81,40.17,16.12,93.81,16.8.58,0,1.07.42,1.18.99,1.05,5.52,2.15,11.03,3.29,16.53.15.75-.42,1.46-1.19,1.46h-97.56c-.67,0-1.22-.54-1.22-1.22h0Z" style="fill: #bad3d9;"/>
    <path d="M343.71,202.01c-5.19,4-10.69,7.7-16.34,11.08-.77.46-1.76-.03-1.84-.93-.59-6.39-1.1-27.77,16.54-46.88.75-.82,2.12-.29,2.12.82v34.94c0,.38-.17.74-.47.97h0Z" style="fill: url(#linear-gradient-28);"/>
    <path d="M343.86,118.94c-7.73,8.22-18.36,16.04-33.77,23.22-.78.36-1.68-.17-1.73-1.03-.3-5.33-.45-10.83-.34-16.35,0-.42.23-.8.59-1.02,3.97-2.42,24.14-15.54,31.89-41.51.15-.52.63-.88,1.17-.88h1.32c.67,0,1.22.54,1.22,1.22v35.52c0,.31-.12.61-.33.84h0Z" style="fill: url(#linear-gradient-29);"/>
    <path d="M183.64,228.2c-4.77-16.65-15.86-33.39-30.06-47.29-.77-.75-2.07-.2-2.07.87v36.76c0,.47.27.89.69,1.1,12.03,5.79,25.1,8.99,30.01,10.08.9.2,1.69-.64,1.43-1.52h0Z" style="fill: url(#linear-gradient-30);"/>
    <g>
      <path d="M318.86,202.95l-5.44-5.03c-.78-.72-2.04-.17-2.04.89v20.95c0,.91.95,1.49,1.77,1.09,1.94-.98,3.87-1.98,5.79-3,.44-.24.69-.73.63-1.23-.52-4.2-.62-8.46-.32-12.7.03-.37-.11-.73-.39-.98h0Z" style="fill: url(#linear-gradient-31);"/>
      <path d="M292.32,168.44l26.66,24.87c.68.64,1.79.3,2.01-.61.92-3.8,2.16-7.51,3.7-11.07,4.23-9.77,11-18.36,19.07-25.25.27-.23.43-.57.43-.92v-13.72c0-1.02-1.18-1.58-1.97-.95-14.34,11.36-31.77,19.67-49.46,25.61-.87.3-1.11,1.41-.44,2.04h0Z" style="fill: url(#linear-gradient-32);"/>
    </g>
    <path d="M268.35,146.09l7.89,7.36c.3.29.74.4,1.14.29,5.46-1.43,10.88-3.06,16.21-4.92.5-.18.84-.66.81-1.19-.43-11.39-.16-24.33,1.6-36.79.05-.39-.08-.79-.37-1.06-2.37-2.21-12.59-12.87-16.05-27.47-.13-.54-.62-.93-1.18-.93h-12.87c-.68,0-1.23.55-1.22,1.23.15,9.34,1.88,45.82,3.64,62.72.03.29.16.56.38.76h0Z" style="fill: url(#linear-gradient-33);"/>
    <path d="M205.96,197.92l-5.75,5.31c-.49.45-1.26.43-1.71-.06l-3.2-3.43c-.46-.49-.43-1.26.06-1.72l25.42-23.72c.69-.64.42-1.79-.48-2.06-19.98-5.93-47.29-14.82-67.01-24.97-.81-.42-1.77.17-1.77,1.08v23.48c0,.35.16.69.43.93,26.88,22.87,36.16,46.42,39.06,57.96.12.47.49.82.97.9,4.87.85,9.77,1.56,14.68,2.13.72.08,1.36-.48,1.36-1.21v-33.74c0-1.06-1.26-1.61-2.04-.89h0Z" style="fill: url(#linear-gradient-34);"/>
    <path d="M286.18,254.24c.92,4.05,3.6,15.51,4.38,18.88.13.55.62.94,1.19.94h51.22c.67,0,1.22-.54,1.22-1.22v-48.44c0-.99-1.12-1.57-1.93-.99-23.59,16.94-49.96,27.39-55.33,29.44-.57.21-.89.81-.75,1.4h0Z" style="fill: #bad3d9;"/>
  </g>
  <g>
    <line x1="30.88" y1="36.17" x2="458.55" y2="463.83" style="fill: none; stroke: #ffce00; stroke-miterlimit: 10; stroke-width: 3px;"/>
    <line x1="469.12" y1="36.17" x2="41.45" y2="463.83" style="fill: none; stroke: #ffce00; stroke-miterlimit: 10; stroke-width: 3px;"/>
  </g>
</svg>