<svg id="Layer_1" data-name="Layer 1" xmlns="http://www.w3.org/2000/svg" width="1024" height="1024" viewBox="0 0 1024 1024">
  <defs>
    <style>
      .cls-1 {
        fill: #091313;
      }

      .cls-2 {
        fill: #424143;
      }

      .cls-3 {
        fill: #4695eb;
      }

      .cls-4 {
        fill: #ff004a;
      }

      .cls-5 {
        fill: #fff;
      }
    </style>
  </defs>
  <g>
    <g>
      <path class="cls-1" d="M504.5,712.39c-41.4-27.74-87-56-135.65-84.09-33.14-19.13-66.11-37.24-98.06-53.86-1.35,33.11-2.08,68.26-2.08,104.72,0,40.49.89,79.39,2.54,115.64,40.56,27.25,87.53,56.54,138.33,85.86,32.79,18.94,64.75,36.48,95.11,52.33,1.47-34.84,2.22-71.17,2.22-108.06C506.91,786.42,506.1,748.57,504.5,712.39Z"/>
      <path class="cls-1" d="M510.33,702.76l.34-.22c42.23-28.38,88.88-57.33,138.65-86.07,33.16-19.14,66.15-37.26,98.11-53.9-39.33-26.23-84.41-54.25-133-82.3-34.77-20.08-68.63-38.62-100.62-55.21-32.86,17-67.75,36.05-103.62,56.76-48.93,28.25-94.3,56.45-133.82,82.85,32,16.64,65,34.76,98.11,53.9C423.14,646.67,468.83,675,510.33,702.76Z"/>
      <path class="cls-1" d="M516.94,711.87l-1.18.79c1.58,36.11,2.39,73.86,2.39,112.27,0,36.84-.75,73.13-2.21,108,31.18-16.23,64.09-34.26,97.88-53.77,51.13-29.52,98.39-59,139.14-86.41,1.51-34.9,2.33-72.19,2.33-110.93,0-38.2-.8-75-2.28-109.44C721.07,589,688.1,607.06,654.94,626.2,605.39,654.81,559,683.63,516.94,711.87Z"/>
      <path class="cls-2" d="M747.43,562.57c-32,16.64-64.95,34.76-98.11,53.9-49.77,28.74-96.42,57.69-138.65,86.07l-.34.22c-41.5-27.78-87.19-56.09-135.86-84.19-33.15-19.14-66.13-37.26-98.11-53.9L271,568.23c-.09,2-.17,4.14-.25,6.21,31.95,16.62,64.92,34.73,98.06,53.86,48.62,28.07,94.25,56.35,135.65,84.09,1.6,36.18,2.41,74,2.41,112.54,0,36.89-.75,73.22-2.22,108.06,1.83,1,3.68,1.94,5.51,2.88l5.74-3c1.46-34.82,2.21-71.11,2.21-108,0-38.41-.81-76.16-2.39-112.27l1.18-.79c42-28.24,88.45-57.06,138-85.67C688.1,607.06,721.07,589,753,572.33c-.08-2.06-.17-4.15-.26-6.2Z"/>
    </g>
    <path class="cls-1" d="M527.48,194.37c0-46.38-4.13-97.94-7-128a32.75,32.75,0,1,0-16.92,0c-2.89,30-7.06,81.54-7,127.9-88.24,5.94-162.68,64-194.64,144.55l.08.33a2.72,2.72,0,0,1,.11-.25c35.23,3.4,114.84,35.85,211.73,86.13,94.6-48.91,172.34-80.59,207.71-84.47l.12.26.14-.36C690.29,259.36,615.88,200.72,527.48,194.37Z"/>
    <path class="cls-3" d="M510.2,935.87c96.89,50.27,176.5,82.72,211.73,86.13,14.65-33.3,26.27-119.49,31-229.3-40.75,27.41-88,56.89-139.14,86.41C578,899.82,543.06,918.88,510.2,935.87Z"/>
    <path class="cls-3" d="M752.75,566.13c-4.93-108.62-16.61-193.41-31.24-225.54-35.37,3.88-113.11,35.56-207.71,84.47,32,16.59,65.85,35.13,100.62,55.21C665.22,509.59,712.19,538.88,752.75,566.13Z"/>
    <path class="cls-3" d="M271,568.23C200.13,615.92,149,657.32,131.6,681.66c18,24.54,69.13,65.76,139.65,113.14-1.65-36.25-2.54-75.15-2.54-115.64C268.71,640.42,269.53,603.13,271,568.23Z"/>
    <path class="cls-4" d="M513.8,425.06c-96.89-50.28-176.5-82.73-211.73-86.13-14.65,33.3-26.27,119.49-31,229.3,40.75-27.41,88-56.89,139.14-86.41C446.05,461.11,480.94,442.05,513.8,425.06Z"/>
    <path class="cls-4" d="M271.25,794.8c4.93,108.62,16.61,193.41,31.24,225.54,35.37-3.88,113.11-35.56,207.71-84.47-32-16.59-65.85-35.13-100.62-55.21C358.78,851.34,311.81,822.05,271.25,794.8Z"/>
    <path class="cls-4" d="M892.4,679.27c-18-24.54-69.13-65.76-139.65-113.14,1.65,36.25,2.54,75.15,2.54,115.64,0,38.74-.82,76-2.33,110.93C823.87,745,875,703.61,892.4,679.27Z"/>
    <g>
      <ellipse class="cls-5" cx="441.47" cy="325.48" rx="21.18" ry="24.16"/>
      <ellipse class="cls-5" cx="582.32" cy="325.48" rx="21.18" ry="24.16"/>
    </g>
    <g>
      <rect class="cls-5" x="584.22" y="417.45" width="25.66" height="70.95" rx="12.83"/>
      <rect class="cls-5" x="541.45" y="417.45" width="25.66" height="91.39" rx="12.83"/>
      <rect class="cls-5" x="498.68" y="417.45" width="25.66" height="97.52" rx="12.83"/>
      <rect class="cls-5" x="455.91" y="417.45" width="25.66" height="91.39" rx="12.83"/>
      <rect class="cls-5" x="413.14" y="417.45" width="25.66" height="70.95" rx="12.83"/>
      <rect class="cls-5" x="372.84" y="417.45" width="25.66" height="50.52" rx="12.83"/>
      <rect class="cls-5" x="625.29" y="417.45" width="25.66" height="50.52" rx="12.83"/>
    </g>
  </g>
</svg>
