<?xml version="1.0" encoding="UTF-8"?>
<svg id="Layer_1" data-name="Layer 1" xmlns="http://www.w3.org/2000/svg" viewBox="0 0 1024 900">
  <g>
    <rect x="260" y="13.99" width="498.2" height="498.2" style="fill: #012626;"/>
    <path d="m663.12,50.93h36.14c1.87,0,3.17,1.87,2.51,3.62-5.12,13.47-19.73,45.58-54.66,70.04-1.87,1.31-4.42-.17-4.21-2.44,3.68-41.49,13.91-62.62,17.88-69.84.47-.86,1.37-1.38,2.35-1.38Z" style="fill: #a9d962;"/>
    <path d="m631.51,54.7c-5.4,12.14-9.49,25.57-12.53,39.64-.45,2.1-3.07,2.85-4.55,1.29-5.74-6.03-16.65-19.45-25.38-41.03-.71-1.75.6-3.67,2.49-3.67h37.53c1.94,0,3.23,2,2.44,3.77Z" style="fill: #78a658;"/>
    <path d="m452.62,50.93h16.84c1.51,0,2.71,1.24,2.67,2.75-1.68,67.72,3.31,129.06,6.58,164.23.17,1.84-1.53,3.29-3.32,2.84-8.54-2.15-29.62-7.5-45.03-11.75-.84-.23-1.51-.86-1.8-1.68-5.25-14.71-18.75-53.73-23.42-69.34-.37-1.23.19-2.54,1.33-3.13,25.13-13.21,38.55-47.4,43.5-81.62.19-1.32,1.31-2.31,2.65-2.31Z" style="fill: #4d7343;"/>
    <path d="m438.91,54.13c-3.21,16.08-12.52,51.7-35.08,65.83-1.54.96-3.58.13-4.02-1.63-6.7-26.62-10.27-50.05-11.8-64.45-.17-1.58,1.07-2.96,2.67-2.96h45.61c1.69,0,2.96,1.55,2.63,3.2Z" style="fill: #78a658;"/>
    <path d="m299.62,50.93h62.47c1.44,0,2.61,1.13,2.67,2.57.74,17.28,2.64,34.44,5.4,51.48.3,1.83-1.31,3.41-3.13,3.07-29.17-5.35-52.01-12.06-68.46-18.97-.99-.42-1.63-1.39-1.63-2.46v-33.01c0-1.48,1.2-2.68,2.68-2.68Z" style="fill: #a9d962;"/>
    <path d="m300.67,105.17c26.22,11.36,56.88,18.76,71.93,22.04,1.03.22,1.83,1.04,2.05,2.07,4.44,21.46,10.03,42.72,16.15,63.76.6,2.05-1.32,3.95-3.36,3.31-16.96-5.3-60.76-19.42-89.15-35.38-.84-.47-1.36-1.37-1.36-2.33v-51.02c0-1.93,1.97-3.22,3.74-2.46Z" style="fill: #78a658;"/>
    <path d="m296.94,472.58v-73.65c0-1.93,1.97-3.23,3.74-2.46,19.38,8.39,88.46,35.5,206.6,36.99,1.27.02,2.36.92,2.6,2.17,2.32,12.15,4.74,24.29,7.24,36.41.34,1.66-.92,3.22-2.62,3.22h-214.87c-1.48,0-2.68-1.2-2.68-2.68Z" style="fill: #bad3d9;"/>
    <path d="m720.23,316.61c-11.43,8.82-23.54,16.95-35.99,24.4-1.7,1.02-3.87-.07-4.05-2.04-1.3-14.07-2.42-61.15,36.43-103.25,1.66-1.8,4.66-.64,4.66,1.8v76.96c0,.83-.38,1.62-1.04,2.13Z" style="fill: #a9d962;"/>
    <path d="m720.55,133.66c-17.02,18.11-40.44,35.32-74.38,51.14-1.71.8-3.71-.38-3.81-2.26-.67-11.74-.99-23.86-.75-36.01.02-.92.51-1.76,1.29-2.24,8.74-5.32,53.17-34.22,70.23-91.42.34-1.14,1.38-1.93,2.57-1.93h2.9c1.48,0,2.68,1.2,2.68,2.68v78.22c0,.68-.26,1.34-.72,1.84Z" style="fill: #78a658;"/>
    <path d="m367.7,374.28c-10.51-36.66-34.92-73.54-66.21-104.14-1.69-1.66-4.55-.44-4.55,1.92v80.96c0,1.03.59,1.97,1.51,2.42,26.5,12.75,55.27,19.79,66.09,22.19,1.98.44,3.72-1.4,3.16-3.35Z" style="fill: #78a658;"/>
    <g>
      <path d="m665.49,318.67l-11.98-11.07c-1.72-1.58-4.5-.37-4.5,1.97v46.14c0,2,2.1,3.29,3.89,2.39,4.28-2.15,8.53-4.35,12.75-6.6.98-.52,1.52-1.6,1.39-2.71-1.15-9.25-1.36-18.64-.7-27.97.06-.81-.25-1.61-.85-2.16Z" style="fill: #4d7343;"/>
      <path d="m607.04,242.68l58.72,54.78c1.5,1.4,3.95.65,4.43-1.34,2.02-8.36,4.75-16.54,8.14-24.39,9.31-21.52,24.22-40.44,42-55.6.6-.51.94-1.25.94-2.03v-30.21c0-2.24-2.59-3.49-4.34-2.09-31.58,25.02-69.96,43.31-108.92,56.4-1.92.65-2.45,3.11-.97,4.49Z" style="fill: #4d7343;"/>
    </g>
    <path d="m554.26,193.45l17.38,16.21c.67.63,1.62.87,2.51.64,12.02-3.16,23.96-6.74,35.71-10.83,1.11-.39,1.84-1.46,1.79-2.63-.94-25.09-.35-53.59,3.53-81.03.12-.86-.18-1.73-.82-2.33-5.21-4.87-27.72-28.34-35.34-60.51-.28-1.2-1.37-2.04-2.6-2.04h-28.34c-1.5,0-2.7,1.22-2.68,2.71.32,20.56,4.14,100.91,8.01,138.13.07.64.36,1.23.84,1.68Z" style="fill: #4d7343;"/>
    <path d="m416.86,307.6l-12.66,11.7c-1.08,1-2.77.94-3.77-.14l-7.05-7.55c-1.01-1.08-.95-2.78.13-3.79l55.99-52.24c1.52-1.41.92-3.94-1.06-4.53-44.01-13.07-104.14-32.65-147.59-54.99-1.78-.92-3.9.38-3.9,2.38v51.72c0,.78.35,1.53.95,2.04,59.19,50.36,79.64,102.23,86.02,127.66.26,1.03,1.09,1.8,2.13,1.99,10.73,1.88,21.51,3.44,32.34,4.7,1.59.18,2.99-1.06,2.99-2.67v-74.31c0-2.34-2.78-3.55-4.5-1.97Z" style="fill: #4d7343;"/>
    <path d="m533.35,198.84l-95.48,89.27c-.54.51-.85,1.22-.85,1.96v90.53c0,1.48,1.2,2.68,2.68,2.68h63.03c1.48,0,2.68-1.2,2.68-2.68v-85.74c0-1.48,1.2-2.68,2.68-2.68h53.08c1.48,0,2.68,1.2,2.68,2.68v85.74c0,1.48,1.2,2.68,2.68,2.68h27.53c.32,0,.63-.06.93-.16,12.43-4.53,24.7-9.52,36.77-14.95.96-.43,1.58-1.39,1.58-2.45v-75.65c0-.74-.31-1.45-.85-1.96l-95.48-89.27c-1.03-.96-2.63-.96-3.66,0Z" style="fill: #fff;"/>
    <path d="m593.52,431.63c2.02,8.91,7.92,34.16,9.65,41.57.28,1.21,1.36,2.07,2.61,2.07h112.81c1.48,0,2.68-1.2,2.68-2.68v-106.69c0-2.18-2.47-3.45-4.24-2.17-51.96,37.31-110.02,60.32-121.85,64.83-1.25.47-1.95,1.79-1.65,3.09Z" style="fill: #bad3d9;"/>
  </g>
  <g>
    <path d="m96.06,673.32c-1.88,4.2-4.33,7.89-7.37,11.09-3.04,3.2-6.51,5.71-10.43,7.53-3.92,1.82-8.25,2.73-13,2.73-6.84,0-12.91-1.68-18.21-5.05-5.3-3.37-9.44-8-12.42-13.91-2.98-5.9-4.47-12.72-4.47-20.45s1.46-14.51,4.39-20.36c2.92-5.85,7.01-10.46,12.25-13.82,5.24-3.36,11.23-5.05,17.96-5.05,4.64,0,8.94.86,12.91,2.57,3.97,1.71,7.5,4.09,10.59,7.12,3.09,3.04,5.57,6.6,7.45,10.68l21.02-7.78c-2.76-6.51-6.7-12.28-11.84-17.3-5.13-5.02-11.12-8.94-17.96-11.75-6.84-2.81-14.24-4.22-22.18-4.22-11.26,0-21.22,2.57-29.88,7.7-8.67,5.13-15.48,12.2-20.45,21.19-4.97,9-7.45,19.34-7.45,31.04s2.48,22.05,7.45,31.04c4.97,9,11.81,16.06,20.53,21.19,8.72,5.13,18.71,7.7,29.96,7.7,8.05,0,15.5-1.44,22.35-4.3,6.84-2.87,12.83-6.9,17.96-12.09,5.13-5.19,9.08-11.15,11.84-17.88l-21.02-7.62Z" style="fill: #012626;"/>
    <path d="m143.74,709.66c6.51,3.7,14.01,5.55,22.51,5.55s15.81-1.85,22.27-5.55c6.46-3.7,11.51-8.8,15.15-15.31,3.64-6.51,5.46-14.01,5.46-22.51s-1.82-16-5.46-22.51c-3.64-6.51-8.72-11.61-15.23-15.31-6.51-3.7-14.02-5.55-22.51-5.55s-15.84,1.85-22.35,5.55c-6.51,3.7-11.59,8.8-15.23,15.31-3.64,6.51-5.46,14.02-5.46,22.51s1.85,16,5.55,22.51c3.7,6.51,8.8,11.62,15.31,15.31Zm4.14-49.83c1.76-3.48,4.22-6.21,7.37-8.19,3.15-1.99,6.76-2.98,10.84-2.98s7.53.99,10.68,2.98c3.15,1.99,5.6,4.72,7.37,8.19,1.76,3.48,2.65,7.48,2.65,12s-.88,8.53-2.65,12c-1.77,3.48-4.17,6.21-7.2,8.19-3.04,1.99-6.6,2.98-10.68,2.98s-7.73-.99-10.93-2.98c-3.2-1.99-5.69-4.72-7.45-8.19-1.77-3.48-2.65-7.48-2.65-12s.88-8.53,2.65-12Z" style="fill: #012626;"/>
    <path d="m242.08,669.84c0-6.95,1.41-12.19,4.22-15.73,2.81-3.53,6.87-5.24,12.17-5.13,2.87,0,5.38.69,7.53,2.07,2.15,1.38,3.81,3.62,4.97,6.71,1.16,3.09,1.74,7.45,1.74,13.08v42.38h21.85v-43.37c0-6.95,1.43-12.19,4.3-15.73,2.87-3.53,6.95-5.24,12.25-5.13,2.87,0,5.35.69,7.45,2.07,2.1,1.38,3.75,3.62,4.97,6.71,1.21,3.09,1.82,7.45,1.82,13.08v42.38h21.85v-47.35c0-12.69-2.54-22.1-7.62-28.23-5.08-6.12-12.47-9.19-22.18-9.19-5.85,0-10.98,1.52-15.4,4.55-4.42,3.04-7.84,7.37-10.26,13-2.1-5.96-5.44-10.37-10.02-13.24-4.58-2.87-10.24-4.3-16.97-4.3-4.86,0-9.27,1.08-13.24,3.23-3.97,2.15-7.23,5.33-9.77,9.52l-.99-10.76h-20.53v82.77h21.85v-43.37Z" style="fill: #012626;"/>
    <path d="m466.39,670.84v42.38h21.85v-47.35c0-12.69-2.54-22.1-7.62-28.23-5.08-6.12-12.47-9.19-22.18-9.19-5.85,0-10.98,1.52-15.4,4.55-4.42,3.04-7.84,7.37-10.26,13-2.1-5.96-5.44-10.37-10.02-13.24-4.58-2.87-10.24-4.3-16.97-4.3-4.86,0-9.27,1.08-13.24,3.23-3.97,2.15-7.23,5.33-9.77,9.52l-.99-10.76h-20.53v82.77h21.85v-43.37c0-6.95,1.41-12.19,4.22-15.73,2.81-3.53,6.87-5.24,12.17-5.13,2.87,0,5.38.69,7.53,2.07,2.15,1.38,3.81,3.62,4.97,6.71,1.16,3.09,1.74,7.45,1.74,13.08v42.38h21.85v-43.37c0-6.95,1.43-12.19,4.3-15.73,2.87-3.53,6.95-5.24,12.25-5.13,2.87,0,5.35.69,7.45,2.07,2.1,1.38,3.75,3.62,4.97,6.71,1.21,3.09,1.82,7.45,1.82,13.08Z" style="fill: #012626;"/>
    <path d="m518.71,709.66c6.51,3.7,14.01,5.55,22.51,5.55s15.81-1.85,22.27-5.55c6.46-3.7,11.5-8.8,15.15-15.31,3.64-6.51,5.46-14.01,5.46-22.51s-1.82-16-5.46-22.51c-3.64-6.51-8.72-11.61-15.23-15.31-6.51-3.7-14.02-5.55-22.51-5.55s-15.84,1.85-22.35,5.55c-6.51,3.7-11.59,8.8-15.23,15.31-3.64,6.51-5.46,14.02-5.46,22.51s1.85,16,5.55,22.51c3.7,6.51,8.8,11.62,15.31,15.31Zm4.14-49.83c1.76-3.48,4.22-6.21,7.37-8.19,3.15-1.99,6.76-2.98,10.84-2.98s7.53.99,10.68,2.98c3.15,1.99,5.6,4.72,7.37,8.19,1.76,3.48,2.65,7.48,2.65,12s-.88,8.53-2.65,12c-1.77,3.48-4.17,6.21-7.2,8.19-3.04,1.99-6.6,2.98-10.68,2.98s-7.73-.99-10.93-2.98c-3.2-1.99-5.69-4.72-7.45-8.19-1.77-3.48-2.65-7.48-2.65-12s.88-8.53,2.65-12Z" style="fill: #012626;"/>
    <path d="m648.08,657.76c1.27,3.09,1.9,7.45,1.9,13.08v42.38h21.85v-46.85c.11-8.83-1.05-16.03-3.48-21.6-2.43-5.57-5.96-9.68-10.6-12.33-4.64-2.65-10.21-3.97-16.72-3.97s-11.78,1.63-16.47,4.88c-3.08,2.14-5.71,4.92-7.88,8.3l-.97-11.19h-20.53v82.77h21.85v-43.37c0-6.95,1.52-12.19,4.55-15.73,3.03-3.53,7.37-5.24,13-5.13,3.09,0,5.79.69,8.11,2.07,2.32,1.38,4.11,3.62,5.38,6.71Z" style="fill: #012626;"/>
    <path d="m762.89,713.22v-46.85c0-8.83-1.22-16.03-3.64-21.6-2.43-5.57-5.93-9.68-10.51-12.33-4.58-2.65-10.18-3.97-16.8-3.97s-11.78,1.63-16.47,4.88c-2.92,2.02-5.43,4.61-7.53,7.74v-43.75h-21.85v115.88h21.85v-43.37c0-6.95,1.52-12.19,4.55-15.73,3.03-3.53,7.37-5.24,13-5.13,3.09,0,5.79.69,8.11,2.07,2.32,1.38,4.14,3.62,5.46,6.71,1.33,3.09,1.99,7.45,1.99,13.08v42.38h21.85Z" style="fill: #012626;"/>
    <path d="m781.34,669.93c-5.91,4.47-8.86,11.12-8.86,19.95,0,8.06,2.73,14.29,8.19,18.71,5.46,4.42,13.16,6.62,23.09,6.62s17.19-3.15,21.44-9.44c.48-.71.93-1.47,1.35-2.24l.38,9.69h20.36l.5-45.86c.11-7.95-1.19-14.82-3.89-20.61-2.71-5.79-6.84-10.29-12.42-13.49-5.57-3.2-12.56-4.8-20.94-4.8-6.95,0-12.83,1.08-17.63,3.23-4.8,2.15-8.69,4.91-11.67,8.28-2.98,3.37-5.24,6.82-6.79,10.35l19.2,6.62c1.99-3.2,4.41-5.57,7.28-7.12,2.87-1.54,6.07-2.32,9.6-2.32,3.86,0,6.93.97,9.19,2.9,2.26,1.93,3.92,4.66,4.97,8.19.42,1.42.73,2.98.99,4.63h-19.44c-10.71,0-19.01,2.24-24.91,6.71Zm44.95,9.52c0,2.87-.83,5.66-2.48,8.36-1.66,2.71-3.89,4.91-6.7,6.62-2.81,1.71-6.04,2.57-9.68,2.57-3.97,0-7.06-.69-9.27-2.07-2.21-1.38-3.31-3.28-3.31-5.71,0-3.09,1.38-5.49,4.14-7.2,2.76-1.71,7.72-2.57,14.9-2.57h12.42Z" style="fill: #012626;"/>
    <path d="m915.19,673.82c0,6.84-1.49,12.06-4.47,15.64-2.98,3.59-7.34,5.33-13.08,5.21-2.98,0-5.66-.69-8.03-2.07-2.37-1.38-4.2-3.64-5.46-6.79-1.27-3.14-1.9-7.48-1.9-13v-42.38h-21.85v46.85c0,8.83,1.18,16.03,3.56,21.6,2.37,5.57,5.88,9.69,10.51,12.33,4.64,2.65,10.26,3.97,16.89,3.97s11.75-1.63,16.39-4.88c3.03-2.13,5.63-4.88,7.81-8.23l.97,11.13h20.53v-82.77h-21.85v43.37Z" style="fill: #012626;"/>
    <path d="m1014.77,679.53c-1.49-3.59-3.87-6.84-7.12-9.77-3.26-2.92-7.59-5.05-13-6.37l-10.76-2.65c-2.87-.66-5.08-1.46-6.62-2.4-1.55-.94-2.32-2.12-2.32-3.56,0-2.21.8-3.94,2.4-5.21,1.6-1.27,3.89-1.9,6.87-1.9s5.96.69,8.94,2.07c2.98,1.38,4.86,3.17,5.63,5.38l18.04-8.28c-1.22-3.64-3.42-6.84-6.62-9.6-3.2-2.76-7.04-4.91-11.51-6.46-4.47-1.55-9.3-2.32-14.49-2.32-10.04,0-17.8,2.32-23.26,6.95-5.46,4.64-8.19,11.2-8.19,19.7,0,5.96,2.29,11.23,6.87,15.81,4.58,4.58,10.84,7.92,18.79,10.02l7.61,1.99c2.76.66,4.94,1.46,6.54,2.4,1.6.94,2.4,2.4,2.4,4.39s-.99,3.51-2.98,4.55c-1.99,1.05-4.8,1.57-8.44,1.57s-7.06-.96-9.93-2.9c-2.87-1.93-5.13-4.22-6.79-6.87l-18.71,8.61c1.99,4.42,4.74,8.14,8.28,11.17,3.53,3.04,7.61,5.35,12.25,6.95,4.64,1.6,9.6,2.4,14.9,2.4,6.4,0,12.11-1.05,17.13-3.15,5.02-2.1,8.99-5.05,11.92-8.86,2.92-3.81,4.39-8.19,4.39-13.16,0-3.42-.74-6.93-2.23-10.51Z" style="fill: #012626;"/>
    <polygon points="107.49 884.02 130.17 884.02 130.17 837.34 173.21 837.34 173.21 816.64 130.17 816.64 130.17 788.83 181.82 788.83 181.82 768.14 107.49 768.14 107.49 884.02" style="fill: #012626;"/>
    <path d="m252.51,804.81c-6.51-3.7-14.02-5.55-22.51-5.55s-15.84,1.85-22.35,5.55c-6.51,3.7-11.59,8.8-15.23,15.31-3.64,6.51-5.46,14.02-5.46,22.51s1.85,16,5.55,22.51c3.7,6.51,8.8,11.62,15.31,15.31,6.51,3.7,14.01,5.55,22.51,5.55s15.81-1.85,22.27-5.55c6.46-3.7,11.51-8.8,15.15-15.31,3.64-6.51,5.46-14.01,5.46-22.51s-1.82-16-5.46-22.51c-3.64-6.51-8.72-11.61-15.23-15.31Zm-4.3,49.83c-1.77,3.48-4.17,6.21-7.2,8.19-3.04,1.99-6.6,2.98-10.68,2.98s-7.73-.99-10.93-2.98c-3.2-1.99-5.69-4.72-7.45-8.19-1.77-3.48-2.65-7.48-2.65-12s.88-8.53,2.65-12c1.76-3.48,4.22-6.21,7.37-8.19,3.15-1.99,6.76-2.98,10.84-2.98s7.53.99,10.68,2.98c3.14,1.99,5.6,4.72,7.37,8.19,1.76,3.48,2.65,7.48,2.65,12s-.89,8.53-2.65,12Z" style="fill: #012626;"/>
    <path d="m337.6,844.62c0,6.84-1.49,12.06-4.47,15.64-2.98,3.59-7.34,5.33-13.08,5.21-2.98,0-5.66-.69-8.03-2.07-2.37-1.38-4.2-3.64-5.46-6.79-1.27-3.14-1.9-7.48-1.9-13v-42.38h-21.85v46.85c0,8.83,1.18,16.03,3.56,21.6,2.37,5.57,5.88,9.69,10.51,12.33,4.64,2.65,10.26,3.97,16.89,3.97s11.75-1.63,16.39-4.88c3.03-2.13,5.63-4.88,7.81-8.23l.97,11.13h20.53v-82.77h-21.85v43.37Z" style="fill: #012626;"/>
    <path d="m437.59,803.23c-4.64-2.65-10.21-3.97-16.72-3.97s-11.78,1.63-16.47,4.88c-3.08,2.14-5.71,4.91-7.88,8.3l-.97-11.19h-20.53v82.77h21.85v-43.37c0-6.95,1.52-12.19,4.55-15.73,3.03-3.53,7.37-5.24,13-5.13,3.09,0,5.79.69,8.11,2.07,2.32,1.38,4.11,3.62,5.38,6.71,1.27,3.09,1.9,7.45,1.9,13.08v42.38h21.85v-46.85c.11-8.83-1.05-16.03-3.48-21.6-2.43-5.57-5.96-9.68-10.59-12.33Z" style="fill: #012626;"/>
    <path d="m523.51,812.2c-2.02-3.03-4.42-5.59-7.2-7.64-4.8-3.53-10.68-5.3-17.63-5.3-7.61,0-14.21,1.77-19.78,5.3-5.57,3.53-9.91,8.53-13,14.98-3.09,6.46-4.64,14.16-4.64,23.09s1.54,16.5,4.64,23.01c3.09,6.51,7.42,11.53,13,15.06,5.57,3.53,12.17,5.3,19.78,5.3,6.95,0,12.83-1.77,17.63-5.3,2.92-2.15,5.42-4.86,7.5-8.11l.86,11.42h20.69v-115.88h-21.85v44.06Zm-9.19,50.8c-2.93,1.99-6.27,2.98-10.02,2.98-3.97,0-7.48-.99-10.51-2.98-3.04-1.99-5.44-4.74-7.2-8.28-1.77-3.53-2.65-7.56-2.65-12.08s.88-8.55,2.65-12.09c1.76-3.53,4.14-6.26,7.12-8.19,2.98-1.93,6.46-2.9,10.43-2.9s7.26.97,10.18,2.9c2.92,1.93,5.21,4.66,6.87,8.19,1.23,2.63,2,5.53,2.32,8.7v6.77c-.32,3.17-1.09,6.07-2.32,8.7-1.66,3.53-3.95,6.29-6.87,8.28Z" style="fill: #012626;"/>
    <path d="m615.47,804.06c-5.57-3.2-12.56-4.8-20.94-4.8-6.95,0-12.83,1.08-17.63,3.23-4.8,2.15-8.69,4.91-11.67,8.28-2.98,3.37-5.24,6.82-6.79,10.35l19.2,6.62c1.99-3.2,4.41-5.57,7.28-7.12,2.87-1.54,6.07-2.32,9.6-2.32,3.86,0,6.92.97,9.19,2.9,2.26,1.93,3.92,4.66,4.97,8.19.42,1.42.73,2.98.99,4.63h-19.44c-10.71,0-19.01,2.24-24.92,6.71-5.9,4.47-8.86,11.12-8.86,19.95,0,8.06,2.73,14.29,8.19,18.71,5.46,4.42,13.16,6.62,23.09,6.62s17.19-3.15,21.44-9.44c.48-.71.93-1.47,1.35-2.25l.38,9.7h20.36l.5-45.86c.11-7.95-1.19-14.82-3.89-20.61-2.71-5.79-6.84-10.29-12.42-13.49Zm-7.7,54.55c-1.66,2.71-3.89,4.91-6.7,6.62-2.81,1.71-6.04,2.57-9.68,2.57-3.97,0-7.06-.69-9.27-2.07-2.21-1.38-3.31-3.28-3.31-5.71,0-3.09,1.38-5.49,4.14-7.2,2.76-1.71,7.72-2.57,14.9-2.57h12.42c0,2.87-.83,5.66-2.48,8.36Z" style="fill: #012626;"/>
    <path d="m686.73,865.06c-1.32.5-2.54.75-3.64.75-2.98,0-5.24-.91-6.79-2.73-1.55-1.82-2.32-4.49-2.32-8.03v-35.26h20.69v-18.54h-20.69v-25.83h-21.85v25.83h-13.41v18.54h13.41v40.06c0,8.39,2.34,14.85,7.04,19.37,4.69,4.53,11.61,6.79,20.78,6.79,3.2,0,6.43-.64,9.68-1.9,3.25-1.27,6.21-2.9,8.86-4.88l-7.61-16.39c-1.44.99-2.81,1.74-4.14,2.23Z" style="fill: #012626;"/>
    <path d="m721.33,762.67c-3.31,0-6.24,1.24-8.77,3.72-2.54,2.48-3.81,5.44-3.81,8.86s1.27,6.37,3.81,8.86c2.54,2.48,5.46,3.73,8.77,3.73s6.37-1.24,8.86-3.73,3.73-5.43,3.73-8.86-1.24-6.37-3.73-8.86-5.44-3.72-8.86-3.72Z" style="fill: #012626;"/>
    <rect x="710.4" y="801.25" width="21.85" height="82.77" style="fill: #012626;"/>
    <path d="m810.23,804.81c-6.51-3.7-14.02-5.55-22.51-5.55s-15.84,1.85-22.35,5.55c-6.51,3.7-11.59,8.8-15.23,15.31-3.64,6.51-5.46,14.02-5.46,22.51s1.85,16,5.55,22.51c3.7,6.51,8.8,11.62,15.31,15.31,6.51,3.7,14.01,5.55,22.51,5.55s15.81-1.85,22.27-5.55c6.46-3.7,11.51-8.8,15.15-15.31,3.64-6.51,5.46-14.01,5.46-22.51s-1.82-16-5.46-22.51c-3.64-6.51-8.72-11.61-15.23-15.31Zm-4.3,49.83c-1.77,3.48-4.17,6.21-7.2,8.19-3.04,1.99-6.6,2.98-10.68,2.98s-7.73-.99-10.93-2.98c-3.2-1.99-5.69-4.72-7.45-8.19-1.77-3.48-2.65-7.48-2.65-12s.88-8.53,2.65-12c1.76-3.48,4.22-6.21,7.37-8.19,3.15-1.99,6.76-2.98,10.84-2.98s7.53.99,10.68,2.98c3.14,1.99,5.6,4.72,7.37,8.19,1.76,3.48,2.65,7.48,2.65,12s-.89,8.53-2.65,12Z" style="fill: #012626;"/>
    <path d="m904.59,803.23c-4.64-2.65-10.21-3.97-16.72-3.97s-11.78,1.63-16.47,4.88c-3.09,2.14-5.71,4.92-7.88,8.3l-.97-11.19h-20.53v82.77h21.85v-43.37c0-6.95,1.52-12.19,4.55-15.73,3.03-3.53,7.37-5.24,13-5.13,3.09,0,5.79.69,8.11,2.07,2.32,1.38,4.11,3.62,5.38,6.71,1.27,3.09,1.9,7.45,1.9,13.08v42.38h21.85v-46.85c.11-8.83-1.05-16.03-3.48-21.6-2.43-5.57-5.96-9.68-10.6-12.33Z" style="fill: #012626;"/>
  </g>
</svg>