<?xml version="1.0" encoding="UTF-8"?>
<svg id="Layer_1" data-name="Layer 1" xmlns="http://www.w3.org/2000/svg" viewBox="0 0 1024 1024">
  <path d="m883.68,0h87.21c4.52,0,7.66,4.52,6.05,8.75-12.36,32.5-47.6,109.99-131.9,169.02-4.5,3.15-10.66-.4-10.17-5.88,8.89-100.12,33.57-151.1,43.15-168.55,1.13-2.07,3.3-3.34,5.66-3.34Z" style="fill: #fff;"/>
  <path d="m807.38,9.11c-13.03,29.29-22.9,61.71-30.23,95.65-1.1,5.07-7.4,6.88-10.98,3.12-13.85-14.54-40.18-46.93-61.26-99.02-1.71-4.24,1.44-8.86,6.01-8.86h90.57c4.69,0,7.8,4.82,5.89,9.11Z" style="fill: #fff;"/>
  <path d="m375.7,0h40.65c3.63,0,6.54,3,6.45,6.63-4.06,163.42,8,311.46,15.88,396.33.41,4.44-3.68,7.95-8.01,6.86-20.6-5.18-71.47-18.11-108.66-28.36-2.03-.56-3.65-2.07-4.36-4.05-12.68-35.5-45.25-129.65-56.53-167.33-.89-2.96.47-6.12,3.21-7.56,60.63-31.88,93.04-114.39,104.97-196.96.46-3.19,3.17-5.57,6.4-5.57Z" style="fill: #fff;"/>
  <path d="m342.6,7.73c-7.74,38.81-30.22,124.77-84.66,158.86-3.72,2.33-8.63.31-9.7-3.94-16.17-64.23-24.79-120.78-28.47-155.52-.41-3.82,2.59-7.13,6.43-7.13h110.06c4.08,0,7.14,3.73,6.34,7.73Z" style="fill: #fff;"/>
  <path d="m6.46,0h150.76c3.47,0,6.3,2.73,6.45,6.2,1.78,41.69,6.37,83.1,13.02,124.23.72,4.42-3.15,8.22-7.56,7.41C98.75,124.93,43.62,108.75,3.93,92.07c-2.39-1-3.93-3.36-3.93-5.95V6.46C0,2.89,2.89,0,6.46,0Z" style="fill: #fff;"/>
  <path d="m9.02,130.89c63.28,27.41,137.26,45.28,173.59,53.18,2.49.54,4.42,2.5,4.94,5,10.72,51.78,24.2,103.08,38.97,153.87,1.44,4.96-3.19,9.53-8.12,7.99-40.93-12.79-146.62-46.88-215.13-85.38-2.03-1.14-3.27-3.3-3.27-5.63v-123.11c0-4.65,4.75-7.77,9.02-5.93Z" style="fill: #fff;"/>
  <path d="m0,1017.54v-177.74c0-4.65,4.76-7.78,9.02-5.94,46.77,20.26,213.48,85.67,498.56,89.28,3.07.04,5.69,2.22,6.27,5.24,5.61,29.33,11.44,58.62,17.47,87.86.83,4.01-2.23,7.76-6.32,7.76H6.46c-3.57,0-6.46-2.89-6.46-6.46Z" style="fill: #fff;"/>
  <path d="m1021.49,641.15c-27.58,21.28-56.81,40.9-86.85,58.87-4.1,2.45-9.34-.17-9.78-4.92-3.13-33.96-5.84-147.56,87.9-249.16,4.01-4.34,11.25-1.55,11.25,4.35v185.73c0,2.01-.93,3.9-2.51,5.13Z" style="fill: #fff;"/>
  <path d="m1022.25,199.65c-41.07,43.7-97.59,85.23-179.5,123.41-4.14,1.93-8.94-.91-9.2-5.47-1.62-28.32-2.38-57.57-1.8-86.91.04-2.22,1.23-4.25,3.12-5.41,21.09-12.83,128.32-82.59,169.47-220.62.82-2.75,3.33-4.65,6.2-4.65h6.99c3.57,0,6.46,2.89,6.46,6.46v188.75c0,1.65-.62,3.23-1.75,4.43Z" style="fill: #fff;"/>
  <path d="m170.76,780.31c-25.37-88.48-84.26-177.48-159.78-251.32-4.09-4-10.98-1.07-10.98,4.64v195.37c0,2.48,1.42,4.76,3.65,5.84,63.96,30.76,133.37,47.75,159.48,53.54,4.78,1.06,8.97-3.37,7.62-8.07Z" style="fill: #fff;"/>
  <path d="m889.39,646.12l-28.92-26.71c-4.14-3.82-10.85-.89-10.85,4.75v111.36c0,4.82,5.07,7.93,9.38,5.77,10.33-5.18,20.59-10.49,30.77-15.94,2.37-1.27,3.68-3.87,3.35-6.53-2.77-22.33-3.29-44.98-1.68-67.49.14-1.96-.61-3.87-2.05-5.21Z" style="fill: #fff;"/>
  <path d="m748.33,462.74l141.69,132.18c3.63,3.39,9.53,1.58,10.69-3.24,4.88-20.18,11.46-39.92,19.65-58.87,22.46-51.92,58.45-97.58,101.36-134.17,1.44-1.23,2.28-3.02,2.28-4.91v-72.89c0-5.41-6.24-8.41-10.49-5.05-76.22,60.38-168.83,104.51-262.85,136.1-4.63,1.56-5.9,7.51-2.33,10.84Z" style="fill: #fff;"/>
  <path d="m620.97,343.92l41.94,39.12c1.62,1.52,3.91,2.1,6.06,1.53,29.01-7.62,57.82-16.26,86.18-26.13,2.69-.93,4.44-3.51,4.33-6.36-2.28-60.55-.84-129.32,8.51-195.53.29-2.09-.43-4.17-1.97-5.61-12.57-11.74-66.89-68.38-85.27-146.03-.69-2.89-3.3-4.92-6.28-4.92h-68.39c-3.61,0-6.52,2.94-6.46,6.55.78,49.62,9.99,243.52,19.33,333.33.16,1.55.88,2.98,2.02,4.04Z" style="fill: #fff;"/>
  <path d="m289.4,619.41l-30.56,28.22c-2.61,2.41-6.68,2.26-9.11-.34l-17.01-18.21c-2.44-2.61-2.3-6.7.31-9.14l135.12-126.06c3.66-3.41,2.23-9.5-2.57-10.92-106.22-31.55-251.31-78.8-356.17-132.7-4.3-2.21-9.41.91-9.41,5.75v124.8c0,1.89.84,3.69,2.28,4.92,142.83,121.54,192.19,246.7,207.57,308.07.62,2.48,2.64,4.35,5.15,4.79,25.89,4.55,51.92,8.3,78.04,11.33,3.84.45,7.21-2.57,7.21-6.43v-179.34c0-5.64-6.71-8.57-10.85-4.75Z" style="fill: #fff;"/>
  <path d="m570.52,356.93l-230.41,215.43c-1.31,1.22-2.05,2.93-2.05,4.72v218.47c0,3.57,2.89,6.46,6.46,6.46h152.11c3.57,0,6.46-2.89,6.46-6.46v-206.92c0-3.57,2.89-6.46,6.46-6.46h128.1c3.57,0,6.46,2.89,6.46,6.46v206.92c0,3.57,2.89,6.46,6.46,6.46h66.43c.76,0,1.52-.13,2.24-.39,29.99-10.92,59.6-22.98,88.73-36.08,2.32-1.04,3.81-3.36,3.81-5.91v-182.55c0-1.79-.74-3.5-2.05-4.72l-230.41-215.43c-2.48-2.32-6.35-2.32-8.83,0Z" style="fill: #fff;"/>
  <path d="m715.73,918.71c4.87,21.49,19.1,82.43,23.28,100.31.68,2.92,3.29,4.99,6.29,4.99h272.23c3.57,0,6.46-2.89,6.46-6.46v-257.47c0-5.26-5.95-8.32-10.22-5.25-125.38,90.03-265.51,145.56-294.06,156.44-3.01,1.15-4.7,4.31-3.99,7.45Z" style="fill: #fff;"/>
</svg>