<?xml version="1.0" encoding="UTF-8"?>
<svg id="Layer_1" data-name="Layer 1" xmlns="http://www.w3.org/2000/svg" viewBox="0 0 1024 900">
  <g>
    <path d="m689.93,13.99h42.43c2.2,0,3.72,2.2,2.94,4.25-6.01,15.81-23.16,53.51-64.17,82.23-2.19,1.53-5.18-.19-4.95-2.86,4.33-48.71,16.33-73.52,20.99-82,.55-1.01,1.61-1.62,2.75-1.62Z" style="fill: #fff;"/>
    <path d="m652.82,18.42c-6.34,14.25-11.14,30.02-14.71,46.54-.53,2.47-3.6,3.35-5.34,1.52-6.74-7.08-19.55-22.84-29.8-48.18-.83-2.06.7-4.31,2.92-4.31h44.07c2.28,0,3.79,2.35,2.87,4.43Z" style="fill: #fff;"/>
    <path d="m442.79,13.99h19.78c1.77,0,3.18,1.46,3.14,3.23-1.97,79.51,3.89,151.53,7.73,192.83.2,2.16-1.79,3.87-3.9,3.34-10.02-2.52-34.77-8.81-52.87-13.8-.99-.27-1.77-1-2.12-1.97-6.17-17.27-22.02-63.08-27.5-81.41-.43-1.44.23-2.98,1.56-3.68,29.5-15.51,45.27-55.66,51.07-95.83.22-1.55,1.54-2.71,3.11-2.71Z" style="fill: #fff;"/>
    <path d="m426.69,17.75c-3.77,18.88-14.7,60.7-41.19,77.29-1.81,1.13-4.2.15-4.72-1.92-7.87-31.25-12.06-58.76-13.85-75.66-.2-1.86,1.26-3.47,3.13-3.47h53.55c1.99,0,3.47,1.81,3.08,3.76Z" style="fill: #fff;"/>
    <path d="m263.15,13.99h73.35c1.69,0,3.06,1.33,3.14,3.02.87,20.28,3.1,40.43,6.34,60.44.35,2.15-1.53,4-3.68,3.61-34.25-6.28-61.07-14.15-80.38-22.27-1.16-.49-1.91-1.63-1.91-2.89V17.14c0-1.74,1.41-3.15,3.15-3.15Z" style="fill: #fff;"/>
    <path d="m264.39,77.67c30.79,13.34,66.78,22.03,84.45,25.88,1.21.26,2.15,1.22,2.4,2.43,5.22,25.19,11.78,50.15,18.96,74.86.7,2.41-1.55,4.63-3.95,3.89-19.91-6.22-71.34-22.81-104.67-41.54-.99-.56-1.59-1.6-1.59-2.74v-59.9c0-2.26,2.31-3.78,4.39-2.88Z" style="fill: #fff;"/>
    <path d="m260,509.05v-86.47c0-2.26,2.31-3.79,4.39-2.89,22.75,9.86,103.86,41.68,242.56,43.44,1.49.02,2.77,1.08,3.05,2.55,2.73,14.27,5.57,28.52,8.5,42.75.4,1.95-1.08,3.78-3.08,3.78h-252.28c-1.74,0-3.15-1.41-3.15-3.15Z" style="fill: #fff;"/>
    <path d="m756.98,325.93c-13.42,10.35-27.64,19.9-42.26,28.64-1.99,1.19-4.55-.08-4.76-2.4-1.52-16.52-2.84-71.79,42.77-121.22,1.95-2.11,5.47-.76,5.47,2.12v90.36c0,.98-.45,1.9-1.22,2.5Z" style="fill: #fff;"/>
    <path d="m757.36,111.13c-19.98,21.26-47.48,41.46-87.33,60.04-2.01.94-4.35-.44-4.48-2.66-.79-13.78-1.16-28.01-.88-42.28.02-1.08.6-2.07,1.52-2.63,10.26-6.24,62.43-40.18,82.45-107.34.4-1.34,1.62-2.26,3.02-2.26h3.4c1.74,0,3.15,1.41,3.15,3.15v91.83c0,.8-.3,1.57-.85,2.16Z" style="fill: #fff;"/>
    <path d="m343.08,393.63c-12.34-43.05-41-86.35-77.74-122.27-1.99-1.94-5.34-.52-5.34,2.26v95.05c0,1.21.69,2.32,1.78,2.84,31.12,14.97,64.89,23.23,77.59,26.05,2.32.52,4.36-1.64,3.71-3.93Z" style="fill: #fff;"/>
    <path d="m692.72,328.35l-14.07-13c-2.01-1.86-5.28-.43-5.28,2.31v54.18c0,2.34,2.47,3.86,4.56,2.81,5.03-2.52,10.02-5.1,14.97-7.75,1.15-.62,1.79-1.88,1.63-3.18-1.35-10.87-1.6-21.88-.82-32.84.07-.95-.29-1.89-1-2.53Z" style="fill: #fff;"/>
    <path d="m624.09,239.13l68.94,64.31c1.77,1.65,4.64.77,5.2-1.58,2.37-9.82,5.57-19.42,9.56-28.64,10.93-25.26,28.44-47.48,49.31-65.28.7-.6,1.11-1.47,1.11-2.39v-35.46c0-2.63-3.04-4.09-5.1-2.46-37.08,29.38-82.14,50.85-127.89,66.22-2.25.76-2.87,3.65-1.13,5.28Z" style="fill: #fff;"/>
    <path d="m562.12,181.32l20.4,19.03c.79.74,1.9,1.02,2.95.75,14.11-3.71,28.13-7.91,41.93-12.71,1.31-.45,2.16-1.71,2.11-3.09-1.11-29.46-.41-62.92,4.14-95.13.14-1.02-.21-2.03-.96-2.73-6.12-5.71-32.54-33.27-41.49-71.05-.33-1.41-1.61-2.39-3.05-2.39h-33.27c-1.76,0-3.17,1.43-3.15,3.19.38,24.14,4.86,118.48,9.41,162.17.08.75.43,1.45.98,1.97Z" style="fill: #fff;"/>
    <path d="m400.8,315.35l-14.87,13.73c-1.27,1.17-3.25,1.1-4.43-.16l-8.28-8.86c-1.19-1.27-1.12-3.26.15-4.45l65.74-61.33c1.78-1.66,1.08-4.62-1.25-5.31-51.68-15.35-122.27-38.34-173.29-64.56-2.09-1.08-4.58.44-4.58,2.8v60.72c0,.92.41,1.8,1.11,2.39,69.49,59.13,93.51,120.03,100.99,149.88.3,1.2,1.28,2.12,2.51,2.33,12.59,2.21,25.26,4.04,37.97,5.51,1.87.22,3.51-1.25,3.51-3.13v-87.25c0-2.74-3.26-4.17-5.28-2.31Z" style="fill: #fff;"/>
    <path d="m537.57,187.65l-112.1,104.81c-.64.59-1,1.43-1,2.3v106.29c0,1.74,1.41,3.15,3.15,3.15h74.01c1.74,0,3.15-1.41,3.15-3.15v-100.67c0-1.74,1.41-3.15,3.15-3.15h62.32c1.74,0,3.15,1.41,3.15,3.15v100.67c0,1.74,1.41,3.15,3.15,3.15h32.32c.37,0,.74-.06,1.09-.19,14.59-5.32,29-11.18,43.17-17.55,1.13-.51,1.86-1.64,1.86-2.87v-88.82c0-.87-.36-1.7-1-2.3l-112.1-104.81c-1.21-1.13-3.09-1.13-4.3,0Z" style="fill: #fff;"/>
    <path d="m608.22,460.97c2.37,10.46,9.29,40.11,11.33,48.8.33,1.42,1.6,2.43,3.06,2.43h132.45c1.74,0,3.15-1.41,3.15-3.15v-125.27c0-2.56-2.89-4.05-4.97-2.55-61,43.8-129.18,70.82-143.07,76.11-1.46.56-2.29,2.1-1.94,3.63Z" style="fill: #fff;"/>
  </g>
  <g>
    <path d="m96.06,673.32c-1.88,4.2-4.33,7.89-7.37,11.09-3.04,3.2-6.51,5.71-10.43,7.53-3.92,1.82-8.25,2.73-13,2.73-6.84,0-12.91-1.68-18.21-5.05-5.3-3.37-9.44-8-12.42-13.91-2.98-5.9-4.47-12.72-4.47-20.45s1.46-14.51,4.39-20.36c2.92-5.85,7.01-10.46,12.25-13.82,5.24-3.36,11.23-5.05,17.96-5.05,4.64,0,8.94.86,12.91,2.57,3.97,1.71,7.5,4.09,10.59,7.12,3.09,3.04,5.57,6.6,7.45,10.68l21.02-7.78c-2.76-6.51-6.7-12.28-11.84-17.3-5.13-5.02-11.12-8.94-17.96-11.75-6.84-2.81-14.24-4.22-22.18-4.22-11.26,0-21.22,2.57-29.88,7.7-8.67,5.13-15.48,12.2-20.45,21.19-4.97,9-7.45,19.34-7.45,31.04s2.48,22.05,7.45,31.04c4.97,9,11.81,16.06,20.53,21.19,8.72,5.13,18.71,7.7,29.96,7.7,8.05,0,15.5-1.44,22.35-4.3,6.84-2.87,12.83-6.9,17.96-12.09,5.13-5.19,9.08-11.15,11.84-17.88l-21.02-7.62Z" style="fill: #fff;"/>
    <path d="m143.74,709.66c6.51,3.7,14.01,5.55,22.51,5.55s15.81-1.85,22.27-5.55c6.46-3.7,11.51-8.8,15.15-15.31,3.64-6.51,5.46-14.01,5.46-22.51s-1.82-16-5.46-22.51c-3.64-6.51-8.72-11.61-15.23-15.31-6.51-3.7-14.02-5.55-22.51-5.55s-15.84,1.85-22.35,5.55c-6.51,3.7-11.59,8.8-15.23,15.31-3.64,6.51-5.46,14.02-5.46,22.51s1.85,16,5.55,22.51c3.7,6.51,8.8,11.62,15.31,15.31Zm4.14-49.83c1.76-3.48,4.22-6.21,7.37-8.19,3.15-1.99,6.76-2.98,10.84-2.98s7.53.99,10.68,2.98c3.15,1.99,5.6,4.72,7.37,8.19,1.76,3.48,2.65,7.48,2.65,12s-.88,8.53-2.65,12c-1.77,3.48-4.17,6.21-7.2,8.19-3.04,1.99-6.6,2.98-10.68,2.98s-7.73-.99-10.93-2.98c-3.2-1.99-5.69-4.72-7.45-8.19-1.77-3.48-2.65-7.48-2.65-12s.88-8.53,2.65-12Z" style="fill: #fff;"/>
    <path d="m242.08,669.84c0-6.95,1.41-12.19,4.22-15.73,2.81-3.53,6.87-5.24,12.17-5.13,2.87,0,5.38.69,7.53,2.07,2.15,1.38,3.81,3.62,4.97,6.71,1.16,3.09,1.74,7.45,1.74,13.08v42.38h21.85v-43.37c0-6.95,1.43-12.19,4.3-15.73,2.87-3.53,6.95-5.24,12.25-5.13,2.87,0,5.35.69,7.45,2.07,2.1,1.38,3.75,3.62,4.97,6.71,1.21,3.09,1.82,7.45,1.82,13.08v42.38h21.85v-47.35c0-12.69-2.54-22.1-7.62-28.23-5.08-6.12-12.47-9.19-22.18-9.19-5.85,0-10.98,1.52-15.4,4.55-4.42,3.04-7.84,7.37-10.26,13-2.1-5.96-5.44-10.37-10.02-13.24-4.58-2.87-10.24-4.3-16.97-4.3-4.86,0-9.27,1.08-13.24,3.23-3.97,2.15-7.23,5.33-9.77,9.52l-.99-10.76h-20.53v82.77h21.85v-43.37Z" style="fill: #fff;"/>
    <path d="m466.39,670.84v42.38h21.85v-47.35c0-12.69-2.54-22.1-7.62-28.23-5.08-6.12-12.47-9.19-22.18-9.19-5.85,0-10.98,1.52-15.4,4.55-4.42,3.04-7.84,7.37-10.26,13-2.1-5.96-5.44-10.37-10.02-13.24-4.58-2.87-10.24-4.3-16.97-4.3-4.86,0-9.27,1.08-13.24,3.23-3.97,2.15-7.23,5.33-9.77,9.52l-.99-10.76h-20.53v82.77h21.85v-43.37c0-6.95,1.41-12.19,4.22-15.73,2.81-3.53,6.87-5.24,12.17-5.13,2.87,0,5.38.69,7.53,2.07,2.15,1.38,3.81,3.62,4.97,6.71,1.16,3.09,1.74,7.45,1.74,13.08v42.38h21.85v-43.37c0-6.95,1.43-12.19,4.3-15.73,2.87-3.53,6.95-5.24,12.25-5.13,2.87,0,5.35.69,7.45,2.07,2.1,1.38,3.75,3.62,4.97,6.71,1.21,3.09,1.82,7.45,1.82,13.08Z" style="fill: #fff;"/>
    <path d="m518.71,709.66c6.51,3.7,14.01,5.55,22.51,5.55s15.81-1.85,22.27-5.55c6.46-3.7,11.5-8.8,15.15-15.31,3.64-6.51,5.46-14.01,5.46-22.51s-1.82-16-5.46-22.51c-3.64-6.51-8.72-11.61-15.23-15.31-6.51-3.7-14.02-5.55-22.51-5.55s-15.84,1.85-22.35,5.55c-6.51,3.7-11.59,8.8-15.23,15.31-3.64,6.51-5.46,14.02-5.46,22.51s1.85,16,5.55,22.51c3.7,6.51,8.8,11.62,15.31,15.31Zm4.14-49.83c1.76-3.48,4.22-6.21,7.37-8.19,3.15-1.99,6.76-2.98,10.84-2.98s7.53.99,10.68,2.98c3.15,1.99,5.6,4.72,7.37,8.19,1.76,3.48,2.65,7.48,2.65,12s-.88,8.53-2.65,12c-1.77,3.48-4.17,6.21-7.2,8.19-3.04,1.99-6.6,2.98-10.68,2.98s-7.73-.99-10.93-2.98c-3.2-1.99-5.69-4.72-7.45-8.19-1.77-3.48-2.65-7.48-2.65-12s.88-8.53,2.65-12Z" style="fill: #fff;"/>
    <path d="m648.08,657.76c1.27,3.09,1.9,7.45,1.9,13.08v42.38h21.85v-46.85c.11-8.83-1.05-16.03-3.48-21.6-2.43-5.57-5.96-9.68-10.6-12.33-4.64-2.65-10.21-3.97-16.72-3.97s-11.78,1.63-16.47,4.88c-3.08,2.14-5.71,4.92-7.88,8.3l-.97-11.19h-20.53v82.77h21.85v-43.37c0-6.95,1.52-12.19,4.55-15.73,3.03-3.53,7.37-5.24,13-5.13,3.09,0,5.79.69,8.11,2.07,2.32,1.38,4.11,3.62,5.38,6.71Z" style="fill: #fff;"/>
    <path d="m762.89,713.22v-46.85c0-8.83-1.22-16.03-3.64-21.6-2.43-5.57-5.93-9.68-10.51-12.33-4.58-2.65-10.18-3.97-16.8-3.97s-11.78,1.63-16.47,4.88c-2.92,2.02-5.43,4.61-7.53,7.74v-43.75h-21.85v115.88h21.85v-43.37c0-6.95,1.52-12.19,4.55-15.73,3.03-3.53,7.37-5.24,13-5.13,3.09,0,5.79.69,8.11,2.07,2.32,1.38,4.14,3.62,5.46,6.71,1.33,3.09,1.99,7.45,1.99,13.08v42.38h21.85Z" style="fill: #fff;"/>
    <path d="m781.34,669.93c-5.91,4.47-8.86,11.12-8.86,19.95,0,8.06,2.73,14.29,8.19,18.71,5.46,4.42,13.16,6.62,23.09,6.62s17.19-3.15,21.44-9.44c.48-.71.93-1.47,1.35-2.24l.38,9.69h20.36l.5-45.86c.11-7.95-1.19-14.82-3.89-20.61-2.71-5.79-6.84-10.29-12.42-13.49-5.57-3.2-12.56-4.8-20.94-4.8-6.95,0-12.83,1.08-17.63,3.23-4.8,2.15-8.69,4.91-11.67,8.28-2.98,3.37-5.24,6.82-6.79,10.35l19.2,6.62c1.99-3.2,4.41-5.57,7.28-7.12,2.87-1.54,6.07-2.32,9.6-2.32,3.86,0,6.93.97,9.19,2.9,2.26,1.93,3.92,4.66,4.97,8.19.42,1.42.73,2.98.99,4.63h-19.44c-10.71,0-19.01,2.24-24.91,6.71Zm44.95,9.52c0,2.87-.83,5.66-2.48,8.36-1.66,2.71-3.89,4.91-6.7,6.62-2.81,1.71-6.04,2.57-9.68,2.57-3.97,0-7.06-.69-9.27-2.07-2.21-1.38-3.31-3.28-3.31-5.71,0-3.09,1.38-5.49,4.14-7.2,2.76-1.71,7.72-2.57,14.9-2.57h12.42Z" style="fill: #fff;"/>
    <path d="m915.19,673.82c0,6.84-1.49,12.06-4.47,15.64-2.98,3.59-7.34,5.33-13.08,5.21-2.98,0-5.66-.69-8.03-2.07-2.37-1.38-4.2-3.64-5.46-6.79-1.27-3.14-1.9-7.48-1.9-13v-42.38h-21.85v46.85c0,8.83,1.18,16.03,3.56,21.6,2.37,5.57,5.88,9.69,10.51,12.33,4.64,2.65,10.26,3.97,16.89,3.97s11.75-1.63,16.39-4.88c3.03-2.13,5.63-4.88,7.81-8.23l.97,11.13h20.53v-82.77h-21.85v43.37Z" style="fill: #fff;"/>
    <path d="m1014.77,679.53c-1.49-3.59-3.87-6.84-7.12-9.77-3.26-2.92-7.59-5.05-13-6.37l-10.76-2.65c-2.87-.66-5.08-1.46-6.62-2.4-1.55-.94-2.32-2.12-2.32-3.56,0-2.21.8-3.94,2.4-5.21,1.6-1.27,3.89-1.9,6.87-1.9s5.96.69,8.94,2.07c2.98,1.38,4.86,3.17,5.63,5.38l18.04-8.28c-1.22-3.64-3.42-6.84-6.62-9.6-3.2-2.76-7.04-4.91-11.51-6.46-4.47-1.55-9.3-2.32-14.49-2.32-10.04,0-17.8,2.32-23.26,6.95-5.46,4.64-8.19,11.2-8.19,19.7,0,5.96,2.29,11.23,6.87,15.81,4.58,4.58,10.84,7.92,18.79,10.02l7.61,1.99c2.76.66,4.94,1.46,6.54,2.4,1.6.94,2.4,2.4,2.4,4.39s-.99,3.51-2.98,4.55c-1.99,1.05-4.8,1.57-8.44,1.57s-7.06-.96-9.93-2.9c-2.87-1.93-5.13-4.22-6.79-6.87l-18.71,8.61c1.99,4.42,4.74,8.14,8.28,11.17,3.53,3.04,7.61,5.35,12.25,6.95,4.64,1.6,9.6,2.4,14.9,2.4,6.4,0,12.11-1.05,17.13-3.15,5.02-2.1,8.99-5.05,11.92-8.86,2.92-3.81,4.39-8.19,4.39-13.16,0-3.42-.74-6.93-2.23-10.51Z" style="fill: #fff;"/>
    <polygon points="107.49 884.02 130.17 884.02 130.17 837.34 173.21 837.34 173.21 816.64 130.17 816.64 130.17 788.83 181.82 788.83 181.82 768.14 107.49 768.14 107.49 884.02" style="fill: #fff;"/>
    <path d="m252.51,804.81c-6.51-3.7-14.02-5.55-22.51-5.55s-15.84,1.85-22.35,5.55c-6.51,3.7-11.59,8.8-15.23,15.31-3.64,6.51-5.46,14.02-5.46,22.51s1.85,16,5.55,22.51c3.7,6.51,8.8,11.62,15.31,15.31,6.51,3.7,14.01,5.55,22.51,5.55s15.81-1.85,22.27-5.55c6.46-3.7,11.51-8.8,15.15-15.31,3.64-6.51,5.46-14.01,5.46-22.51s-1.82-16-5.46-22.51c-3.64-6.51-8.72-11.61-15.23-15.31Zm-4.3,49.83c-1.77,3.48-4.17,6.21-7.2,8.19-3.04,1.99-6.6,2.98-10.68,2.98s-7.73-.99-10.93-2.98c-3.2-1.99-5.69-4.72-7.45-8.19-1.77-3.48-2.65-7.48-2.65-12s.88-8.53,2.65-12c1.76-3.48,4.22-6.21,7.37-8.19,3.15-1.99,6.76-2.98,10.84-2.98s7.53.99,10.68,2.98c3.14,1.99,5.6,4.72,7.37,8.19,1.76,3.48,2.65,7.48,2.65,12s-.89,8.53-2.65,12Z" style="fill: #fff;"/>
    <path d="m337.6,844.62c0,6.84-1.49,12.06-4.47,15.64-2.98,3.59-7.34,5.33-13.08,5.21-2.98,0-5.66-.69-8.03-2.07-2.37-1.38-4.2-3.64-5.46-6.79-1.27-3.14-1.9-7.48-1.9-13v-42.38h-21.85v46.85c0,8.83,1.18,16.03,3.56,21.6,2.37,5.57,5.88,9.69,10.51,12.33,4.64,2.65,10.26,3.97,16.89,3.97s11.75-1.63,16.39-4.88c3.03-2.13,5.63-4.88,7.81-8.23l.97,11.13h20.53v-82.77h-21.85v43.37Z" style="fill: #fff;"/>
    <path d="m437.59,803.23c-4.64-2.65-10.21-3.97-16.72-3.97s-11.78,1.63-16.47,4.88c-3.08,2.14-5.71,4.91-7.88,8.3l-.97-11.19h-20.53v82.77h21.85v-43.37c0-6.95,1.52-12.19,4.55-15.73,3.03-3.53,7.37-5.24,13-5.13,3.09,0,5.79.69,8.11,2.07,2.32,1.38,4.11,3.62,5.38,6.71,1.27,3.09,1.9,7.45,1.9,13.08v42.38h21.85v-46.85c.11-8.83-1.05-16.03-3.48-21.6-2.43-5.57-5.96-9.68-10.59-12.33Z" style="fill: #fff;"/>
    <path d="m523.51,812.2c-2.02-3.03-4.42-5.59-7.2-7.64-4.8-3.53-10.68-5.3-17.63-5.3-7.61,0-14.21,1.77-19.78,5.3-5.57,3.53-9.91,8.53-13,14.98-3.09,6.46-4.64,14.16-4.64,23.09s1.54,16.5,4.64,23.01c3.09,6.51,7.42,11.53,13,15.06,5.57,3.53,12.17,5.3,19.78,5.3,6.95,0,12.83-1.77,17.63-5.3,2.92-2.15,5.42-4.86,7.5-8.11l.86,11.42h20.69v-115.88h-21.85v44.06Zm-9.19,50.8c-2.93,1.99-6.27,2.98-10.02,2.98-3.97,0-7.48-.99-10.51-2.98-3.04-1.99-5.44-4.74-7.2-8.28-1.77-3.53-2.65-7.56-2.65-12.08s.88-8.55,2.65-12.09c1.76-3.53,4.14-6.26,7.12-8.19,2.98-1.93,6.46-2.9,10.43-2.9s7.26.97,10.18,2.9c2.92,1.93,5.21,4.66,6.87,8.19,1.23,2.63,2,5.53,2.32,8.7v6.77c-.32,3.17-1.09,6.07-2.32,8.7-1.66,3.53-3.95,6.29-6.87,8.28Z" style="fill: #fff;"/>
    <path d="m615.47,804.06c-5.57-3.2-12.56-4.8-20.94-4.8-6.95,0-12.83,1.08-17.63,3.23-4.8,2.15-8.69,4.91-11.67,8.28-2.98,3.37-5.24,6.82-6.79,10.35l19.2,6.62c1.99-3.2,4.41-5.57,7.28-7.12,2.87-1.54,6.07-2.32,9.6-2.32,3.86,0,6.92.97,9.19,2.9,2.26,1.93,3.92,4.66,4.97,8.19.42,1.42.73,2.98.99,4.63h-19.44c-10.71,0-19.01,2.24-24.92,6.71-5.9,4.47-8.86,11.12-8.86,19.95,0,8.06,2.73,14.29,8.19,18.71,5.46,4.42,13.16,6.62,23.09,6.62s17.19-3.15,21.44-9.44c.48-.71.93-1.47,1.35-2.25l.38,9.7h20.36l.5-45.86c.11-7.95-1.19-14.82-3.89-20.61-2.71-5.79-6.84-10.29-12.42-13.49Zm-7.7,54.55c-1.66,2.71-3.89,4.91-6.7,6.62-2.81,1.71-6.04,2.57-9.68,2.57-3.97,0-7.06-.69-9.27-2.07-2.21-1.38-3.31-3.28-3.31-5.71,0-3.09,1.38-5.49,4.14-7.2,2.76-1.71,7.72-2.57,14.9-2.57h12.42c0,2.87-.83,5.66-2.48,8.36Z" style="fill: #fff;"/>
    <path d="m686.73,865.06c-1.32.5-2.54.75-3.64.75-2.98,0-5.24-.91-6.79-2.73-1.55-1.82-2.32-4.49-2.32-8.03v-35.26h20.69v-18.54h-20.69v-25.83h-21.85v25.83h-13.41v18.54h13.41v40.06c0,8.39,2.34,14.85,7.04,19.37,4.69,4.53,11.61,6.79,20.78,6.79,3.2,0,6.43-.64,9.68-1.9,3.25-1.27,6.21-2.9,8.86-4.88l-7.61-16.39c-1.44.99-2.81,1.74-4.14,2.23Z" style="fill: #fff;"/>
    <path d="m721.33,762.67c-3.31,0-6.24,1.24-8.77,3.72-2.54,2.48-3.81,5.44-3.81,8.86s1.27,6.37,3.81,8.86c2.54,2.48,5.46,3.73,8.77,3.73s6.37-1.24,8.86-3.73c2.48-2.48,3.73-5.43,3.73-8.86s-1.24-6.37-3.73-8.86c-2.48-2.48-5.44-3.72-8.86-3.72Z" style="fill: #fff;"/>
    <rect x="710.4" y="801.25" width="21.85" height="82.77" style="fill: #fff;"/>
    <path d="m810.23,804.81c-6.51-3.7-14.02-5.55-22.51-5.55s-15.84,1.85-22.35,5.55c-6.51,3.7-11.59,8.8-15.23,15.31-3.64,6.51-5.46,14.02-5.46,22.51s1.85,16,5.55,22.51c3.7,6.51,8.8,11.62,15.31,15.31,6.51,3.7,14.01,5.55,22.51,5.55s15.81-1.85,22.27-5.55c6.46-3.7,11.51-8.8,15.15-15.31,3.64-6.51,5.46-14.01,5.46-22.51s-1.82-16-5.46-22.51c-3.64-6.51-8.72-11.61-15.23-15.31Zm-4.3,49.83c-1.77,3.48-4.17,6.21-7.2,8.19-3.04,1.99-6.6,2.98-10.68,2.98s-7.73-.99-10.93-2.98c-3.2-1.99-5.69-4.72-7.45-8.19-1.77-3.48-2.65-7.48-2.65-12s.88-8.53,2.65-12c1.76-3.48,4.22-6.21,7.37-8.19,3.15-1.99,6.76-2.98,10.84-2.98s7.53.99,10.68,2.98c3.14,1.99,5.6,4.72,7.37,8.19,1.76,3.48,2.65,7.48,2.65,12s-.89,8.53-2.65,12Z" style="fill: #fff;"/>
    <path d="m904.59,803.23c-4.64-2.65-10.21-3.97-16.72-3.97s-11.78,1.63-16.47,4.88c-3.09,2.14-5.71,4.92-7.88,8.3l-.97-11.19h-20.53v82.77h21.85v-43.37c0-6.95,1.52-12.19,4.55-15.73,3.03-3.53,7.37-5.24,13-5.13,3.09,0,5.79.69,8.11,2.07,2.32,1.38,4.11,3.62,5.38,6.71,1.27,3.09,1.9,7.45,1.9,13.08v42.38h21.85v-46.85c.11-8.83-1.05-16.03-3.48-21.6-2.43-5.57-5.96-9.68-10.6-12.33Z" style="fill: #fff;"/>
  </g>
</svg>