<?xml version="1.0" encoding="UTF-8"?>
<svg id="Layer_1" data-name="Layer 1" xmlns="http://www.w3.org/2000/svg" xmlns:xlink="http://www.w3.org/1999/xlink" viewBox="0 0 300 100">
  <defs>
    <style>
      .cls-1 {
        fill: url(#linear-gradient-5);
      }

      .cls-2 {
        fill: url(#linear-gradient-4);
      }

      .cls-3 {
        fill: url(#linear-gradient-3);
      }

      .cls-4 {
        fill: url(#linear-gradient-2);
      }

      .cls-5 {
        fill: url(#linear-gradient);
      }

      .cls-6 {
        fill: #fff;
      }
    </style>
    <linearGradient id="linear-gradient" x1="30.98" y1="1007.77" x2="71.01" y2="967.73" gradientTransform="translate(0 1038.34) scale(1 -1)" gradientUnits="userSpaceOnUse">
      <stop offset="0" stop-color="#91d443"/>
      <stop offset="1" stop-color="#48bfe0"/>
    </linearGradient>
    <linearGradient id="linear-gradient-2" x1="40.93" y1="1017.72" x2="80.97" y2="977.68" xlink:href="#linear-gradient"/>
    <linearGradient id="linear-gradient-3" x1="50.85" y1="1027.64" x2="90.89" y2="987.61" xlink:href="#linear-gradient"/>
    <linearGradient id="linear-gradient-4" x1="21.01" y1="997.81" x2="61.05" y2="957.77" xlink:href="#linear-gradient"/>
    <linearGradient id="linear-gradient-5" x1="11.09" y1="987.88" x2="51.13" y2="947.85" xlink:href="#linear-gradient"/>
  </defs>
  <path class="cls-6" d="M96.71,61.43c-1.86-1.88-2.79-4.36-2.79-7.44s.95-5.53,2.86-7.36c1.81-1.8,4.27-2.8,6.82-2.77,2.64,0,4.76,1.12,6.37,3.35v-10.84h4.17v27.6h-4.17v-2.97c-1.53,2.18-3.77,3.27-6.71,3.27-2.48.01-4.86-1.01-6.56-2.83ZM98.09,54.15c-.07,1.73.59,3.41,1.82,4.63,1.12,1.15,2.67,1.8,4.28,1.78,1.59.03,3.11-.63,4.17-1.8,1.16-1.26,1.77-2.92,1.7-4.63.06-1.73-.55-3.43-1.7-4.73-1.05-1.22-2.59-1.92-4.2-1.9-1.64-.02-3.2.68-4.29,1.9-1.2,1.28-1.84,2.99-1.78,4.74h0Z"/>
  <path class="cls-6" d="M138.59,55.89h-15.51c.08,1.4.81,2.69,1.97,3.48,1.21.88,2.67,1.34,4.17,1.32,2.48,0,4.36-.78,5.65-2.34l2.37,2.61c-2.13,2.21-4.91,3.31-8.33,3.31-2.64.06-5.19-.94-7.09-2.77-1.94-1.85-2.9-4.33-2.9-7.44,0-3.11.99-5.59,2.97-7.42,1.89-1.8,4.4-2.8,7.01-2.77,2.51-.06,4.95.8,6.86,2.44,1.88,1.62,2.83,3.86,2.83,6.71v2.88ZM123.08,52.61h11.35c0-1.66-.52-2.94-1.56-3.82-1.08-.9-2.45-1.38-3.85-1.34-1.48-.01-2.92.48-4.09,1.38-1.2.88-1.89,2.29-1.84,3.77Z"/>
  <path class="cls-6" d="M153.77,43.85c2.54-.04,4.99.95,6.79,2.75,1.88,1.83,2.83,4.28,2.83,7.33,0,3.05-.93,5.54-2.8,7.46-1.69,1.83-4.06,2.87-6.55,2.87-2.49,0-4.73-1.09-6.71-3.27v2.97h-4.15v-27.6h4.17v11.27c1.63-2.51,3.77-3.76,6.42-3.78ZM147.26,54.1c-.07,1.71.54,3.37,1.7,4.63,1.07,1.17,2.58,1.83,4.17,1.8,1.61.01,3.15-.63,4.28-1.79,1.23-1.22,1.89-2.9,1.82-4.63.06-1.75-.59-3.45-1.78-4.72-1.09-1.21-2.65-1.89-4.28-1.88-1.61-.02-3.15.66-4.2,1.88-1.15,1.29-1.76,2.98-1.69,4.7Z"/>
  <path class="cls-6" d="M186.57,55.89h-15.51c.08,1.4.81,2.69,1.97,3.48,1.21.88,2.67,1.34,4.17,1.32,2.48,0,4.36-.78,5.66-2.34l2.38,2.6c-2.13,2.21-4.91,3.31-8.33,3.31-2.64.06-5.19-.94-7.09-2.77-1.94-1.85-2.92-4.33-2.92-7.44s.99-5.59,2.97-7.42c1.89-1.8,4.4-2.8,7.01-2.77,2.51-.06,4.95.8,6.86,2.44,1.89,1.62,2.83,3.86,2.83,6.71v2.88ZM171.06,52.61h11.35c0-1.66-.52-2.94-1.56-3.82-1.08-.9-2.45-1.38-3.85-1.34-1.48-.01-2.92.48-4.09,1.38-1.2.88-1.89,2.29-1.84,3.77Z"/>
  <path class="cls-6" d="M190.52,47.82v-3.57h15.47v3.76l-11.12,12.34h11.71v3.61h-16.81v-4.05l10.82-12.09h-10.08Z"/>
  <path class="cls-6" d="M211.54,40.23c-1.01-1.03-.99-2.68.04-3.69,1.03-1.01,2.68-.99,3.69.04,1.01,1.03.99,2.68-.04,3.69-.49.48-1.14.75-1.83.75-.7,0-1.37-.28-1.86-.78ZM215.45,63.96h-4.17v-19.79h4.17v19.79Z"/>
  <path class="cls-6" d="M235.29,54.89v-10.72h4.17v19.79h-4.17v-3.61c-1.31,2.41-3.84,3.91-6.58,3.91-2.23,0-4.04-.68-5.41-2.05-1.38-1.36-2.07-3.34-2.06-5.91v-12.12h4.17v10.86c0,3.64,1.51,5.47,4.54,5.47,1.39.02,2.73-.49,3.76-1.43,1.06-.96,1.6-2.35,1.6-4.18Z"/>
  <path class="cls-6" d="M249.65,53.25v10.71h-4.17v-19.79h4.17v3.61c.59-1.21,1.53-2.2,2.7-2.86,1.18-.7,2.52-1.06,3.89-1.07,3.11,0,5.24,1.29,6.37,3.87,1.96-2.58,4.4-3.87,7.33-3.87,2.23,0,4.04.68,5.41,2.05,1.38,1.36,2.07,3.34,2.06,5.91v12.14h-4.17v-10.86c0-3.65-1.51-5.47-4.54-5.47-1.36-.02-2.68.47-3.7,1.36-1.05.91-1.6,2.23-1.66,3.96v11.01h-4.17v-10.86c0-1.89-.33-3.27-1-4.15-.67-.88-1.72-1.32-3.16-1.32-1.39-.02-2.73.49-3.76,1.43-1.07.96-1.61,2.35-1.61,4.19Z"/>
  <path class="cls-5" d="M62.42,70.73c0,3.9,3.16,7.06,7.06,7.06h8.72v-8.72c0-3.9-3.16-7.06-7.06-7.06h-1.66c-6.19,0-11.21-5.01-11.21-11.19v-1.65c0-3.89-3.15-7.04-7.04-7.06h-1.66c-6.18,0-11.18-5.02-11.19-11.2h0v-1.66c0-3.9-3.17-7.05-7.06-7.06h-8.72v8.71c0,3.9,3.16,7.06,7.06,7.06h1.66c6.18,0,11.19,5.01,11.19,11.19v1.65c.01,3.89,3.17,7.04,7.06,7.05h1.66c6.18,0,11.19,5.01,11.19,11.19h0v1.67Z"/>
  <path class="cls-4" d="M78.19,49.17c0-3.9-3.16-7.06-7.06-7.06h-1.66c-6.19,0-11.2-5.01-11.21-11.19v-1.66c0-3.89-3.15-7.04-7.04-7.06h-8.71v8.81c.06,3.86,3.2,6.96,7.06,6.96h1.66c6.18,0,11.19,5.01,11.19,11.19h0v1.65c.01,3.88,3.15,7.03,7.04,7.05h8.74v-8.7Z"/>
  <path class="cls-3" d="M78.19,29.2c-.03-3.77-3.01-6.85-6.77-7h-9.14v8.79c.05,3.87,3.19,6.98,7.06,6.98h8.85v-8.77Z"/>
  <path class="cls-2" d="M22.59,50.83c0,3.9,3.17,7.05,7.07,7.06h1.66c6.18,0,11.19,5.01,11.19,11.19v1.65c0,3.9,3.16,7.06,7.06,7.06h8.69v-8.81c-.06-3.85-3.19-6.94-7.04-6.96h-1.66c-6.18,0-11.19-5.01-11.2-11.19h0v-1.66c0-3.89-3.15-7.04-7.04-7.06h-8.74v8.72Z"/>
  <path class="cls-1" d="M22.59,70.8c.03,3.78,3.02,6.86,6.79,7.01h9.12v-8.79c-.05-3.87-3.19-6.98-7.06-6.98h-8.86v8.77Z"/>
</svg>