<?xml version="1.0" encoding="UTF-8"?>
<svg id="Layer_1" data-name="Layer 1" xmlns="http://www.w3.org/2000/svg" viewBox="0 0 300 100">
  <defs>
    <style>
      .cls-1, .cls-2 {
        fill: #59666c;
      }

      .cls-2, .cls-3 {
        fill-rule: evenodd;
      }

      .cls-3, .cls-4 {
        fill: #bcae79;
      }
    </style>
  </defs>
  <g>
    <polygon class="cls-1" points="38.88 42.89 30.69 57.1 30.69 57.1 22.5 42.89 30.69 28.71 38.88 42.89 38.88 42.89"/>
    <polygon class="cls-4" points="47.07 28.71 30.69 28.71 38.88 42.89 55.27 42.89 47.07 28.71"/>
    <polygon class="cls-1" points="47.07 57.11 55.26 42.9 55.26 42.9 63.45 57.11 55.26 71.29 47.07 57.11 47.07 57.11"/>
    <polygon class="cls-4" points="38.87 71.29 55.25 71.29 47.06 57.1 30.68 57.11 38.87 71.29"/>
  </g>
  <polygon class="cls-1" points="93.14 56.89 93.14 28.88 88.66 28.88 88.66 40.46 75.42 40.46 75.42 28.88 70.89 28.88 70.89 56.89 75.42 56.89 75.42 44.32 88.66 44.32 88.66 56.89 93.14 56.89 93.14 56.89"/>
  <polygon class="cls-1" points="106.12 56.89 106.12 28.88 101.6 28.88 101.6 56.89 106.12 56.89 106.12 56.89"/>
  <path class="cls-2" d="M133.22,48.43c0-2.91-1.7-5.69-5.35-6.39v-.08c2.86-1,4.77-3.53,4.77-6.39,0-4.32-3.15-6.81-9.26-6.81-3.4,0-6.6.08-8.8.12v28.02c3.11.04,5.94.12,7.64.12,8.59,0,11-4.94,11-8.59h0ZM127.9,36.26c0,2.82-2.2,4.52-6.39,4.52-.95,0-1.66,0-2.41-.04v-8.3c1.08-.04,2.28-.08,3.53-.08,3.98,0,5.27,1.62,5.27,3.9h0ZM128.44,48.51c0,2.82-1.95,4.82-6.06,4.82-1.45,0-2.57-.08-3.28-.21v-8.92c.62-.04,2.07-.04,2.53-.04,3.94,0,6.81,1.16,6.81,4.36h0Z"/>
  <polygon class="cls-1" points="154.68 56.89 154.68 53.03 144.42 53.03 144.42 44.32 154.18 44.32 154.18 40.62 144.42 40.62 144.42 32.65 154.68 32.65 154.68 28.88 139.9 28.88 139.9 56.89 154.68 56.89 154.68 56.89"/>
  <path class="cls-2" d="M180.86,56.89l-7.39-9.76c-.71-.91-1.58-1.99-2.37-2.99,4.57-.5,7.93-3.36,7.93-7.84,0-5.56-3.99-7.6-9.8-7.6-3.15,0-5.48.04-7.51.17v28.02h4.52v-12.12h.21l8.72,12.12h5.69ZM174.3,36.8c0,2.78-2.2,4.65-5.85,4.65-1,0-1.78-.04-2.2-.08v-8.88c.66-.04,1.49-.08,2.37-.08,3.78,0,5.69,1.33,5.69,4.4h0Z"/>
  <path class="cls-4" d="M209.16,56.89v-28.02h-4.4v8.3c0,4.11.13,10.13.29,13.32-1.04-2.03-2.16-4.28-3.4-6.35l-9.26-15.28h-5.94v28.02h4.4v-9.42c0-3.99-.08-9.67-.25-12.41.87,1.87,1.87,3.86,3.11,5.89l9.59,15.94h5.85Z"/>
  <path class="cls-3" d="M239.08,56.89l-10.17-28.02h-5.02l-10.04,28.02h4.57l2.16-6.19h11.33l2.16,6.19h5.02ZM230.69,47.1h-8.97l3.15-8.68c.54-1.49,1-3.03,1.29-4.44h.08c.33,1.54.71,2.86,1.25,4.32l3.2,8.8h0Z"/>
  <polygon class="cls-4" points="258.04 32.69 258.04 28.88 238.12 28.88 238.12 32.69 245.8 32.69 245.8 56.89 250.32 56.89 250.32 32.69 258.04 32.69 258.04 32.69"/>
  <polygon class="cls-4" points="277.5 56.89 277.5 53.03 267.25 53.03 267.25 44.32 277 44.32 277 40.62 267.25 40.62 267.25 32.65 277.5 32.65 277.5 28.88 262.72 28.88 262.72 56.89 277.5 56.89 277.5 56.89"/>
</svg>