<?xml version="1.0" encoding="UTF-8"?>
<svg id="Layer_1" data-name="Layer 1" xmlns="http://www.w3.org/2000/svg" viewBox="0 0 300 100">
  <defs>
    <style>
      .cls-1 {
        fill: #fff;
      }

      .cls-2 {
        fill: #599fc6;
      }

      .cls-3 {
        fill: #0b2545;
      }
    </style>
  </defs>
  <rect class="cls-3" x="96.44" y="24.16" width="2.97" height="39.43"/>
  <path class="cls-3" d="M120.88,39.85c-1.95-2.36-4.71-3.55-8.23-3.55s-6.17,1.18-8.14,3.52v-3.08h-2.83v26.86h2.84v-16.44c0-2.49.75-4.51,2.2-6s3.46-2.24,5.94-2.24,4.51.86,6.01,2.56c1.43,1.62,2.16,3.74,2.16,6.28v15.83h2.78v-15.13c0-3.56-.92-6.46-2.72-8.62Z"/>
  <path class="cls-3" d="M130,28.83c1.02-1.45,2.49-2.16,4.47-2.16.55,0,1.09.05,1.63.16l3.15.61v-2.68l-2.66-.59c-.75-.16-1.52-.25-2.29-.25-2.7,0-4.84,1-6.35,2.93-1.39,1.76-2.1,4.04-2.1,6.77v29.98h2.78v-24.11h8.44v-2.7h-8.44v-2.93c0-2.07.46-3.76,1.36-5.03Z"/>
  <rect class="cls-3" x="140.49" y="36.79" width="2.84" height="26.81"/>
  <path class="cls-3" d="M141.88,27.8c-1.23,0-1.88.65-1.88,1.88s.65,1.93,1.88,1.93,1.96-.67,1.96-1.93-.68-1.88-1.96-1.88Z"/>
  <path class="cls-3" d="M165.29,39.85c-1.95-2.36-4.72-3.55-8.23-3.55s-6.16,1.18-8.14,3.52v-3.08h-2.83v26.86h2.83v-16.44c0-2.49.75-4.51,2.2-6,1.45-1.49,3.46-2.24,5.94-2.24s4.52.86,6.01,2.57c1.43,1.62,2.16,3.74,2.16,6.28v15.83h2.78v-15.13c0-3.56-.92-6.46-2.72-8.62Z"/>
  <path class="cls-3" d="M274.71,39.85c-1.95-2.36-4.72-3.55-8.23-3.55s-6.16,1.18-8.14,3.52v-3.08h-2.83v26.86h2.83v-16.44c0-2.49.75-4.51,2.2-6s3.46-2.24,5.94-2.24,4.52.86,6.01,2.57c1.43,1.62,2.16,3.74,2.16,6.28v15.83h2.78v-15.13c0-3.56-.92-6.46-2.72-8.62Z"/>
  <path class="cls-3" d="M172.14,27.8c-1.23,0-1.88.65-1.88,1.88s.65,1.93,1.88,1.93,1.96-.67,1.96-1.93-.68-1.88-1.96-1.88Z"/>
  <rect class="cls-3" x="170.75" y="36.79" width="2.83" height="26.81"/>
  <path class="cls-3" d="M189.78,49.15l-5.29-1.5c-3.4-.95-5.12-2.41-5.12-4.34,0-2.58,1.6-3.84,4.88-3.84h4.65c2.3,0,4.05.58,5.18,1.75l.15.15,2.49-1.5-.2-.25c-1.52-1.9-3.99-2.86-7.38-2.86h-4.05c-5.68,0-8.56,2.16-8.56,6.41,0,3.38,2.27,5.74,6.73,6.98l5.08,1.41c3.85,1.06,5.8,2.81,5.8,5.18,0,2.78-1.97,4.13-6.03,4.13h-4.31c-2.1,0-3.77-.63-4.96-1.87l-.15-.16-2.49,1.5.19.25c1.57,1.98,4.07,2.99,7.41,2.99h2.66c6.98,0,10.51-2.36,10.51-7.01,0-3.59-2.42-6.09-7.2-7.44Z"/>
  <path class="cls-3" d="M225.07,58.2c-2.62,3.8-6.93,6.08-11.55,6.12-4.55.02-8.82-2.21-11.4-5.96v17.71s-2.88,0-2.88,0v-39.91l2.78-.21v6.46s3.82-6.04,11.5-6.04,13.99,6.4,13.99,13.27v1.41c.36,6.14,5.63,10.82,11.76,10.46,6.14-.36,10.82-5.63,10.46-11.76-.36-6.14-5.63-10.82-11.76-10.46-3.9.23-7.4,2.49-9.21,5.96l-.33.64-.18-.7c-.26-.88-.63-1.73-1.1-2.52l-.09-.15.07-.1c4.4-6.34,13.1-7.91,19.44-3.51,1.3.9,2.44,2.02,3.36,3.3v-5.41h2.95v26.84h-2.96v-5.07c-4.51,6.26-13.24,7.67-19.5,3.16-1.49-1.07-2.75-2.43-3.72-3.99-.25-.41-.91-1.71-.91-1.71-.69-1.53-1.1-3.18-1.2-4.85v-.02s.03-1.12.03-1.18c-.2-6.15-5.35-10.98-11.5-10.78-6.15.2-10.98,5.35-10.78,11.5.2,6.15,5.35,10.98,11.5,10.78,4.02-.13,7.65-2.41,9.52-5.97l.33-.64.18.7c.3,1.17,1.19,2.67,1.19,2.67"/>
  <rect class="cls-2" x="22.56" y="23.92" width="52.16" height="52.16"/>
  <path class="cls-1" d="M51.44,50h0c0-11.29-9.16-20.45-20.45-20.45v5.59c8.2,0,14.85,6.66,14.86,14.86h0c0,11.29,9.14,20.46,20.44,20.46,0,0,0,0,.01,0v-5.6c-8.2,0-14.85-6.66-14.86-14.86Z"/>
  <path class="cls-1" d="M44.81,55.46c-2.24,5.67-7.72,9.4-13.82,9.41v5.6c6.6,0,12.79-3.18,16.63-8.54-1.28-1.99-2.22-4.17-2.81-6.46Z"/>
  <path class="cls-1" d="M52.49,44.54c2.25-5.67,7.72-9.39,13.82-9.4v-5.6c-6.6,0-12.79,3.18-16.63,8.54,1.28,1.99,2.23,4.17,2.81,6.46Z"/>
</svg>