<?xml version="1.0" encoding="UTF-8"?>
<svg id="Layer_1" data-name="Layer 1" xmlns="http://www.w3.org/2000/svg" xmlns:xlink="http://www.w3.org/1999/xlink" viewBox="0 0 300 100">
  <defs>
    <style>
      .cls-1 {
        fill: #f6ee70;
      }

      .cls-2 {
        fill: url(#radial-gradient);
      }

      .cls-3 {
        stroke: #221f1f;
        stroke-linecap: round;
        stroke-linejoin: round;
        stroke-width: .87px;
      }

      .cls-3, .cls-4 {
        fill: #fff;
      }

      .cls-5 {
        fill: #94aebd;
      }

      .cls-6 {
        fill: #8e1f1e;
      }
    </style>
    <radialGradient id="radial-gradient" cx="1232.24" cy="43.83" fx="1232.24" fy="43.83" r="17.44" gradientTransform="translate(1269.57) rotate(-180) scale(1 -1)" gradientUnits="userSpaceOnUse">
      <stop offset="0" stop-color="#b6c542"/>
      <stop offset="1" stop-color="#567636"/>
    </radialGradient>
  </defs>
  <g>
    <path class="cls-4" d="M38.89,73.05v-17.47h4.06v17.47h-4.06Z"/>
    <path class="cls-4" d="M45.12,73.05v-17.47h14.97c2.62,0,3.93,1.13,3.93,3.39v4.1c0,2.26-1.31,3.39-3.93,3.39h-2.3l8.06,6.6h-5.82l-7.04-6.6h-3.86v6.6h-4ZM58.26,58.56h-9.14v4.91h9.14c.63,0,1.07-.07,1.32-.2.34-.2.51-.6.51-1.19v-2.11c0-.59-.17-.99-.51-1.19-.25-.14-.69-.2-1.32-.2Z"/>
    <path class="cls-4" d="M65.13,59.71c0-1.63.3-2.72.91-3.28.61-.56,1.75-.85,3.42-.85h12.87c1.67,0,2.81.28,3.42.85.61.56.91,1.66.91,3.28v9.21c0,1.63-.31,2.72-.91,3.28-.61.56-1.75.85-3.42.85h-12.87c-1.67,0-2.81-.28-3.42-.85-.61-.56-.91-1.66-.91-3.28v-9.21ZM69.19,69.76h13.41v-11.07h-13.41v11.07Z"/>
    <path class="cls-4" d="M88.42,73.05v-17.47h2.78l12.29,10.29c.88.74,1.55,1.38,2,1.9-.11-1.63-.17-2.63-.17-3.01v-9.18h3.66v17.47h-2.78l-12.83-10.8c-.54-.45-1.03-.93-1.46-1.42.11,1.13.17,2.05.17,2.78v9.45h-3.66Z"/>
  </g>
  <g>
    <path class="cls-4" d="M120.45,73.05c-1.58,0-2.65-.29-3.22-.86-.56-.58-.85-1.66-.85-3.27v-3.49l2.91-.61v5.79h9.34v-15.03h2.91v13.34c0,1.6-.29,2.69-.86,3.27-.58.58-1.65.86-3.23.86h-7.01Z"/>
    <path class="cls-4" d="M134.94,73.05l9.55-17.47h3.12l9.72,17.47h-3.22l-2.23-4.3h-11.82l-2.23,4.3h-2.88ZM141.28,66.51h9.41l-4.71-8.94-4.71,8.94Z"/>
    <path class="cls-4" d="M175.74,57.91h-12.12v12.7h12.12v-4.37l2.91.61v2.07c0,1.63-.28,2.72-.85,3.28-.56.56-1.64.85-3.22.85h-9.79c-1.58,0-2.66-.29-3.23-.86-.58-.58-.86-1.66-.86-3.27v-9.21c0-1.6.29-2.69.86-3.27.58-.58,1.65-.86,3.23-.86h9.79c1.58,0,2.65.28,3.22.83.56.56.85,1.64.85,3.26v1.66l-2.91.54v-3.96Z"/>
    <path class="cls-4" d="M180.89,73.05l9.55-17.47h3.11l9.72,17.47h-3.22l-2.23-4.3h-11.82l-2.23,4.3h-2.88ZM187.22,66.51h9.41l-4.71-8.94-4.71,8.94Z"/>
    <path class="cls-4" d="M209.23,58.69c.09.68.14,1.54.14,2.57v11.78h-2.47v-17.47h2.37l8.5,11.38,7.92-11.38h2.71v17.47h-2.71v-11.78l.14-2.57c-.38.81-.73,1.44-1.05,1.9l-6.67,9.72h-.75l-6.94-9.45c-.27-.36-.67-1.08-1.19-2.17Z"/>
    <path class="cls-4" d="M232.02,73.05l9.55-17.47h3.12l9.72,17.47h-3.22l-2.23-4.3h-11.82l-2.23,4.3h-2.88ZM238.35,66.51h9.41l-4.71-8.94-4.71,8.94Z"/>
    <path class="cls-4" d="M258.02,73.05v-17.47h14.06c1.28,0,2.22.27,2.81.8.59.53.88,1.39.88,2.59v3.89c0,1.2-.29,2.06-.88,2.59-.59.53-1.52.8-2.8.8h-2.57l7.99,6.81h-4.33l-7.1-6.81h-5.13v6.81h-2.91ZM270.95,57.84h-10.02v6.13h10.02c.7,0,1.19-.12,1.47-.37.28-.25.42-.72.42-1.42v-2.54c0-.68-.14-1.15-.42-1.41-.28-.26-.77-.39-1.47-.39Z"/>
  </g>
  <path class="cls-4" d="M67.01,37.59h0s0-.02,0-.02c-.03-.07-.07-.14-.12-.19-.02-.02-.04-.04-.05-.05h-.01s-.02-.02-.02-.02c-.04-.03-.08-.05-.12-.07-.07-.04-.16-.07-.26-.11-.21-.08-.5-.18-.86-.29-.74-.23-1.8-.51-3.13-.81-.32-.07-.65-.14-1-.22.02-.04.03-.08.03-.12,0-.02,0-.03,0-.05,0-.22-.15-.41-.37-.46-3.61-.82-6.4-1.38-11.13-2.74l.36-.59c.04-.07.07-.16.07-.24,0-.06-.01-.12-.03-.17-.01-.03-.03-.06-.05-.09.65-.98,1.96-2.67,3.8-3.76l.41-.25-.39-.28s-.96-.68-2.56-1.22v-.02s-.39-.11-.39-.11c-.92-.25-2.28-.51-3.59-.57h-.02s-.18,0-.18,0h-.05s0,0,0,0h-.07c-.13,0-.25,0-.38,0-1.06,0-2.24.09-3.53.32l-.15.03c-2.28.29-3.87,1.06-4.15,1.17h-.03s0,0,0,0l-.13.06-.12.05h0s0,0,0,0c-1.58.69-2.86,1.62-3.9,2.6l-.28.27.13.09s-.04,0-.06,0h-.14s-.1.1-.1.1c-2.01,2.08-2.96,4.25-3.19,4.81-.48,1.15-.42,2.16-.48,2.98-.07.83-.19,1.44-.97,2.09-.04.02-.12.07-.2.13-.06.04-.13.1-.19.16-.06.07-.14.16-.14.34,0,.11.06.24.13.3.08.07.16.11.24.14.08.03.16.04.24.04.39,0,.79-.21,1.17-.47.38-.27.72-.58.89-.94.15-.32.58-1.43,1.06-2.52.24-.54.49-1.08.72-1.49.21-.41.46-.71.48-.7.32-.18.69-.36,1.01-.45.03.06.07.11.11.15l.7.6c-.28.32-.47.57-.53.62-.08.09-.43.24-.71.31-.15.04-.28.07-.38.09-.05,0-.09.02-.12.02-.01,0-.02,0-.03,0,0,0,0,0,0,0,0,0,0,0,0,0,0,0,0,0,0,0h0c-.14.03-.27.12-.34.26-.03.06-.05.13-.05.2,0,.08.02.16.06.23,0,0,.48.88.61,1.07h0s.01.03.01.03c.07.11.26.19.35.19h0s.05,0,.05,0c.08,0,.15-.02.24-.03-.2.29-.4.7-.63,1.39-.44.42-3.24,3.19-5.76,7.5-2.59,4.45-4.49,10.69-4.5,13.11,0,.14,0,.28.02.4.01.1.06.23.17.31.1.08.21.09.29.09.15,0,.26-.04.37-.07.09-.03.17-.04.21-.05,0,.02,0,.06,0,.11,0,.13-.03.35-.11.66-.08.23-1.86,5.53-2.45,7.76-.17.65-.25,1.35-.25,2.04,0,.9.14,1.77.42,2.44.14.34.32.63.55.85.23.22.53.36.86.36h.05c.86-.04,1.46-.63,1.88-1.39.42-.76.71-1.72.94-2.69.42-1.75,1.73-6.83,1.95-7.69l.46-.27c.03.15.08.32.16.49.18.41.63.82,1.33.81.47,0,1.05-.17,1.78-.55,3.03-1.62,8.79-5.99,13.58-10.72,3.27-3.23,4.2-4.95,4.46-5.79.03.02.07.05.1.07.09.05.16.11.34.12.07,0,.19-.03.27-.12.08-.09.09-.19.09-.26,0-.11-.03-.19-.07-.29-.03-.08-.09-.21-.15-.36.03,0,.06.01.1.02.1,0,.24-.07.29-.16.05-.09.05-.15.05-.2,0-.14-.04-.25-.11-.45-.05-.14-.12-.32-.22-.55.03,0,.07.01.1.01.06,0,.16-.01.25-.09.09-.08.12-.2.12-.28,0-.16-.06-.25-.13-.38-.07-.12-.17-.27-.32-.46.02-.02.04-.04.05-.06.07-.09.07-.17.07-.22,0-.13-.04-.2-.07-.29-.05-.13-.12-.26-.17-.38-.03-.06-.05-.11-.06-.14,0,0,0-.02,0-.02h0s-.08-.48-.08-.8c0-.07,0-.14.01-.18.05-.03.08-.06.12-.1.34-.35.97-1.26,1.28-1.87.82-.11,7.66-1.04,10.31-1.04h.02c1.22,0,2.04-.03,2.6-.08.54-.06.85-.09,1.13-.32.1-.09.16-.2.19-.33v-.02s0-.08,0-.08c0-.06,0-.11-.02-.16Z"/>
  <path class="cls-6" d="M29.93,39.96c1.76-1.41.67-3.06,1.57-5.21.23-.54,1.15-2.68,3.13-4.71.37.02.97.06,1.21.17.39.19-.39-.35-.76-.61,1.01-.96,2.27-1.86,3.81-2.54l.91,1.57-.63-1.69c.3-.12,1.84-.87,4.09-1.15.07.63.23,2.14.26,1.91.03-.19-.06-1.38-.11-1.94,1.43-.26,2.71-.34,3.85-.32v1.23l.32-1.22c1.28.05,2.62.31,3.52.56-.31.52-.46,1.43-.31.95.16-.5.31-.72.52-.89,1.65.53,2.63,1.23,2.63,1.23-2.82,1.68-4.39,4.66-4.39,4.66l-13.63,1.96c-.51-.24-1.29.12-1.92.47-.63.35-2.11,4.27-2.39,4.86-.27.59-1.45,1.37-1.92,1.21-.47-.16.24-.51.24-.51Z"/>
  <path class="cls-2" d="M23.05,69.26c.6-2.25,2.45-7.75,2.45-7.75.54-2.08-.86-.66-.93-1.19-.24-1.91,1.72-8.68,4.44-13.31,2.71-4.64,5.76-7.48,5.76-7.48.56-1.72.9-1.63,1.36-2.12.46-.49-.46-.11-.46-.11,0,0,.8-1.4,1.52-1.89.72-.49.29-.72.29-.72.4-.63,4.35-2.15,4.67-2.35.31-.2,5.53.29,5.53.29l3.24,1c.3.43.51,1.11.51,1.11l.24.02c4.34.32,8.06.97,10.7,1.57,1.32.3,2.38.58,3.11.8.36.11.65.21.85.28.1.04.18.07.24.1.03.01.05.03.08.05.02.02.06.03.09.12,0,.02,0,.05,0,.07,0,.08-.04.15-.09.19-.17.14-.42.19-.96.24-.54.05-1.35.08-2.57.08-2.72,0-9.72.95-10.4,1.05l-.11.02-.02-.03c-.24.59-1.2,1.98-1.41,2.05-.23.09-.03,1.26-.03,1.26,0,.14.52.94.23.83-.29-.11-.46-.2,0,.4.93,1.23-.03.57-.03.57,0,0-.6-.69-.14.31.85,1.86.2,1,.2,1-.79-.73-.16.66-.03.97.26.64-.67-.23-.67-.23,0,0,.3,1.45-4.47,6.16-4.77,4.7-10.53,9.07-13.51,10.66-2.98,1.59-2.85-.99-2.85-.99l-.99.6s-1.52,5.89-1.99,7.81c-.46,1.92-1.13,3.78-2.52,3.84-1.39.07-1.92-3.05-1.32-5.3Z"/>
  <path class="cls-1" d="M50.74,37.75c.34-.18.34-.31.16-.42,1.83.02,8.25.07,8.4.07.17,0,.37-.06.37-.06-1.63-.27-10.55-.35-10.55-.35h.04c-.06,0-.1,0-.1,0,0,0,1.74-.64,2.24-1.13.3-.3.29-.64.23-.87,8.36.62,14.35,2.51,14.41,2.7.06.19-.53.36-3.32.36s-9.41.92-10.08,1.02c-.21-.33-.61-.67-1.38-.66-1.47.03-1.58-.06-.42-.66Z"/>
  <path class="cls-3" d="M35.75,35.94c.17-.16.43-.53.89-1.01l-1.06-.92c.89-.9,2.37-2.07,4.73-2.97.42-.11,1.64-1.04,3.54-1.05.63,0,1.32.11,2.02.34,1.5.5,2.83.91,4.04,1.26l-.67,1.12c5.11,1.49,7.99,2.07,11.74,2.92,0,0-6.96.15-7.85.22-.69.06-1.12-.64-1.69-.79-.07.07-.16.14-.29.2-.59.27-1.53.45-1.9-.36-.36-.81-1.22-1.17-1.76-.86-.54.32-.99,1.26-.5,1.99.5.72.86,1.26.63,1.67-.23.41-1.13,1.22-1.67,1.31-.54.09-2.03-2.93-4.56-2.89-2.53.05-6.45,1.53-6.54,1.4-.09-.14-.59-1.04-.59-1.04,0,0,1.07-.16,1.49-.54Z"/>
  <path class="cls-5" d="M48.1,32.56c.13.04.26.08.38.12l.52-.89s-3.23-.99-4-1.21c-.77-.22-2.75-.07-3.78.53-1.03.59-1.94.84-2.51,1.14-.57.31-1.87,1.23-1.87,1.23l.55.75c.75-.63,1.83-1.33,3.42-1.95,1.06-.41,2.17-1.38,4.29-.68,1.08.36,2.08.67,3,.95h0Z"/>
  <path class="cls-5" d="M52.55,34.35c1.6.4,3.01.7,4.37.98-1.71.04-3.4.09-3.84.13-.01,0-.03,0-.04,0-.14,0-.29-.07-.5-.21-.09-.11-.24-.32-.32-.52-.09-.22.19-.34.33-.38Z"/>
  <path class="cls-5" d="M36.06,36.36h0c.3-.28.58-.73,1.2-1.32.06.29.21.62.66.78.68.23,2.16-.46,3.73-.27,1.04.13,1.87.66,3.02.55.76-.08.93-.65.78-1.27-.15-.63.68-.86,1.36-1.45.44-.38.84-.31.91-.15.13.31-.35.41-.49.49-.54.33-.93.96-.94,1.7,0,.32.09.66.3.96.4.56.65,1.02.62,1.13,0,.03,0,.03-.01.04-.05.1-.32.41-.6.64-.22.19-.49.35-.64.41-.07-.05-.17-.15-.29-.28-.24-.26-.56-.63-.95-1.01-.77-.75-1.85-1.57-3.28-1.58-.02,0-.05,0-.07,0-1.25.02-2.74.36-4.01.7-.98.27-1.87.54-2.28.65-.04-.06-.07-.13-.11-.2.35-.1.76-.23,1.09-.51Z"/>
  <path class="cls-5" d="M49.55,33.55c.46.13.91.26,1.34.37.07.04.22.13.34.31.13.19.04.52-.29.67-.22.1-.51.19-.74.19-.28-.02-.4-.06-.53-.31-.21-.45-.53-.8-.91-1.01-.17-.15.5-.29.79-.22Z"/>
  <path d="M48.77,35.15c0,.34-.3.61-.66.61s-.66-.27-.66-.61.3-.61.66-.61.66.27.66.61Z"/>
  <path class="cls-4" d="M48.07,34.84c0,.09-.07.17-.17.17s-.17-.07-.17-.17.07-.17.17-.17.17.07.17.17Z"/>
</svg>