<?xml version="1.0" encoding="UTF-8"?>
<svg id="Layer_1" data-name="Layer 1" xmlns="http://www.w3.org/2000/svg" viewBox="0 0 300 100">
  <defs>
    <style>
      .cls-1 {
        fill: #b2c7df;
      }

      .cls-2 {
        fill: #8ab0d6;
      }

      .cls-2, .cls-3 {
        opacity: .7;
      }

      .cls-4 {
        fill: #1b556b;
        opacity: .5;
      }

      .cls-5 {
        fill: #fff;
      }

      .cls-3 {
        fill: #5c86a3;
      }
    </style>
  </defs>
  <g>
    <path class="cls-1" d="M143.41,57.5c0,1.55,0,2.92-.12,4.94-.42,6.9-4.59,11.6-13.28,11.6-7.62,0-12.14-4.71-12.31-12.39l-.06-2.44h5.12s.12,2.44.12,2.44c.3,5.65,2.97,8.33,7.85,8.34,4.76,0,7.14-3.03,7.5-7.85.06-1.19.06-2.68.06-4.82v-25.18s5.13,0,5.13,0v25.35Z"/>
    <path class="cls-1" d="M179.95,62.04c0,6.78-5.24,10.53-11.19,11.01-1.67.18-2.8.18-4.35.18h-11.9s.02-41.07.02-41.07h10.77c1.72,0,2.8,0,4.82.13,6.31.54,10.29,4.05,10.29,9.82,0,5.06-2.92,8.39-7.62,9.4,6.07,1.13,9.16,4.88,9.16,10.54ZM177.51,62.22c0-4.82-2.44-8.99-9.4-9.35-1.37-.12-2.2-.12-3.15-.12h-10.18s0,18.51,0,18.51h10.54c.95,0,1.96-.05,2.74-.11,4.76-.36,9.46-2.97,9.47-8.92ZM154.78,50.78h9.4c.95,0,1.96-.05,3.27-.11,4.29-.36,8.51-2.5,8.52-8.27,0-5.89-4.34-7.98-8.8-8.22-1.31-.06-2.32-.06-3.75-.06h-8.63s0,16.66,0,16.66Z"/>
    <path class="cls-1" d="M211.44,58.18h-25c.35,10.17,5.94,13.98,11.42,13.98,4.76,0,9.29-2.73,10.84-8.69h2.32c-1.73,7.08-7.2,10.59-13.28,10.59-7.5,0-13.69-5.6-13.68-16.61,0-9.94,6.26-16.42,14.23-16.42,8.87,0,13.21,7.5,13.21,15.66,0,.3,0,.71-.06,1.49ZM186.44,56.21h22.74c-.35-9.69-5.71-13.27-11.01-13.27-5.48,0-11.37,4.28-11.73,13.27Z"/>
    <path class="cls-1" d="M229.9,41.23v1.84c-5.66-.42-9.65,3.27-9.65,12.79v17.38s-2.27,0-2.27,0v-31.37s2.27,0,2.27,0v6.37s1.67-3.81,1.67-3.81c1.55-2.14,3.81-3.39,6.37-3.39.6,0,1.13.06,1.61.18Z"/>
    <path class="cls-1" d="M258.93,58.2h-25c.35,10.17,5.95,13.98,11.42,13.98,4.76,0,9.29-2.73,10.84-8.68h2.32c-1.73,7.08-7.21,10.59-13.28,10.59-7.5,0-13.69-5.6-13.68-16.61,0-9.94,6.26-16.42,14.23-16.42,8.87,0,13.21,7.5,13.21,15.66,0,.3,0,.71-.06,1.49ZM233.94,56.23h22.74c-.35-9.69-5.71-13.27-11.01-13.27-5.48,0-11.37,4.28-11.73,13.27Z"/>
    <path class="cls-1" d="M275,71.72v1.79c-.95.12-2.2.18-3.33.18-3.1,0-4.7-1.37-4.94-4.41-.12-1.31-.12-2.38-.12-4.17v-21.19s-3.86,0-3.86,0v-1.79h3.87s0-6.66,0-6.66h2.26s0,6.67,0,6.67h6.07s0,1.79,0,1.79h-6.07s0,21.31,0,21.31c0,1.55,0,2.32.06,3.15.24,3.09,1.6,3.99,6.07,3.33Z"/>
  </g>
  <g>
    <path class="cls-5" d="M25,53.98s45.28,19.27,88.8-34.66c0,0-39.51,112.17-88.8,34.66Z"/>
    <path class="cls-5" d="M45.64,45.71s34.79,14.8,68.23-26.64c0,0-30.36,86.19-68.23,26.64Z"/>
    <path class="cls-5" d="M63.16,38.61s25.97,11.05,50.94-19.89c0,0-22.67,64.35-50.94,19.89Z"/>
  </g>
  <path class="cls-4" d="M25,53.98s45.28,19.27,88.8-34.66c0,0-39.51,112.17-88.8,34.66Z"/>
  <path class="cls-3" d="M45.64,45.71s34.79,14.8,68.23-26.64c0,0-30.36,86.19-68.23,26.64Z"/>
  <path class="cls-2" d="M63.16,38.61s25.97,11.05,50.94-19.89c0,0-22.67,64.35-50.94,19.89Z"/>
</svg>