<?xml version="1.0" encoding="UTF-8"?>
<svg id="Layer_1" data-name="Layer 1" xmlns="http://www.w3.org/2000/svg" viewBox="0 0 300 100">
  <defs>
    <style>
      .cls-1 {
        fill: #15355e;
      }

      .cls-2 {
        fill: #8ab0d6;
      }

      .cls-2, .cls-3 {
        opacity: .7;
      }

      .cls-4 {
        fill: #1b556b;
        opacity: .5;
      }

      .cls-5 {
        fill: #fff;
      }

      .cls-3 {
        fill: #5c86a3;
      }
    </style>
  </defs>
  <g>
    <path class="cls-1" d="M143.28,57.65c0,1.58,0,2.97-.12,5.04-.43,7.04-4.68,11.84-13.54,11.83-7.77,0-12.38-4.8-12.56-12.63l-.06-2.49h5.22s.12,2.49.12,2.49c.3,5.77,3.03,8.5,8.01,8.5,4.86,0,7.29-3.09,7.65-8.01.06-1.21.06-2.73.06-4.92v-25.68s5.23,0,5.23,0v25.86Z"/>
    <path class="cls-1" d="M180.55,62.28c0,6.92-5.34,10.74-11.42,11.23-1.7.18-2.85.18-4.43.18h-12.14s.02-41.89.02-41.89h10.99c1.76,0,2.85,0,4.92.13,6.43.55,10.5,4.13,10.5,10.02,0,5.16-2.98,8.56-7.77,9.59,6.19,1.16,9.35,4.98,9.34,10.75ZM178.06,62.46c0-4.92-2.48-9.17-9.59-9.54-1.4-.12-2.25-.12-3.22-.12h-10.38s0,18.88,0,18.88h10.75c.97,0,2-.06,2.79-.11,4.86-.36,9.65-3.03,9.66-9.1ZM154.88,50.79h9.59c.97,0,2-.05,3.34-.12,4.37-.36,8.69-2.55,8.69-8.44,0-6.01-4.43-8.14-8.98-8.38-1.34-.06-2.37-.06-3.83-.06h-8.8s0,16.99,0,16.99Z"/>
    <path class="cls-1" d="M212.67,58.35h-25.5c.36,10.37,6.06,14.26,11.65,14.26,4.86,0,9.47-2.79,11.05-8.86h2.37c-1.76,7.22-7.35,10.8-13.54,10.8-7.65,0-13.96-5.71-13.96-16.94,0-10.14,6.38-16.75,14.52-16.75,9.05,0,13.47,7.65,13.47,15.97,0,.3,0,.73-.06,1.52ZM187.17,56.33h23.19c-.36-9.89-5.82-13.53-11.23-13.53-5.58,0-11.6,4.37-11.96,13.53Z"/>
    <path class="cls-1" d="M231.5,41.05v1.88c-5.77-.43-9.84,3.34-9.84,13.05v17.73s-2.31,0-2.31,0v-31.99s2.32,0,2.32,0v6.5s1.7-3.88,1.7-3.88c1.58-2.18,3.89-3.46,6.5-3.46.61,0,1.15.06,1.64.18Z"/>
    <path class="cls-1" d="M261.11,58.36h-25.5c.36,10.37,6.07,14.26,11.65,14.26,4.86,0,9.47-2.79,11.05-8.86h2.37c-1.76,7.22-7.35,10.8-13.54,10.8-7.65,0-13.96-5.71-13.96-16.94,0-10.14,6.38-16.75,14.52-16.75,9.04,0,13.47,7.65,13.47,15.97,0,.3,0,.73-.06,1.52ZM235.62,56.35h23.19c-.36-9.89-5.82-13.53-11.23-13.53-5.58,0-11.6,4.37-11.96,13.53Z"/>
    <path class="cls-1" d="M277.5,72.15v1.82c-.97.12-2.25.18-3.4.18-3.16,0-4.8-1.4-5.04-4.49-.12-1.33-.12-2.43-.12-4.25v-21.61s-3.94,0-3.94,0v-1.82h3.95s0-6.8,0-6.8h2.31s0,6.8,0,6.8h6.19s0,1.82,0,1.82h-6.19s0,21.73,0,21.73c0,1.58,0,2.37.06,3.22.24,3.16,1.64,4.07,6.19,3.4Z"/>
  </g>
  <g>
    <path class="cls-5" d="M22.5,54.06s46.18,19.65,90.57-35.36c0,0-40.3,114.41-90.57,35.36Z"/>
    <path class="cls-5" d="M43.55,45.62s35.49,15.1,69.6-27.17c0,0-30.97,87.91-69.6,27.17Z"/>
    <path class="cls-5" d="M61.42,38.39s26.49,11.27,51.96-20.28c0,0-23.12,65.63-51.96,20.28Z"/>
  </g>
  <g>
    <path class="cls-4" d="M22.5,54.06s46.18,19.65,90.57-35.36c0,0-40.3,114.41-90.57,35.36Z"/>
    <path class="cls-3" d="M43.55,45.62s35.49,15.1,69.6-27.17c0,0-30.97,87.91-69.6,27.17Z"/>
    <path class="cls-2" d="M61.42,38.39s26.49,11.27,51.96-20.28c0,0-23.12,65.63-51.96,20.28Z"/>
  </g>
</svg>