<?xml version="1.0" encoding="UTF-8"?><svg id="Layer_1" xmlns="http://www.w3.org/2000/svg" viewBox="0 0 1024 220"><defs><style>.cls-1{fill:#dce1de;}.cls-2{fill:#1f2421;}.cls-3{fill:#49a078;}</style></defs><g><path class="cls-2" d="m242.14,91.67h19.54v11.44c2.11-4.51,4.93-7.93,8.43-10.27s7.35-3.51,11.52-3.51c2.95,0,6.04.78,9.27,2.34l-7.1,19.62c-2.67-1.34-4.87-2-6.6-2-3.51,0-6.47,2.17-8.89,6.51s-3.63,12.86-3.63,25.55l.08,4.43v36.74h-22.63v-90.85Z"/><path class="cls-2" d="m336.3,89.33c8.57,0,16.63,2.14,24.17,6.43,7.54,4.29,13.43,10.1,17.66,17.45,4.23,7.35,6.35,15.28,6.35,23.8s-2.13,16.59-6.39,24.05c-4.26,7.46-10.06,13.29-17.41,17.49s-15.45,6.3-24.3,6.3c-13.03,0-24.15-4.63-33.36-13.9-9.21-9.27-13.82-20.53-13.82-33.78,0-14.2,5.2-26.02,15.62-35.49,9.13-8.24,19.62-12.36,31.48-12.36Zm.38,21.46c-7.08,0-12.98,2.46-17.69,7.39-4.71,4.93-7.07,11.23-7.07,18.91s2.33,14.31,6.98,19.21c4.66,4.9,10.55,7.35,17.69,7.35s13.08-2.48,17.82-7.43c4.74-4.95,7.11-11.33,7.11-19.12s-2.33-14.13-6.98-19c-4.66-4.87-10.61-7.31-17.86-7.31Z"/><polygon class="cls-2" points="544.64 91.67 518.6 148.68 495 91.67 474.69 91.67 471.71 91.67 448.67 91.67 430.8 116.43 412.84 91.67 386.37 91.67 417.6 134.73 383.12 182.53 409.15 182.53 430.65 152.73 452.26 182.53 478.73 182.53 443.85 134.43 472.79 94.31 506.24 175.75 487.56 215.76 511.11 215.76 568.01 91.67 544.64 91.67"/><path class="cls-2" d="m569.93,56.6h22.8v125.93h-22.8V56.6Z"/><path class="cls-2" d="m613.78,54.26c4,0,7.42,1.45,10.28,4.34,2.86,2.9,4.29,6.4,4.29,10.52s-1.42,7.53-4.25,10.4c-2.83,2.87-6.22,4.3-10.16,4.3s-7.51-1.46-10.37-4.38c-2.86-2.92-4.29-6.47-4.29-10.65s1.41-7.43,4.25-10.27,6.24-4.26,10.24-4.26Zm-11.4,37.41h22.8v90.85h-22.8v-90.85Z"/><path class="cls-2" d="m726.27,110.04l-18.98,10.44c-3.57-3.73-7.09-6.32-10.58-7.77-3.48-1.45-7.57-2.17-12.25-2.17-8.53,0-15.43,2.54-20.69,7.63-5.27,5.09-7.9,11.6-7.9,19.55s2.53,14.04,7.61,18.93c5.07,4.89,11.73,7.34,19.98,7.34,10.2,0,18.14-3.48,23.83-10.44l17.98,12.31c-9.74,12.67-23.49,19.01-41.25,19.01-15.98,0-28.49-4.73-37.54-14.2-9.05-9.46-13.57-20.54-13.57-33.24,0-8.8,2.2-16.9,6.6-24.3,4.4-7.4,10.53-13.22,18.41-17.45,7.88-4.23,16.69-6.35,26.43-6.35,9.02,0,17.12,1.8,24.3,5.39s13.05,8.7,17.62,15.32Z"/><path class="cls-2" d="m747.16,54.26c4,0,7.42,1.45,10.28,4.34,2.86,2.9,4.29,6.4,4.29,10.52s-1.42,7.53-4.25,10.4c-2.83,2.87-6.22,4.3-10.16,4.3s-7.51-1.46-10.37-4.38c-2.86-2.92-4.29-6.47-4.29-10.65s1.41-7.43,4.25-10.27,6.24-4.26,10.24-4.26Zm-11.4,37.41h22.8v90.85h-22.8v-90.85Z"/><path class="cls-2" d="m813.39,89.33c8.57,0,16.63,2.14,24.17,6.43,7.54,4.29,13.43,10.1,17.66,17.45,4.23,7.35,6.35,15.28,6.35,23.8s-2.13,16.59-6.39,24.05c-4.26,7.46-10.06,13.29-17.41,17.49s-15.45,6.3-24.3,6.3c-13.03,0-24.15-4.63-33.36-13.9-9.21-9.27-13.82-20.53-13.82-33.78,0-14.2,5.2-26.02,15.62-35.49,9.13-8.24,19.62-12.36,31.48-12.36Zm.38,21.46c-7.08,0-12.98,2.46-17.69,7.39-4.71,4.93-7.07,11.23-7.07,18.91s2.33,14.31,6.98,19.21c4.66,4.9,10.55,7.35,17.69,7.35s13.08-2.48,17.82-7.43c4.74-4.95,7.11-11.33,7.11-19.12s-2.33-14.13-6.98-19c-4.66-4.87-10.61-7.31-17.86-7.31Z"/><path class="cls-2" d="m871.56,91.67h23.05v43.76c0,8.52.59,14.43,1.76,17.74,1.17,3.31,3.06,5.89,5.65,7.72,2.59,1.84,5.79,2.76,9.58,2.76s7.02-.9,9.67-2.71c2.65-1.81,4.62-4.47,5.9-7.97.95-2.62,1.42-8.21,1.42-16.78v-44.51h22.8v38.5c0,15.87-1.25,26.72-3.76,32.57-3.06,7.13-7.57,12.6-13.53,16.41-5.96,3.81-13.53,5.72-22.71,5.72-9.97,0-18.02-2.23-24.17-6.68-6.15-4.45-10.48-10.66-12.99-18.62-1.78-5.51-2.67-15.53-2.67-30.06v-37.83Z"/><path class="cls-2" d="m1021.33,104.37l-14.11,14.11c-5.73-5.68-10.94-8.52-15.62-8.52-2.56,0-4.57.54-6.01,1.63-1.45,1.09-2.17,2.44-2.17,4.05,0,1.23.46,2.35,1.38,3.38.92,1.03,3.19,2.44,6.81,4.22l8.35,4.18c8.8,4.34,14.84,8.77,18.12,13.28,3.28,4.51,4.93,9.8,4.93,15.87,0,8.07-2.96,14.81-8.89,20.21-5.93,5.4-13.88,8.1-23.84,8.1-13.25,0-23.83-5.18-31.73-15.53l14.03-15.28c2.67,3.12,5.8,5.64,9.39,7.56s6.78,2.88,9.56,2.88c3.01,0,5.43-.72,7.26-2.17,1.84-1.45,2.76-3.12,2.76-5.01,0-3.51-3.31-6.93-9.94-10.27l-7.68-3.84c-14.7-7.4-22.05-16.67-22.05-27.81,0-7.18,2.77-13.32,8.31-18.41,5.54-5.09,12.62-7.64,21.25-7.64,5.9,0,11.45,1.29,16.66,3.88,5.2,2.59,9.62,6.3,13.24,11.15Z"/><path class="cls-2" d="m194.82,114.51l42.89-54.82h-28.08l-33.35,42.35v-42.35h-4.76c-1.47,4.98-3.43,9.62-5.87,13.82l-2.45,4.23-1.83,3.17-1.1-3.49-1.47-4.67s-.02-.05-.04-.12c-1.6.24-3.67.58-6.11,1.01v39.85c3.84-2.95,6.01-5.13,6.06-5.18l3.26-3.34,2.44-2.49.32,3.47.43,4.64c1.25,13.63-3.07,26.18-12.5,36.46v35.48h23.63v-54.58l37.87,54.58h27.73l-47.07-68.01Z"/></g><path class="cls-2" d="m173.03,13.12c-3.07-1.56-5.9-1.88-8.39-.94-2.73,1.03-4.35,3.32-5.24,5.1-1.92.37-3.97.72-6.11,1.06-.86-1.8-2.73-3.89-6.81-4.35-4.16-.46-7.57,1.85-9.48,6.4-13.06,1.31-25.06,1.82-29.76,1.98-.66-5.87-4.32-14.52-15.1-15.96-5-.67-9.96,1.42-12.33,2.63-5.34-5.44-14.37-7.18-23.81-6.15-14.02,1.17-24.35,8.94-23.56,23.84-11.9,5.7-18.11,14.86-18.47,27.21-.3,10.47,3.45,21.51,6.75,31.24,2.26,6.65,4.42,13.01,4.39,17.12-2.84-1.12-7.3-2.49-10.51-1.58-1.49.42-2.64,1.3-3.31,2.55-2.61,4.83,4.35,10.49,8.26,13.16-1.02,2.35-2.28,5.23-2.55,5.74-.28.44-1.27,1.91-2.42,3.6-2.26,3.34-5.36,7.92-7.21,10.84-.27.43-.55.86-.83,1.29-2.74,4.25-6.16,9.53-2.01,13.49,3.79,3.61,9.41,4.21,24.83,2.58,3.61,2.22,10.43,5.74,13.63,7.38-.06.18-.12.36-.18.53-2.05,6.38-.19,9.2,1.73,10.44,1.83,1.18,3.78,1.67,5.84,1.67,4.47,0,9.41-2.29,14.55-4.67l.76-.35c3.44.76,6.44,1.34,9.61,1.71,22.65,2.61,55.37-4.31,74.06-22.59,10.56-10.32,15.46-23.25,14.16-37.38l-.43-4.64-3.26,3.34c-.11.11-10.92,11.05-27.6,17.41-3.64-1.07-6.34-.38-7.97.6-2.02-.72-4.21-.53-6.42.57-.65.32-1.23.69-1.7,1.03-.88-.49-1.85-.74-2.88-.76-2.19-.03-4.2,1.01-5.57,1.96-1.07-.91-2.18-1.27-3.05-1.4-1.86-.29-3.62.3-4.89.95-.9-1.12-1.9-1.92-2.99-2.38.26-5.27,1.42-12.34,4.23-21.76l.03-.08c1.64-5.49,4.05-13.59.78-23.61,7.46-1.63,18.75-3.92,29.6-6.01l3.39,4.87,3.88,5.57,1-6.72.81-5.45c8.37-1.56,15.62-2.84,19.39-3.36.27.88.44,1.41.45,1.43l1.47,4.67,2.45-4.23c2.85-4.92,5.05-10.46,6.53-16.45.24-.77,2.9-9.57,4.68-18.99,2.69-14.25,1.91-21.92-2.45-24.15Z"/><path class="cls-1" d="m160.98,59.74c.69,2.25,1.5,4.92,1.91,6.23,1.11-2.43,2.07-5,2.87-7.68l-4.78,1.44Z"/><g><path class="cls-3" d="m171.08,16.96c-1.95-.99-3.6-1.24-4.92-.75-1.8.68-2.81,2.65-3.25,3.76l-.43,1.09-1.15.23c-2.82.56-5.91,1.09-9.19,1.58l-2.09.31-.35-2.08c-.18-1.06-.76-2.51-3.68-2.83-3.06-.34-4.63,2.42-5.41,4.8l-.44,1.32-1.39.14c-17.42,1.81-33.36,2.2-33.52,2.2l-2.25.05.04-2.25c0-.5.03-12.33-11.47-13.86-2.59-.35-5.94.36-9.14,1.88,1.86,3.37,2.7,7.66,2.1,12.99-1.95-17.37-14.24-20.12-29.41-18.25-11.92,1.5-19.58,7.12-20.55,19.74-.29,3.55-.03,7.2.6,10.72-.97-2.07-1.66-4.26-2.12-6.51-9.64,5.02-14.47,12.5-14.77,22.82-.28,9.7,3.34,20.34,6.53,29.73,3.27,9.61,5.85,17.21,4.02,22.32l-.87,2.43-2.24-1.29c-1.1-.61-7.21-3.19-9.96-2.38-.51.15-.62.36-.67.45-.6,1.1,3.12,5.24,8.31,8.49l1.57.98-.73,1.7c-2.71,6.26-3.29,7.52-3.55,7.94-.29.47-1.23,1.85-2.53,3.77-2.25,3.32-5.32,7.86-7.14,10.73-.28.44-.56.88-.85,1.32-2.98,4.61-4.01,6.74-2.65,8.03,2.45,2.34,7.53,2.63,16.19,1.92-.63-.59-1.18-1.29-1.79-1.89-2.04-2.02-4.03-4.23-5.62-6.61l.3-.31c1.25.71,2.48,1.42,3.72,2.1,1.06.6,2.6,1.45,3.68,2.07.61.34,5.16,3.11,6.43,3.98l.64.41c3.09,1.98,10.13,5.64,13.61,7.42,1.16-3.65,11.57-18.8,10.24-12.26-.93,4.61-6.05,13.14-6.44,14.18l-.76,1.85c-.3.73-.56,1.42-.77,2.08-.92,2.87-.81,4.77-.03,5.51,2.5,2.35,9.85-.33,16.24-3.3l2.09-.96.71.16c3.61.81,6.68,1.42,9.88,1.79,21.64,2.49,52.82-4.06,70.56-21.39,8.6-8.4,12.98-18.27,13.08-29.4-4.72,4.02-13.98,10.91-26.38,15.5l-.73.27-.73-.26c-3.6-1.26-4.75-.46-5.4.21s-1.13,1.55-1.13,1.55l-1.59-1.11c-2.67-1.57-5.58,1.37-5.7,1.49l-1.57,1.61-1.55-1.63c-.44-.47-.89-.68-1.45-.69-.02,0-.03,0-.05,0-1.62,0-3.62,1.59-4.2,2.16l-1.9,1.85-1.43-2.24c-.64-1.01-1.23-1.21-1.62-1.27-1.31-.21-3,.89-3.48,1.29l-1.99,1.64-1.27-2.25c-.13-.24-.26-.45-.4-.66.65,6.96,3.18,8.85,3.23,8.88-.02-.01.09.03.21.08,1.46-.63,3.24-.55,4.89.34.2.1.41.22.63.36,2.31-2.34,5.51-3.19,8.31-1.47.15-.16.31-.31.48-.47,1.94-1.96,4.95-3.23,7.56-2.13,1.92-2.21,4.84-3.75,7.73-2.94.37-.41.82-.74,1.3-1.02,1.88-1.04,4.08-1.03,6.13-.69l-.04.43c-2.2.03-4.3.25-5.94,1.93-.5.51-.65,1.24-.66,1.28l-.73-.22c-2.55-.56-5.04,1.5-6.2,3.74l-.57,1.21c-.82-.39-2.08-1.23-2.98-1.08-1.84.26-3.31,2.1-4.17,3.69,0,0-.79,1.86-.79,1.86l-2.23-1.46c-.48-.31-.93-.59-1.31-.61-1.43-.22-2.83.98-3.85,1.94,0,0-2.01,1.57-2.01,1.57-2.38-2.86-4.17-4.18-7.98-1.04,0,0-.38-.21-.38-.21,0-.01,0-.02.01-.03-2.08-1.54-9.95-11.32-.61-42.65l.02-.08c1.58-5.31,3.72-12.47.71-21.36-15.04,3.77-28.06,8.54-40.38,10.28-12.76,1.84-19.52-3.12-23.65-16.66-1.02-3.33-1.64-6.68-1.96-10.09l.41-.12c1.5,3.06,2.84,6.15,4.36,9.05,1.88,3.62,3.88,6.71,7.1,8.74,4.73,2.75,10.44,2.85,15.78,2.51,6.61-.5,33.11-7.29,39.73-8.52h0c6.98-1.56,18.46-3.9,29.73-6.09l-3.58-5.15c-19.56,3.42-42.63,6.94-54.61,6.87-6.92-.04-13.14-2.06-18.54-6,0,.2,0,.41-.06.61-.19.91-.48,1.88-1.2,3.28l-.39.18c-1.72-.7-2.75-2.29-2.83-4.05,0-.67.23-1.33.48-1.95.54-1.52,1.32-3.02,2.54-4.08.88-.84,1.96-1.42,3.06-1.84l.25.35c-.5.73-1.05,1.52-1.4,2.34,5.19,4.57,11.12,6.82,18.13,6.86.11,0,.22,0,.34,0,22.64,0,88.92-13.53,88.92-13.53l6.99-1.47c.76-2.89,3.73-14.29,4.44-18.03,3.24-17.19.18-19.29-.18-19.48ZM52.51,116.56s.32.2.32.2c-1.08,2.99-3.12,8.94-1.53,11.79.73,1.06,1.94.33,2.78-.35.8-.63,1.65-1.38,2.56-2.11,1.83-1.49,3.67-3.14,5.94-4.6l.31.21c-.91,3.87-3.27,7.78-6.88,9.7-3.53,1.94-7.55.54-7.67-3.85.12-4.11,2.02-7.64,4.17-10.98Zm2.09-87.05c-1.87,0-3.38-2.44-3.38-5.46s1.51-5.46,3.38-5.46,3.38,2.44,3.38,5.46-1.51,5.46-3.38,5.46Z"/><path class="cls-3" d="m156.84,60.95c-2.72.55-8.03,1.6-14.79,2.88l-.87,5.87c7.33-1.36,13.69-2.48,17.43-3.02-.56-1.8-1.18-3.82-1.76-5.72Z"/></g><polygon class="cls-1" points="126.72 64.43 137.03 79.26 139.58 62.11 126.72 64.43"/></svg>