<?xml version="1.0" encoding="UTF-8"?>
<svg id="Layer_1" data-name="Layer 1" xmlns="http://www.w3.org/2000/svg" viewBox="0 0 300 100">
  <defs>
    <style>
      .cls-1 {
        fill: #1f2421;
      }

      .cls-2 {
        fill: #dce1de;
      }

      .cls-3 {
        fill: #49a078;
      }
    </style>
  </defs>
  <g>
    <path class="cls-1" d="M82.41,45.63h4.88v2.86c.53-1.13,1.23-1.98,2.1-2.56s1.84-.88,2.88-.88c.74,0,1.51.19,2.31.58l-1.77,4.9c-.67-.33-1.22-.5-1.65-.5-.88,0-1.62.54-2.22,1.63s-.91,3.21-.91,6.38l.02,1.11v9.17h-5.65v-22.69h0Z"/>
    <path class="cls-1" d="M105.93,45.04c2.14,0,4.15.53,6.04,1.61s3.35,2.52,4.41,4.36c1.06,1.84,1.59,3.82,1.59,5.94s-.53,4.14-1.6,6.01-2.51,3.32-4.35,4.37-3.86,1.57-6.07,1.57c-3.25,0-6.03-1.16-8.33-3.47-2.3-2.31-3.45-5.13-3.45-8.43,0-3.55,1.3-6.5,3.9-8.86,2.28-2.06,4.9-3.09,7.86-3.09h0ZM106.02,50.4c-1.77,0-3.24.61-4.42,1.85s-1.77,2.8-1.77,4.72.58,3.57,1.74,4.8c1.16,1.22,2.63,1.84,4.42,1.84s3.27-.62,4.45-1.86c1.18-1.24,1.78-2.83,1.78-4.77s-.58-3.53-1.74-4.74c-1.16-1.22-2.65-1.83-4.46-1.83Z"/>
    <polygon class="cls-1" points="157.95 45.63 151.45 59.86 145.55 45.63 140.48 45.63 139.74 45.63 133.99 45.63 129.52 51.81 125.04 45.63 118.43 45.63 126.23 56.38 117.62 68.31 124.12 68.31 129.49 60.87 134.88 68.31 141.49 68.31 132.78 56.3 140.01 46.29 148.36 66.62 143.7 76.61 149.58 76.61 163.79 45.63 157.95 45.63"/>
    <path class="cls-1" d="M164.26,36.87h5.69v31.44h-5.69v-31.44Z"/>
    <path class="cls-1" d="M175.21,36.29c1,0,1.85.36,2.57,1.08.71.72,1.07,1.6,1.07,2.63s-.35,1.88-1.06,2.6-1.55,1.07-2.54,1.07-1.88-.36-2.59-1.09-1.07-1.62-1.07-2.66.35-1.86,1.06-2.56,1.56-1.06,2.56-1.06h0ZM172.37,45.63h5.69v22.69h-5.69s0-22.69,0-22.69Z"/>
    <path class="cls-1" d="M203.3,50.21l-4.74,2.61c-.89-.93-1.77-1.58-2.64-1.94-.87-.36-1.89-.54-3.06-.54-2.13,0-3.85.63-5.17,1.91-1.32,1.27-1.97,2.9-1.97,4.88s.63,3.51,1.9,4.73c1.27,1.22,2.93,1.83,4.99,1.83,2.55,0,4.53-.87,5.95-2.61l4.49,3.07c-2.43,3.16-5.87,4.75-10.3,4.75-3.99,0-7.11-1.18-9.37-3.55-2.26-2.36-3.39-5.13-3.39-8.3,0-2.2.55-4.22,1.65-6.07,1.1-1.85,2.63-3.3,4.6-4.36,1.97-1.06,4.17-1.59,6.6-1.59,2.25,0,4.27.45,6.07,1.35s3.26,2.17,4.4,3.83h0Z"/>
    <path class="cls-1" d="M208.52,36.29c1,0,1.85.36,2.57,1.08.71.72,1.07,1.6,1.07,2.63s-.35,1.88-1.06,2.6-1.55,1.07-2.54,1.07-1.88-.36-2.59-1.09-1.07-1.62-1.07-2.66.35-1.86,1.06-2.56,1.56-1.06,2.56-1.06h0ZM205.67,45.63h5.69v22.69h-5.69s0-22.69,0-22.69Z"/>
    <path class="cls-1" d="M225.06,45.04c2.14,0,4.15.53,6.04,1.61s3.35,2.52,4.41,4.36c1.06,1.84,1.59,3.82,1.59,5.94s-.53,4.14-1.6,6.01-2.51,3.32-4.35,4.37-3.86,1.57-6.07,1.57c-3.25,0-6.03-1.16-8.33-3.47-2.3-2.31-3.45-5.13-3.45-8.43,0-3.55,1.3-6.5,3.9-8.86,2.28-2.06,4.9-3.09,7.86-3.09h0ZM225.15,50.4c-1.77,0-3.24.61-4.42,1.85s-1.77,2.8-1.77,4.72.58,3.57,1.74,4.8c1.16,1.22,2.63,1.84,4.42,1.84s3.27-.62,4.45-1.86,1.78-2.83,1.78-4.77-.58-3.53-1.74-4.74c-1.16-1.22-2.65-1.83-4.46-1.83Z"/>
    <path class="cls-1" d="M239.58,45.63h5.76v10.93c0,2.13.15,3.6.44,4.43.29.83.76,1.47,1.41,1.93.65.46,1.45.69,2.39.69s1.75-.22,2.41-.68c.66-.45,1.15-1.12,1.47-1.99.24-.65.35-2.05.35-4.19v-11.11h5.69v9.61c0,3.96-.31,6.67-.94,8.13-.76,1.78-1.89,3.15-3.38,4.1s-3.38,1.43-5.67,1.43c-2.49,0-4.5-.56-6.04-1.67-1.54-1.11-2.62-2.66-3.24-4.65-.44-1.38-.67-3.88-.67-7.51v-9.45h0Z"/>
    <path class="cls-1" d="M276.98,48.8l-3.52,3.52c-1.43-1.42-2.73-2.13-3.9-2.13-.64,0-1.14.13-1.5.41-.36.27-.54.61-.54,1.01,0,.31.11.59.34.84s.8.61,1.7,1.05l2.09,1.04c2.2,1.08,3.71,2.19,4.52,3.32.82,1.13,1.23,2.45,1.23,3.96,0,2.02-.74,3.7-2.22,5.05s-3.47,2.02-5.95,2.02c-3.31,0-5.95-1.29-7.92-3.88l3.5-3.82c.67.78,1.45,1.41,2.34,1.89s1.69.72,2.39.72c.75,0,1.36-.18,1.81-.54.46-.36.69-.78.69-1.25,0-.88-.83-1.73-2.48-2.56l-1.92-.96c-3.67-1.85-5.51-4.16-5.51-6.94,0-1.79.69-3.33,2.08-4.6,1.38-1.27,3.15-1.91,5.31-1.91,1.47,0,2.86.32,4.16.97,1.3.65,2.4,1.57,3.31,2.78h0Z"/>
    <path class="cls-1" d="M70.6,51.33l10.71-13.69h-7.01l-8.33,10.57v-10.57h-1.19c-.37,1.24-.86,2.4-1.47,3.45l-.61,1.06-.46.79-.27-.87-.37-1.17s0-.01,0-.03c-.4.06-.92.14-1.53.25v9.95c.96-.74,1.5-1.28,1.51-1.29l.81-.83.61-.62.08.87.11,1.16c.31,3.4-.77,6.54-3.12,9.1v8.86h5.9v-13.63l9.46,13.63h6.92l-11.75-16.98h0Z"/>
  </g>
  <path class="cls-1" d="M65.16,26.01c-.77-.39-1.47-.47-2.09-.23-.68.26-1.09.83-1.31,1.27-.48.09-.99.18-1.53.26-.21-.45-.68-.97-1.7-1.09-1.04-.11-1.89.46-2.37,1.6-3.26.33-6.26.45-7.43.49-.16-1.47-1.08-3.63-3.77-3.99-1.25-.17-2.49.35-3.08.66-1.33-1.36-3.59-1.79-5.95-1.54-3.5.29-6.08,2.23-5.88,5.95-2.97,1.42-4.52,3.71-4.61,6.79-.07,2.61.86,5.37,1.69,7.8.56,1.66,1.1,3.25,1.1,4.27-.71-.28-1.82-.62-2.62-.39-.37.1-.66.32-.83.64-.65,1.21,1.09,2.62,2.06,3.29-.25.59-.57,1.31-.64,1.43-.07.11-.32.48-.6.9-.56.83-1.34,1.98-1.8,2.71-.07.11-.14.21-.21.32-.68,1.06-1.54,2.38-.5,3.37.95.9,2.35,1.05,6.2.64.9.55,2.6,1.43,3.4,1.84-.01.04-.03.09-.04.13-.51,1.59-.05,2.3.43,2.61.46.29.94.42,1.46.42,1.12,0,2.35-.57,3.63-1.17l.19-.09c.86.19,1.61.33,2.4.43,5.66.65,13.83-1.08,18.49-5.64,2.64-2.58,3.86-5.81,3.54-9.33l-.11-1.16-.81.83s-2.73,2.76-6.89,4.35c-.91-.27-1.58-.09-1.99.15-.5-.18-1.05-.13-1.6.14-.16.08-.31.17-.42.26-.22-.12-.46-.18-.72-.19-.55,0-1.05.25-1.39.49-.27-.23-.54-.32-.76-.35-.46-.07-.9.07-1.22.24-.22-.28-.47-.48-.75-.59.06-1.32.35-3.08,1.06-5.43v-.02c.42-1.37,1.02-3.39.2-5.9,1.86-.41,4.68-.98,7.39-1.5l.85,1.22.97,1.39.25-1.68.2-1.36c2.09-.39,3.9-.71,4.84-.84.07.22.11.35.11.36l.37,1.17.61-1.06c.71-1.23,1.26-2.61,1.63-4.11.06-.19.72-2.39,1.17-4.74.67-3.56.48-5.47-.61-6.03h0Z"/>
  <path class="cls-2" d="M62.15,37.65c.17.56.37,1.23.48,1.56.28-.61.52-1.25.72-1.92l-1.19.36h0Z"/>
  <g>
    <path class="cls-3" d="M64.67,26.97c-.49-.25-.9-.31-1.23-.19-.45.17-.7.66-.81.94l-.11.27-.29.06c-.7.14-1.48.27-2.29.39l-.52.08-.09-.52c-.04-.26-.19-.63-.92-.71-.76-.08-1.16.6-1.35,1.2l-.11.33-.35.03c-4.35.45-8.33.55-8.37.55h-.56s0-.55,0-.55c0-.12,0-3.08-2.86-3.46-.65-.09-1.48.09-2.28.47.46.84.67,1.91.52,3.24-.49-4.34-3.56-5.02-7.34-4.56-2.98.37-4.89,1.78-5.13,4.93-.07.89,0,1.8.15,2.68-.24-.52-.41-1.06-.53-1.63-2.41,1.25-3.61,3.12-3.69,5.7-.07,2.42.83,5.08,1.63,7.42.82,2.4,1.46,4.3,1,5.57l-.22.61-.56-.32c-.27-.15-1.8-.8-2.49-.59-.13.04-.15.09-.17.11-.15.27.78,1.31,2.08,2.12l.39.24-.18.42c-.68,1.56-.82,1.88-.89,1.98-.07.12-.31.46-.63.94-.56.83-1.33,1.96-1.78,2.68-.07.11-.14.22-.21.33-.74,1.15-1,1.68-.66,2.01.61.58,1.88.66,4.04.48-.16-.15-.29-.32-.45-.47-.51-.5-1.01-1.06-1.4-1.65l.07-.08c.31.18.62.35.93.52.26.15.65.36.92.52.15.08,1.29.78,1.61.99l.16.1c.77.49,2.53,1.41,3.4,1.85.29-.91,2.89-4.69,2.56-3.06-.23,1.15-1.51,3.28-1.61,3.54l-.19.46c-.07.18-.14.35-.19.52-.23.72-.2,1.19,0,1.38.62.59,2.46-.08,4.06-.82l.52-.24.18.04c.9.2,1.67.35,2.47.45,5.4.62,13.19-1.01,17.62-5.34,2.15-2.1,3.24-4.56,3.27-7.34-1.18,1-3.49,2.72-6.59,3.87l-.18.07-.18-.06c-.9-.31-1.19-.11-1.35.05s-.28.39-.28.39l-.4-.28c-.67-.39-1.39.34-1.42.37l-.39.4-.39-.41c-.11-.12-.22-.17-.36-.17h-.01c-.4,0-.9.4-1.05.54l-.47.46-.36-.56c-.16-.25-.31-.3-.4-.32-.33-.05-.75.22-.87.32l-.5.41-.32-.56c-.03-.06-.06-.11-.1-.16.16,1.74.79,2.21.81,2.22,0,0,.02,0,.05.02.36-.16.81-.14,1.22.08.05.02.1.05.16.09.58-.58,1.38-.8,2.08-.37.04-.04.08-.08.12-.12.48-.49,1.24-.81,1.89-.53.48-.55,1.21-.94,1.93-.73.09-.1.2-.18.32-.25.47-.26,1.02-.26,1.53-.17v.11c-.56,0-1.08.06-1.49.48-.12.13-.16.31-.16.32l-.18-.05c-.64-.14-1.26.37-1.55.93l-.14.3c-.2-.1-.52-.31-.74-.27-.46.06-.83.52-1.04.92l-.2.46-.56-.36c-.12-.08-.23-.15-.33-.15-.36-.05-.71.24-.96.48l-.5.39c-.59-.71-1.04-1.04-1.99-.26l-.09-.05s0,0,0,0c-.52-.38-2.48-2.83-.15-10.65v-.02c.4-1.33.93-3.11.18-5.33-3.76.94-7.01,2.13-10.08,2.57-3.19.46-4.87-.78-5.91-4.16-.25-.83-.41-1.67-.49-2.52l.1-.03c.37.76.71,1.54,1.09,2.26.47.9.97,1.68,1.77,2.18,1.18.69,2.61.71,3.94.63,1.65-.12,8.27-1.82,9.92-2.13h0c1.74-.39,4.61-.97,7.42-1.52l-.89-1.29c-4.88.85-10.64,1.73-13.64,1.72-1.73,0-3.28-.51-4.63-1.5,0,.05,0,.1-.01.15-.05.23-.12.47-.3.82l-.1.04c-.43-.17-.69-.57-.71-1.01,0-.17.06-.33.12-.49.13-.38.33-.75.63-1.02.22-.21.49-.35.76-.46l.06.09c-.12.18-.26.38-.35.58,1.3,1.14,2.78,1.7,4.53,1.71h.08c5.65,0,22.2-3.38,22.2-3.38l1.75-.37c.19-.72.93-3.57,1.11-4.5.81-4.29.04-4.82-.04-4.86h-.02ZM35.06,51.84l.08.05c-.27.75-.78,2.23-.38,2.94.18.26.48.08.69-.09.2-.16.41-.34.64-.53.46-.37.92-.78,1.48-1.15l.08.05c-.23.97-.82,1.94-1.72,2.42-.88.48-1.89.13-1.92-.96.03-1.03.5-1.91,1.04-2.74h0ZM35.59,30.11c-.47,0-.84-.61-.84-1.36s.38-1.36.84-1.36.84.61.84,1.36-.38,1.36-.84,1.36Z"/>
    <path class="cls-3" d="M61.12,37.96c-.68.14-2.01.4-3.69.72l-.22,1.47c1.83-.34,3.42-.62,4.35-.75-.14-.45-.29-.95-.44-1.43h0Z"/>
  </g>
  <polygon class="cls-2" points="53.59 38.82 56.17 42.53 56.81 38.25 53.59 38.82"/>
</svg>