<?xml version="1.0" encoding="UTF-8"?>
<svg id="Layer_1" data-name="Layer 1" xmlns="http://www.w3.org/2000/svg" xmlns:xlink="http://www.w3.org/1999/xlink" viewBox="0 0 300 100">
  <defs>
    <style>
      .cls-1 {
        fill: url(#linear-gradient-8);
      }

      .cls-2 {
        fill: url(#linear-gradient-7);
      }

      .cls-3 {
        fill: url(#linear-gradient-5);
      }

      .cls-4 {
        fill: url(#linear-gradient-6);
      }

      .cls-5 {
        fill: url(#linear-gradient-9);
      }

      .cls-6 {
        fill: url(#linear-gradient-4);
      }

      .cls-7 {
        fill: url(#linear-gradient-3);
      }

      .cls-8 {
        fill: url(#linear-gradient-2);
      }

      .cls-9 {
        fill: url(#linear-gradient);
      }

      .cls-10 {
        fill: url(#linear-gradient-10);
      }

      .cls-11 {
        fill: url(#linear-gradient-11);
      }

      .cls-12 {
        fill: url(#linear-gradient-12);
      }

      .cls-13 {
        fill: url(#linear-gradient-13);
      }

      .cls-14 {
        fill: url(#linear-gradient-14);
      }

      .cls-15 {
        fill: url(#linear-gradient-15);
      }

      .cls-16 {
        fill: url(#linear-gradient-16);
      }
    </style>
    <linearGradient id="linear-gradient" x1="87.57" y1="71.92" x2="87.57" y2="39.29" gradientUnits="userSpaceOnUse">
      <stop offset="0" stop-color="#886226"/>
      <stop offset="1" stop-color="#e3a732"/>
    </linearGradient>
    <linearGradient id="linear-gradient-2" x1="97.49" y1="71.92" x2="97.49" y2="39.29" xlink:href="#linear-gradient"/>
    <linearGradient id="linear-gradient-3" x1="115.23" y1="71.92" x2="115.23" y2="39.29" xlink:href="#linear-gradient"/>
    <linearGradient id="linear-gradient-4" x1="138.29" y1="71.92" x2="138.29" y2="39.29" xlink:href="#linear-gradient"/>
    <linearGradient id="linear-gradient-5" x1="139.21" y1="71.92" x2="139.21" y2="39.29" xlink:href="#linear-gradient"/>
    <linearGradient id="linear-gradient-6" x1="153.65" y1="71.92" x2="153.65" y2="39.29" xlink:href="#linear-gradient"/>
    <linearGradient id="linear-gradient-7" x1="159.98" y1="71.92" x2="159.98" y2="39.29" xlink:href="#linear-gradient"/>
    <linearGradient id="linear-gradient-8" x1="185.53" y1="71.92" x2="185.53" y2="39.29" xlink:href="#linear-gradient"/>
    <linearGradient id="linear-gradient-9" x1="211.01" y1="71.92" x2="211.01" y2="39.29" xlink:href="#linear-gradient"/>
    <linearGradient id="linear-gradient-10" x1="251.82" y1="71.92" x2="251.82" y2="39.29" xlink:href="#linear-gradient"/>
    <linearGradient id="linear-gradient-11" x1="238.6" y1="71.92" x2="238.6" y2="39.29" xlink:href="#linear-gradient"/>
    <linearGradient id="linear-gradient-12" x1="266.26" y1="71.92" x2="266.26" y2="39.29" xlink:href="#linear-gradient"/>
    <linearGradient id="linear-gradient-13" x1="44.62" y1="71.92" x2="44.62" y2="39.29" xlink:href="#linear-gradient"/>
    <linearGradient id="linear-gradient-14" x1="59.33" y1="71.92" x2="59.33" y2="39.29" xlink:href="#linear-gradient"/>
    <linearGradient id="linear-gradient-15" x1="46.18" y1="71.92" x2="46.18" y2="39.29" xlink:href="#linear-gradient"/>
    <linearGradient id="linear-gradient-16" x1="40" y1="71.92" x2="40" y2="39.29" xlink:href="#linear-gradient"/>
  </defs>
  <g>
    <path class="cls-9" d="M101.15,57.89l-.23-.54-.08-.08c-.54-.61-.69-.77-1-1l-.08-.61v-.23l.08-1.46v-.08l-.08-.61-.15-.54v-.61l.08-.69v-1.84c0-.31,0-.77-.08-1.07l-.31-2.07-.08-.84v-2.38l.08-1.15.31-2.07.08-.69v-.08c0-.46-.15-.92-.46-1.3-.15-.31-.31-.46-.31-.54q-.08-.08-.08-.15c-.08-.08-.08-.15-.08-.23-.15-.31-.23-.54-.31-.54,0-.08-.08-.15-.08-.23l-.31-1.3c-.08-.23-.23-.54-.46-.84-.46-.46-.84-.77-1.3-.92l-1.3-.46-.92-.38c-.52-.22-.96-.37-1.33-.38.04.05.08.1.11.17-.02.27-.35.23-.57.29-.13-.18-.02-.34.06-.5l-1.18-.12-.38-.08c-.15,0-.38,0-.61.08-.23,0-.38.08-.46.08-.15,0-.23.08-.31.08l-2.84,1.76-.61.15-.77-.69.38-1.15.15-.23.23-.23.15-.54c0-.84-.61-1.15-2.23-1.15-.92,0-1.15.08-2.3.84l-.92.61c-1,.61-2,1.07-2.92,1.23l-1.23.23c-1.07.23-1.92,1.15-1.92,2v.15l.15.61.77.31,1.23.46c.23.08.38.31.46.46.08.08.08.15.08.23l-.08.46-.15.84-.15.54v.31c.61.69.77,1.07.77,1.92v.31l-.08,1-.15,1.23-.08,1.23-.02.48c.16.1.3.22.54.24.06.18,0,.13,0,.34-.14.07-.35.07-.46.17-.05,0-.08-.01-.11-.03l-.02.56-.03.45c.6.1.38.93-.06.98l-.06.57.03.38c.17,0,.36-.02.44.06,0,.14,0,.28-.06.34-.11-.08-.26-.12-.37-.2l.03.49-.15,2.22.08,1.15v.15c0,.54-.08,1.07-.46,2.15l-.15.08-.31.77c-.23.54-.46.84-.61.92l-1.07.38c-.54.23-1,1.08-1,2,0,.46.31.84.77.84l1.07.15.69.15.69.08,1.92.08h.61l.84-.08,3.45.08,1.15-.08h1c.69,0,1.23-.77,1.23-1.69,0-.31-.08-.46-.31-.77-.08-.15-.15-.31-.23-.31l-.92-.54c-.31-.23-.46-.31-.92-.77-.23-.31-.38-.54-.46-.61l-.38-.92v-.15c-.31-1-.46-2.46-.46-5.14v-1.76l.15-.46.38-2.15v-1.69l.08-1.84.08-.77v-.61l.08-.46v-.08l.23-.46.31-.84c.61-1.69,2.15-2.76,3.91-2.76,2.84,0,4.53,1.92,4.53,5.22v3.22l-.08.46-.15,1.3v1l.15,1.38v1.46l.08,1.23v.31c0,.54-.08,1.23-.23,2.15l-.15.92v.54c0,.69-.38,1.3-1.23,1.84-2,1.23-2.3,1.61-2.3,2.46,0,1,.46,1.31,2,1.31h1.76l.84-.15,1.38-.08,1.46-.15h.61l1.61-.08h.08l1.15.15h.15c.84,0,1.38-.46,1.46-1.23l-.23-.84-.23-.46ZM78.45,46.54c.18,0,.38-.18.52-.06-.03.25.08.29,0,.46-.27.12-.59-.02-.52-.4ZM78.92,59.27c-.02-.13,0-.22.06-.29.13-.02.22.01.23.11.03.18-.12.18-.29.17ZM82.01,32.19v.23c-.13.03-.29.11-.4,0-.09-.3.26-.35.4-.23ZM80.17,41.09c.11-.02.18.01.17.11h-.17v-.11ZM79.38,58.06v-.17c.17-.08.17.26,0,.17ZM80.07,52.84c.02-.13.15-.13.23-.06-.02.13-.15.13-.23.06ZM80.4,42.98c-.28.06-.11-.31,0-.12v.12ZM80.7,55.82h-.23c-.05-.22.27-.22.23,0ZM81.84,41.95c-.18.03-.16-.14-.23-.23-.12-.02-.15-.11-.23-.17,0-.21.2-.22.29-.34.25.1.45.24.4.63-.08.03-.14.08-.23.11ZM82.14,48.01c-.07-.08-.07-.21,0-.29.19-.01.26.32,0,.29ZM82.41,44.13h-.17v-.17h.17v.17ZM82.59,49.41c.02-.14-.1-.12-.06-.29.08-.09.38-.09.46,0,.03.26-.17.29-.4.29ZM91.84,59.04c-.09-.02-.1.05-.17.06-.38-.1-.37-.53-.11-.75h.29c.09.13.09.56,0,.69ZM94.82,57.85c-.03-.11.26-.19.29-.06.06.21-.25.1-.29.06ZM96.77,57.68s.04-.07.06-.06c.03.03-.04.07-.06.06ZM96.88,39.02c.19-.01.28.07.29.23-.2.02-.33-.02-.29-.23ZM97.01,49.33v-.17c.17-.08.17.26,0,.17ZM97.01,55.53c.02-.07.15-.05.17,0,.05.12-.21.13-.17,0ZM97.64,49.56v-.12s.05-.02.06-.06c.11-.02.08.26-.06.17ZM97.81,49.33c-.02-.13-.11-.24,0-.34.09-.02.1.05.17.06,0,.15-.01.3-.17.29ZM98.04,45.54c0,.19-.26.12-.17.4-.25.02-.13.41-.46.34-.09-.09-.1-.39.11-.34-.28-.05-.04-.61-.4-.57-.06-.48.69-.73.86-.29-.01.1.06.29-.12.23-.02.15.22.05.17.23ZM98.56,49.56v-.17c.12-.02.15.04.23.06-.01.1-.1.13-.23.12ZM98.62,47.9h.29c0,.13-.35.31-.29,0ZM100.44,58.94c.25.03.45.12.4.46-.27-.02-.42-.15-.4-.46Z"/>
    <path class="cls-8" d="M97.47,45.43s.05-.07.11-.06v-.11c-.06,0-.07-.05-.11-.06-.02.04-.14.22,0,.23Z"/>
    <path class="cls-7" d="M125.93,56.05l-1.76-.38c-.92-.23-1.23-.92-1.23-2.76v-1l.08-.77.15-1.99.15-3.61.08-3.07v-.61l-.08-1.61-.08-1.28c-.07-.05-.09-.15-.11-.25.03-.03.06-.04.09-.05l-.05-.8v-.61l.08-.77v-.08c0-1.23-.69-2.61-1.61-3.22l-1.07-.69-.84-.54-.84-.31c-.15-.08-.46-.15-1.15-.23-.54-.15-1.07-.23-1.61-.31-.31-.08-.77-.08-1.07-.08h-.84c-1.3,0-2.3.23-3.38.77l-1.07.54-.31.15-.54.46-.23.08-.15.15c-.15.08-.46.38-.77.61q-.08.08-.15.15l-.38.77-.46.61-.15.31v.84l-.04.27s.02.02.03.03c0,.06-.03.1-.05.14v.1c.45.38,1.21.69,1.83.69h.38l.54-.08h1l.69-.15.92-.08c.23,0,.54-.23.92-.46.31-.23.61-.54.77-.69l.31-.46c.15-.15.38-.38.61-.69.15-.15.23-.23.31-.31l.84-.15h.15c1.15,0,1.69,1.07,1.69,3.68,0,1.07-.08,1.76-.31,2.38l-.23.61-.23.84-.23.31-.46.46-.69.77c-.31.31-1,.84-1.53,1.15l-1.84,1-3.53,1.38-1.92,1.38c-2,1.46-2.53,2.69-2.53,5.91,0,4.45,1.76,6.52,5.6,6.52h1.92c1.15,0,1.84-.08,2.15-.31l1.61-1,.92-.23.84.31.92.92c.46.46,1.23.61,2.99.61s2.53-.15,3.38-.61l.38-.23c1-.61,1.61-1.46,1.69-2.3l.08-1.07v-.15c0-.23-.08-.46-.46-.84l-.08-.08ZM105.44,50.96c.03-.08.05,0,.12,0-.01.07-.11.06-.12,0ZM106.19,53.24c-.23.06-.28-.18-.17-.29h.17v.29ZM107.57,57.2c.15-.02.25.02.23.17-.11.11-.28.03-.23-.17ZM109.51,53.55s.04-.07.06-.06c.03.03-.04.07-.06.06ZM109.7,52.03c-.05-.2.06-.24.11-.34.08.02.09.1.17.12-.01.16-.1.24-.29.23ZM110.5,55.48h-.12v-.11h.12v.11ZM112.04,59.58c-.05-.16-.14-.28-.17-.46.28-.26.52-.09.86,0,.02.4-.35.42-.69.46ZM113.03,59.67c-.2-.02-.24-.12-.17-.29h.23c.02.13,0,.22-.06.29ZM113.59,60.26c-.1,0-.18-.01-.23-.06.01-.1.1-.13.23-.11v.17ZM113.72,60.01c.14-.04.36-.13.34.12-.09.09-.39.1-.34-.12ZM116.87,59.5s.04-.07.06-.06c.03.03-.04.07-.06.06ZM117.03,51.44c-.15.54-.15.84-.15,1.15v.61l.08.69-.08.46-.38.77-.31.69c-.61.46-1.3.69-2.07.69-2.23,0-3.22-1.07-3.22-3.38,0-1.23.31-2.46.77-3.15l.46-.69.31-.46.15-.15.38-.38c.09-.06.19-.14.29-.22-.09-.07-.08-.25,0-.33.13.01.18.08.19.17.09-.08.19-.15.29-.23.61-.54,1-.77,1.15-.92.38-.23.92-.38,1.3-.38h.15l.46.08v.92l-.23,2v.08l.15.61v.31c.08.15.08.23.15.46l.23.08-.08.31v.23ZM117.16,57.2h-.11v-.12h.11v.12ZM118.25,50.08s.04-.07.06-.06c.03.03-.04.07-.06.06ZM119.29,54.27c-.17.08-.36.07-.46-.06-.07-.48.58-.42.46.06ZM120.49,55.07v-.17c.09-.09.42-.09.52,0-.01.25-.36.23-.52.17ZM120.95,49.73c-.08-.17-.06-.29.06-.4.17-.01.2.11.29.17,0,.18-.13.25-.35.23ZM121.47,38.02h-.11v-.17c.09-.02.1.05.17.06-.01.05-.06.06-.06.11ZM122.5,35.32c0-.06-.07-.04-.11-.06-.11-.4.32-.41.4-.17-.01.16-.1.24-.29.23Z"/>
    <path class="cls-6" d="M141.94,59.5c-.08.09-.34.09-.26-.12.12-.02.19,0,.26.04l-.04-.77-.31-.46-.54-.84-.23-.31-.54-.46-.38-.31c-.54-.38-.61-.84-.69-2.69l-.08-2.84v-.94c-.18-.15-.59-.07-.5-.48.2-.03.37-.02.5.02v-3.12l.08-.92v-.51c-.29-.05-.4-.05-.69,0-.14-.17-.22-.39-.23-.69.15-.13.41-.02.52.06.21.01.26-.06.4-.02v-.16c-.06-.07-.15-.11-.23-.16-.05-.2.19-.1.23-.06,0-.11.02-.3.08-.53v-.61l-.08-.15v-.23s0-.02,0-.02c-.03.19-.37.13-.29-.12h.23c0,.07.01.1.06.11,0-.31.08-.76.15-1.36v-.15s0-.06,0-.09h-.26c-.02-.14.1-.12.06-.29h.16s-.01-.05-.02-.08v-.92c0-1.84.69-2.92,1.92-3.3l.08.15c.12.47.26.88.43,1.22.04,0,.08-.02.08-.06.17.05.06.09.06.23-.01,0-.03,0-.05,0,.5.91,1.21,1.37,2.24,1.37h1.23c1.61,0,2.53-1.61,2.53-4.37,0-1.07-.08-1.23-.46-1.84-.23-.08-.31-.15-.38-.23l-.23-.15q-.15-.08-.31-.15l-.08-.08c-.84-.69-1.77-1.07-2.61-1.07h-.08l-1.69.38-1.07.31-.54.38-.69.46-.46.31-.31.08c-.15-1.38-.31-1.69-.92-1.69h-.15l-.31.08c-.61.15-1.07.31-1.23.46l-1.69,1.3-1.07.61-.46.15-.55.3c.13-.03.28-.1.38,0-.07.14-.06.36-.34.29-.05-.07-.07-.15-.06-.28l-.42.23-2.3,1.15c-.69.31-1,.77-1,1.3,0,.31.31.69.77.92l1.69.77c.54.46.92.92,1,1.23l.15.54.15.31.31,1.07.08.61v1.84l-.08.84-.08,1.23-.15,1.46v.46l.31,1.69v1l-.08,1.69-.08.92v.38l-.31,2.07-.23.54-.15.23-.08.15-1.15.92-.31.23-.69.77-.38.38c-.15.31-.31.69-.31.92v.08l.08.54c.23.38.54.54,1.15.54,1.16,0,2.13-.14,3.79-.68.02-.09.07-.19.1-.27.18-.03.23.07.29.17,0,0,0,0,0,0h1.2l1.07-.08h2.92l1.23-.14s0-.01,0-.02c.01,0,.02.01.03.02h.11s.17-.03.17-.03c0-.04-.01-.07-.02-.11.13,0,.23.04.31.08l.38-.04-.03-.61ZM145.98,33.49h.29c.09.3-.38.3-.29,0ZM144.55,36.53c-.07-.02-.12-.07-.12-.17.07.03.12.07.12.17ZM143.97,34.29h.23c.06.17-.13.1-.23.12v-.12ZM143.86,38.65c-.05.1-.2.15-.29.06,0-.15.21-.14.29-.06ZM143.11,38.42c.17-.06.1.13.12.23-.1-.05-.22-.13-.12-.23ZM140.01,36.47s-.04.07-.06.06c-.03-.03.04-.07.06-.06ZM139.09,36.24c-.01.07-.06.03-.06,0,.01-.07.06-.03.06,0ZM138.92,37.45h.23c.06.17-.13.1-.23.11v-.11ZM131.11,38.25c-.03-.18.05-.26.23-.23.03.18-.05.26-.23.23ZM132.26,59.9c-.15.09-.69.23-.8,0-.04-.19.1-.21.23-.23.02-.14-.1-.12-.06-.29.42-.43.82.17.98.52-.04.04-.32.13-.34,0ZM132.89,60.64s-.05.02-.06.06h-.11s-.02-.06-.06-.06v-.12s.05-.02.06-.06h.11s.02.05.06.06v.12ZM134.16,41.07c-.21.19-.27-.11-.4-.17.04-.08.45-.03.4.17ZM134.04,49.62h.12c.03.12-.08.11-.17.11.01-.05.06-.06.06-.11ZM133.93,44.11c-.07-.08-.07-.21,0-.29.27,0,.27.29,0,.29ZM133.81,36.99c-.13.02-.22,0-.29-.06,0-.17.34-.15.29.06ZM132.72,39.75c.11-.11.42-.09.34.17-.11.1-.35.02-.34-.17ZM133.01,44.68c.11-.17.44-.12.4.17-.14.12-.43.04-.4-.17ZM133.47,43.08c.2-.02.33.02.29.23h-.29v-.23ZM134.1,55.3c-.18.03-.22-.08-.34-.12-.01-.36.22-.47.52-.52-.06.21-.12.42-.17.63ZM138.86,42.62c.18-.2.31.12,0,0h0ZM138.86,42.96c0,.15-.08.22-.23.23-.11-.09-.18-.21-.17-.4.22-.03.36.02.4.17ZM138.58,42.04v-.12h.11v.12h-.11ZM138.81,36.59c-.2.06-.61-.1-.57-.46.38-.03.58.11.57.46ZM138.75,39.92c-.18.04-.11.04-.29,0,.02-.13.2-.11.17-.29.19-.06.09.18.11.29ZM138.63,38.94c-.09.09-.33.08-.29-.12.09-.09.33-.08.29.12ZM138.75,39.17c0,.15.02.33-.06.4-.16,0-.1-.24-.11-.4h.17ZM138.23,40.03c.24-.01.41.05.57.11,0,.14,0,.28-.06.34-.11,0-.19-.04-.23-.12-.16.01-.07.27-.29.23-.05-.14-.13-.25-.11-.46.05-.03.1-.05.11-.11ZM138.12,42.27c.01-.1.1-.13.23-.12.06.17-.13.1-.23.12ZM137.95,39.57c.15-.02.25.02.23.17-.15.02-.29.02-.23-.17ZM137.77,39.46c-.13.18-.23-.2,0,0h0ZM137.6,40.38h.29c-.01.14.13.14.17.23-.11.26-.52.04-.46-.23ZM137.89,42.85c-.18-.01-.42.04-.52-.06-.07-.47.65-.44.52.06ZM136.97,40.15c-.05-.36.58-.37.52,0-.21-.04-.36.15-.52,0ZM137.2,39.8c-.02-.13,0-.22.06-.29.26-.04.21.38-.06.29ZM137.31,38.71c-.04.05-.06.13-.06.23-.25.03-.2-.31.06-.23ZM137.2,36.53c.02.32-.24.37-.23.69-.26,0-.17-.36-.23-.57.14-.05.25-.13.46-.12ZM136.62,50.77c-.12-.11,0-.25.12-.29-.02-.13-.2-.11-.17-.29.25-.06.19.19.4.17-.07.18-.13.37-.35.4ZM136.91,52.95v.12c-.16,0-.12.09-.23,0v-.12c.11-.1.07,0,.23,0ZM136.8,42.79v.23c-.19.01-.23-.27,0-.23ZM136.8,42.44h-.29c-.06-.28.35-.28.29,0ZM136.51,48.99c.21.09.28.34.11.52-.22.05-.2-.14-.34-.17-.01-.2.19-.19.23-.34ZM136.51,52.55c0,.15-.08.22-.23.23-.04-.19.1-.21.23-.23ZM136.05,48.76c.03.18-.05.26-.23.23v-.23h.23ZM135.88,48.01c.21.17-.17.19,0,0h0ZM135.94,45.26c-.18,0-.25-.13-.23-.34.17-.16.46-.12.4.23-.08.02-.09.1-.17.12ZM135.3,48.41c-.36.04-.45-.21-.69-.29,0-.14,0-.28.06-.34.32-.07.2.3.46.29.19-.08.27-.26.4-.4.17.02.23.32.11.46-.14.1-.44-.13-.34.29ZM135.76,43.13c.08.15.34.11.34.34-.26-.04-.46.19-.63.06-.1-.25.44-.36.12-.46-.04-.18.16-.11.11-.29.24-.04.2.31.06.34ZM135.82,37.05c-.01.22-.24.22-.4.29v-.34c.15,0,.33-.02.4.06ZM135.25,36.82c.11-.02.18.01.17.11h-.17v-.11ZM135.48,40.61c-.25-.03-.28.08-.46,0-.13-.38.6-.41.46,0ZM134.67,40.66c.22-.03.37.02.46.12-.11.18-.15.42-.46.4-.09-.09-.09-.42,0-.52ZM134.79,48.99c-.07,0-.1.01-.12.06-.15,0-.13-.21-.06-.29.08.05.22.05.17.23ZM135.25,53.01s.06-.06.06-.11c.07.02.12.07.11.17-.09.02-.1-.06-.17-.06ZM135.42,49.73h-.29c-.11-.12-.15-.31-.17-.52.1,0,.12-.07.23-.06.06-.21-.14-.16-.11-.34.19-.1.39-.46.63-.17.04.34-.05.56-.06.86-.18.03-.2-.1-.4-.06-.06.21.22.09.17.29ZM135.59,51.57s-.04.07-.06.06c-.03-.03.04-.07.06-.06ZM135.53,53.35c-.02-.15.08-.19.23-.17.02.15-.08.19-.23.17ZM135.71,50.83c-.08-.17-.16-.34,0-.46.18.11.3.27.46.4-.04.21-.23-.01-.46.06ZM135.94,50.02c.2-.02.33.02.29.23-.14.14-.36.02-.29-.23ZM136.17,49.33s.04-.07.06-.06c.03.03-.04.07-.06.06ZM136.28,58.35v-.17c.17-.08.17.26,0,.17ZM136.8,58.41c.04-.35-.34-.28-.4-.52.16-.08.34.08.46-.11.26.09.45.67-.06.63ZM137.37,54.44c-.19-.1-.44-.13-.63-.23.02-.31.27-.62.57-.46.04.16-.11.12-.11.23.06.15.27.34.17.46ZM137.08,52.26c0-.06.07-.04.12-.06,0,.06-.07.04-.12.06ZM138.12,59.21c-.1.07-.41,0-.52-.11.08-.15.21-.25.46-.23.07.07.06.2.06.34ZM137.95,49.56c-.15.02-.25-.02-.23-.17.15-.02.29-.02.23.17ZM137.89,54.39s.04-.07.06-.06c.03.03-.04.07-.06.06ZM137.49,43.76c-.24-.16-.2-.6-.52-.69v-.17s.09-.06.17-.06c.15-.04.11.12.17.17.17.02.29.09.4.17.08-.01.02-.17.12-.17.26.02.27.3.34.52.39.08.33-.4.63-.23.07.33-.2.34-.4.46-.05.03-.06.15-.17.12-.07-.34-.44-.04-.75-.12ZM138.4,45.95c.01-.07.11-.06.11,0-.02.08-.05,0-.11,0ZM138.98,56.86s-.04.07-.06.06c-.03-.03.04-.07.06-.06ZM138.92,57.26c.08-.09.29-.05.46-.06.06.31-.18.32-.4.34-.05-.07-.08-.15-.06-.29ZM139.21,58.29c-.02-.08-.1-.09-.11-.17-.01-.18.2-.14.29-.23,0-.11-.16-.07-.11-.23.29-.21.4.19.63.23-.11.26-.42.31-.69.4ZM139.95,57.54h-.29c-.08-.07-.08-.27,0-.34.21-.02.34.05.35.23-.06,0-.04.07-.06.12ZM140.18,58.29s-.04.07-.06.06c-.03-.03.04-.07.06-.06ZM140.13,58.98v-.17c.12-.03.15.04.23.06-.01.1-.1.13-.23.12ZM140.64,58.41c-.09-.48.48-.35.52-.06-.14.1-.33.15-.52.06Z"/>
    <path class="cls-3" d="M139.21,44.77v-.1s0,.06,0,.1Z"/>
    <path class="cls-4" d="M153.56,59.21v.17h.17c.01-.13-.05-.18-.17-.17Z"/>
    <path class="cls-2" d="M170.69,56.05l-1.77-.38c-.86-.22-1.19-.84-1.22-2.43,0,0,0,0-.01,0-.29-.02-.33-.28-.57-.34.16-.34-.1-.38-.17-.63-.31.02-.54-.03-.58-.29.09-.07.38-.23.46-.11.28-.16.57-.3.91-.4l.03-.32.15-2,.15-3.61.08-3.07v-.61l-.08-1.61-.15-2.38v-.61l.08-.77v-.08c0-1.23-.69-2.61-1.61-3.22l-1.08-.69-.84-.54-.84-.31c-.15-.08-.46-.15-1.15-.23-.54-.15-1.07-.23-1.61-.31-.31-.08-.77-.08-1.07-.08h-.84c-1.3,0-2.3.23-3.38.77l-1.07.54-.31.15-.54.46-.23.08-.15.15c-.15.08-.46.38-.77.61q-.08.08-.15.15l-.38.77-.46.61-.15.31v.84l-.08.54c.46.38,1.23.69,1.84.69h.38l.54-.08h1l.42-.09c-.06-.08-.05-.2,0-.32.13-.02.22,0,.29.06,0,.1-.04.16-.09.22h.07s.18-.03.18-.03c.02-.17.23-.41.42-.25,0,.1-.03.17-.07.22l.4-.03c.23,0,.54-.23.92-.46.31-.23.61-.54.77-.69l.31-.46c.15-.15.38-.38.61-.69.15-.15.23-.23.31-.31l.84-.15h.15c.85,0,1.36.59,1.57,1.95.22-.01.43-.02.44.17.13-.1.24-.22.4-.29.12.03.12.09.06.17.06.15.23.19.46.17.05.07.08.15.06.29.04.13.2.14.29.23-.04.31.32.21.29.52,0,.12-.05.18-.17.17-.05.18.19.08.17.23-.13.33-.43.49-.52.86-.3-.05-.27.22-.46.29-.2.05-.24-.06-.34-.12-.13.11-.39.19-.6.15-.04.49-.13.89-.27,1.26l-.23.61-.23.84-.23.31-.21.21c.19.03.24.21.45.23.03.24-.17.25-.12.52-.25.09-.58.47-.86.17.09-.23.18-.45.28-.67h0s-.69.77-.69.77c-.31.31-1,.84-1.53,1.15l-1.84,1-3.53,1.38-1.92,1.38c-.43.31-.79.62-1.09.94,0,.12-.02.25-.12.25-.02,0-.05-.02-.07-.04-.95,1.1-1.24,2.39-1.24,4.76,0,4.45,1.76,6.52,5.6,6.52h.38c-.06-.04-.09-.13-.07-.28.17-.05.18-.05.34,0,0,.14-.05.23-.12.28h1.38c1.11,0,1.79-.07,2.11-.28-.02,0-.04,0-.06,0v-.17c.09-.09.16-.01.21.08l.11-.07s.02-.08.03-.12h.17l1.19-.74.92-.23.84.31.92.92c.46.46,1.23.61,2.99.61s2.53-.15,3.38-.61l.38-.23c1-.61,1.61-1.46,1.69-2.3l.08-1.07v-.15c0-.23-.08-.46-.46-.84l-.08-.08ZM167,39.23s-.04.07-.06.06c-.03-.03.04-.07.06-.06ZM166.71,45.2c-.16.06-.24.07-.23-.17.15-.02.25.02.23.17ZM153.28,33.83h-.11v-.12h.11v.12ZM154.25,36.07c-.21-.05-.4-.13-.4-.4.12-.05.2-.15.4-.11.08.09.08.27.17.34.02.13-.17.06-.17.17ZM156.83,33.95c.02.15-.02.25-.17.23,0-.1-.07-.12-.06-.23h.23ZM155.74,36.7c-.52.06-.27-.65-.8-.57-.02-.23.06-.36.29-.34.13.28.24.56.52.69-.09.36.28.26.29.52-.15.15-.48-.1-.29-.29ZM156.2,36.64c-.17-.07-.43-.26-.29-.46.16.07.38.31.29.46ZM155.86,34.69c.13-.01.18.05.17.17h.46c-.03.49-.63.08-.63-.17ZM156.95,35.27c-.17.14-.41-.01-.4-.23.16-.13.46-.03.4.23ZM158.21,36.19s.06-.06.06-.12h.12c.03.12-.08.11-.17.12ZM158.67,32.62v-.11c.12-.03.11.08.12.17-.05-.01-.06-.06-.12-.06ZM158.44,31.71c-.04-.22.35-.33.4-.11-.03.2-.26.16-.4.11ZM159.36,33.08c-.15.02-.25-.02-.23-.17.05-.04.13-.06.23-.06v.23ZM159.42,32.34c.28.01.38-.39.69-.17.09.4-.65.59-.69.17ZM153.85,50.19h.23c.05.22-.27.22-.23,0ZM153.79,49.85c.02.13-.17.06-.17.17-.08-.02-.05-.14-.06-.23.12-.02.15.04.23.06ZM153.62,50.37s-.04.07-.06.06c-.03-.03.04-.07.06-.06ZM153.1,47.84h.17c.12.15.08.51-.23.4-.03-.19.04-.27.06-.4ZM153.05,50.37c-.21.02-.16-.23-.34-.23v-.17c.23-.2.54.18.34.4ZM152.93,48.59c.08.33-.12.38-.23.52-.06-.11,0-.29-.06-.52h.29ZM152.53,50.37c.02.12-.04.15-.06.23-.15,0-.22-.08-.23-.23.08-.07.21-.07.29,0ZM152.13,49.85c.02.14.09.22.06.4-.31.06-.32-.18-.34-.4h.29ZM151.61,50.19c.18.11.49.33.4.52-.28.01-.4-.14-.52-.29-.04-.16.11-.12.12-.23ZM150.81,50.31c.16,0,.39-.05.4.12,0,.34-.64.13-.4-.12ZM150.86,53.07c-.12.09-.11-.11-.23-.17-.13-.07-.27,0-.35-.12-.07-.1-.08-.21,0-.34-.02-.19-.17-.25-.23-.4.01-.33.16-.53.29-.75h.46c.14.09.19.27.46.23.05.18.11.35.29.4-.03.24.04.38.06.57-.2.03-.21.25-.29.4-.18.03-.32.1-.46.17ZM151.38,55.36v-.17c.17-.08.17.26,0,.17ZM151.55,58.29c.02-.07.15-.05.17,0,.05.12-.21.13-.17,0ZM151.38,57.14c-.03-.29.17-.57.4-.4.03.3-.15.38-.4.4ZM152.18,55.36c-.21-.04-.28-.22-.46-.29-.02-.42-.33-.55-.29-1.03.06,0,.05-.07.06-.12.2-.14.39-.29.69-.17.03.09.09.14.12.23.3.02.43.22.57.4,0,.14-.09.18-.12.29.08.17.29.44.12.69-.37.06-.47-.21-.69,0ZM153.05,59.5c-.02-.12.04-.15.06-.23-.21-.06-.16.14-.34.12.06-.17.07-.39.29-.4.04.05.06.13.06.23.19-.02.17-.25.34-.29-.03-.19.02-.29.12-.34.32.12.66.22.57.75-.23.13-.51.21-.75.34-.17,0-.22-.12-.34-.17ZM154.31,60.01h-.29c-.04-.21.04-.31.11-.4.23.01.25.24.17.4ZM153.68,54.56c-.18-.33.16-.48.29-.69.27.05.48.17.57.4-.05.34-.49.27-.86.29ZM160.57,45.89h.12v.11h-.12v-.11ZM160.16,44.05h.17c.01.16,0,.31-.17.29v-.29ZM160.34,44.8c-.03.07-.07.12-.17.11.03-.07.07-.12.17-.11ZM157.64,46.64h.12v.11h-.12v-.11ZM156.03,50.54c-.23.06-.17-.17-.4-.11-.24,0-.28.2-.52.06-.13-.65,1.05-.47.92.06ZM155.51,51.23c.02.1-.32.1-.23-.06.12-.03.15.04.23.06ZM154.88,50.83c-.02.07-.1.09-.11.17-.24-.04-.03-.36.11-.17ZM154.71,60.53v-.11c.12-.02.18.01.17.11h-.17ZM155.63,55.82c-.3-.14-.65.05-.75-.35.07-.08.27-.03.35-.11-.04-.14-.35,0-.4-.11-.03-.19.04-.27.06-.4.36.08.5.39.8.52-.02.09.05.1.06.17,0,.14-.09.18-.12.29ZM156.83,56.86h-.17c-.13-.12-.01-.26.06-.34.14.03.24.22.11.34ZM156.89,56.28c.14-.04.3-.12.29.11-.19-.01-.28.13-.29-.11ZM157.35,58.41c.16-.01.31,0,.29.17-.11.11-.35.06-.29-.17ZM157.98,58.98c.11-.1.35-.02.34.17-.11.1-.35.02-.34-.17ZM161.79,51.21v.23c-.15.54-.15.84-.15,1.15v.61l.08.69-.08.46-.38.77-.31.69c-.61.46-1.31.69-2.07.69-2.23,0-3.22-1.07-3.22-3.38,0-1.23.31-2.46.77-3.15l.46-.69.31-.46.15-.15.38-.38c.23-.15.46-.38.77-.61.61-.54,1-.77,1.15-.92.38-.23.92-.38,1.31-.38h.15l.46.08v.54c.01.05.04.09.1.1-.01.03-.05.05-.1.06v.22l-.23,2v.08l.15.61v.31c.08.15.08.23.15.46l.23.08-.08.31ZM162.46,44.28c.09,0,.22-.03.23.06.06.2-.35.15-.23-.06ZM162.69,43.82c-.16-.05-.33-.09-.29-.34h.34c0,.14,0,.28-.06.34ZM165.68,36.41c.23-.06.23.34,0,.29v-.29ZM165.73,48.07c-.01.1-.1.13-.23.11-.03-.18.14-.21.23-.11ZM161.83,34.52c.01-.07.06-.03.06,0-.01.07-.06.03-.06,0ZM162.29,35.21h-.12v-.11h.12v.11ZM162.4,34.58c-.49,0-.86-.49-.63-.86-.04-.19-.32-.14-.46-.23-.02-.23.06-.36.29-.34,0-.21.06-.16,0-.34.2.03.29-.05.34-.17.3,0,.4.33.69.17-.06.44.33.44.57.57.11.28-.11.32-.06.69-.24.18-.54.3-.75.52ZM163.61,35.73c-.25-.03-.29.08-.46,0,.02-.33-.2-.41-.34-.57.08-.24.37-.28.52-.46h.12c.26,0,.37.16.57.23v.17c.11.11.31.15.46.23.12.06.35.1.35.29-.24.05-.46.11-.52.35-.25-.06-.59-.02-.69-.23ZM164.24,44.91c.18-.04.11-.04.29,0,.04.16-.11.12-.12.23-.08-.05-.18-.09-.17-.23ZM164.01,46.98s.06-.09.06-.17c.13-.02.22,0,.29.06.05.22-.26.2-.35.11ZM164.59,46.81c-.01.07-.06.03-.06,0,.01-.07.06-.03.06,0ZM163.44,49.73c.07.13.15.24.12.46-.13.04-.22.12-.4.12.04.2-.15.26-.23.17-.02-.15.12-.15.23-.17-.06-.17-.12-.34-.17-.52.08-.09.29-.05.46-.06ZM163.38,45.2c-.1.1-.31.25-.46.12-.06-.35.35-.21.46-.12ZM163.15,54.33c-.15,0-.29-.01-.29-.17.11-.11.35-.06.29.17ZM163.32,54.56c0-.06.07-.04.12-.06,0,.06-.07.04-.12.06ZM163.55,54.21c-.23,0-.16-.3-.17-.52-.03-.17-.2-.18-.17-.4.18.01.42-.04.52.06.05.3-.05.45-.17.57-.03.1.17.24,0,.29ZM163.72,43.3c-.34-.27.17-.67.4-.34.05.18-.19.08-.17.23-.11,0-.07.16-.23.11ZM163.95,48.7c-.04-.21.2-.14.29-.23.07-.24.18-.44.52-.4.07-.02.12-.07.11-.17h.17c-.01.16.01.29.11.34-.07.23-.27.34-.46.46.11.13.11.15,0,.29-.22.05-.2-.14-.35-.17-.18,0-.35,0-.4-.12ZM164.41,49.91c.1-.27.39-.34.58-.52.28-.04.3.19.63.12.18.28.34.38.29.69-.08.46-.63.42-1.2.4-.07-.25-.26-.39-.29-.69ZM165.1,58.92s.04-.07.06-.06c.03.03-.04.07-.06.06ZM165.5,51c0-.07-.01-.1-.06-.12.03-.18.56-.27.63-.06.03.28-.36.14-.57.17ZM166.94,54.44c-.21-.04-.25.1-.46.06-.05-.1-.18-.17-.06-.29-.06-.19-.34-.16-.4-.34.04-.21.16-.34.23-.52.16-.05.15.08.29.06.08-.03.14-.09.17-.17h.17c.03.21.27.19.4.29-.05.37-.4.45-.34.92ZM167.63,54.9h.12v.11h-.12v-.11ZM167.74,59.44c-.17-.01-.14-.27.06-.23.03.12-.04.15-.06.23ZM167.97,60.18v-.29c.07,0,.1-.01.11-.06.16.01.24.1.23.29-.07.07-.2.07-.34.06ZM169.51,57.83c0-.06.07-.04.12-.06,0,.06-.07.04-.12.06ZM170.09,57.08c.11,0,.19.04.23.12,0,.3-.45.09-.23-.12ZM170.56,57.77c-.09.09-.39.1-.34-.11.09-.09.39-.1.34.11Z"/>
    <path class="cls-1" d="M200.34,32.49c0-.54-.38-.84-.92-.84h-.92l-1.15-.15h-.77l-1.46.31h-1.53l-2.15-.15h-.15c-.84,0-1.61.46-1.61.92v.08l.15.84.38.61.15.69.23.69.61.92.08.31q0,.31.08.54v.77c.08.08.08.15.08.23v1.15l-.38.84-.23,1.61-.31,1-.23.69q-.15.54-.31.84c0,.15-.15.31-.38.54-.15.23-.31.38-.46.54l-.69.61q-.08.15-.08.31l-.08.23-.08.38-.08.61-.38,1.23-.15.69-.15.54-.23.54-.31.08-.54-.38v-.46c0-.31,0-.54-.08-.92q-.08-.15-.08-.23l-.61-1.69-.08-1.61-.08-.54-.61-1.23-.46-1.07-.69-.92-.31-.69-.46-1.3-.69-1.84-.15-.77-.04-.25c-.02.25.08.28,0,.45-.27.12-.59-.02-.52-.4.18,0,.38-.18.52-.06l-.03-.2v-.46q-.08-.15-.08-.31v-.08c.15-.61.38-1.23.61-1.46l.54-.61.15-.46v-1.53c-.31-.08-.46-.08-.61-.08-.31-.08-.54-.15-.69-.15h-.54l-.38.08-1.99.38-1.46.08-2.3-.31-1.3-.08-1.76-.08c-.84,0-1.46.46-1.46,1.15v.08c0,.15.08.54.23.92.08.23.08.31.15.46l.61.38,1.15.84,1.23.84.15.15.15.31c.08,0,.15.08.15.23q.08.15.15.23l.08.15.08.23.08.31.15.31.23.61.31.84.62,1.38.69,1.53.54.92.15.46.31.61c0,.08.08.15.08.38.08.08.08.15.08.23.08.23.15.38.15.46l.23,1.92.38,1,.46,1.53.54,1,.38.46.38.61.15.38.15.31c0,.08.08.15.08.23l.15,1.38.23.69.08,1,.08.54.54,1.31.61,2.07.15.23v.15l-.38.69v.54l-.08,1.38-.31,1.15-.61,1.69-.31,1.92-.38.77-.31.69-.31.46-1.15,1.53-.69,1.46-1,1.23-.84,1.38-.38.31-.69.38-.31.31-1,1.07-.92.77-.08.23-.15.38c0,.08,0,.23-.08.54,0,.23-.08.38-.08.61v.15c0,.84.38,1.23,1.07,1.23h.15l1-.23.77-.46.92-.38.31-.31,1.3-1.3.54-.69,1.23-.77.54-1,.23-.85.31-.84.46-1.15.46-1.07.31-.61.84-2.38.23-.31.31-.38.23-.31.38-1.53.31-.92.15-.46.46-.84.22-.32h-.04v-.17h.15l.28-.42.61-1.46.38-.84.23-.54.15-1.3.31-1.07.15-.54.15-.31.15-.15.46-.69.92-2.23.46-.69.08-.54.15-.46.54-1,.38-1,.61-1,.31-1.07.31-.84.15-1.38.54-1.61.38-1.77,1.53-2.76.23-.69.23-1.07c.38-1.77,2.15-3.76,4.07-4.76.69-.31.92-.69.92-1.23ZM174.46,34.81h-.11v-.12h.11v.12ZM174.69,33.89c-.15.02-.25-.02-.23-.17.05.01.05-.02.06-.06.15-.02.19.08.17.23ZM174.92,34.86h.29c.06.23-.34.23-.29,0ZM179.05,43.65c.01-.07.11-.06.12,0-.05.04-.1.07-.12,0ZM179.57,43.82c-.28.06-.11-.31,0-.11v.11ZM180.31,46.92c-.07-.08-.07-.21,0-.29.19-.01.26.32,0,.29ZM179.92,38.19v-.46c.09-.17.32-.21.4-.4.76.11.24,1.37-.4.86ZM180.95,36.19c-.14.07-.35.07-.46.17-.19,0-.2-.19-.4-.17.08-.31-.22-.24-.17-.52.07-.08.28-.03.29-.17.27.09.41.32.75.34.06.18,0,.13,0,.34ZM181.7,52.09c-.11.05-.27.19-.4.06-.06-.31.21-.29.17-.57h.23v.52ZM183.88,62.02c0-.06.07-.04.11-.06,0,.06-.07.05-.11.06ZM184.68,59.96c-.25.02-.36-.1-.4-.29.19-.14.48,0,.4.29ZM185.54,56.34c-.3.18-.59-.09-.57-.4.14.18.66,0,.57.4ZM186.69,58.41c-.18-.05-.18.09-.29.11.14.13.38.15.34.46-.07.07-.2.07-.34.06v-.23c-.18-.04-.11.16-.29.11-.2-.15-.06-.52,0-.75h.52c.06-.04.26-.22.34-.06,0,.2-.29.09-.29.29ZM188.24,54.1c-.13.02-.22,0-.29-.06-.01-.28.36-.29.29.06ZM191.97,37.45c-.09-.08-.05-.29-.06-.46.33-.05.52.06.46.4-.07.08-.25.06-.4.06Z"/>
    <path class="cls-5" d="M221.71,56.05l-1.77-.38c-.71-.18-1.05-.63-1.17-1.66-.04,0-.09-.02-.12-.03v-.17s.06-.03.09-.04c-.02-.26-.03-.54-.03-.87v-1l.08-.77.15-2,.15-3.61.08-3.07v-.61l-.08-1.61-.15-2.38v-.61l.08-.77v-.08c0-1.23-.69-2.61-1.61-3.22l-1.07-.69-.84-.54-.84-.31c-.15-.08-.46-.15-1.15-.23-.54-.15-1.07-.23-1.61-.31-.31-.08-.77-.08-1.07-.08h-.84c-1.3,0-2.3.23-3.38.77l-1.07.54-.31.15-.54.46-.23.08-.15.15c-.15.08-.46.38-.77.61q-.08.08-.15.15l-.38.77-.46.61-.15.31v.84l-.08.54c.46.38,1.23.69,1.84.69h.38l.54-.08h1l.69-.15.92-.08c.23,0,.54-.23.92-.46.31-.23.61-.54.77-.69l.31-.46c.15-.15.38-.38.61-.69.15-.15.23-.23.31-.31l.84-.15h.15c1.15,0,1.69,1.07,1.69,3.68,0,1.07-.08,1.76-.31,2.38l-.23.61-.23.84-.23.31-.46.46-.69.77c-.31.31-1,.84-1.53,1.15l-1.84,1-3.53,1.38-1.92,1.38c-2,1.46-2.53,2.69-2.53,5.91,0,3.86,1.33,5.92,4.18,6.41,0-.02.02-.03.03-.05.22-.03.28.1.52.06,0,.02.01.04.02.06.28.03.56.04.86.04h1.92c1.15,0,1.84-.08,2.15-.31l1.61-1,.92-.23.84.31.79.79v-.07h.12v.12h-.07l.09.09c.46.46,1.23.61,2.99.61s2.53-.15,3.38-.61l.38-.23c1-.61,1.61-1.46,1.69-2.3l.08-1.07v-.15c0-.23-.08-.46-.46-.84l-.08-.08ZM205.58,35.27c-.21.02-.28-.11-.46-.11,0-.17-.17-.29-.06-.4h.11c.29.07.28.07.52.17.03.18-.08.23-.12.34ZM203.51,49.22c.25.03.45.12.4.46-.27-.02-.42-.15-.4-.46ZM204.36,52.15c-.23.06-.28-.18-.17-.29h.17v.29ZM212.64,43.76s-.04.07-.06.06c-.03-.03.04-.07.06-.06ZM205.7,57.83c-.02-.12.04-.15.06-.23.09-.02.1.05.17.06.02.15-.08.19-.23.17ZM205.74,56.11c.15-.02.25.02.23.17-.11.11-.28.03-.23-.17ZM207.36,59.78h-.29c-.12-.13-.04-.38.06-.46.31,0,.42.26.23.46ZM208.22,60.59c.09-.02.1.05.17.06.02.11-.26.08-.17-.06ZM211.2,58.58c-.2-.03-.24-.12-.17-.29h.23c.02.13,0,.22-.06.29ZM211.88,58.92c.14-.04.36-.13.35.12-.09.09-.39.1-.35-.12ZM212.7,56.8h-.17v-.11s.05-.02.06-.06h.11v.17ZM212.81,51.21v.23c-.15.54-.15.84-.15,1.15v.61l.08.69-.08.46-.38.77-.31.69c-.61.46-1.3.69-2.07.69-2.23,0-3.22-1.07-3.22-3.38,0-1.23.31-2.46.77-3.15l.46-.69.31-.46.15-.15.38-.38c.23-.15.46-.38.77-.61.61-.54,1-.77,1.15-.92.38-.23.92-.38,1.3-.38h.15l.46.08v.92l-.23,2v.08l.15.61v.31c.08.15.08.23.15.46l.23.08-.08.31ZM213.09,34.98c-.08-.1-.15-.19-.12-.4.1-.09.47-.09.57,0-.01.28-.2.38-.46.4ZM214.58,59.78c.17,0,.38-.03.34.17-.11.11-.42.09-.34-.17ZM215.04,58.4s.04-.07.06-.06c.03.03-.04.07-.06.06ZM215.33,56.11h-.11v-.11h.11v.11ZM215.11,49.85c-.05-.16-.14-.28-.17-.46.28-.26.52-.09.86,0,.02.4-.35.42-.69.46ZM216.32,38.02c.21.02.23.19.17.34-.26.08-.28-.23-.17-.34ZM216.48,48.93s-.04.07-.06.06c-.03-.03.04-.07.06-.06ZM216.66,50.54c-.1,0-.18-.01-.23-.06.01-.1.1-.13.23-.11v.17ZM217.45,53.18c-.17.08-.36.07-.46-.06-.07-.48.58-.42.46.06Z"/>
    <path class="cls-10" d="M251.73,58.29h.17c.01-.13-.05-.18-.17-.17v.17Z"/>
    <path class="cls-11" d="M252.48,58.92h-.29c-.04-.21.04-.31.11-.4.1,0,.15.05.18.12l-.08-.28-.1-.19s0,.05,0,.08c-.23.13-.51.21-.75.34-.17,0-.22-.12-.34-.17-.02-.12.04-.15.06-.23-.21-.06-.16.14-.34.12.06-.17.07-.39.29-.4.04.05.06.13.06.23.19-.02.17-.25.34-.29-.03-.19.02-.29.11-.34.12.05.24.09.34.15l-.12-.28-.08-.08c-.54-.61-.69-.77-1-1l-.08-.61v-.23l.06-1.16c-.23-.03-.33-.17-.51,0-.21-.04-.28-.22-.46-.29-.02-.42-.33-.55-.29-1.03.06,0,.04-.07.06-.12.2-.14.39-.29.69-.17.03.08.08.14.11.23.1,0,.17.04.24.07l-.06-.22v-.61l.08-.69v-1.84c0-.31,0-.77-.08-1.07l-.31-2.07-.08-.84v-2.38l.08-1.15.31-2.07.08-.69v-.08c0-.46-.15-.92-.46-1.3-.15-.31-.31-.46-.31-.54q-.08-.08-.08-.15c-.08-.08-.08-.15-.08-.23-.15-.31-.23-.54-.31-.54,0-.08-.08-.15-.08-.23l-.31-1.3c-.08-.23-.23-.54-.46-.84-.46-.46-.84-.77-1.3-.92l-1.3-.46-.92-.38c-.54-.23-1-.38-1.38-.38l-1.53-.15-.38-.08c-.15,0-.38,0-.61.08-.23,0-.38.08-.46.08-.15,0-.23.08-.31.08l-2.84,1.76-.61.15-.77-.69.38-1.15.15-.23.23-.23.15-.54c0-.84-.61-1.15-2.23-1.15-.92,0-1.15.08-2.3.84l-.92.61c-1,.61-2,1.07-2.92,1.23h-.02c.08,0,.15.06.13.17-.11-.03-.35.08-.29-.12.01-.01.03-.02.05-.03l-1.09.2c-1.07.23-1.92,1.15-1.92,2v.15l.15.61.77.31,1.23.46c.23.08.38.31.46.46.08.08.08.15.08.23l-.08.46-.15.84-.15.54v.31c.61.69.77,1.07.77,1.92v.31l-.08,1-.15,1.23-.08,1.23-.08,1.77-.08,1.3-.08.69.08,1.07-.15,2.22.04.52s.01,0,.01,0c0,.06,0,.11,0,.15l.03.48v.15c0,.54-.08,1.07-.46,2.15l-.15.08-.31.77c-.23.54-.46.84-.61.92l-1.07.38c-.54.23-1,1.08-1,2,0,.46.31.84.77.84l1.07.15.69.15.69.08,1.92.08h.61l.84-.08,3.45.08.59-.04v-.07s.05-.02.06-.06c.09.02.11.06.09.11l.41-.03h1c.69,0,1.23-.77,1.23-1.69,0-.31-.08-.46-.31-.77-.08-.15-.15-.31-.23-.31l-.92-.54c-.31-.23-.46-.31-.92-.77-.23-.31-.38-.54-.46-.61l-.38-.92v-.15c-.31-1-.46-2.46-.46-5.14v-.09c-.07.07-.23-.07-.43-.01-.08-.17-.16-.34,0-.46.16.1.28.25.43.37v-.44c-.13.03-.25-.08-.2-.28.08,0,.14,0,.2.02v-.88l.15-.46.38-2.15v-1.69l.08-1.84h0c-.13-.04-.15-.24.02-.23l.05-.53v-.61l.08-.46v-.08l.23-.46.17-.48c-.12.03-.23.09-.33-.01-.03-.25.26-.33.42-.23l.04-.12c.61-1.69,2.15-2.76,3.91-2.76,2.84,0,4.53,1.92,4.53,5.22v2.95c.13-.02.21.01.28.06.03.2-.17.17-.23.29-.02,0-.04,0-.06-.02v.09c.02.09,0,.22-.06.27,0,0,0,0,0,0v.05s-.16,1.3-.16,1.3v1l.15,1.38v1.22c.08,0,.15.02.18.1.06.25-.11.26-.17.4l.06.97v.31c0,.54-.08,1.23-.23,2.15l-.15.92v.54c0,.69-.38,1.3-1.23,1.84-1.99,1.23-2.3,1.61-2.3,2.46,0,1,.46,1.31,2,1.31h.36v-.03h.12v.03h.86c-.02-.17.15-.33.4-.26,0,.1-.01.19-.04.26h.07l.84-.15,1.38-.08,1.46-.15h.61l1.61-.08h.08l1.15.15h.15c.84,0,1.38-.46,1.46-1.23l-.13-.48c0,.07,0,.14-.03.2ZM225.66,57.71c.37-.04.51.14.69.29-.15.23-.73.04-.69-.29ZM227.67,55.82c.17-.02.2.11.29.17-.07.28-.5,0-.29-.17ZM228.31,56.91c-.15.02-.19-.08-.17-.23-.02-.16-.24-.1-.29-.23-.02-.22.4-.21.52-.12-.06.26.01.4-.06.57ZM228.59,46.69c.12-.02.15.04.23.06-.01.1-.1.13-.23.12v-.17ZM228.53,56.8c-.01-.19.21-.3.34-.17-.05.12-.14.2-.34.17ZM236.69,59.44c-.24.03-.37.16-.63.17-.02-.26.55-.55.63-.17ZM236.23,57.77c.07.07.06.2.06.34-.1.07-.41-.01-.52-.11.08-.15.21-.25.46-.23ZM235.02,56.68c.26.09.45.67-.06.63.04-.35-.34-.28-.4-.52.16-.08.34.08.46-.11ZM234.45,57.08c.17-.08.17.26,0,.17v-.17ZM233.93,42.04c.08.15.34.11.34.34-.26-.04-.46.19-.63.06-.1-.25.44-.36.11-.46-.04-.18.16-.11.12-.29.24-.04.2.31.06.34ZM233.47,47.32c-.36.04-.45-.21-.69-.29,0-.14,0-.28.06-.34.32-.07.2.3.46.29.19-.08.27-.26.4-.4.17.02.23.32.12.46-.14.1-.44-.13-.34.29ZM233.99,35.95c-.01.22-.24.22-.4.29v-.34c.15,0,.33-.02.4.06ZM233.41,35.72c.12-.02.18.01.17.11h-.17v-.11ZM233.64,39.51c-.25-.03-.29.08-.46,0-.13-.38.6-.41.46,0ZM232.84,39.57c.22-.03.37.02.46.11-.11.18-.15.42-.46.4-.09-.09-.09-.42,0-.52ZM232.32,39.97c-.21.19-.27-.11-.4-.17.04-.08.45-.03.4.17ZM232.21,48.53h.12c.03.12-.08.11-.17.11.01-.05.06-.06.06-.11ZM232.09,43.02c-.07-.08-.07-.21,0-.29.27,0,.27.29,0,.29ZM231.98,35.9c-.13.02-.22,0-.29-.06,0-.17.34-.15.29.06ZM230.66,42.67c-.01.07-.11.06-.12,0,.03-.08.05,0,.12,0ZM230.72,52.32c0,.24-.11.31-.29.23-.03-.21.15-.36.29-.23ZM230.37,44.97c.04.23-.22.16-.4.17-.09-.28.29-.27.4-.17ZM229.28,37.16c-.03-.18.05-.26.23-.23.03.18-.05.26-.23.23ZM229.51,46.58c.21,0,.16-.06.34,0,.03.18-.08.22-.11.34-.1,0-.12-.07-.23-.06v-.29ZM229.63,53.01c.13-.02.22,0,.29.06,0,.14,0,.28-.06.34-.16.05-.15-.08-.29-.06,0-.14,0-.28.06-.34ZM230.43,58.81c-.15.09-.69.24-.8,0-.04-.19.1-.21.23-.23.02-.14-.11-.12-.06-.29.42-.43.82.17.98.52-.04.04-.32.13-.34,0ZM230.72,33.37c-.05-.07-.08-.15-.06-.29.13-.03.29-.11.4,0-.07.14-.06.36-.34.29ZM231.06,59.55s-.05.02-.06.06h-.11s-.02-.05-.06-.06v-.11s.05-.02.06-.06h.11s.02.05.06.06v.11ZM230.89,38.65c.11-.11.42-.09.34.17-.11.1-.35.02-.34-.17ZM231.18,43.59c.11-.17.44-.12.4.17-.14.12-.42.04-.4-.17ZM231.63,41.98c.2-.02.33.02.29.23h-.29v-.23ZM231.92,54.1c-.01-.36.22-.47.52-.52-.06.21-.12.42-.17.63-.18.03-.22-.08-.34-.12ZM232.38,59.61c-.13-.13.01-.33.06-.46.18-.03.23.07.29.17-.01.2-.17.25-.34.29ZM232.78,47.67c.08.05.22.05.17.23-.07,0-.1.01-.12.06-.15,0-.14-.21-.06-.29ZM232.96,60.41c-.22.05-.2-.26-.12-.34h.17c.08.07.1.34-.06.34ZM233.41,51.92s.06-.06.06-.11c.07.03.12.07.11.17-.09.02-.1-.05-.17-.06ZM234.16,59.67c.02.13-.01.22-.06.29-.17-.02-.29-.09-.4-.17.01-.18.29-.1.46-.12ZM233.76,50.48s-.04.07-.06.06c-.03-.03.04-.07.06-.06ZM233.93,52.09c.02.15-.08.19-.23.17-.02-.15.08-.19.23-.17ZM233.82,48.41c-.18.03-.2-.1-.4-.06-.06.21.22.09.17.29h-.29c-.11-.12-.15-.31-.17-.52.1,0,.12-.07.23-.06.06-.21-.14-.16-.11-.34.19-.1.39-.46.63-.17.04.34-.05.56-.06.86ZM233.99,47.9v-.23h.23c.03.18-.05.26-.23.23ZM234.05,46.92c.21.17-.17.19,0,0h0ZM234.28,44.05c-.08.02-.09.1-.17.12-.18,0-.25-.13-.23-.34.17-.17.46-.12.4.23ZM234.96,41.35h-.29c-.06-.28.35-.28.29,0ZM235.14,36.13c-.26,0-.17-.36-.23-.57.14-.05.25-.13.46-.11.02.32-.24.37-.23.69ZM235.48,37.62c-.05.05-.06.13-.06.23-.25.03-.2-.31.06-.23ZM235.37,38.71c-.02-.13,0-.22.06-.29.26-.04.21.38-.06.29ZM236.4,35.04c.38-.03.58.11.57.46-.2.06-.61-.1-.57-.46ZM237.26,35.15c-.01.07-.06.03-.06,0,.01-.07.06-.03.06,0ZM237.09,36.47v-.11h.23c.06.17-.13.1-.23.11ZM238.12,35.44s.04-.07.06-.06c.03.03-.04.07-.06.06ZM242.14,33.31v-.11h.23c.06.17-.13.1-.23.11ZM242.6,35.27c.07.02.12.07.12.17-.07-.02-.12-.07-.12-.17ZM240.88,58.81c.02-.13.15-.13.23-.06-.02.13-.15.13-.23.06ZM241.74,58.58c-.21.03-.28-.07-.4-.11-.04-.27.41-.28.57-.17-.03.12-.12.19-.17.29ZM245.53,47.15c-.13,0-.02-.24-.06-.34.2.05,0,.14.06.34ZM244.61,43.53c-.06.06-.3.05-.29-.11.09-.09.33-.08.29.11ZM244.15,32.4h.29c.09.3-.38.3-.29,0ZM244.27,47.21c.21-.02.34.05.35.23-.15.13-.39,0-.35-.23ZM244.21,50.08c.23-.06.23.34,0,.29-.11-.11,0-.14,0-.29ZM244.5,60.3h-.11v-.12h.11v.12ZM243.98,53.18c-.08-.4.13-.51.52-.46.08.11.15.23.17.4-.15.21-.37,0-.69.06ZM244.84,45.77c-.15.02-.25-.02-.23-.17.05.01.05-.02.06-.06.15-.02.19.08.17.23ZM245.13,46.58c-.22-.03-.31-.22-.23-.4.22,0,.39.07.34.34-.07,0-.1.01-.12.06ZM245.36,45.72h.17v.17h-.17v-.17ZM245.41,55.88c.02-.13.15-.13.23-.06-.02.13-.15.13-.23.06ZM245.64,43.71s.04-.07.06-.06c.03.03-.04.07-.06.06ZM245.76,47.67c.21-.02.4-.01.34.23-.09.07-.4.02-.34-.23ZM249.55,54.27v-.17c.17-.08.17.26,0,.17ZM250.7,49.27c.02.12-.04.15-.06.23-.15,0-.22-.08-.23-.23.08-.07.21-.07.29,0ZM250.3,48.76c.02.13.09.22.06.4-.31.06-.32-.18-.34-.4h.29ZM250.01,40.2c-.21.04-.14-.2-.23-.29-.15-.09-.08-.18,0-.29.15.1.36.38.23.57ZM249.72,39c.15,0,.22.08.23.23-.23.06-.33-.13-.23-.23ZM249.78,49.1c.18.11.49.33.4.52-.28.01-.4-.14-.52-.29-.04-.16.11-.12.11-.23ZM248.97,49.22c.16,0,.39-.05.4.11,0,.34-.64.13-.4-.11ZM248.74,43.02h.11v.11h-.11v-.11ZM248.57,40.49c0,.06-.07.04-.12.06,0-.06.07-.04.12-.06ZM247.37,47.55h.17v.17h-.17v-.17ZM247.37,47.9h.11v.12h-.11v-.12ZM246.79,45.72c.1.27-.33.32-.29.06.07-.05.15-.08.29-.06ZM246.91,47.38c.05.29-.25.44-.46.29-.05-.33.26-.54.46-.29ZM246.16,44.57c.15-.02.25.02.23.17-.11.11-.28.03-.23-.17ZM246.91,56.91h-.52c-.16-.26-.05-.43-.06-.8h.17c.2.01.16.26.29.34.13-.02.22,0,.29.06-.01.18-.12.26-.17.4ZM247.14,48.76c-.23.06-.28-.18-.17-.29h.17v.29ZM247.31,48.3c.07-.08.27-.08.35,0-.02.21-.37.34-.35,0ZM247.77,58.17c0,.06-.07.04-.11.06,0-.06.07-.04.11-.06ZM247.94,58.69c-.15.02-.25-.02-.23-.17.05.01.06-.02.06-.06.15-.02.19.08.17.23ZM247.94,48.3c.14,0,.17-.1.35-.06.08.08.12.46-.06.46-.1-.04-.39-.26-.29-.4ZM249.03,51.97c-.12.09-.11-.11-.23-.17-.13-.07-.27,0-.35-.12-.07-.1-.08-.21,0-.34-.02-.19-.17-.25-.23-.4.01-.33.16-.52.29-.75h.46c.15.09.19.27.46.23.05.18.11.35.29.4-.03.24.04.38.06.57-.2.03-.21.25-.29.4-.18.03-.32.1-.46.17ZM249.72,57.2c.02-.07.15-.05.17,0,.05.12-.21.13-.17,0ZM249.55,56.05c-.03-.29.17-.57.4-.4.03.3-.15.38-.4.4Z"/>
    <path class="cls-12" d="M276.96,56.05l-1.76-.38c-.92-.23-1.23-.92-1.23-2.76v-1l.08-.77.15-2,.15-3.61.08-3.07v-.61l-.08-1.61-.15-2.38v-.61l.08-.77v-.08c0-.88-.36-1.84-.91-2.54-.05.14-.33.11-.28-.09h.22c-.19-.24-.41-.44-.64-.59l-1.07-.69-.84-.54-.84-.31c-.15-.08-.46-.15-1.15-.23-.54-.15-1.07-.23-1.61-.31-.31-.08-.77-.08-1.07-.08h-.84c-1.3,0-2.3.23-3.38.77l-.74.37c.09.04.19.07.27.11.11.28-.11.32-.06.69-.24.18-.54.3-.75.52-.35,0-.62-.25-.68-.52l-.19.06-.15.15c-.15.08-.46.38-.77.61q-.08.08-.15.15l-.38.77-.46.61-.15.31v.84l-.08.54c.37.31.94.57,1.47.66-.02-.19.02-.32.06-.45.01-.26-.26-.24-.23-.52.13-.04.29-.05.4-.12.05-.12-.15-.26-.17-.12-.13-.2.19-.46.23-.69.14-.02.12.1.29.06.21-.04.29-.21.4-.34.27.04.73-.12.75.17.13-.1.24-.22.4-.29.12.03.12.09.06.17.06.15.23.19.46.17.05.07.08.15.06.29.05.13.2.14.29.23-.04.31.32.21.29.52.01.12-.05.18-.17.17-.05.18.19.08.17.23-.05.12-.12.22-.19.31l.82-.07c.23,0,.54-.23.92-.46.31-.23.61-.54.77-.69l.31-.46c.15-.15.38-.38.61-.69.15-.15.23-.23.31-.31l.84-.15h.15c1.15,0,1.69,1.07,1.69,3.68,0,1.07-.08,1.76-.31,2.38l-.23.61-.23.84-.23.31-.46.46-.69.77c-.31.31-1,.84-1.53,1.15l-1.84,1-3.53,1.38-1.92,1.38c-2,1.46-2.53,2.69-2.53,5.91,0,4.45,1.76,6.52,5.6,6.52h1.92c1.15,0,1.84-.08,2.15-.31l1.61-1,.92-.23.84.31.92.92c.46.46,1.23.61,2.99.61s2.53-.15,3.38-.61l.38-.23c1-.61,1.61-1.46,1.69-2.3l.08-1.07v-.15c0-.23-.08-.46-.46-.84l-.08-.08ZM260,33.43c.01-.07.06-.03.06,0-.01.07-.06.03-.06,0ZM260.46,34.12h-.12v-.11h.12v.11ZM262.47,34.86c-.25-.06-.59-.02-.69-.23-.25-.03-.29.08-.46,0,.02-.33-.2-.41-.34-.57.08-.24.37-.28.52-.46h.12c.26,0,.37.16.57.23v.17c.11.11.3.15.46.23.12.06.35.1.34.29-.23.05-.46.11-.52.34ZM263.84,35.61v-.29c.23-.06.23.34,0,.29ZM255.06,55.19c.14-.04.29-.12.29.12-.19-.01-.28.14-.29-.12ZM255.4,54.16c.36-.04.5-.16.8,0,0,.15.02.33-.06.4-.3-.11-.55.07-.8-.06-.04-.18.06-.21.06-.34ZM255.52,57.31c.16-.01.31,0,.29.17-.11.11-.35.06-.29-.17ZM255.81,54.84c.2-.01.34.04.4.17,0,.22-.22.2-.4.23-.08-.08-.08-.33,0-.4ZM256.15,57.89c.11-.1.35-.02.34.17-.11.1-.35.02-.34-.17ZM257.53,53.41c0-.07-.01-.1-.06-.11,0-.13.14-.12.29-.12.03.18-.05.26-.23.23ZM258.33,51.8c-.11,0-.19.04-.23.11-.14,0-.18-.09-.29-.11-.24-.1-.54.21-.57-.06.03-.22.27.01.46-.12.1-.05.18-.13.23-.23.15,0,.33-.02.4.06v.34ZM267.81,44.05c.15,0,.14.21.06.29-.15,0-.13-.21-.06-.29ZM266.94,44.45c-.05.04-.1.07-.11,0,.01-.07.11-.06.11,0ZM263.9,46.98c-.01.1-.1.13-.23.11-.03-.18.14-.21.23-.11ZM262.41,47.38c.07-.24.18-.44.52-.4.07-.03.12-.07.11-.17h.17c-.01.16.01.29.11.34-.07.23-.27.34-.46.46.11.13.11.15,0,.29-.22.05-.2-.14-.35-.17-.18,0-.35,0-.4-.12-.04-.21.2-.14.29-.23ZM261.32,49.22c-.06-.17-.12-.34-.17-.52.08-.09.29-.05.46-.06.06.13.15.23.11.46-.13.04-.22.12-.4.11.04.2-.15.26-.23.17-.02-.15.12-.15.23-.17ZM261.32,53.24c-.15,0-.3-.01-.29-.17.11-.11.35-.06.29.17ZM261.49,53.47c0-.06.07-.04.12-.06,0,.06-.07.05-.12.06ZM261.72,53.12c-.23,0-.16-.3-.17-.52-.03-.17-.2-.18-.17-.4.18.01.42-.04.52.06.05.3-.05.45-.17.57-.03.1.17.24,0,.29ZM263.27,57.83s.04-.07.06-.06c.03.03-.04.07-.06.06ZM265.91,58.35c-.17-.01-.14-.27.06-.23.02.12-.04.15-.06.23ZM266.14,59.09v-.29c.07,0,.1-.01.12-.06.16.01.24.1.23.29-.07.07-.2.07-.34.06ZM268.06,51.21v.23c-.15.54-.15.84-.15,1.15v.61l.08.69-.08.46-.38.77-.31.69c-.61.46-1.3.69-2.07.69-2.23,0-3.22-1.07-3.22-3.38,0-1.23.31-2.46.77-3.15l.32-.48s-.09,0-.14,0c-.07-.25-.26-.39-.29-.69.1-.27.39-.34.57-.52.28-.04.3.19.63.12.01.02.03.04.04.05l.17-.17c.23-.15.46-.38.77-.61.61-.54,1-.77,1.15-.92.38-.23.92-.38,1.3-.38h.15l.46.08v.92l-.23,2v.08l.15.61v.31c.08.15.08.23.15.46l.23.08-.08.31ZM269.53,43.36c-.26.03-.32-.14-.52-.17.02-.53.54-.16.52.17ZM269.01,50.31c0,.06-.07.04-.11.06,0-.06.07-.04.11-.06ZM268.32,45.14c.17-.12.58-.07.52.23-.18-.01-.42.04-.52-.06v-.17ZM268.73,56.68c-.09.09-.39.1-.34-.12.09-.09.39-.1.34.12ZM269.07,58.75c.01-.07.11-.06.12,0-.03.08-.05,0-.12,0ZM269.93,60.07c.21.17-.17.19,0,0h0ZM269.99,54.61c0,.14,0,.28-.06.35-.28.05-.57.08-.86.11-.23-.19-.39-.43-.46-.75-.03-.13.06-.15.06-.23,0-.14-.15-.16-.11-.29.15-.1.34-.16.4-.34.24-.02.22.08.4,0,.22-.25.6,0,.75.17,0,.14-.09.18-.12.29.06.17.2.26.17.52.01.13-.05.18-.17.17ZM272.51,33.6h.12v.11h-.12v-.11ZM271.65,38.6c-.02-.29.08-.46.4-.4.08.07.06.25.06.4-.03.08.22.14.06.17-.04-.19-.41-.05-.52-.17ZM272.17,58.75c-.14-.1-.14-.35,0-.46.14.09.42.04.46.23.03.26-.33.13-.46.23ZM272.4,47.15c-.09-.45.59-.55.52-.06-.11.08-.37.19-.52.06ZM275.27,59.9c0,.19.16.22.12.46-.11,0-.07.16-.23.11-.18,0-.25-.13-.23-.34-.48-.15-.78-.48-1.15-.75.05-.2-.09-.22-.06-.4.09-.06.12-.19.29-.17-.05-.2.06-.24.12-.34.4.04.86.02,1.09.23.02.13,0,.22-.06.29.12.12.37.13.46.29.07.39-.2.45-.34.63Z"/>
  </g>
  <g>
    <path class="cls-13" d="M66.34,28.25c-.14.13-.27.21-.04-.11,0,0,.01,0,.02-.01-.05-.31-.1-.61-.17-.89-.07-.32-.16-.62-.26-.92-.06-.04-.13-.09-.23-.08.02-.09.07-.14.14-.17-.12-.34-.26-.67-.42-.98-.12.1-.38.07-.57.09.03-.21.28-.19.51-.2-2.04-3.99-6.69-5.92-11.48-6.16-1.75-.09-3.29.07-4.76.43.02,0,.03,0,.05,0-.07.6-1.12.07-.42.85-.17.49-.74-.36-1.06-.42-.23.05-.14.42-.42.42.11.27,1.44.14,1.48,1.06-.5-.34-1.22-.48-1.69-.85-.43.15-.84.66-1.27.21,0-.05.03-.08.05-.11-.33.15-.65.31-.98.48.07.05.16.07.3.05-.18.31-.68.31-1.06.42-.02-.01-.04-.02-.06-.04-.47.26-.94.53-1.44.82-.04.04-.09.07-.14.08-.11.06-.22.13-.32.19.02,0,.03,0,.05,0-.04.17-.21.21-.21.42-.12-.03-.18-.12-.27-.17-.42.26-.86.53-1.3.81.04-.01.07-.02.09,0,.11.11-.15.27-.21.21-.05-.05-.02-.11.03-.15-.18.11-.36.22-.54.34-.05.03-.1.07-.16.1.16,0,.36-.03.67-.07-.11.28-.68.47-1.13.36-.54.34-1.04.67-1.52.99-.1.09-.2.16-.3.2-.14.1-.28.19-.42.29.11.12.24.21.41.27-.2.41-.75.47-1.13.23-.05.03-.09.07-.14.1.05.08.06.18,0,.31-.1-.08-.17-.12-.22-.14-1.83,1.34-3.29,2.66-4.92,4.47.13.07.27.12.48.12,0,.85-.44.54-.98.45-.26.3-.53.61-.81.95-1.17,1.4-1.92,2.62-1.92,2.62-4.79,6.44-6.94,14.94-3.35,20.58,2,3.14,8.55,5.68,13.53,4.93,1.23-.18,2.8-.45,4.45-.81.01-.02.03-.02.03-.04.03,0,.05.01.07.02,2.35-.51,4.85-1.21,6.78-2.12,3.06-1.44,5.22-3.96,7.52-6.41,0-.08.03-.17.09-.24.03.02.06.03.09.04.7-.74,1.41-1.47,2.18-2.15-.03-.02-.06-.04-.09-.06-.16.09-.36.14-.63.11-.07-.15-.12-.17-.06-.34-.09-.17-.29-.24-.46-.34-.03-.2.02-.32.06-.46.01-.26-.26-.24-.23-.51.13-.04.29-.05.4-.12.05-.12-.15-.26-.17-.11-.13-.2.19-.46.23-.69.14-.02.12.1.29.06.21-.04.29-.21.4-.34.27.04.73-.12.74.17.13-.1.24-.21.4-.29.12.03.12.09.06.17.06.15.23.19.46.17.05.07.07.15.06.29.04.13.2.14.29.23-.03.26.23.23.28.41.66-.52,1.25-1.04,1.78-1.55-.08-.06-.08-.17.07-.21.03,0,.08,0,.13,0,2.9-2.9,3.76-5.72,3.69-9.56-.05-2.69-.05-5.47-.39-7.7ZM22.76,47.65c0-.26.32-.21.34-.46.57.05.08.76-.34.46ZM61.58,41.47c-.15,0-.14-.21-.06-.28h.17c.05.18-.05.22-.11.28ZM61.58,27.98c-.13.11-.41.03-.4-.17.12-.1.49-.11.4.17ZM61.53,33.18s.04-.07.06-.06c.03.03-.04.07-.06.06ZM61.22,34.28c0,.21-.26.16-.42.21,0-.21.26-.16.42-.21ZM61.64,44.23c0,.21-.26.17-.42.21,0-.21.26-.16.42-.21ZM60.79,21.57c.69.26.16-.69.85-.42-.22,1.21-1.07.62-1.69.21.21-.65.57.24.85.21ZM60.21,20.78c-.23.02-.42,0-.51-.11.04-.38.72-.21.51.11ZM58.46,25.38c0,.21-.26.16-.42.21,0-.21.26-.16.42-.21ZM57.83,24.96c.11.11-.15.27-.21.21-.11-.11.15-.27.21-.21ZM57.07,22.49c.36-.01.6.08.63.4-.17.07-.41.07-.57,0-.02-.13-.09-.21-.06-.4ZM56.56,23.69c.11.11-.15.27-.21.21-.11-.11.15-.27.21-.21ZM55.69,23.92s-.04.07-.06.06c-.03-.03.04-.07.06-.06ZM54.23,23.26c-.09.31-.19-.02-.42,0,.05-.27.42-.21.42,0ZM53.59,20.08c.11.11-.15.27-.21.21-.11-.11.15-.27.21-.21ZM53.38,23.05c0,.21-.26.16-.42.21,0-.21.26-.16.42-.21ZM52.75,22.84c-.04.24-.21.12-.21,0,.04-.24.21-.12.21,0ZM52.53,19.45c.11.11-.15.27-.21.21-.11-.11.15-.27.21-.21ZM51.9,20.72c-.5.68-.86-.74,0,0h0ZM51.69,21.57c-.11-.11.15-.27.21-.21.11.11-.15.27-.21.21ZM51.69,22.63c-.5.68-.86-.75,0,0h0ZM50.84,21.36c.11.11-.15.27-.21.21-.11-.11.15-.27.21-.21ZM50.2,20.3c0-.21.26-.16.42-.21,0,.21-.26.16-.42.21ZM50.42,19.02c0,.21-.26.16-.42.21,0-.21.26-.16.42-.21ZM50.2,20.72c.11.11-.15.27-.21.21-.11-.11.15-.27.21-.21ZM49.99,22.63c.11.11-.15.27-.21.21-.11-.11.15-.27.21-.21ZM49.57,21.57c0-.21.26-.17.42-.21,0,.21-.26.16-.42.21ZM49.78,19.24c.11.11-.15.27-.21.21-.11-.11.15-.27.21-.21ZM48.95,19.75c.07.03.13.07.18.12,0,0,.01,0,.02,0,.01.01.02.03.02.04.08.1.12.24.12.41-.18-.05-.31-.14-.46-.23-.01-.17.13-.18.11-.34ZM47.87,21.14c.11.11-.15.27-.21.21-.11-.11.15-.27.21-.21ZM48.09,22.41c0,.21-.26.16-.42.21,0-.21.26-.16.42-.21ZM47.66,21.78c.71-.51-.51.71,0,0h0ZM46.66,21c0,.06-.07.04-.11.06,0-.06.07-.04.11-.06ZM46.6,21.36c-.22.18-.38-.19-.42-.21-.82-.47.57.09.42.21ZM45.75,20.93c.11.11-.15.27-.21.21-.11-.11.15-.27.21-.21ZM44.91,21.78c.21,0,.16.26.21.42.34.06.36-.2.63-.21-.16-.2-.38-.32-.63-.42.34-.66.67.43,1.06.42-.5.56-2.43.58-3.18.21.3-.91,1.54.1,1.91-.42ZM42.79,22.84c.11.11-.15.27-.21.21-.11-.11.15-.27.21-.21ZM42.15,23.9c.28.07.33.37.64.42.04.18-.08.2-.21.21h-.42v-.64ZM41.94,24.96c-.17-.11-.34-.22-.64-.21.07-.58.74-.45.64.21ZM41.73,23.47c-.18.62-.53-.28-1.06,0,.05-.5.93-.12,1.06,0ZM40.67,24.32s.23-.32.42-.21c.7.38-1.85.42-.42.21ZM38.34,26.65c0,.21-.26.16-.42.21,0-.21.26-.16.42-.21ZM37.28,26.65c0,.21-.26.16-.42.21,0-.21.26-.16.42-.21ZM36.02,27.06c.16-.08.29.03.52-.06.17.12.5.07.51.34-.14.05-.25.13-.46.11-.12.09-.34.27-.51.11,0-.14-.01-.28.11-.29.02-.15-.22-.05-.17-.23ZM36.01,28.13c-.04.24-.21.12-.21,0,.04-.24.21-.12.21,0ZM34.53,27.92c.31.11.53.31.85.42.1.28-1.05.09-.85-.42ZM34.25,28.32c-.17,0-.38.03-.34-.17.13-.12.36-.02.34.17ZM33.89,29.62c.26-.15.46-.22.21,0-.25.22-.5.17-.21,0ZM33.89,31.31c0,.21-.26.16-.42.21,0-.21.26-.16.42-.21ZM33.04,30.68c.11.11-.15.27-.21.21-.11-.11.15-.27.21-.21ZM32.37,32.44c-.23-.01-.47.17-.52-.11.1-.07.57-.14.52.11ZM31.77,32.16c-.03.53-.72.06-.85,0,.03-.53.72-.06.85,0ZM30.29,34.49c-.02.4-.7.15-.64.64-.17-.04-.21-.21-.42-.21v-.42c.4-.4.38.12,1.06,0ZM29.23,35.55c-.11-.11.15-.27.21-.21.11.11-.15.27-.21.21ZM29.23,34.06c-.09.31-.19-.02-.42,0,.05-.27.42-.21.42,0ZM29.02,34.91c-.07.29-.53.18-.85.21.06-.49.57-.49.85-.21ZM27.33,37.45c0,.21-.26.16-.42.21,0-.21.26-.16.42-.21ZM25.62,56.23c-.08.06-.11.15-.17.23-.17-.06-.19-.17-.11-.34.18-.01.24.1.46.06-.03.12-.09.12-.17.06ZM25.62,55.08c.13-.02.22,0,.29.06,0,.17-.34.15-.29-.06ZM25.9,56.68h.34c.07.34-.38.25-.34,0ZM25.9,52.17v-.12c.11-.02.18.01.17.12h-.17ZM26.82,57.49c-.28.06-.11-.3,0-.12v.12ZM26.76,56.17s-.04.07-.06.06c-.03-.03.04-.07.06-.06ZM27.5,57.43v-.17c.12-.02.15.04.23.06-.01.1-.1.13-.23.11ZM28.65,57.49c-.1,0-.12-.07-.23-.06v-.29c.21,0,.16-.06.34,0,.03.18-.08.22-.11.34ZM28.88,55.71c-.09-.28.28-.27.4-.17.04.23-.22.16-.4.17ZM31.05,59.2s.06-.06.06-.11h.11c.03.12-.08.11-.17.11ZM31.85,58.46c-.07,0-.1.01-.11.06-.15,0-.13-.21-.06-.29.08.05.22.05.17.23ZM32.37,57.89c-.36.04-.44-.2-.69-.29,0-.14,0-.28.06-.34.32-.07.2.3.46.29.19-.08.27-.26.4-.4.17.02.23.32.11.46-.14.1-.44-.13-.34.29ZM32.48,59.2h-.29c-.11-.12-.15-.3-.17-.51.1,0,.12-.07.23-.06.06-.21-.14-.16-.11-.34.19-.1.39-.46.63-.17.04.34-.05.56-.06.86-.18.03-.2-.1-.4-.06-.06.21.21.09.17.29ZM32.77,60.29c-.08-.16-.16-.34,0-.46.18.11.3.27.46.4-.04.21-.23-.01-.46.06ZM33.11,58.23c.03.18-.05.26-.23.23v-.23h.23ZM32.94,57.49c.21.17-.17.19,0,0h0ZM32.99,59.49c.2-.02.33.02.29.23-.14.14-.36.02-.29-.23ZM33.22,58.8s.04-.07.06-.06c.03.03-.04.07-.06.06ZM33.34,58.8c-.01-.2.19-.19.23-.34.21.09.28.34.11.51-.22.05-.2-.14-.34-.17ZM33.68,60.23c-.12-.11,0-.24.11-.29-.02-.13-.2-.11-.17-.29.25-.06.19.19.4.17-.07.18-.13.37-.34.4ZM35,59.03c-.15.02-.25-.02-.23-.17.15-.01.29-.02.23.17ZM36.25,59.54c.08-.52-.69-.19-.57-.74.59-.1.84.15.92.57-.14.03-.12.22-.34.17ZM36.94,58.4c-.11.06-.09.25-.29.23-.05-.18-.18-.27-.29-.4.02-.44.63-.39.8-.11,0,.17-.13.21-.23.29ZM37.97,59.14c-.12.02-.15-.04-.23-.06.03-.05.06-.09.06-.17h.17v.23ZM38.03,60.23s.04-.07.06-.06c.03.03-.04.07-.06.06ZM38.03,55.54c.08-.03.14-.09.23-.11.18-.03.16.14.23.23.23-.04.33.06.29.29-.19,0-.35.03-.46.12-.16-.11-.22-.31-.29-.51ZM38.6,57.43c-.07.05-.15.08-.29.06-.08-.07-.08-.27,0-.34h.23c-.02.14.11.12.06.29ZM38.94,59.2c-.12.02-.15-.04-.23-.06.01-.17.27-.14.23.06ZM39.23,58.97c.01-.06.06-.03.06,0-.01.07-.06.03-.06,0ZM40.83,59.54c-.29.05-.42-.08-.69-.06-.09-.26-.4-.28-.46-.57.3-.25.75,0,1.2-.06.14.25-.08.39-.06.69ZM40.08,55.43c.07-.07.2-.06.34-.06-.1.11-.07.35-.29.34-.05-.07-.08-.15-.06-.29ZM40.54,56.74v-.11s.05-.02.06-.06c.11-.02.08.26-.06.17ZM41.17,58.97c0-.07.1-.05.17-.06,0,.07-.1.05-.17.06ZM41.11,55.48c0-.06.07-.04.11-.06,0,.06-.07.04-.11.06ZM41.51,59.2v-.11c.12-.03.11.08.11.17-.05-.01-.06-.06-.11-.06ZM41.51,56.11h.23c.07.2-.32.26-.23,0ZM42.03,56.06c-.22-.01-.38-.08-.4-.29.2-.16.44.02.4.29ZM42.83,55.37c-.22.05-.2-.26-.11-.34.22-.05.2.26.11.34ZM42.94,55.03c-.16,0-.14-.27-.06-.34.13-.02.22,0,.29.06.02.2-.17.17-.23.29ZM43.11,57.77c.21-.02.34.05.34.23-.15.13-.39,0-.34-.23ZM43.69,56.34c-.15.02-.25-.02-.23-.17.05.01.05-.02.06-.06.15-.02.19.08.17.23ZM43.97,57.14c-.22-.03-.31-.22-.23-.4.22,0,.39.07.34.34-.07,0-.1.01-.11.06ZM44.37,57.71c-.13,0-.02-.24-.06-.34.2.05,0,.14.06.34ZM44.2,56.46v-.17h.17v.17h-.17ZM44.49,54.28s.04-.07.06-.06c.03.03-.04.07-.06.06ZM44.6,58.23c.21-.02.4-.01.34.23-.09.07-.4.02-.34-.23ZM45,55.14c.15-.02.25.02.23.17-.11.11-.28.03-.23-.17ZM45.29,58.23c-.05-.33.26-.53.46-.28.05.29-.24.44-.46.28ZM45.35,56.34c.07-.05.15-.07.29-.06.1.27-.33.32-.29.06ZM46.32,58.57h-.11v-.11h.11v.11ZM46.37,58.29h-.17v-.17h.17v.17ZM47.29,51.14c0-.06.07-.04.11-.06,0,.06-.07.04-.11.06ZM47.69,53.71h-.11v-.11h.11v.11ZM48.83,50.79c-.21.04-.14-.2-.23-.29-.15-.09-.08-.18,0-.29.15.1.35.38.23.57ZM48.55,49.59c.14,0,.22.08.23.23-.22.06-.33-.13-.23-.23ZM49.81,50.05h-.23c.05-.08.09-.18.23-.17v.17ZM49.75,50.39s.04-.07.06-.06c.03.03-.04.07-.06.06ZM50.26,53.03c-.35-.04-.78-.21-.57-.63.24,0,.32.1.51,0,.14.08.16.48.06.63ZM49.86,49.88v-.23c.15-.12.51-.08.4.23h-.4ZM50.55,52.91c.01-.06.06-.03.06,0-.01.07-.06.03-.06,0ZM50.49,49.25c.24-.03.27.14.29.34-.12-.09-.35-.07-.29-.34ZM50.42,47.41c0-.21.26-.16.42-.21,0,.21-.26.16-.42.21ZM50.72,48.34c-.15-.25.17-.6.46-.4.03.32-.12.46-.46.4ZM51.05,47.62c0-.21.26-.17.42-.21,0,.21-.26.16-.42.21ZM51.58,50.97c-.06,0-.12.08-.23.06-.14-.03-.26-.15-.34-.23.03-.22.24-.25.46-.29-.05.2.09.22.06.4.18.04.11-.16.29-.11,0,.07.01.1.06.11.02.19-.16.05-.29.06ZM51.98,49.88c-.19,0-.22-.16-.46-.11.03-.35-.42-.23-.29-.69.03-.08.22,0,.23-.11.19.05.18.32.29.46.42-.17.48.31.91.29.02.3-.45.12-.69.17ZM52.49,47.59c-.02.21.05.51-.06.63-.27.04-.37-.09-.57-.11v-.29c-.02-.12-.25-.01-.23-.17-.03-.53.66-.15.86-.06ZM52.44,46.73c.13-.02.22,0,.29.06,0,.17-.12.22-.17.34-.18-.05-.19-.23-.11-.4ZM52.49,48.68c-.14-.18-.04-.5.29-.4.02.25-.1.36-.29.4ZM53.01,51.2h-.17c-.03-.12.04-.15.06-.23.1.01.13.1.11.23ZM52.89,47.08c-.1-.13.16-.55.4-.34.01.26-.17.33-.4.34ZM53.69,50.85c-.1-.01-.13-.1-.11-.23h.17c.02.12-.04.15-.06.23ZM53.86,48.56s.04-.07.06-.06c.03.03-.04.07-.06.06ZM53.68,48s.05.03.07.05c.01.2-.08.3-.29.29-.17-.17.02-.41.2-.34-.36-.16-.34-.61.77-.16-.29.24-.57.24-.76.17ZM53.46,47.13s.09-.06.17-.06c.19.11.43.18.46.46-.37.02-.54-.15-.63-.4ZM54.02,46.99c.05-.27.42-.21.42,0-.09.31-.19-.02-.42,0ZM54.23,45.29c-.11-.11.15-.27.21-.21.11.11-.15.27-.21.21ZM54.84,48.62v-.11c.11-.02.18.01.17.11h-.17ZM54.86,47.2c-.11-.11.15-.27.21-.21.11.11-.15.27-.21.21ZM54.86,45.71c-.11-.11.15-.27.21-.21.11.11-.15.27-.21.21ZM55.29,52.34c-.11-.04-.15-.15-.17-.29.08-.07.21-.07.29,0,.05.18-.09.18-.11.29ZM55.18,45.71s.06-.06.06-.12h.11c.03.12-.08.11-.17.12ZM55.58,48.62s.04-.07.06-.06c.03.03-.04.07-.06.06ZM56.13,46.77c-.11-.11.15-.27.21-.21.11.11-.15.27-.21.21ZM56.35,47.41c-.58-.64.64.58,0,0h0ZM50.54,23.13c1.42.01,2.89,0,4.11.52,2.57,1.11,4.23,2.89,4.62,3.89,1.99,5.45.73,10.14-2.27,14.58.07,0,.13,0,.2-.01-.02.15-.16.18-.32.19,0,0,0,0,0,0-.95.64-1.89,1.54-2.95,2.44,0,.01,0,.02,0,.04-.03.02-.06.04-.09.04-.37.31-.75.62-1.15.91.06,0,.13,0,.21-.02,0,0,0-.02.01-.02,0,0,.02.01.03.02.01,0,.02,0,.04,0,0,0,0,.01,0,.02.15.09.32.29.23.43-.11-.05-.27-.15-.31-.28-.05.04-.12.06-.21.07.02.01.04.03.06.04-.09.36.28.25.29.52-.15.15-.48-.1-.29-.29-.23.03-.31-.1-.37-.25-.31.21-.63.42-.96.61-.13.14-.33.31-.22.12-.43.23-.88.44-1.36.61-.11.1-.2.16-.14.04-.16.05-.31.11-.48.15-.99.28-2.01.42-2.98.44.15.76.16,1.61.17,2.33.03,2.28-.48,3.06-2.81,3.86-1.7.58-3.05,1.04-4.72,1.2-.04,0-.08.01-.12.01.03.03.04.07.03.12-.12.02-.15-.04-.23-.06,0-.02,0-.03.01-.04-.56.07-1.15.18-1.67.15-.45-.02-.89-.06-1.33-.09-.01.02-.03.01-.06,0-1-.08-1.96-.2-2.86-.39-.99-.21-3.11-.29-3.72-.93-1.16-1.24-2.34-2.09-2.99-3.59-.85-1.94-.92-3.5-.73-4.8.53-3.79,1.7-6.67,3.3-9.12-.16.02-.35.02-.55,0,.18-.21.46-.31.79-.37.51-.47,1.09-1.15,1.75-1.82.01-.08.08-.14.16-.16h0c.08-.08.16-.16.25-.24-.16-.07-.3-.14-.41-.16.09-.18.33-.12.62-.02.06-.05.13-.1.19-.16-.11-.17-.22-.34-.09-.61.14,0,.24-.04.32-.1-.02-.08.09-.16.16-.18.03-.05.06-.11.09-.17h.51c.2-.19.37-.06.56.04.37-.18.75-.34,1.13-.46-.02-.4.04-.84.09-1.22.12-.87.34-1.35,1.03-1.94,0,0,.02-.02.03-.02.2-.16.42-.33.7-.53.64-.45,1.22-.85,1.85-1.23-.07.01-.14.02-.2.04,0-.21.26-.17.42-.21,0,.03-.01.04-.02.06.3-.18.61-.35.94-.53.46-.24.98-.55,1.45-.75,1.21-.5,2.5-1.01,3.79-1.42.12-.04.25-.08.4-.14-.15-.57.3-.53.22-1.04.4-.09,1.28.29,1.06-.42.4-.19.5.4.64.42.16.03.49-.35.85-.21.09.03-.11.3-.21.21.04.04.11.07.18.09.33-.1.64-.18.9-.22.11-.25.59-.53.61-.09.21,0,.16-.26.21-.42.34-.04.33.28.42.49.38,0,.76,0,1.15.01M59.13,39.42s.04-.07.06-.06c.03.03-.04.07-.06.06ZM58.46,40.63c-.11-.11.15-.27.21-.21.11.11-.15.27-.21.21ZM58.46,41.48c-.11-.11.15-.27.21-.21.11.11-.15.27-.21.21ZM58.25,41.27c0,.21-.26.16-.42.21,0-.21.26-.16.42-.21ZM56.98,45.08c-.11-.11.15-.27.21-.21.11.11-.15.27-.21.21ZM57.4,42.96c-.11-.11.15-.27.21-.21.11.11-.15.27-.21.21ZM58.04,42.11h.42c.04.6-1.58-.06-.42,0ZM58.78,44.05c.01-.07.06-.03.06,0-.01.07-.06.03-.06,0ZM59.24,44.73h-.11v-.11h.11v.11ZM59.35,44.1c-.49,0-.85-.49-.63-.86-.03-.11-.14-.14-.26-.16-.05.07-.18.13-.21.09-.05-.05-.02-.11.02-.15,0,0,0,0,0,0-.02-.23.06-.36.29-.34,0-.21.06-.16,0-.34.2.03.29-.05.34-.17.01,0,.02,0,.04,0-.01-.18.11-.46.17-.48.21-.05.36.42.42.42.05,0,.81-.76.21,0-.04.18.08.2.21.21,0,.3-.18.19-.36.05-.02.39.34.4.57.53.11.28-.11.32-.06.69-.24.18-.54.3-.74.51ZM61.24,45.48c-.08-.02-.17-.03-.25-.04-.06.06-.16.1-.19.06-.03-.03-.03-.07-.01-.1-.1-.03-.19-.07-.23-.15-.25-.03-.28.08-.46,0,.02-.33-.2-.41-.34-.57.08-.24.37-.28.51-.46h.11c.26,0,.37.16.57.23v.17c.11.11.3.15.46.23.12.06.35.1.34.29-.23.05-.46.11-.51.34ZM61.85,45.71v-.42c.42-.07.66.04.64.42h-.64ZM62.06,42.96c0-.21.26-.16.42-.21,0,.21-.26.16-.42.21ZM62.28,44.87c-.11-.11.15-.27.21-.21.11.11-.15.27-.21.21ZM61.76,31.87c.2-.14.55-.14.74,0,.05.19-.02.32.06.57-.3-.15-.81-.11-.8-.57ZM62.5,22.6c.09-.2.42-.21.57-.06-.08.26.06.43-.11.63h-.17c-.24-.05-.29-.29-.29-.57ZM62.9,31.35c-.09-.06-.13-.15-.06-.23.13.02.13.15.06.23ZM62.7,44.44c-.11-.11.15-.27.21-.21.11.11-.15.27-.21.21ZM62.91,44.87c0-.2.26-.16.42-.21,0,.21-.26.16-.42.21ZM63.55,38.09c.11.11-.15.27-.21.21-.11-.11.15-.27.21-.21ZM63.59,41.25c-.16.04-.12-.11-.23-.11.02-.08.14-.05.23-.06v.17ZM63.55,34.91c-.11-.11.15-.27.21-.21.11.11-.15.27-.21.21ZM63.93,34.04c-.2-.07-.31-.22-.57-.23-.04-.28-.24-.41-.23-.74.23-.09.8-.09,1.03,0,.04.2.04.41.06.74-.11.06-.24.1-.29.23ZM64.39,32.58c-.11-.11.15-.27.21-.21.11.11-.15.27-.21.21ZM65.3,30.44c.02.12-.04.15-.06.23-.17-.01-.14-.27.06-.23ZM65.03,32.16c-.11-.11.15-.27.21-.21.11.11-.15.27-.21.21ZM65.36,40.45c-.09.09-.33.08-.29-.12.08-.09.33-.08.29.12ZM65.45,28.35c-.11-.11.15-.27.21-.21.11.11-.15.27-.21.21Z"/>
    <path class="cls-14" d="M59.11,42.22c.15.08.25.2.43.12-.19-.15-.38-.31-.43-.12Z"/>
    <path class="cls-15" d="M46.34,20.17c-.12.05-.25.1-.37.16.13-.02.29-.01.43-.03-.01-.04-.03-.08-.05-.13Z"/>
    <path class="cls-16" d="M45.61,27.05c-.12,0-.24-.04-.36-.08-.11.04-.29-.01-.46-.13-.06-.01-.11-.02-.17-.02-.23.02-.49.08-.75.15.1.04.23.08.41.09-.13.19-.26.38,0,.42-.21.65-.56-.24-.85-.21.02-.08.05-.14.07-.19-.28.08-.55.16-.79.17-.05.03-.11.04-.13.02,0,0,0-.01,0-.01-.15,0-.29-.04-.39-.13-.01.09-.19.19-.23.14-.01-.01-.02-.02-.02-.03-1.02.55-1.67.69-2.21.7.03,0,.06.02.09.03,0,.1-.01.16-.04.2.09-.02.19-.03.28-.05,0,.21-.26.17-.42.21,0-.05.02-.08.04-.11-.1.01-.24-.05-.31-.14,0-.03.03-.05.04-.07-.12.05-.26.12-.42.2-.01.01-.02.03-.03.05.09.14.2.25.34.34-.01.18-.16.22-.23.34-.32-.04-.35-.31-.33-.61-.1.05-.2.11-.3.16.07.06.05.23-.2.36.05.12.1.22.03.32.02.13.2.11.17.29-.17.19-.64.23-.86,0,.06-.23.36-.21.52-.34-.03-.07-.09-.11-.15-.15,0,0,0,0-.01,0,0,0,0,0,0-.01-.05-.04-.1-.07-.12-.13,0,0,.01-.02.02-.03-.03.02-.06.03-.09.04-.03.09-.19.17-.23.13,0,0,0,0,0,0-.77.42-1.55,1-2.1,1.76-.32.44-.43.84-.54,1.23.81-.16,1.56-.15,2.1.03,0,0,.02,0,.03,0,0-.02,0-.04.02-.07.04.02.09.03.14.05,0,0,0,0,0,0,.11-.08.32-.08.46-.01.27.02.51.08.71.19,0,0,.02,0,.02,0,0,0,0,0,0,0,.46.25.75.72.91,1.31h.21c.03.13-.08.18-.17.17,0,.02.01.05.02.07.09-.04.21-.04.31-.07,0,.16-.15.17-.29.19.07.49.06,1.04-.03,1.62.01,0,.03.02.05.02-.01.05-.06.06-.06.11,0,0,0,0-.01,0-.15.88-.46,1.83-.93,2.72,0,0,0,0,0,0,.12.25-.07.42-.17.29-.13.23-.27.46-.43.67-.3.31-.61.69-.95,1.11-.1.12-.54.36-.61.46-.08.12.05.44-.05.55-.24.24-.4.23-.6.45-1.5,1.7-4.58,2.99-6.52,3.75-.24,2.59,1.23,3.56,2.78,4.57.19-.01.32.03.4.12-.03.06-.06.11-.09.17.17.21.34.47.5.55.72.36,1.61.76,2.3.93.42.06.71.09,1.09.05-.02-.04-.05-.32-.02-.38h.23c0,.07.01.1.06.11,0,0,.03.33.03.34.65.13,1.13.1,1.57.14.16.01.72-.01,1.25-.11-.05-.13-.06-.28.07-.37.19,0,.27.12.29.3.23-.04.44-.08.56-.1,1.36-.16,2.95-.71,3.95-2.04.48-.64.6-1.32.7-1.98h0c-1.36-.14-2.69-.28-3.37-.57-3.47-1.15-3.59-4.81-2.26-8.01-.09.02-.19.02-.28.05,0-.17.18-.17.34-.2.24-.56.53-1.09.87-1.57.31-.32.64-.71.99-1.15.11-.13.59-.4.66-.5.09-.13-.09-.42.01-.53.25-.26.44-.27.66-.51.36-.4.83-.81,1.38-1.22-.11-.03-.23-.04-.36-.05,0,0,.02,0,.02.01-.01.16-.1.24-.29.23-.04-.05-.06-.13-.06-.23-.03-.24.66-.35.97-.18.62-.44,1.32-.88,2.06-1.3h-.27c.17-.57.07-.85.64-.21,0,0,0,0,0,0,1.53-.86,3.19-1.67,4.62-2.35-.52-2.45-3.13-2.48-5.41-2.54ZM35.59,31.31c-.11-.11.15-.27.21-.21.11.11-.15.27-.21.21ZM36.01,31.31c.25-.44,1.55-.15,1.48.42-.89.26-.93-.34-1.48-.42ZM37.28,30.04c.04-.24.21-.12.21,0-.04.24-.21.12-.21,0ZM35.85,46.11c-.2.06-.61-.1-.57-.46.38-.03.57.11.57.46ZM35.8,49.42c-.18.04-.11.04-.29,0,.02-.13.2-.11.17-.29.19-.06.09.18.11.29ZM35.68,48.45c-.09.09-.33.08-.29-.11.09-.09.33-.08.29.11ZM35.8,48.68c0,.15.02.33-.06.4-.16,0-.1-.24-.11-.4h.17ZM34.82,48.96c-.13.18-.23-.2,0,0h0ZM34.25,49.31c-.02-.13,0-.22.06-.29.26-.04.21.38-.06.29ZM34.37,48.22c-.04.05-.06.13-.06.23-.25.03-.2-.31.06-.23ZM32.31,46.33c.11-.02.18.01.17.11h-.17v-.11ZM30.88,46.51c-.13.02-.22,0-.29-.06,0-.17.34-.15.29.06ZM31.56,44.66c0-.21.26-.17.42-.21,0,.21-.26.16-.42.21ZM32.54,50.11c-.25-.03-.28.08-.46,0-.13-.38.6-.41.46,0ZM32.48,46.85v-.34c.15,0,.33-.02.4.06-.01.21-.23.22-.4.29ZM33.79,46.16c.14-.05.25-.13.46-.12.02.32-.24.37-.23.69-.26,0-.17-.36-.23-.57ZM34.02,49.65c-.05-.36.57-.37.51,0-.21-.03-.36.15-.51,0ZM34.65,49.88h.29c-.01.14.13.14.17.23-.11.26-.51.04-.46-.23ZM35,49.08c.15-.02.25.02.23.17-.15.02-.29.02-.23-.17ZM35.17,51.77c.01-.1.1-.13.23-.11.06.17-.13.1-.23.11ZM35.74,51.54h-.11v-.11h.11v.11ZM35.8,49.99c-.11,0-.19-.04-.23-.12-.16.01-.07.27-.29.23-.05-.14-.13-.25-.11-.46.05-.03.1-.05.11-.11.24-.01.4.05.57.11,0,.14,0,.28-.06.34ZM36.42,49.31h.17v.17h-.17v-.17ZM36.14,45.76c-.01.07-.06.03-.06,0,.01-.07.06-.03.06,0ZM35.97,46.96h.23c.06.17-.13.1-.23.11v-.11ZM36.71,50.11h-.57c-.02-.14.1-.12.06-.28h.46c-.02.14.11.12.06.28ZM37,46.05s.04-.07.06-.06c.03.03-.04.07-.06.06ZM41.11,50.62c.24-.06.24.41,0,.34-.02-.13-.11-.24,0-.34ZM40.88,48.16c-.05.1-.2.15-.29.06,0-.15.21-.14.29-.06ZM40.54,49.65c-.17-.04-.24-.18-.23-.4.19.01.37.23.23.4ZM40.14,47.94c.17-.06.1.13.11.23-.1-.05-.22-.13-.11-.23ZM38.14,39.87c-.01.07-.06.03-.06,0,.01-.06.06-.03.06,0ZM38.08,47.65v-.11h.23c.06.17-.13.1-.23.11ZM38.77,48.85v-.11c.11-.02.18.01.17.11h-.17ZM39.11,50.79h-.11v-.11h.11v.11ZM39.11,49.25c.02-.07.1-.09.11-.17.14.02,0,.22-.11.17ZM39.91,50.45c-.22.03-.33-.05-.46-.11-.02-.13,0-.22.06-.29.17.1.44.09.4.4ZM39.68,48.45c.07.02.12.07.11.17-.1.1-.34.05-.29.29-.21.04-.38.09-.34-.23.3.05.37-.13.52-.23ZM38.83,46.85c.12.04.1.07.08.14h.29v.42h-.42v-.34c-.16,0-.35.05-.4-.05-.06-.27.43,0,.46-.17ZM38.34,46.14c.11.11-.15.27-.21.21-.11-.11.15-.27.21-.21ZM38.55,38.09c0-.21.26-.17.42-.21,0,.21-.26.16-.42.21ZM50.42,28.56c.11.11-.15.27-.21.21-.11-.11.15-.27.21-.21ZM49.14,27.92c.11.11-.15.27-.21.21-.11-.11.15-.27.21-.21ZM47.87,27.5c0,.21-.26.17-.42.21,0-.21.26-.17.42-.21ZM47.24,27.5c0,.21-.26.17-.42.21,0-.21.26-.17.42-.21ZM46.18,28.13c.11.11-.15.27-.21.21-.11-.11.15-.27.21-.21ZM45.8,29.87c-.06.05-.02.21-.17.17v-.17h.17ZM45.57,28.09c.01-.06.11-.04.11-.11.23.04,0,.27-.11.11ZM45.75,27.29c.05.63-.75.75-1.06.42.18-.31.68-.31,1.06-.42ZM44.94,28.04c0,.15-.21.13-.29.06.04-.18.15-.07.29-.06ZM44.7,29.4c-.11-.11.15-.27.21-.21.11.11-.15.27-.21.21ZM43.51,27.81c.16.03.18.18.13.3.28-.78,1,.65,1.05.03.53.53-.71.29-1.06,0,0,0,0,0,0-.01-.02.04-.04.07-.07.09-.08-.02-.09-.1-.17-.11,0-.14.09-.18.11-.29ZM44.2,28.67c-.12.03-.11-.08-.11-.17.07.03.12.07.11.17ZM42.15,27.5v.64c-.38.05-1.06-.21-.85.42-.23-.05-.14-.42-.42-.42.12-.51.8-.47,1.27-.64ZM42.14,28.44c0,.15-.21.13-.29.06,0-.15.21-.14.29-.06ZM41.52,29.62c-.09.26-.27.43-.64.42.09-.26.27-.44.64-.42ZM40.46,28.13c-.04.24-.21.12-.21,0,.04-.24.21-.12.21,0ZM40.25,29.4c.11.11-.15.27-.21.21-.11-.11.15-.27.21-.21ZM40.08,28.55c-.12.02-.15-.04-.23-.06.01-.17.27-.14.23.06ZM38.48,30.27c-.04-.35.28-.29.51-.23v.29c-.17.08-.31-.03-.51-.06ZM39.11,31.12c-.02-.13,0-.22.06-.29.13-.02.21.01.23.11.03.18-.12.18-.29.17ZM38.98,30.68c0-.14.12-.16.25-.18-.04-.01-.06-.06-.11-.06.01-.05.06-.06.06-.11.05,0,.06.06.11.06-.01.05-.05.06-.06.11.06,0,.12-.02.17-.03,0,.21-.26.17-.42.21ZM39.4,29.81c.15,0,.22.08.23.23-.06,0-.04.07-.06.11-.32.07-.33-.24-.17-.34ZM39.57,30.67h.17c.03.12-.04.15-.06.23-.1-.01-.13-.1-.11-.23ZM39.82,32.58c.11.11-.15.27-.21.21-.11-.11.15-.27.21-.21ZM39.4,35.55c-.11-.11.15-.27.21-.21.11.11-.15.27-.21.21ZM39.63,33.18c.16,0,.39-.05.4.11,0,.34-.64.13-.4-.11ZM40.25,31.31c-.11-.11.15-.27.21-.21.11.11-.15.27-.21.21ZM40.48,30.5s0,0,0,0c.02.18-.86.57-.65.18.02-.04.2-.19.38-.24.01-.16.34-.15.28.06ZM40.46,30.25c-.11-.11.15-.27.21-.21.11.11-.15.27-.21.21ZM40.88,30.89s-.04-.02-.06-.03c.05.05.1.08.07.21-.26,0-.33-.2-.34-.46.09-.02.11.02.12.06-.02-.21.29-.46.62-.47,0-.12,0-.23.06-.28.21.01.37.09.46.23.03.15-.11.19-.25.18.21.62-.75.07-.67.55ZM41.31,32.16c.04-.24.21-.12.21,0-.04.24-.21.12-.21,0ZM41.4,35.3c.07-.1.12-.22.29-.23,0,.18-.15.2-.29.23ZM42.26,34.67c-.24-.05-.32.06-.4.17-.18.03-.26-.05-.23-.23.26.03.3-.15.4-.29.19-.01.28.07.29.23-.05,0-.04.07-.06.11ZM43.21,32.58c-.11-.11.15-.27.21-.21.11.11-.15.27-.21.21ZM43.74,31.81c-.18.11-.29.28-.46.4-.33-.12-.37-.05-.74,0,.01-.05-.02-.05-.06-.06-.19-.02-.17-.25-.34-.29-.03-.16-.25-.14-.29-.29.1-.3.27-.64.11-1.03.22-.07.44-.14.57-.29.25.08.36.03.63,0,.24.16.37.43.57.63-.06.37.1.48,0,.92ZM44.2,32.84s-.06-.09-.06-.17c0-.04-.03-.05-.07-.06.05.11-.17.24-.23.18-.07-.07.02-.17.11-.21-.02,0-.04-.01-.04-.03-.02-.1.32-.1.23.06.17,0,.32.02.29.23h-.23ZM43.85,30.89c-.08-.36.17-.4.42-.42-.21-.28-.35-.64-.64-.85-.18-.04-.2.08-.21.21-.39-.8,1.28-.07,2.12-.21-.21.29-.57.42-.85.64-.56-.06-.17.82-.85.64ZM44.7,31.1c-.11-.11.15-.27.21-.21.11.11-.15.27-.21.21ZM45.97,30.89c-.33.59-1.04-.21-1.06-.64.52-.03,1.02-.03,1.27.21-.12.2-.59.32-.21.42ZM46.18,29.62c.05-.27.42-.21.42,0-.19.13-.38.26-.42,0ZM46.81,29.83c0-.21.26-.16.42-.21,0,.21-.26.16-.42.21ZM47.92,30.44h-.11v-.11h.11v.11ZM47.45,29.4c.03-.25.39-.18.64-.21-.04.25-.39.18-.64.21ZM48.51,28.56c-.09-.53-.97-.16-.64.42-.17-.18-.58-.13-.64-.42-1.58.05-.17-.33.42-.42,0,.5.58-.08.42-.42.56.14.78.64,1.06,1.06.43-.07.66.04.64.42-.3-.19-2.25-.52-1.27-.63ZM49.57,28.13c-.11-.11.15-.27.21-.21.11.11-.15.27-.21.21ZM50.2,29.19c-.11-.11.15-.27.21-.21.11.11-.15.27-.21.21Z"/>
  </g>
</svg>