<?xml version="1.0" encoding="UTF-8"?>
<svg id="Layer_1" data-name="Layer 1" xmlns="http://www.w3.org/2000/svg" viewBox="0 0 300 100">
  <defs>
    <style>
      .cls-1 {
        fill: #fe4a00;
      }

      .cls-2 {
        fill: #bababa;
      }

      .cls-3 {
        fill: #1e1b22;
      }

      .cls-4 {
        fill: #fff;
      }

      .cls-5 {
        fill: #636466;
      }
    </style>
  </defs>
  <g>
    <rect class="cls-4" x="190.88" y="48.04" width="8.39" height="26.43"/>
    <path class="cls-4" d="M198.66,34.74c-.98-.86-2.17-1.29-3.59-1.29s-2.57.43-3.56,1.29c-1,.86-1.49,1.98-1.49,3.36s.5,2.51,1.49,3.39c1,.88,2.18,1.32,3.56,1.32s2.61-.44,3.59-1.32c.98-.88,1.47-2.01,1.47-3.39s-.49-2.5-1.47-3.36Z"/>
    <path class="cls-4" d="M216.56,47.47c-2.91,0-5.53.57-7.84,1.72-2.32,1.15-4.14,2.75-5.46,4.8-1.32,2.05-1.98,4.47-1.98,7.27s.66,5.17,1.98,7.24c1.32,2.07,3.14,3.68,5.46,4.83,2.32,1.15,4.93,1.72,7.84,1.72,1.99,0,3.68-.22,5.06-.66,1.38-.44,2.53-1.02,3.45-1.75v-8.45c-.54.84-1.22,1.55-2.04,2.13-.82.57-1.72,1.03-2.7,1.35-.98.33-2,.49-3.07.49-1.26,0-2.44-.29-3.53-.86-1.09-.57-1.94-1.37-2.56-2.38-.61-1.01-.92-2.23-.92-3.65,0-1.3.31-2.47.92-3.5.61-1.03,1.47-1.86,2.56-2.47,1.09-.61,2.27-.92,3.53-.92.96,0,1.93.15,2.93.46,1,.31,1.92.75,2.79,1.32.86.57,1.56,1.28,2.1,2.13v-8.5c-.92-.65-2.07-1.2-3.45-1.64-1.38-.44-3.06-.66-5.06-.66Z"/>
    <path class="cls-4" d="M238.65,55.28c1.09-.61,2.27-.92,3.53-.92.96,0,1.93.15,2.93.46,1,.31,1.92.75,2.79,1.32.86.57,1.56,1.28,2.1,2.13v-8.5c-.92-.65-2.07-1.2-3.45-1.64-1.38-.44-3.06-.66-5.06-.66-2.91,0-5.53.57-7.84,1.72-2.32,1.15-4.14,2.75-5.46,4.8-1.32,2.05-1.98,4.47-1.98,7.27s.66,5.17,1.98,7.24c1.32,2.07,3.14,3.68,5.46,4.83,2.32,1.15,4.93,1.72,7.84,1.72,1.99,0,3.68-.22,5.06-.66,1.38-.44,2.53-1.02,3.45-1.75v-8.45c-.54.84-1.22,1.55-2.04,2.13-.82.57-1.72,1.03-2.7,1.35-.98.33-2,.49-3.07.49-1.26,0-2.44-.29-3.53-.86-1.09-.57-1.94-1.37-2.56-2.38-.61-1.01-.92-2.23-.92-3.65,0-1.3.31-2.47.92-3.5.61-1.03,1.47-1.86,2.56-2.47Z"/>
    <path class="cls-4" d="M146.58,70.23v11.88l8.68,5.01v-39.07h-8.68v4.23c-.8-1.39-1.82-2.53-3.05-3.4-1.65-1.17-3.64-1.75-5.98-1.75-2.15,0-4.18.54-6.09,1.61-1.92,1.07-3.48,2.65-4.68,4.74-1.21,2.09-1.81,4.68-1.81,7.79s.6,5.65,1.81,7.76c1.21,2.11,2.77,3.7,4.68,4.77,1.91,1.07,3.94,1.61,6.09,1.61,2.34,0,4.33-.58,5.98-1.75,1.23-.87,2.24-2.01,3.05-3.41ZM140.43,67.69c-1.15,0-2.2-.25-3.16-.75-.96-.5-1.72-1.23-2.3-2.18-.57-.96-.86-2.13-.86-3.5s.29-2.55.86-3.5c.57-.96,1.34-1.69,2.3-2.18.96-.5,2.01-.75,3.16-.75,1,0,1.96.24,2.9.72.94.48,1.71,1.2,2.33,2.15.61.96.92,2.15.92,3.56s-.31,2.61-.92,3.56c-.61.96-1.39,1.68-2.33,2.15-.94.48-1.91.72-2.9.72Z"/>
    <path class="cls-4" d="M186.94,53.73c-1.21-2.03-2.76-3.58-4.65-4.65-1.9-1.07-3.94-1.61-6.12-1.61s-4.14.56-5.86,1.67c-1.24.8-2.3,1.85-3.16,3.14v-17.62l-8.67-5h0v44.82h8.68v-4.25c.86,1.3,1.92,2.36,3.16,3.16,1.72,1.11,3.68,1.67,5.86,1.67s4.22-.54,6.12-1.61c1.9-1.07,3.45-2.63,4.65-4.68,1.21-2.05,1.81-4.55,1.81-7.5s-.6-5.5-1.81-7.53ZM178.75,64.85c-.57,1.02-1.34,1.8-2.3,2.36-.96.56-2.01.83-3.16.83-1,0-1.96-.27-2.9-.8-.94-.54-1.71-1.31-2.33-2.33-.61-1.01-.92-2.23-.92-3.65s.31-2.63.92-3.65c.61-1.01,1.39-1.79,2.33-2.33.94-.54,1.91-.8,2.9-.8,1.15,0,2.2.28,3.16.83.96.56,1.72,1.34,2.3,2.36.57,1.02.86,2.21.86,3.59s-.29,2.58-.86,3.59Z"/>
  </g>
  <g>
    <path class="cls-4" d="M111.7,53.18c-.82-.46-1.77-.7-2.71-.66-.89-1.47-2.14-2.27-3.72-2.28.38-3.82.35-8.92.22-9.58-4.19-3.58-10.64-6.53-15.87-7.91-1.67-1.24-3.61-1.79-5.9-1.98.14-1.17.26-2.15-.04-3.59.03-.03.06-.06.09-.09.18.14,5.12,4.3,5.49,4.6.89.75,2.25.2,2.68-.86.4-.87.09-2-.83-2.33-.39-.14-6.55-2.39-6.69-2.44.25-.63.28-1.39.08-2.04.22-.09,6.28-2.29,6.73-2.46,1.1-.38,1.29-1.88.59-2.75-.57-.79-1.68-1.07-2.43-.45-.32.27-5.34,4.47-5.46,4.57-.43-.54-1.04-.93-1.73-1.09.03-.23,1.16-6.58,1.24-7.05.21-1.04-.81-1.93-1.83-1.9-1.04-.03-2.05.84-1.85,1.9.07.4,1.21,6.88,1.23,7.01-.71.11-1.34.46-1.81.95-.18-.13-5.12-4.3-5.48-4.59-.89-.75-2.25-.2-2.68.86-.4.87-.09,2,.83,2.33l5.92,2.16.75.27c-.25.63-.28,1.4-.08,2.05-.2.08-6.29,2.29-6.72,2.45-1.1.38-1.29,1.88-.59,2.75.57.79,1.68,1.07,2.43.45,0,0,4.84-4.05,4.84-4.05l.61-.51c.5.62,1.24,1.05,2.07,1.15.15.88,0,1.77-.11,2.77-2.08.26-3.83.84-5.38,1.94-4.24.28-10.24.97-12.2,1.26-.38,3.27-.49,5.39-.49,9.98-.94,1.3-1.37,2.78-1.49,4.53-.54.34-1.19,1.05-1.69.88,1.72-3.03-.46-7.26-3.96-7.49-2.22-.01-2.51,3.3-.32,3.68.76.12,1.3.9,1.15,1.65-.12.78-.95,1.33-1.72,1.14-1.9-.63-.53-1.99-1.27-3.15-.33-.56-.95-.91-1.6-.91-4.23.46-1.38,9.55,4.83,7.53,1.47,1.4,3.43,1.66,5.09.77.3.89.72,1.67,1.24,2.3.06,1.42.07,1.66.1,2.24,0,.07.02.19.06.25.9,2.75,5.95,11.9,8.34,14.64.57.02,1.19.04,1.76.06-.03.59-.04,1.17-.05,1.73-3.07.38-6.49,2.24-6.56,5.37-.32,2.74,5.26,4.75,8.13,4.54,3.02-.13,7.59-.92,8.13-4.44.27-3.13-3.24-5.18-6.26-5.49,0-.54.03-1.11.05-1.69,4.91-.03,10.09-.45,15.05-1.15-.05.47-.11.98-.19,1.5-2.79.37-5.83,2.1-5.9,4.96-.33,2.55,4.72,4.47,7.41,4.27,2.64.2,7.62-1.67,7.4-4.15.25-2.74-2.69-4.68-5.36-5.04.1-.75.18-1.45.23-2.09,4.99-.91,4.67-.92,7.03-1.49.65-3.31,1.26-6.76,1.71-9.92.47,1.56,1.75,3.18,3.46,3.37,1.23.03,2.18-1.28,1.76-2.44-.2-.94-1.37-1.03-1.64-1.9-.44-1.18.98-2.35,2.05-1.68.64.36.9,1.14.6,1.81-.87,1.2,0,3,1.51,2.97.91.02,1.59-.67,1.89-1.48,1.07-2.43.13-5.23-2.18-6.53Z"/>
    <path class="cls-3" d="M111.32,53.85c-.29-.16-.59-.29-.9-.38-.6-.18-1.23-.23-1.86-.14-.59-1.16-1.37-1.9-2.33-2.18-.12-.03-.24-.06-.36-.09-.5-.09-.98-.06-1.45.03.09-.97.16-1.92.22-2.83.28-4.24.15-6.38.15-6.47l-.03-.45-.02-.29-.23-.18-.35-.28c-1.58-1.25-3.4-2.41-5.42-3.46-1.6-.83-3.32-1.6-5.12-2.27-1.85-.69-3.39-1.15-4.35-1.4-.32-.25-.67-.49-1.07-.7-1.45-.78-3.34-1.22-5.34-1.24.03-.33.07-.63.1-.92.15-1.24.25-2.17-.14-3.69.63-.43,1.04-1.16,1.04-1.98,0-1.32-1.08-2.4-2.4-2.4s-2.4,1.08-2.4,2.4,1.08,2.4,2.4,2.4c.08,0,.16,0,.23-.01.31,1.23.22,1.98.08,3.14-.04.33-.08.69-.12,1.09-1.82.13-3.54.61-4.88,1.38-.33.19-.64.39-.91.61-1.19.09-2.46.19-3.82.31-3.89.35-6.64.71-6.66.71l-.79.1-.51.07-.05.51-.08.79c-.2,1.9-.3,4.67-.28,8.26-.23.28-.45.6-.63.96-.53,1.03-.84,2.33-.88,3.7-.17.12-.34.25-.51.37-.56.42-1.14.85-1.66.91-.16.02-.59.07-1.28-.62.39-.53.66-1.15.77-1.82.21-1.15-.05-2.31-.72-3.27-.67-.96-1.67-1.6-2.82-1.8-.59-.11-1.16.29-1.26.88-.11.59.29,1.16.88,1.26.58.1,1.08.42,1.41.9.33.48.46,1.06.36,1.64-.11.59-.44,1.11-.94,1.44-.5.33-1.1.44-1.7.31-1.1-.25-1.83-1.28-1.69-2.4.01-.09.03-.19.05-.28.15-.58-.2-1.18-.79-1.32-.58-.15-1.18.2-1.32.79-.05.18-.08.36-.1.55-.28,2.24,1.17,4.3,3.37,4.79.32.07.65.11.98.11.63,0,1.25-.14,1.82-.4.9.95,1.85,1.42,2.86,1.42.12,0,.24,0,.37-.02.83-.1,1.54-.5,2.15-.92.29,1.3.83,2.41,1.53,3.18.06,1.35.1,2.2.1,2.21v.17s.01.11.01.11l.04.1.07.16c.9,2.16,2.47,5.55,4.88,9.46,1.45,2.35,2.51,3.76,2.55,3.82l.29.39.19.25h.31s.48.03.48.03c.46.02.92.03,1.38.04-.06,1.03-.1,2.1-.09,3.17-3.73.3-6.51,2.24-6.56,4.68v.02s0,.02,0,.02c0,.74.45,1.82,2.58,2.78,1.41.63,3.11.98,4.78.98s3.37-.35,4.78-.98c2.08-.93,2.56-1.98,2.58-2.72.01-.2,0-.27,0-.31-.03-1.37-.9-2.59-2.45-3.43-1.06-.57-2.39-.93-3.82-1.04,0-1.05.04-2.11.1-3.14,3.07,0,6.28-.15,9.53-.44,2.35-.21,4.73-.49,7.09-.85-.07.91-.19,1.95-.37,3.09-3.31.3-5.76,2.06-5.81,4.27v.02s0,.02,0,.02c0,.7.41,1.72,2.37,2.6,1.26.56,2.78.87,4.27.87s3.01-.31,4.27-.87c1.91-.85,2.35-1.84,2.37-2.54,0-.12,0-.21,0-.28-.03-1.27-.83-2.39-2.25-3.16-.9-.49-2.02-.8-3.23-.91.21-1.37.32-2.49.37-3.41,3.7-.62,5.96-1.18,6.07-1.21l.62-.16.41-.1.08-.41.12-.63c.74-3.86,1.34-7.6,1.79-11.11.12-.95.23-1.89.33-2.81.47-.16.93-.27,1.3-.2.16.03.58.11,1.05.96-.53.4-.96.91-1.26,1.52-.53,1.04-.61,2.23-.25,3.33.36,1.11,1.14,2.01,2.18,2.53.54.27,1.19.06,1.46-.48.27-.54.06-1.19-.48-1.46-.52-.26-.91-.71-1.09-1.27-.18-.56-.14-1.15.13-1.67.27-.54.74-.93,1.32-1.11.58-.18,1.19-.11,1.71.19.98.55,1.38,1.75.93,2.78-.04.09-.08.17-.13.25-.31.52-.14,1.19.37,1.49.52.31,1.19.14,1.49-.37.09-.16.18-.32.25-.49.91-2.06.11-4.45-1.86-5.56Z"/>
    <path class="cls-1" d="M94.17,74.63s-.02.1-.03.15c-.09.48-.5.82-.97.82-.06,0-.12,0-.18-.02-.45-.08-.78-.46-.81-.9-2.36.31-4.15,1.49-4.18,2.85,0,.73,2.34,2.05,5.22,2.05s5.22-1.32,5.22-2.05c0-.04,0-.15,0-.19-.03-1.39-1.88-2.5-4.29-2.7Z"/>
    <path class="cls-1" d="M80.9,79.06c-.04-1.57-2.11-2.84-4.83-3.07,0,.06,0,.12,0,.18.02.52-.38.97-.91.99-.01,0-.03,0-.04,0-.5,0-.92-.4-.95-.91,0-.09,0-.18-.01-.26-2.9.26-5.14,1.66-5.17,3.29,0,.84,2.66,2.34,5.95,2.34s5.95-1.5,5.95-2.34c0-.05,0-.17,0-.22Z"/>
    <path class="cls-4" d="M103.14,41.89h0s0,0,0,0Z"/>
    <path class="cls-4" d="M103.16,42.39c-15.81.9-27.12,1.47-29.42,1.58-.22,2.31-1.2,13.61-.66,25.74,1.02.03,2.04.05,3.04.05,13.29,0,24.32-2.76,24.32-2.76,2.76-14.41,2.77-22.59,2.72-24.62ZM83.47,48.51c.84,0,1.53,1.34,1.53,3s-.68,3-1.53,3-1.53-1.34-1.53-3,.69-3,1.53-3ZM88.67,63.4c-4.1.43-7.01-2.73-7.01-2.73l13.53-1.06s-2.42,3.35-6.52,3.79ZM95.76,50.94c-.13,1.5-.85,2.66-1.61,2.59-.76-.06-1.28-1.33-1.15-2.83.13-1.5.85-2.66,1.61-2.59.76.06,1.28,1.33,1.15,2.83Z"/>
    <path class="cls-2" d="M90.83,35.64c.09.31.15.63.15.95,0,.03,0,.12,0,.34-.01.53-.25,1.27-1.24,1.86-.47.29-1.11.53-1.9.73-1.45.37-3.35.57-5.35.57s-3.91-.2-5.35-.57c-.78-.2-1.42-.45-1.9-.73-1.03-.62-1.24-1.38-1.24-1.91v-.03c.01-.54.14-1.05.38-1.54-3.77.3-6.82.65-8.11.81,1.01.91,4.18,3.79,7.21,6.87,1.71-.08,13-.65,29.05-1.56-4.04-3.01-8.73-4.83-11.69-5.78Z"/>
    <g>
      <path class="cls-1" d="M82.69,14.65l-1.09,6.21-1.09-6.21c-.08-.48.34-.92.94-.99.71-.09,1.35.43,1.24.99h0Z"/>
      <path class="cls-1" d="M73.19,18.73l4.84,4.05-5.92-2.16c-.46-.17-.63-.75-.39-1.31.28-.66,1.04-.96,1.48-.58h0Z"/>
      <path class="cls-1" d="M71.98,29l5.92-2.16-4.84,4.05c-.37.31-.97.17-1.33-.32-.43-.57-.31-1.38.24-1.57h0Z"/>
      <path class="cls-1" d="M89.76,31.1l-4.84-4.05,5.92,2.16c.46.17.63.75.39,1.31-.28.66-1.04.96-1.48.58h0Z"/>
      <path class="cls-1" d="M90.97,20.84l-5.92,2.16,4.84-4.05c.37-.31.97-.17,1.33.32.43.57.31,1.38-.24,1.57h0Z"/>
    </g>
    <path class="cls-5" d="M72.75,43.68c-3.06-3.11-6.26-6.02-7.2-6.86-.15,1.73-.21,3.95-.21,6.29.27-.09.56-.14.84-.15.01,0,.03,0,.04,0,.07,0,.16,0,.23,0,.97.03,1.83.83,2.5,2.31.55,1.23.85,2.7.85,4.14s-.3,2.91-.85,4.14c-.68,1.51-1.56,2.32-2.55,2.32h-.03c-.25,0-.49-.04-.73-.11.03.65.05,1.02.05,1.02,2.19,5.28,4.95,9.62,6.34,11.66-.44-12.08.56-23.03.73-24.76Z"/>
    <path class="cls-1" d="M66.39,44.38s-.13,0-.17,0c0,0,0,0-.01,0-1.3.03-2.34,1.7-2.59,3.91.23-.04.47-.04.71.01.59.12.97.69.85,1.28-.12.58-.67.96-1.25.86-.06.01-.16.06-.27.13.32,2.21,1.44,3.86,2.73,3.89.71,0,1.98-2.26,1.98-5.04s-1.27-5.04-1.98-5.04Z"/>
    <path class="cls-1" d="M89.57,36.62c-.05-2.07-3.06-3.68-6.79-3.7,0,.25-.01.52-.01.8,0,.33-.27.6-.6.6s-.6-.27-.6-.6c0-.27,0-.52.01-.75-3.46.3-6.13,1.97-6.17,3.91,0,.99,3.17,1.8,7.08,1.8s7.08-.81,7.08-1.8c0-.06.01-.2,0-.26Z"/>
    <path class="cls-1" d="M81.47,23.72c.66,0,1.2.54,1.2,1.2s-.54,1.2-1.2,1.2-1.2-.54-1.2-1.2.54-1.2,1.2-1.2"/>
  </g>
</svg>