<?xml version="1.0" encoding="UTF-8"?>
<svg id="Layer_1" data-name="Layer 1" xmlns="http://www.w3.org/2000/svg" viewBox="0 0 300 100">
  <defs>
    <style>
      .cls-1 {
        fill: #4695eb;
      }

      .cls-2 {
        fill: #4695eb;
      }

      .cls-3 {
        fill: #fff;
      }

      .cls-4 {
        fill: #ff004a;
      }
    </style>
  </defs>
  <g>
    <path class="cls-3" d="M103.84,48.59c0,3.38-.68,6.19-2.05,8.43-1.37,2.24-3.3,3.75-5.79,4.55l6.32,6.53h-4.48l-5.18-5.95-1,.04c-3.91,0-6.93-1.19-9.05-3.56-2.12-2.38-3.19-5.73-3.19-10.06s1.07-7.62,3.2-9.99c2.13-2.36,5.16-3.55,9.08-3.55s6.79,1.2,8.93,3.61c2.14,2.41,3.21,5.73,3.21,9.96ZM82.68,48.59c0,3.57.77,6.28,2.3,8.13,1.53,1.85,3.76,2.77,6.67,2.77s5.16-.92,6.66-2.76c1.5-1.84,2.25-4.55,2.25-8.14s-.75-6.24-2.24-8.07-3.71-2.75-6.64-2.75-5.18.92-6.71,2.77c-1.53,1.85-2.3,4.53-2.3,8.06Z"/>
    <path class="cls-3" d="M134.26,35.43v17.07c0,3.01-.91,5.37-2.74,7.09-1.83,1.72-4.34,2.58-7.54,2.58s-5.67-.87-7.42-2.6-2.62-4.11-2.62-7.14v-17h3.09v17.21c0,2.2.61,3.89,1.82,5.07,1.21,1.18,2.99,1.77,5.34,1.77s3.96-.59,5.18-1.78c1.21-1.18,1.82-2.88,1.82-5.1v-17.18h3.09Z"/>
    <path class="cls-3" d="M162.44,61.81l-3.3-8.39h-10.64l-3.27,8.39h-3.12l10.5-26.49h2.6l10.44,26.49h-3.2ZM158.17,50.66l-3.09-8.17c-.4-1.03-.81-2.3-1.23-3.81-.27,1.15-.65,2.42-1.14,3.81l-3.12,8.17h8.59Z"/>
    <path class="cls-3" d="M176.84,50.84v10.97h-3.09v-26.38h7.28c3.26,0,5.66.62,7.22,1.86,1.56,1.24,2.33,3.1,2.33,5.59,0,3.49-1.78,5.85-5.34,7.07l7.21,11.85h-3.65l-6.43-10.97h-5.54ZM176.84,48.21h4.23c2.18,0,3.78-.43,4.79-1.29,1.02-.86,1.53-2.15,1.53-3.87s-.52-3-1.55-3.77c-1.03-.77-2.7-1.15-4.98-1.15h-4.01v10.09Z"/>
    <path class="cls-3" d="M220.37,61.81h-3.63l-9.68-12.79-2.78,2.45v10.34h-3.09v-26.38h3.09v13.08l12.04-13.08h3.65l-10.68,11.46,11.08,14.92Z"/>
    <path class="cls-3" d="M248.53,35.43v17.07c0,3.01-.91,5.37-2.74,7.09-1.83,1.72-4.34,2.58-7.54,2.58s-5.67-.87-7.42-2.6-2.62-4.11-2.62-7.14v-17h3.09v17.21c0,2.2.61,3.89,1.82,5.07,1.21,1.18,2.99,1.77,5.34,1.77s3.96-.59,5.18-1.78c1.21-1.18,1.82-2.88,1.82-5.1v-17.18h3.09Z"/>
    <path class="cls-3" d="M275,54.79c0,2.32-.85,4.13-2.54,5.43-1.7,1.3-3.99,1.95-6.9,1.95-3.15,0-5.57-.4-7.26-1.21v-2.96c1.09.46,2.28.82,3.56,1.08,1.28.26,2.55.4,3.81.4,2.06,0,3.61-.39,4.65-1.16,1.04-.78,1.56-1.85,1.56-3.24,0-.91-.18-1.66-.55-2.25-.37-.58-.99-1.12-1.85-1.61-.87-.49-2.18-1.05-3.95-1.68-2.47-.88-4.23-1.92-5.29-3.12-1.06-1.2-1.59-2.77-1.59-4.71,0-2.03.77-3.65,2.31-4.85,1.54-1.2,3.57-1.8,6.1-1.8s5.07.48,7.28,1.44l-.96,2.67c-2.19-.91-4.32-1.37-6.39-1.37-1.63,0-2.91.35-3.83,1.05-.92.7-1.38,1.67-1.38,2.9,0,.91.17,1.66.51,2.25.34.58.91,1.12,1.72,1.61.8.49,2.04,1.03,3.7,1.61,2.78.99,4.7,2.04,5.75,3.18,1.05,1.13,1.57,2.6,1.57,4.4Z"/>
  </g>
  <g>
    <polygon class="cls-1" points="49.46 37.87 43.7 41.19 49.46 44.52 49.46 37.87"/>
    <polygon class="cls-4" points="37.94 37.87 37.94 44.52 43.7 41.19 37.94 37.87"/>
    <polygon class="cls-3" points="49.46 44.52 43.7 41.19 37.94 44.52 43.7 47.84 49.46 44.52"/>
    <polygon class="cls-1" points="31.87 48.39 37.63 51.71 37.63 45.06 31.87 48.39"/>
    <polygon class="cls-4" points="37.63 58.36 43.39 55.04 37.63 51.71 37.63 58.36"/>
    <polygon class="cls-3" points="37.63 45.06 37.63 51.71 43.39 55.04 43.39 48.39 37.63 45.06"/>
    <polygon class="cls-1" points="49.78 58.36 49.78 51.71 44.02 55.04 49.78 58.36"/>
    <polygon class="cls-4" points="55.53 48.39 49.78 45.06 49.78 51.71 55.53 48.39"/>
    <polygon class="cls-3" points="44.02 55.04 49.78 51.71 49.78 45.06 44.02 48.39 44.02 55.04"/>
    <path class="cls-2" d="M56.2,31.3h-25c-3.41,0-6.2,2.79-6.2,6.2v25c0,3.41,2.79,6.2,6.2,6.2h17.12l-4.62-11.22-3.35,7.09h-9.15c-1.12,0-2.07-.95-2.07-2.07v-25c0-1.12.95-2.07,2.07-2.07h25c1.12,0,2.07.95,2.07,2.07v25c0,1.12-.95,2.07-2.07,2.07h-5.42l1.7,4.14h3.72c3.41,0,6.2-2.79,6.2-6.2v-25c0-3.41-2.79-6.2-6.2-6.2Z"/>
  </g>
</svg>