<?xml version="1.0" encoding="UTF-8"?>
<svg id="Layer_1" data-name="Layer 1" xmlns="http://www.w3.org/2000/svg" viewBox="0 0 300 100">
  <defs>
    <style>
      .cls-1 {
        fill: #c5c0ae;
      }

      .cls-2 {
        fill: #e5e1d6;
      }

      .cls-3 {
        fill: #fff;
      }

      .cls-4 {
        fill: #d2c637;
      }
    </style>
  </defs>
  <path class="cls-4" d="M28.77,27.36h-3.77v-6.44h18.46c7.55,0,12.83,4.64,12.83,12.42s-5.11,10.51-6.85,10.86v.12s1.28.58,2.03,2.09l4,7.95c.64,1.22,1.63,1.34,2.9,1.34h.75v6.44h-4.01c-3.08,0-4.41-.47-5.75-3.08l-5.28-10.39c-.87-1.63-1.74-1.92-3.89-1.92h-3.83v15.38h-7.6V27.36ZM42.42,40.24c3.83,0,6.1-2.38,6.1-6.5s-2.26-6.39-5.98-6.39h-6.15v12.89h6.04Z"/>
  <path class="cls-4" d="M60.37,27.36h-3.77v-6.44h24.91c2.73,0,3.95,1.22,3.95,3.95v6.27h-6.91v-2.5c0-.81-.46-1.28-1.28-1.28h-9.29v10.8h13.35v6.44h-13.35v9.81c0,.81.46,1.28,1.28,1.28h9.52c.81,0,1.28-.47,1.28-1.28v-2.5h6.91v6.27c0,2.79-1.22,3.95-3.95,3.95h-18.69c-2.79,0-3.95-1.16-3.95-3.95v-30.83Z"/>
  <path class="cls-4" d="M115.68,50.69c0-13.53-19.39-12.13-19.39-19.16,0-2.61,2.55-4.41,6.04-4.41,2.73,0,5.46,1.28,5.46,3.19v1.86h6.85v-3.83c0-5.86-7.43-8.13-12.25-8.13-7.95,0-13.76,4.93-13.76,11.61,0,12.83,19.39,12.25,19.39,19.27,0,3.19-2.79,4.88-5.92,4.88-5.75,0-9.99-4.88-9.99-4.88l-4.3,5.34s5.05,6.38,14.16,6.38,13.7-5.57,13.7-12.13Z"/>
  <path class="cls-4" d="M130.27,27.68h-6.34c-.81,0-1.28.47-1.28,1.28v3.14h-6.69v-7.15c0-2.73.93-3.72,3.72-3.72h28.79c2.79,0,3.72.99,3.72,3.72v7.15h-6.69v-3.14c0-.81-.47-1.28-1.28-1.28h-6.34v34.83h-7.62V27.68Z"/>
  <g>
    <path class="cls-1" d="M275,36.38l-2.05-1.06-9.91-12.49-3.38,2.69,3.13,3.95c-1.27-.48-2.59-.77-3.91-.87h0l-7.07-3.56-1.94,3.86,1.97.99c-1.61.75-3.1,1.79-4.36,3.15-.48.5-.92,1.04-1.32,1.63,0,0,0,.01-.01.02l-.59.92-1.96,3.04-3,4.64,2.42,1.32.77.42h0c.2,1.31.59,2.58,1.16,3.79.82,1.77,2.02,3.4,3.57,4.73l-.37,1.56h0s-.3,1.23-.3,1.23c-.42,1.69-1.51,4.13-1.51,4.13l.1.07s1.91-1.86,3.3-2.88l1.11-.82,1.34-.99c1.81.8,3.74,1.18,5.64,1.18.23,0,.47,0,.7-.02,2.01-.1,3.99-.62,5.8-1.54,2.01-1.03,3.81-2.55,5.19-4.54.41-.58.77-1.19,1.07-1.81,1-2.01,1.48-4.17,1.48-6.32,0-.64-.04-1.27-.13-1.91l3.08-4.52Z"/>
    <path class="cls-2" d="M258.51,57.02l-6.19,4.57-1.49-4.74,1.34-.99c1.81.8,3.74,1.18,5.64,1.18.23,0,.47,0,.7-.02Z"/>
    <path class="cls-3" d="M157.56,27.81h-3.77v-6.44h24.9c2.73,0,3.95,1.22,3.95,3.95v6.27h-6.91v-2.5c0-.81-.46-1.28-1.28-1.28h-9.29v10.8h13.35v6.44h-13.35v9.81c0,.81.46,1.28,1.28,1.28h9.52c.81,0,1.28-.46,1.28-1.28v.07h6.91v3.71c0,2.79-1.22,3.95-3.95,3.95h-18.69c-2.79,0-3.95-1.16-3.95-3.95v-30.83Z"/>
    <path class="cls-3" d="M203.14,44.01h.93v-.23c0-4.24-1.68-5.81-5.46-5.81-1.34,0-3.95.35-3.95,1.97v1.57h-6.85v-3.13c0-5.51,7.78-6.1,10.86-6.1,9.87,0,12.77,5.17,12.77,11.79v11.03c0,.81.46,1.28,1.28,1.28h2.32v6.21h-6.62c-2.73,0-3.77-1.51-3.77-3.25,0-.75.06-1.28.06-1.28h-.12s-2.26,5.22-8.94,5.22c-5.28,0-10.1-3.31-10.1-9.23,0-9.29,12.77-10.04,17.59-10.04ZM197.45,57.53c3.95,0,6.73-4.18,6.73-7.78v-.7h-1.28c-3.83,0-9.93.52-9.93,4.64,0,1.97,1.45,3.83,4.47,3.83Z"/>
    <path class="cls-3" d="M219.33,53.18s3.77,4.35,8.82,4.35c2.26,0,4.01-.93,4.01-2.9,0-4.18-15.62-4.12-15.62-13.7,0-5.92,5.34-8.65,11.49-8.65,4.01,0,10.39,1.34,10.39,6.15v3.08h-6.5v-1.45c0-1.39-2.09-2.09-3.72-2.09-2.61,0-4.41.93-4.41,2.67,0,4.65,15.73,3.72,15.73,13.58,0,5.57-4.93,9.06-11.38,9.06-8.13,0-12.31-5.28-12.31-5.28l3.48-4.82Z"/>
    <path class="cls-3" d="M247.45,33.03c-.48.5-.92,1.04-1.32,1.63,0,0,0,.01-.01.02l-.59.92-1.96,3.04c-.25-.27-.57-.51-.88-.72l-.77-.53,3.85-5.53,1.69,1.18Z"/>
    <path class="cls-3" d="M269.06,45.1l-3.62-2.35,2.93-4.52-14.85-7.48h0c-1.8.65-3.48,1.7-4.87,3.12-.47.49-.91,1.02-1.32,1.6l-4.71,7.3,4.83,2.64-.7,1.27-1.34-.73c.38,1.54,1.06,3.01,2.01,4.33h0c.15.04.34.08.56.13.08.01.17.04.26.06.27.05.59.09.94.13h0c.38.04.81.07,1.26.07,1.17,0,2.52-.17,3.9-.7,1.09-.42,2.2-1.07,3.24-2.05.11-.09.22-.2.32-.3-.45-.47-.83-1.08-.96-1.86l1.41-.23c.14,1.09,1.47,1.87,2.2,2.15.23.09.37.13.37.13l-.39,1.39s-.71-.2-1.49-.66c-2.79,2.89-6.09,3.6-8.55,3.6h-.04c-.55,0-1.06-.04-1.52-.08.41.41.85.77,1.32,1.11.08.07.16.13.25.18.16.11.32.22.49.32h0c.82.51,1.66.93,2.54,1.23,1.39.51,2.84.75,4.27.75,2.02,0,4.03-.49,5.84-1.41,1.82-.92,3.43-2.29,4.67-4.08.41-.59.76-1.2,1.06-1.82.84-1.75,1.24-3.61,1.24-5.47l-1.55,2.27Z"/>
    <path class="cls-1" d="M240.31,56.99c-.06.27-.16.75-.25,1.14-.02.1-.04.2-.07.3-.01.06-.03.12-.04.17v.06c-.04.12-.08.3-.13.53-.04.2-.08.39-.12.56-.03.11-.05.23-.08.36-.39,1.82-.99,4.61-1.16,5.4-.15.15-6.14,4.58-10.23,6.68-.02.01-.05.03-.08.04-3.68,1.53-7.74,2.29-11.97,2.43-7.33.13-15.54-1.53-22.8-3.91-.11-.04-.23-.08-.34-.11-3.07-1.06-6.04-2.27-8.85-3.56-2.46-1.13-4.78-2.32-6.95-3.53,0,0-.01,0-.01,0l-.04-.02h-.02s-.02-.02-.03-.02h0s-.01-.03-.02-.03c-.01-.02-.02-.03-.02-.03l.29-3.08.65.38c.05-.72.08-2.55-.8-3.63-1.11-1.37-.08-6.09.34-6.09,1.67-.13,3.7,8.49,3.94,10.43.2-.74.8-3.31-.15-5.02-1.11-2.01,1.29-7.82,1.84-7.72.38.08.7.44.99.99,1.58,3.14,1.67,12.71,1.77,14.73,19.06,5.76,38.23,3.9,41.04,3.58,4.72-2.2,9.8-6.3,13.3-11.01Z"/>
    <path class="cls-1" d="M216.19,74.65c-7.41.25-15.35-1.37-22.8-3.91,7.25,2.38,15.47,4.04,22.8,3.91Z"/>
    <path class="cls-3" d="M272.87,50.74l-3.86,5.53c-.93-.63-1.78-1.48-2.9-.65,0,0-8.51,5.64-16.37,10.83-6.67,4.41-12.87,8.51-12.95,8.56-.29.18-.91.55-.94.56-7.38,4.38-13.72,5.51-30.07,2.62-7.71-1.26-15.52-5.03-21.6-9.14-2.63-1.77-4.93-3.6-6.78-5.31-.03-.03-.2-.18-.24-.23h.01l.04.02c1.28.77,3.53,1.96,5,2.67.3.13.61.28.92.44.32.15.64.3.98.46h0s.04.01.06.03c2.65,1.25,5.66,2.45,8.85,3.51.11.04.23.08.34.11,7.25,2.38,15.47,4.04,22.8,3.91,3.44-.05,6.68-.5,9.55-1.46.64-.14,1.48-.49,2.42-.97.03-.01.06-.03.08-.04,4.1-2.1,10.08-6.52,10.23-6.68.17-.79.77-3.58,1.16-5.4.04-.13.06-.25.08-.36.04-.18.08-.37.12-.56.05-.23.08-.41.11-.53v-.06s.04-.11.05-.17c.03-.1.05-.2.07-.3.08-.39.19-.87.25-1.14h0s2.67-12.38,2.67-12.38l.77.42h0c.2,1.31.59,2.58,1.16,3.79-.11.51-.49,2.32-.58,2.79h0s-.08.4-.08.4h0s-.51,2.43-.51,2.43h0s-.64,3.06-.64,3.06l5.01-2.39-.3,1.22c-.42,1.69-1.51,4.13-1.51,4.13l.1.07s1.91-1.86,3.3-2.88l.04-.03,1.07-.79,1.49,4.74,6.19-4.57c.25,0,.51-.03.75-.06,1.01-.09,2-.3,2.95-.62.2-.06.39-.13.59-.2l.27-.11c.17-.06.32-.13.49-.2.04-.01.07-.04.11-.05.19-.08.37-.17.56-.26.2-.11.4-.21.6-.32.13-.07.25-.14.37-.22.23-.14.46-.29.69-.45.23-.15.45-.32.66-.48.22-.17.43-.34.64-.53.2-.18.41-.37.61-.56.2-.2.41-.41.6-.63.2-.22.39-.44.57-.68.2-.23.37-.48.54-.72.11-.15.2-.3.3-.44.11-.15.2-.3.28-.45.09-.15.18-.3.25-.45.08-.15.16-.31.24-.46l2.31,1.61Z"/>
    <path class="cls-2" d="M248.49,53.55l-.37,1.56h0s-5.01,2.39-5.01,2.39l1.82-8.68c.82,1.77,2.02,3.4,3.57,4.73Z"/>
    <path class="cls-1" d="M257.51,41.96c-.95.99-3.19,2.27-5.03,1.59-1.84-.69-2.69-3.13-2.75-4.5.68.99,1.09,2.63,3.29,3.45,1.95.73,3.33-.24,4.49-.54Z"/>
  </g>
</svg>