<?xml version="1.0" encoding="UTF-8"?>
<svg id="Layer_1" data-name="Layer 1" xmlns="http://www.w3.org/2000/svg" viewBox="0 0 300 100">
  <defs>
    <style>
      .cls-1 {
        fill: #dddad3;
      }

      .cls-2 {
        fill: #c5c0ae;
      }

      .cls-3 {
        fill: #fff;
      }

      .cls-4 {
        fill: #d2c637;
      }

      .cls-5 {
        fill: #5c584a;
      }

      .cls-6 {
        fill: #918d80;
      }
    </style>
  </defs>
  <path class="cls-6" d="M258.51,57.01l-6.19,4.57-1.49-4.74,1.34-.99c1.81.8,3.74,1.18,5.64,1.18.23,0,.47,0,.7-.02Z"/>
  <g>
    <path class="cls-3" d="M260.93,47.77l-.2.7-.2.69s-.71-.2-1.49-.66c-.04-.02-.07-.04-.11-.06-.16-.11-.33-.22-.5-.35-.12-.09-.24-.2-.36-.32l-.49.13c.11-.09.22-.2.32-.3-.45-.47-.83-1.08-.96-1.86l.7-.11.71-.12c.14,1.09,1.47,1.87,2.2,2.15.23.09.37.13.37.13Z"/>
    <path class="cls-3" d="M269.37,48.3c-.3.62-.65,1.22-1.06,1.82-1.25,1.79-2.86,3.16-4.67,4.08-1.81.92-3.82,1.4-5.84,1.41-1.44,0-2.89-.24-4.27-.75l9.74-7.16c1.86-1.37,3.41-1.28,5.2-.03l.9.63Z"/>
  </g>
  <path class="cls-4" d="M28.77,27.36h-3.77v-6.44h18.46c7.55,0,12.83,4.64,12.83,12.42s-5.11,10.51-6.85,10.86v.12s1.28.58,2.03,2.09l4,7.95c.64,1.22,1.63,1.34,2.9,1.34h.75v6.44h-4.01c-3.08,0-4.41-.47-5.75-3.08l-5.28-10.39c-.87-1.63-1.74-1.92-3.89-1.92h-3.83v15.38h-7.6V27.36ZM42.42,40.24c3.83,0,6.1-2.38,6.1-6.5s-2.26-6.39-5.98-6.39h-6.15v12.89h6.04Z"/>
  <path class="cls-4" d="M60.37,27.36h-3.77v-6.44h24.91c2.73,0,3.95,1.22,3.95,3.95v6.27h-6.91v-2.5c0-.81-.46-1.28-1.28-1.28h-9.29v10.8h13.35v6.44h-13.35v9.81c0,.81.46,1.28,1.28,1.28h9.52c.81,0,1.28-.47,1.28-1.28v-2.5h6.91v6.27c0,2.79-1.22,3.95-3.95,3.95h-18.69c-2.79,0-3.95-1.16-3.95-3.95v-30.83Z"/>
  <path class="cls-4" d="M115.68,50.69c0-13.53-19.39-12.13-19.39-19.16,0-2.61,2.55-4.41,6.04-4.41,2.73,0,5.46,1.28,5.46,3.19v1.86h6.85v-3.83c0-5.86-7.43-8.13-12.25-8.13-7.95,0-13.76,4.93-13.76,11.61,0,12.83,19.39,12.25,19.39,19.27,0,3.19-2.79,4.88-5.92,4.88-5.75,0-9.99-4.88-9.99-4.88l-4.3,5.34s5.05,6.38,14.16,6.38,13.7-5.57,13.7-12.13Z"/>
  <path class="cls-5" d="M157.56,27.81h-3.77v-6.44h24.9c2.73,0,3.95,1.22,3.95,3.95v6.27h-6.91v-2.5c0-.81-.46-1.28-1.28-1.28h-9.29v10.8h13.35v6.44h-13.35v9.81c0,.81.46,1.28,1.28,1.28h9.52c.81,0,1.28-.46,1.28-1.28v.07h6.91v3.71c0,2.79-1.22,3.95-3.95,3.95h-18.69c-2.79,0-3.95-1.16-3.95-3.95v-30.83Z"/>
  <path class="cls-5" d="M203.14,44.01h.93v-.23c0-4.24-1.68-5.81-5.46-5.81-1.34,0-3.95.35-3.95,1.97v1.57h-6.85v-3.13c0-5.51,7.78-6.1,10.86-6.1,9.87,0,12.77,5.17,12.77,11.79v11.03c0,.81.46,1.28,1.28,1.28h2.32v6.21h-6.62c-2.73,0-3.77-1.51-3.77-3.25,0-.75.06-1.28.06-1.28h-.12s-2.26,5.22-8.94,5.22c-5.28,0-10.1-3.31-10.1-9.23,0-9.29,12.77-10.04,17.59-10.04ZM197.45,57.53c3.95,0,6.73-4.18,6.73-7.78v-.7h-1.28c-3.83,0-9.93.52-9.93,4.64,0,1.97,1.45,3.83,4.47,3.83Z"/>
  <path class="cls-5" d="M219.33,53.18s3.77,4.35,8.82,4.35c2.26,0,4.01-.93,4.01-2.9,0-4.18-15.62-4.12-15.62-13.7,0-5.92,5.34-8.65,11.49-8.65,4.01,0,10.39,1.34,10.39,6.15v3.08h-6.5v-1.45c0-1.39-2.09-2.09-3.72-2.09-2.61,0-4.41.93-4.41,2.67,0,4.65,15.73,3.72,15.73,13.58,0,5.57-4.93,9.06-11.38,9.06-8.13,0-12.31-5.28-12.31-5.28l3.48-4.82Z"/>
  <path class="cls-3" d="M239.63,60.1l-1.17,5.4-6.13,4.34c-.26.15-.54.32-.84.51h0c-.31.19-.65.4-1.02.63-.63.38-1.37.8-2.23,1.2l-.59-2.85v-.05c.97-.44,3.57-1.74,6.65-4.15h0c.58-.46,1.18-.94,1.78-1.48,1.17-1.03,2.37-2.21,3.55-3.55Z"/>
  <path class="cls-5" d="M177.15,63.49h0s-.01,0-.02-.01c0,0,.01,0,.02.01Z"/>
  <path class="cls-5" d="M247.45,33.03c-.48.5-.92,1.04-1.32,1.63,0,0,0,.01-.01.02l-.59.92-1.96,3.04c-.25-.27-.57-.51-.88-.72l-.77-.53,3.85-5.53,1.69,1.18Z"/>
  <path class="cls-5" d="M177.24,63.57s-.04-.03-.05-.04c-.02-.01-.04-.03-.04-.04h0s.01,0,.02.01l.06.06Z"/>
  <path class="cls-2" d="M240.31,56.99c-.2.89-.48,2.21-.68,3.11-2.57,3.31-9.47,8.29-11.98,9.19-.04.06.59,2.84.58,2.9-15.24,6.42-36.8-.7-50.98-8.65-.04,0-.07-.04-.11-.05h0s-.01-.03-.02-.03c-.01-.02-.02-.03-.02-.03l.29-3.08.65.38c.05-.72.08-2.55-.8-3.63-1.11-1.37-.08-6.09.34-6.09,1.67-.14,3.7,8.49,3.94,10.43.2-.74.8-3.31-.15-5.02-1.11-2.01,1.29-7.82,1.84-7.72,2.54.55,2.65,13.34,2.76,15.72,19.06,5.76,38.23,3.9,41.04,3.58,4.72-2.21,9.8-6.31,13.3-11.01Z"/>
  <g>
    <path class="cls-2" d="M275,36.38l-2.05-1.06-9.91-12.49-3.38,2.69,3.13,3.95c-1.27-.48-2.59-.77-3.91-.87h0l-7.07-3.56-1.94,3.86,1.97.99c-1.61.75-3.1,1.79-4.36,3.15-.48.5-.92,1.04-1.32,1.63,0,0,0,.01-.01.02l-.59.92-1.96,3.04-3,4.64,2.42,1.32.77.42h0c.2,1.31.59,2.58,1.16,3.79.82,1.77,2.02,3.4,3.57,4.73.15.14.3.26.44.39.21.16.42.32.65.48.03.02.06.05.1.07.17.11.34.23.51.33.36.23.73.45,1.11.64.28.15.57.28.87.41,1.81.8,3.74,1.18,5.64,1.18.23,0,.47,0,.7-.02,2.01-.1,3.99-.62,5.8-1.54,2.01-1.03,3.81-2.55,5.19-4.54.41-.58.77-1.19,1.07-1.81,1-2.01,1.48-4.17,1.48-6.32,0-.64-.04-1.27-.13-1.91l3.08-4.52Z"/>
    <path class="cls-3" d="M269.06,45.09l-3.62-2.35,2.93-4.52-14.85-7.48h0c-1.8.65-3.48,1.7-4.87,3.12-.47.49-.91,1.02-1.32,1.6l-4.71,7.3,4.83,2.64-.7,1.27-1.34-.73c.38,1.54,1.06,3.01,2.01,4.33h0c.15.04.34.08.56.13.08.01.17.04.26.06.27.05.59.09.94.13h0c.38.04.81.07,1.26.07,1.17,0,2.52-.17,3.9-.7,1.09-.42,2.2-1.07,3.24-2.05.11-.09.22-.2.32-.3-.45-.47-.83-1.08-.96-1.86l1.41-.23c.14,1.09,1.47,1.87,2.2,2.15.23.09.37.13.37.13l-.39,1.39s-.71-.2-1.49-.66c-2.79,2.89-6.09,3.6-8.55,3.6h-.04c-.55,0-1.06-.04-1.52-.08.41.41.85.77,1.32,1.11.08.07.16.13.25.18.16.11.32.22.49.32h0c.82.51,1.66.93,2.54,1.23l9.74-7.16c1.86-1.37,3.41-1.28,5.2-.03l.9.63c.84-1.75,1.24-3.61,1.24-5.47l-1.55,2.27Z"/>
  </g>
  <path class="cls-5" d="M177.18,63.51l.06.06s-.04-.03-.05-.04c-.01-.02-.03-.04-.04-.04h0s-.01-.02-.02-.02h0s.01,0,.02,0c.02,0,.05.04.1.06-.03-.01-.05-.03-.07-.04Z"/>
  <path class="cls-5" d="M179.27,64.68c-.3-.15-.56-.3-.8-.44.24.13.51.28.8.44Z"/>
  <path class="cls-4" d="M130.27,27.68h-6.34c-.81,0-1.28.47-1.28,1.28v3.14h-6.69v-7.15c0-2.73.93-3.72,3.72-3.72h28.79c2.79,0,3.72.99,3.72,3.72v7.15h-6.69v-3.14c0-.81-.47-1.28-1.28-1.28h-6.34v34.83h-7.62V27.68Z"/>
  <path class="cls-3" d="M250.82,56.85l-1.11.82c-1.39,1.01-3.3,2.88-3.3,2.88l-.1-.07s1.08-2.44,1.51-4.13l.3-1.22h0s1.46-.7,1.46-.7c.03.02.06.05.1.07.17.11.34.23.51.33l.64,2.03Z"/>
  <path class="cls-1" d="M249.58,54.41l-1.46.7.37-1.56c.15.14.3.26.44.39.21.16.42.32.65.48Z"/>
  <path class="cls-1" d="M252.16,55.86l-1.34.99-.64-2.03c.36.23.73.45,1.11.64.28.15.57.28.87.41Z"/>
  <path class="cls-6" d="M248.49,53.55l-.37,1.56h0s-5.01,2.39-5.01,2.39l1.82-8.68c.82,1.77,2.02,3.4,3.57,4.73Z"/>
  <path class="cls-5" d="M269.37,48.3c-.3.62-.65,1.22-1.06,1.82-1.25,1.79-2.86,3.16-4.67,4.08-1.81.92-3.82,1.4-5.84,1.41-1.44,0-2.89-.24-4.27-.75l9.74-7.16c1.86-1.37,3.41-1.28,5.2-.03l.9.63Z"/>
  <path class="cls-2" d="M257.51,41.96c-.95.99-3.19,2.27-5.03,1.59-1.84-.69-2.69-3.13-2.75-4.5.68.99,1.09,2.63,3.29,3.45,1.95.73,3.33-.24,4.49-.54Z"/>
  <path class="cls-3" d="M272.87,50.74l-3.86,5.53c-.93-.64-1.78-1.49-2.9-.65,0,0-29.14,19.28-29.32,19.39-.29.18-.91.55-.94.56-7.38,4.38-13.72,5.51-30.07,2.62-11.04-1.8-22.27-8.76-28.37-14.45-.03-.03-.25-.23-.25-.23,1.27.75,3.57,1.97,5.06,2.7.3.13.61.28.92.44.32.15.64.3.98.46h0c11.56,5.45,29.79,10.02,41.59,6.1,3.4-.76,12.55-7.51,12.73-7.69.23-1.07,1.27-5.88,1.48-6.85v-.06c.1-.4.28-1.22.37-1.61h0s2.67-12.38,2.67-12.38l.77.42h0c.2,1.31.59,2.58,1.16,3.79-.11.51-.48,2.31-.58,2.79h0s-.08.4-.08.4h0s-.51,2.43-.51,2.43h0s-.64,3.06-.64,3.06l5.01-2.39-.3,1.22c-.42,1.69-1.51,4.13-1.51,4.13l.1.07s1.91-1.86,3.3-2.88l1.11-.82,1.49,4.74,6.19-4.57c5.05-.21,9.8-3.27,12.06-7.89l2.31,1.61Z"/>
  <path class="cls-5" d="M272.87,50.74l-3.86,5.53c-.93-.64-1.78-1.49-2.9-.65,0,0-29.14,19.28-29.32,19.39-.29.18-.91.55-.94.56-7.38,4.38-13.72,5.51-30.07,2.62-11.04-1.8-22.27-8.76-28.37-14.45-.03-.03-.25-.23-.25-.23,1.27.75,3.57,1.97,5.06,2.7.3.13.61.28.92.44.32.15.64.3.98.46h0c11.56,5.45,29.79,10.02,41.59,6.1,3.4-.76,12.55-7.51,12.73-7.69.23-1.07,1.27-5.88,1.48-6.85v-.06c.1-.4.28-1.22.37-1.61h0s2.67-12.38,2.67-12.38l.77.42h0c.2,1.31.59,2.58,1.16,3.79-.11.51-.48,2.31-.58,2.79h0s-.08.4-.08.4h0s-.51,2.43-.51,2.43h0s-.64,3.06-.64,3.06l5.01-2.39-.3,1.22c-.42,1.69-1.51,4.13-1.51,4.13l.1.07s1.91-1.86,3.3-2.88l1.11-.82,1.49,4.74,6.19-4.57c5.05-.21,9.8-3.27,12.06-7.89l2.31,1.61Z"/>
</svg>