<?xml version="1.0" encoding="UTF-8"?>
<svg id="Layer_1" data-name="Layer 1" xmlns="http://www.w3.org/2000/svg" viewBox="0 0 300 100">
  <defs>
    <style>
      .cls-1 {
        fill: #322f51;
      }

      .cls-2 {
        fill: #43b3d7;
      }
    </style>
  </defs>
  <path class="cls-2" d="M56.81,28.01l-7.85,3.51c-.33.15-.48.54-.33.88.07.15.19.27.33.33l5.86,2.6,1.16.51c.17.08.37.08.54,0l3.15-1.41,1.32-.59c.24-.11.39-.35.39-.61v-6.25c0-.37-.29-.66-.66-.66-.09,0-.19.02-.27.06l-1.59.71-2.04.92Z"/>
  <path class="cls-2" d="M55.82,73.01v.21c0,.37.3.66.67.66.09,0,.18-.02.27-.06l.45-.2,3.44-1.54,10.73-4.81c.24-.11.39-.34.39-.6v-17.57c0-.37-.3-.66-.67-.66-.09,0-.18.02-.27.06l-2.36,1.06-2.21,1-.63.27-2.21.99-2.81,1.25-2.21.99-4.86,2.17-2.7,1.21-2.67,1.2c-.33.15-.48.54-.34.87.07.15.19.27.34.34l1.32.59,2.71,1.21,3.18,1.41c.24.11.39.34.39.6v9.36h.01Z"/>
  <path class="cls-2" d="M58.97,37.17l-2.7,1.21-4.42,1.98-4.04,1.81-2.48,1.11c-.33.15-.48.54-.34.87.07.15.19.27.34.34l8.61,3.82,2.71,1.21,2.98,1.32c.17.08.37.08.54,0l3.27-1.47,2.21-.99.23-.11c.24-.11.39-.34.39-.6v-12.76c0-.37-.29-.66-.66-.66-.09,0-.19.02-.27.06l-1.75.79-2.21.99-2.42,1.08Z"/>
  <path class="cls-1" d="M52.67,83.27c.33.15.72,0,.87-.33.04-.09.06-.18.06-.27v-17.58c0-.26-.15-.5-.39-.61l-3.68-1.64-2.71-1.2-1.59-.7-2.21-.98-3.29-1.46-1.57-.7-.64-.29-2.07-.92-.62-.27-2.21-.98-2.81-1.25-2.21-.98-1.69-.75c-.33-.15-.72,0-.87.33-.04.09-.06.18-.06.28v17.58c0,.26.16.5.39.61l17.63,7.83,3.82,1.7,5.83,2.59Z"/>
  <path class="cls-1" d="M32.63,41.27l-1.89-.83c-.33-.15-.72,0-.87.33-.04.09-.06.18-.06.27v10.2c0,.26.15.5.39.6l2.41,1.08,2.21.98,2.7,1.2.64.27,1.57.7,1.14.51,2.98,1.33c.17.08.37.08.54,0l3.75-1.68,2.7-1.21,4.98-2.23c.33-.15.48-.54.33-.88-.07-.15-.19-.27-.33-.33l-1.89-.84-2.7-1.2-9.98-4.43-2.7-1.21-3.7-1.65-2.22-.98Z"/>
  <path class="cls-1" d="M37.47,30.03l-1.7-.76c-.33-.15-.72,0-.87.33-.04.09-.06.18-.06.27v9.52c0,.27.15.51.39.62l5.75,2.54c.17.08.37.08.54,0l4.37-1.95,2.25-1.01,2.56-1.14,1.78-.81c.26-.12.38-.43.26-.69-.05-.12-.15-.21-.26-.26l-7.58-3.37-2.71-1.2-2.67-1.19-2.03-.9Z"/>
  <path class="cls-1" d="M41.4,29.37l3.22,1.43c.17.08.37.08.54,0l9.69-4.34c.33-.15.48-.55.32-.88-.02-.03-.03-.06-.05-.09l-5.68-8.52c-.2-.31-.61-.39-.92-.19-.08.05-.14.12-.19.19l-7.22,11.44c-.19.31-.1.72.21.91.02.02.05.03.08.04Z"/>
  <path class="cls-1" d="M93.8,43.21c-1.23,0-2.19.24-2.87.73-.68.49-1.02,1.22-1.02,2.19,0,.9.49,1.69,1.48,2.37,1.23.8,2.56,1.46,3.95,1.94,1.2.42,2.35.99,3.43,1.68.98.67,1.79,1.56,2.37,2.6.63,1.1.94,2.5.94,4.2,0,1.43-.39,2.83-1.14,4.05-.8,1.29-1.96,2.32-3.33,2.97-1.46.73-3.21,1.1-5.23,1.1-1.71,0-3.41-.26-5.04-.75-1.67-.5-3.24-1.27-4.66-2.29l2.46-4.35c1.03.75,2.15,1.34,3.35,1.77,1.08.43,2.23.66,3.39.69,1.07.03,2.13-.23,3.08-.74.87-.5,1.31-1.32,1.31-2.44,0-1.46-1.37-2.73-4.12-3.81-1.39-.53-2.74-1.15-4.05-1.85-1.11-.62-2.07-1.49-2.79-2.54-.78-1.1-1.17-2.49-1.17-4.16,0-2.44.8-4.4,2.4-5.89,1.6-1.49,3.74-2.3,6.41-2.43,2.1,0,3.86.24,5.27.71,1.45.5,2.84,1.18,4.12,2.02l-2.12,4.27c-2.46-1.36-4.6-2.03-6.42-2.03Z"/>
  <path class="cls-1" d="M133.64,37.24v29.49h-5.58v-13.52l-9.24,13.13h-.08l-8.9-12.28v12.67h-5.4v-29.49h.04l14.36,20.36,14.72-20.36h.08Z"/>
  <path class="cls-1" d="M152.66,61.19h-9.39l-2.31,5.55h-5.5l12.78-29.45h.31l12.79,29.45h-6.48l-2.2-5.55ZM150.81,56.48l-2.73-6.88-2.85,6.88h5.58Z"/>
  <path class="cls-1" d="M168.71,38.4v22.94h13.32v5.4h-18.9v-28.33h5.58Z"/>
  <path class="cls-1" d="M190.31,38.4v22.94h13.32v5.4h-18.89v-28.33h5.57Z"/>
  <path class="cls-2" d="M221.61,66.73l-5.97-9.01h-3.73v9.01h-5.58v-28.33h8.59c3.52,0,6.24.85,8.18,2.56,1.94,1.71,2.9,4.04,2.91,6.99.01,1.7-.36,3.38-1.1,4.91-.72,1.52-1.9,2.78-3.37,3.6l6.58,10.28h-6.51ZM211.89,52.34h3.98c1.51,0,2.62-.44,3.31-1.33.67-.81,1.03-1.82,1.04-2.87,0-1.05-.31-2.07-.89-2.94-.59-.94-1.73-1.41-3.42-1.41h-4v8.55Z"/>
  <path class="cls-2" d="M253.21,38.4l-10.62,19.52v8.82h-5.58v-8.82l-10.43-19.52h6.89l6.51,13.09,6.37-13.09h6.88Z"/>
  <path class="cls-2" d="M274.46,38.4v5.4h-13.74v6.04h12.16v5.4h-12.16v6.1h14.28v5.4h-19.87v-28.33h19.33Z"/>
</svg>