<?xml version="1.0" encoding="UTF-8"?>
<svg id="Layer_1" data-name="Layer 1" xmlns="http://www.w3.org/2000/svg" viewBox="0 0 300 100">
  <defs>
    <style>
      .cls-1 {
        fill: #496b8c;
      }

      .cls-2 {
        fill: #4b74a1;
      }

      .cls-3 {
        fill: #8e9395;
      }

      .cls-4 {
        fill: #324154;
      }

      .cls-5 {
        fill: #4b5d75;
      }
    </style>
  </defs>
  <g>
    <path class="cls-4" d="M136.44,68.26c-1.65,1.11-4,2.35-6.75,2.35-3.76,0-5.34-2.15-5.34-5.58v-12.43h5.54v11.12c0,1.51.4,2.62,2.05,2.62,1.55,0,3.39-1.04,4.5-2.05v-11.69h5.51v17.63h-5.51v-1.98h0Z"/>
    <path class="cls-4" d="M150.34,54.59c1.61-1.07,3.93-2.35,6.68-2.35,3.83,0,5.37,2.18,5.37,5.61v12.39h-5.51v-11.12c0-1.51-.4-2.62-2.08-2.62s-3.46,1.07-4.47,2.05v11.69h-5.51v-17.63h5.51v1.98Z"/>
    <path class="cls-4" d="M177.11,70.24v-1.81c-1.48,1.21-3.26,2.18-5.81,2.18-4.13,0-6.92-3.12-6.92-9.17s2.79-9.2,6.92-9.2c2.55,0,4.33,1.01,5.81,2.22v-10.82l5.51,3.26v23.35h-5.51ZM177.11,64.13v-5.37c-1.28-1.44-2.69-2.08-4.06-2.08-2.05,0-3.09,1.65-3.09,4.74s1.04,4.77,3.09,4.77c1.38,0,2.79-.64,4.06-2.05Z"/>
    <path class="cls-4" d="M190.28,62.58c.27,2.62,1.41,3.96,3.53,3.96,1.85,0,4.27-.94,6.45-2.08l2.02,3.43c-1.34.74-4.9,2.72-9.03,2.72-4.77,0-8.6-2.82-8.6-9.14,0-5.81,3.36-9.24,9-9.24s8.53,3.32,8.53,7.83c0,1.48-.3,2.52-.3,2.52h-11.59ZM190.31,59.69h6.48c-.03-2.32-1.08-3.56-3.12-3.56-1.98,0-3.06,1.28-3.36,3.56Z"/>
    <path class="cls-4" d="M209.82,56.27c.4-1.01,2.12-4.17,6.58-3.86v5.17c-5.95,0-6.58,5.68-6.58,5.68v6.99h-5.51v-17.63h5.51v3.66Z"/>
    <path class="cls-4" d="M217.11,52.6h2.42v-4.81l5.47-3.38v8.19h4.8v4.03h-4.8v7.56c0,1.48.81,1.61,1.48,1.61.81,0,2.15-.57,2.59-.74l1.92,4.06c-1.21.54-3.49,1.48-5.98,1.48-3.69,0-5.47-2.08-5.47-6.45v-7.52h-2.42v-4.03h0Z"/>
    <path class="cls-4" d="M240.32,70.61c-6.05,0-9.41-3.36-9.41-9.2s3.33-9.17,9.41-9.17,9.41,3.39,9.41,9.2-3.33,9.17-9.41,9.17ZM240.32,56.47c-2.65,0-3.8,1.81-3.8,4.94s1.14,4.97,3.8,4.97,3.83-1.81,3.83-4.94-1.18-4.97-3.83-4.97Z"/>
    <path class="cls-4" d="M263.63,59.19l-3.29,11.05h-5.17l-5.41-17.63h5.84l2.59,11.72,3.19-11.72h4.5l3.19,11.72,2.59-11.72h5.84l-5.47,17.63h-5.14l-3.26-11.05Z"/>
  </g>
  <g>
    <path class="cls-3" d="M75.77,67.92c-15.23,0-23.73-8.28-23.93-23.32-.04-3.1.31-13.87.99-18.12,0,0,6.76-2.88,6.91-2.88.05,0,6.07,4.24,6.07,4.24-.32,3.63-.48,14.73-.45,16.58.12,9.03,3.69,13.61,10.62,13.61h.2c8.87-.12,10.64-7.57,10.56-13.8-.02-1.26-.37-13.57-.64-16.28l6.62-4.27,6.77,2.96c.26,2.56.66,15.61.68,17.41.2,15.18-8.27,23.66-23.86,23.86-.18,0-.37,0-.55,0Z"/>
    <path class="cls-1" d="M107.61,49.72s1.63,5.26,4.1-.46c2.47-5.72,1.22-13.89,1.22-13.89,0,0,7.76,16.5-4.51,28.71,0,0-2.72,3.12-8.63,4.88,0,0,9.25-7.8,7.82-19.23Z"/>
    <path class="cls-5" d="M40.75,56.33c14.53,5.78,21.87,18.11,43.6,13.47,21.73-4.64,18.54-26.65,18.54-26.65,0,0,4.78,11.08-2.61,22.6-6.48,10.1-26.29,18.25-51.71-1.01,0,0-14.78-12.46-26.07-5.94,0,0,6.41-7.17,18.25-2.46Z"/>
  </g>
  <path class="cls-2" d="M52.53,58.96c-.83-1.35-1.99-3.42-2.42-5.13,0,0-5.36-5.08-12.16-3.26-3.46.63-5.69,2.89-5.69,2.89,5.75-1.71,7.95-1.27,13.49,1.88,4.63,2.64,10.34,7.76,6.79,3.62Z"/>
</svg>