<?xml version="1.0" encoding="UTF-8"?>
<svg id="Layer_1" data-name="Layer 1" xmlns="http://www.w3.org/2000/svg" xmlns:xlink="http://www.w3.org/1999/xlink" viewBox="0 0 300 100">
  <defs>
    <style>
      .cls-1 {
        fill: url(#linear-gradient-2);
      }

      .cls-2 {
        fill: url(#linear-gradient);
      }

      .cls-3 {
        fill: #fff;
      }
    </style>
    <linearGradient id="linear-gradient" x1="51.31" y1="26.45" x2="195.75" y2="118.69" gradientUnits="userSpaceOnUse">
      <stop offset="0" stop-color="#fff"/>
      <stop offset="1" stop-color="#6a8892"/>
    </linearGradient>
    <linearGradient id="linear-gradient-2" x1="92.02" y1="41.03" x2="120.35" y2="77.56" gradientUnits="userSpaceOnUse">
      <stop offset=".03" stop-color="#424f56"/>
      <stop offset=".55" stop-color="#6f818b"/>
      <stop offset="1" stop-color="#b0bfc8"/>
    </linearGradient>
  </defs>
  <path class="cls-3" d="M94.05,14.89c3.41,0,4.87,2.99,4.87,2.99l2.65,4.25c.2.32.55.51.92.51.06,0,.11,0,.17-.01l7.52-1.2c.43-.07.84-.1,1.22-.1,3.59,0,5.1,2.74,5.2,2.94,1.42,2.89,11.37,23.12,14.55,30.59,3.43,8.05-2.23,10.22-3.22,10.61-1.27.49-48.23,18.13-48.23,18.13-2.66.75-4.94,1.07-6.89,1.07-9.23,0-11.11-6.96-11.11-6.96l-10.81-40.95c-1.69-6.55,4.85-8.98,4.85-8.98l35.94-12.45c.87-.3,1.65-.43,2.36-.43M94.05,14.39c-.8,0-1.65.15-2.52.46l-35.94,12.45c-.08.03-6.95,2.66-5.17,9.58l10.81,40.96c.02.08.52,1.88,2.21,3.69,1.55,1.66,4.43,3.64,9.38,3.64,2.13,0,4.49-.36,7.03-1.08,1.96-.73,47.02-17.66,48.28-18.15,2.02-.79,3.4-2.04,4.11-3.74.86-2.04.65-4.57-.61-7.54-3.21-7.53-13.41-28.27-14.56-30.61-.02-.03-1.63-3.22-5.65-3.22-.42,0-.86.04-1.3.11l-7.52,1.2s-.06,0-.09,0c-.2,0-.39-.1-.5-.28l-2.64-4.23c-.17-.33-1.76-3.25-5.31-3.25h0Z"/>
  <path class="cls-2" d="M100.06,23.05c-.6.28-1.04.77-1.15,1.54-.6.34-1.11.89-1.18,1.74-.01.01-.01.03-.01.04-.75.35-1.49,1.13-1.46,2.2-1.02.42-1.94,1.37-1.85,2.64-1.34.45-2.54,1.79-2.22,3.32-1.62.54-3.13,2.18-2.59,4.01-2.04.68-4.07,2.62-3.24,4.93-2.48.88-5.12,2.95-4.2,5.86-.1.15-.5.33-.69.4-2.91.95-5.72,3.7-4.45,6.89-.01.02-.01.06,0,.08,0,.26-.64.64-.92.71-3.55,1.19-6.7,4.43-5.28,8.28h.01c.05.5-.88,1.13-1.38,1.28-2.58,1.09-4.84,2.48-6,4.92l-9.63-36.58c-.69-2.5,1.01-5.01,3.26-6,.51-.21,35.01-12.19,35.01-12.19,0,0,1.16-.42,1.71-.42,1.08-.14,2.03.32,2.78,1.14,1.35,1.47,3.48,5.21,3.48,5.21Z"/>
  <path class="cls-1" d="M126.1,62.53c-7.23,3.07-38.66,15.25-40.13,15.63,2.1-2.35,1.81-5.64.14-8.09-.02-.28.27-.69.51-.94,3.55-1.48,6.02-5.58,3.45-8.97,0-.16.39-.54.55-.64.01,0,.02-.01.03-.01h0s.02-.02.03-.03c0,0,.01,0,.01-.01,2.66-1.25,4.33-4.59,2.48-7.15.07-.11.21-.21.31-.28,2.34-.97,3.9-3.93,2.3-6.17.01-.01.01-.02.02-.02.04-.05.08-.1.13-.12h0s.01-.01.03-.02c1.88-.88,3.16-3.26,1.92-5.13,1.49-.72,2.54-2.66,1.64-4.23,1.04-.6,1.83-1.98,1.36-3.23.92-.51,1.64-1.78,1.22-2.91.66-.45,1.18-1.44.9-2.33.49-.4.88-1.2.68-1.92.39-.51.55-1.17.33-1.75l5.98-.98c1.17-.18,3.47-.04,4.55,1.96,0,0,13.29,28.71,13.63,29.45s2.4,5.99-2.07,7.89Z"/>
  <path class="cls-3" d="M102.44,25.9h-.01c.1.13.16.26.17.41.01.01.01.03.01.04.01.39-.3.74-.77.95h.02s-.4.21-.09.55h-.01c.11.16.19.35.19.54.01.48-.37.92-.96,1.18h.03c-.16.06-.46.39-.15.69.14.19.22.42.23.65.01.6-.47,1.13-1.2,1.46,0,0-.7.29-.21.82h-.01c.13.21.21.45.21.7.02.7-.53,1.34-1.37,1.72-.08.05-.52.38-.26.88,1.02,1.16.28,2.57-1.17,3.23h.02s-.78.59-.29,1.29c.01,0,.02.03.03.04,0,.01.01.02.02.03h-.01c.95,1.43.04,2.94-1.61,3.72h.04s-1.17.8-.43,1.71h-.01c1.14,1.78.05,3.62-1.99,4.59h.02s-1.46.84-.54,1.99h-.03c1.31,2.09.06,4.28-2.29,5.47h.02s-1.88,1.13-.72,2.56h-.04c1.96,2.8-.13,5.58-3.3,7.07-.45.4-1.47,1.52-.73,2.82,1.97,2.48,1.21,5.64-1.34,7.63h-.01c-.17.14-.34.27-.53.4h-.01s0,.01-.01.02h-.01c-3.5,2.65-10.56,3.17-14.66,1.17-.06-.02-.12-.05-.18-.08-.03,0-.05-.02-.08-.03-.08-.04-.16-.08-.24-.11-.57-.3-1.09-.59-1.56-.96-1.61-1.19-2.6-2.74-2.64-4.46-.01-.19,0-.38.03-.56,0,0,0-.02-.01-.02.02,0,0-.06.01-.07.02-.22.06-.44.13-.66h0c.57-2.25,2.76-4.16,5.76-5.23l-.07-.02s2.65-.92,2.02-2.95c-1.04-2.93,1.24-5.38,4.67-6.61h-.04s2.08-.66,1.58-2.28c-.91-2.43,1.05-4.47,3.92-5.44h-.03s1.77-.56,1.23-1.93l.02.02c-.06-.2-.09-.4-.1-.61-.04-1.53,1.35-2.89,3.38-3.55h-.01s1.3-.44.99-1.47c-.63-1.59.64-2.94,2.51-3.59h-.03s1.09-.36.78-1.24c-.07-.18-.11-.37-.11-.55-.03-.99.85-1.87,2.13-2.31.11-.04.84-.33.62-.98-.06-.16-.1-.32-.1-.49-.02-.82.73-1.55,1.83-1.9h-.02s.71-.24.49-.8l.02.02c-.04-.11-.06-.21-.06-.32-.02-.7.63-1.31,1.56-1.59.12-.05.51-.24.36-.63l.02.02c-.05-.11-.08-.22-.08-.34-.02-.56.48-1.04,1.21-1.28.07-.03.44-.18.31-.51-.03-.09-.06-.17-.06-.27-.03-.48.51-.88.98-1.03.06-.03.34-.16.24-.42l.02.02c-.04-.08-.06-.16-.07-.24-.01-.29.2-.55.53-.72.03-.02.07-.04.11-.05t.01-.01c.65-.31,1.86-.12,2.21.39.02.02.03.03.04.05.19.37.04.81-.38,1.02,0,0-.35.17-.09.44Z"/>
  <path class="cls-3" d="M241.98,24.15v15.85c-2.44-2.15-4.53-3.89-8.01-3.89-2.71,0-6.26,1.38-8.77,4.85-2.91,1.6-2.91-1.7-2.91-1.7v.02s0-15.13,0-15.13h-8.59v14.55c-.11,1.18-.36,1.85-.95,2.06-1.26.44-2.02-.47-2.02-.47v.03c-2.57-3.15-6.31-4.21-10.58-4.21-3.11,0-5.7.89-7.79,2.38-.64.37-1.21.54-1.77.2-.8-.48-.78-1.31-.7-1.76l3.61-12.83h-9.97l-5.87,25.49c-.42,1.47-.87,1.96-1.72,1.96-1.24,0-1.67-1.33-1.77-1.75l-5.33-25.7h-10.34l-4.85,24.74v-.04c-.25,1.13-.73,2.24-1.79,2.23-1.1,0-1.55-1.04-1.7-1.58l-5.84-25.33h-10.4l13.3,46.89h9.1l5.66-27.42s.39-1.72,1.72-1.72c1.07,0,1.34.7,1.59,1.72l5.66,27.42h9.38l3.65-12.98v.02s.27-.85.95-.96c.41-.06,1.19-.1,1.54.99,1.52,6.56,6.12,11.95,13.71,11.95,3.79,0,7.6-1.39,10.41-3.97h0s.02-.02.03-.03c.2-.19.4-.38.59-.58.62-.51,1.11-.55,1.73-.3.61.25.76.93.79,1.38v2.8h8.59v-3.73c.06-.48.29-1.17,1.07-1.32.61-.11,1.11.18,1.92,1.18,2.37,3.35,5.8,4.57,9.39,4.57s5.63-1.11,8.24-3.43l.76,2.73h6.91V24.15h-8.59ZM200.37,42.44c4.12,0,5.57,3.6,5.57,7.26h-11.15c.11-3.48,1.68-7.26,5.57-7.26ZM206.41,58.46c-.64,2.73-2.32,5.22-5.4,5.22-4.41,0-6.79-4.64-6.5-8.59h19.19v.71c-.01.17-.02.4-.02.69,0,3.22-3.45,2.66-3.7,2.62h-.02s-3.55-.65-3.55-.65ZM241.98,58.99c-1.34,2.03-3.02,3.71-5.57,3.71-5.17,0-5.92-6.27-5.92-10.16,0-3.6.99-9.64,5.75-9.64,2.5,0,4.24,1.74,5.75,3.54v12.54h0Z"/>
</svg>