<?xml version="1.0" encoding="UTF-8"?>
<svg id="Layer_1" data-name="Layer 1" xmlns="http://www.w3.org/2000/svg" viewBox="0 0 300 100">
  <defs>
    <style>
      .cls-1 {
        fill: #dfeef6;
      }

      .cls-2 {
        fill: #e1eef4;
        opacity: .5;
      }

      .cls-3 {
        opacity: .7;
      }

      .cls-3, .cls-4 {
        fill: #fff;
      }

      .cls-5 {
        fill: #d4dfe5;
      }

      .cls-6 {
        fill: #293644;
      }
    </style>
  </defs>
  <g>
    <path class="cls-4" d="M24.42,29.54l7.86,36.61h2.09l8.52-36.06h2.2l8.79,36.06h2.09l7.59-36.61h1.92l-7.92,38.48h-5.28l-8.3-35.34-8.03,35.34h-5.28l-8.19-38.48h1.92Z"/>
    <path class="cls-4" d="M69.77,29.54h1.92v3.02h-1.92v-3.02ZM69.77,40.54h1.92v27.48h-1.92v-27.48Z"/>
    <path class="cls-4" d="M78.73,27.9h1.92v40.13h-1.92V27.9Z"/>
    <path class="cls-4" d="M106.76,68.02h-1.92v-2.31s-4.51,2.8-9.51,2.8c-3.41,0-9.29-.49-9.29-13.85,0-9.45,2.53-14.62,11.54-14.62,2.58,0,5.88.44,7.26.66v-11.16h1.92v38.48ZM104.84,63.9v-21.44c-1.43-.16-5.11-.66-7.26-.66-7.81,0-9.62,4.67-9.62,13.03,0,10.94,4.29,11.93,7.37,11.93,4.73,0,9.51-2.86,9.51-2.86Z"/>
    <path class="cls-4" d="M113.03,30.09h24.08v7.26h-16.6v10.94h13.3v7.2h-13.3v12.53h-7.48V30.09Z"/>
    <path class="cls-4" d="M139.3,29.54h7.36v38.48h-7.36V29.54Z"/>
    <path class="cls-4" d="M154.91,40.59l5,20.23h1.26l5-20.23h7.26l-9.62,38.92h-7.26l2.8-11.49h-4.95l-6.76-27.43h7.26Z"/>
  </g>
  <g>
    <path class="cls-3" d="M201.1,47.46c-.95-.29-1.93-.52-2.91-.74-.49-.11-.98-.21-1.48-.31-.49-.1-.99-.2-1.49-.29-.25-.04-.5-.09-.74-.12l-.75-.1c-.5-.07-1.01-.14-1.51-.19-.5-.05-1-.11-1.51-.14l-1.52-.11c-1.02-.05-2.04-.1-3.06-.12-.51-.02-1.02-.02-1.54-.03-.51,0-1.03-.01-1.54,0-1.02,0-2.07.02-3.08.05l-1.56.07-1.52.12-1.54.16c-.52.06-1.02.13-1.54.2-1.03.15-2.05.31-3.08.49-1.03.18-2.06.38-3.09.59-2.07.42-4.14.85-6.19,1.35-1.03.25-2.05.52-3.07.82-.52.16-1.05.32-1.56.5.19.06.38.11.58.15.72.16,1.48.26,2.26.36.39.05.79.11,1.19.18l.59.11.25.04.27.03c.72.07,1.48.05,2.24.01,1.52-.08,3.06-.28,4.61-.44.78-.08,1.56-.14,2.35-.16.41,0,.78,0,1.17.01l1.16.02c.77.02,1.54.05,2.31.09h.04c.06-.01.12-.04.19-.05l.19-.05.21-.05c.14-.04.28-.06.42-.09.28-.05.55-.09.82-.12.55-.06,1.08-.09,1.61-.11,1.06-.03,2.1-.01,3.14.01,1.03.03,2.06.06,3.08.1,1.02.05,2.04.19,3.06.3,1.02.12,2.04.16,3.05.11l1.13-.06-1.07.32c-.74.22-1.48.31-2.23.38-.75.08-1.5.12-2.25.15-1.51.06-3.02.08-4.54.06-.6-.01-1.21-.04-1.82-.08-.49,0-.98.02-1.47.05-.5.03-1,.07-1.48.13-.24.03-.48.07-.71.12-.11.03-.23.05-.34.08l-.17.04-.18.05c-.47.14-.94.3-1.35.48-.08.04-.16.08-.24.12.17.07.35.14.54.2.46.14.94.26,1.44.37.49.11,1,.2,1.48.28.26.04.52.08.75.11.24.03.49.06.74.08.99.1,1.99.14,3,.13,1-.01,2.01-.06,3.01-.15,2-.18,3.98-.47,5.94-.87.98-.2,1.95-.41,2.91-.66l.72-.18.71-.19c.49-.13.93-.27,1.4-.4.93-.29,1.85-.61,2.8-.9.94-.3,1.9-.58,2.89-.77l.08-.12c.09-.22-.03-.44-.31-.66-.16-.1-.33-.19-.5-.27-.44-.2-.92-.35-1.39-.49Z"/>
    <path class="cls-3" d="M220.28,54.37c.4.27.77.55,1.2.82l.61.41.62.4c.84.53,1.69,1.05,2.55,1.54,1.73,1,3.52,1.9,5.36,2.7.92.4,1.86.76,2.8,1.09.95.33,1.92.61,2.89.83.24.05.49.11.73.15.23.05.49.09.75.13.49.08,1,.15,1.5.2.5.05,1,.09,1.48.1.2,0,.4,0,.58-.02-.06-.06-.12-.13-.19-.19-.33-.31-.73-.6-1.13-.89l-.16-.11-.14-.09c-.09-.06-.2-.12-.3-.18-.2-.12-.42-.23-.64-.34-.44-.21-.9-.41-1.37-.59-.45-.18-.91-.34-1.37-.5-.59-.15-1.17-.32-1.75-.5-1.45-.46-2.88-.95-4.29-1.49-.7-.27-1.4-.55-2.09-.86-.68-.31-1.36-.63-1.99-1.07l-.91-.64,1.05.41c.94.37,1.93.65,2.93.86,1,.22,2.01.41,3,.68.99.28,1.97.58,2.96.88.99.3,1.99.61,2.98.98.5.18,1,.38,1.5.61.25.11.5.24.74.37.12.07.25.14.37.22l.18.11.17.11c.05.03.11.07.16.11h.03c.74.22,1.48.43,2.22.66l1.11.34c.37.12.73.22,1.11.36.75.26,1.47.57,2.19.89,1.43.64,2.82,1.31,4.24,1.87.71.27,1.42.53,2.13.7l.26.06.25.04.59.08c.41.06.8.13,1.19.21.77.15,1.53.3,2.26.37.2.02.4.03.6.04-.43-.33-.87-.65-1.32-.96-.87-.6-1.75-1.18-2.65-1.74-1.79-1.13-3.62-2.19-5.45-3.24-.91-.52-1.82-1.04-2.74-1.54-.92-.5-1.84-.98-2.77-1.44-.47-.22-.93-.45-1.4-.67l-1.41-.64-1.41-.59-1.46-.56c-.95-.34-1.94-.69-2.91-1.02-.49-.17-.98-.32-1.47-.48-.49-.16-.98-.31-1.47-.46-.98-.3-1.96-.57-2.95-.85l-1.48-.37c-.49-.13-.98-.22-1.47-.34-.49-.12-.99-.2-1.49-.3l-.74-.14c-.24-.04-.49-.08-.74-.11-.5-.07-1-.14-1.5-.19-.5-.06-1-.12-1.5-.17-1-.1-2-.18-3-.21-.5-.01-.99-.02-1.48.03-.19.02-.38.05-.56.1-.33.13-.52.3-.51.53l.04.14c.87.49,1.7,1.06,2.5,1.64.8.58,1.58,1.18,2.37,1.74Z"/>
  </g>
  <path class="cls-2" d="M179.88,44.79c-4.48.07-8.72.79-13.14,1.69-3.17.64-8.86,1.87-11.8,3.16,1.24,1.14,4.25,1.14,5.98,1.47,2.81.53,7.48-.65,10.42-.67,2.02-.02,3.99-.02,5.98.09-.37.05-.72.12-1.04.21-.68.19-2.78.77-2.65,1.44.14.76,3.67,1.39,4.35,1.52,5.38.97,12.09-.16,17.58-1.68,2.97-.82,4.77-1.86,7.67-3-.98.19-1.95.47-2.89.77-.95.3-1.87.62-2.8.9-.47.13-.91.27-1.4.4l-.71.19-.72.18c-.96.24-1.93.46-2.91.66-1.96.4-3.94.69-5.94.87-1,.09-2,.14-3.01.15-1.01.01-2.01-.03-3-.13-.25-.03-.5-.05-.74-.08-.24-.03-.49-.07-.75-.11-.48-.08-1-.18-1.48-.28-.49-.11-.98-.23-1.44-.37-.19-.06-.38-.13-.54-.2.08-.04.16-.08.24-.12.41-.19.88-.34,1.35-.48l.18-.05.17-.04c.11-.03.23-.05.34-.08.23-.05.47-.09.71-.12.48-.06.98-.1,1.48-.13.48-.03.97-.04,1.47-.05.61.04,1.21.06,1.82.08,1.52.02,3.03,0,4.54-.06.75-.03,1.5-.08,2.25-.15.75-.08,1.49-.16,2.23-.38l1.07-.32-1.13.06c-1.01.05-2.03,0-3.05-.11-1.02-.11-2.04-.25-3.06-.3-1.02-.05-2.05-.07-3.08-.1-1.04-.03-2.08-.05-3.14-.01-.53.02-1.07.05-1.61.11-.27.03-.55.07-.82.12-.14.03-.28.05-.42.09l-.21.05-.19.05c-.06.02-.12.04-.19.05h-.04c-.77-.04-1.54-.07-2.31-.09l-1.16-.02c-.39,0-.76-.02-1.17-.01-.8.01-1.58.08-2.35.16-1.55.15-3.09.36-4.61.44-.76.04-1.52.06-2.24-.01l-.27-.03-.25-.04-.59-.11c-.4-.07-.8-.12-1.19-.18-.78-.1-1.54-.2-2.26-.36-.2-.04-.39-.1-.58-.15.51-.18,1.03-.34,1.56-.5,1.01-.3,2.04-.57,3.07-.82,2.05-.5,4.12-.94,6.19-1.35,1.03-.21,2.06-.41,3.09-.59,1.03-.18,2.05-.35,3.08-.49.51-.06,1.02-.14,1.54-.2l1.54-.16,1.52-.12,1.56-.07c1.01-.03,2.06-.04,3.08-.05.51,0,1.03,0,1.54,0,.51,0,1.03,0,1.54.03,1.02.02,2.04.07,3.06.12l1.52.11c.51.04,1,.1,1.51.14.5.04,1.01.12,1.51.19l.75.1c.24.04.49.08.74.12.49.09.99.19,1.49.29.49.1.99.2,1.48.31.98.22,1.96.46,2.91.74.47.15.95.3,1.39.49.18.08.35.17.5.27-1.51-1.22-7.57-2.45-8.65-2.63-4.55-.74-9.88-.88-14.47-.81Z"/>
  <g>
    <path class="cls-6" d="M203.65,48.35c-.07-.14-.16-.26-.27-.35-.2-.19-.43-.34-.66-.47-.46-.27-.93-.48-1.4-.67-.96-.39-1.94-.69-2.92-.97-.99-.28-1.98-.52-2.99-.74-.25-.05-.5-.11-.77-.15l-.77-.12c-.51-.08-1.01-.16-1.52-.22-.51-.06-1.03-.13-1.55-.18l-1.54-.14c-1.03-.07-2.07-.15-3.1-.19-.52-.03-1.04-.04-1.56-.06-.52-.02-1.04-.03-1.56-.04-1.05-.02-2.07-.02-3.14-.01l-1.56.04-1.6.09-1.58.14c-.53.06-1.05.13-1.58.19-1.05.14-2.1.3-3.14.48-1.05.18-2.09.37-3.13.58-1.04.2-2.08.43-3.12.65-1.04.23-2.09.47-3.13.73-1.05.26-2.09.54-3.13.85-1.05.32-2.09.66-3.12,1.1l-.99.43.79.7c.39.34.82.56,1.24.72.42.16.84.27,1.25.35.82.17,1.63.25,2.41.33.39.04.78.08,1.15.13l.57.09c.1.02.22.03.33.04l.32.03c.84.05,1.65,0,2.45-.07,1.59-.16,3.12-.43,4.64-.65.76-.11,1.52-.21,2.26-.25.75-.03,1.54-.05,2.3-.07.21,0,.41,0,.62,0-.16.08-.32.17-.49.29-.15.11-.31.24-.47.48-.07.13-.15.28-.16.49,0,.05,0,.1,0,.15v.08s.01.04.01.04v.06s.02.02.02.02c0,0,.02.06.03.09.03.07.05.11.07.15.18.31.37.42.53.54.16.11.31.18.45.25.29.13.55.23.82.32.54.18,1.06.31,1.58.43.53.12,1.04.23,1.58.32.26.04.51.09.79.13.28.04.54.07.81.1,1.07.11,2.14.15,3.21.14,1.06,0,2.11-.08,3.15-.18.52-.05,1.04-.11,1.55-.18.51-.07,1.03-.15,1.54-.24,1.02-.17,2.02-.38,3.02-.6,1-.23,1.98-.48,2.96-.75l.73-.21.09-.03.1-.03.18-.06.36-.12c.47-.14.96-.34,1.43-.53.93-.39,1.82-.84,2.68-1.32.86-.48,1.7-.97,2.53-1.5-2.9,1.14-4.7,2.17-7.67,3-5.49,1.52-12.21,2.65-17.58,1.68-.69-.13-4.21-.75-4.35-1.52-.12-.67,1.97-1.25,2.65-1.44.31-.09.66-.15,1.04-.21-1.99-.11-3.96-.11-5.98-.09-2.94.03-7.6,1.21-10.42.67-1.73-.33-4.74-.33-5.98-1.47,2.95-1.28,8.63-2.51,11.8-3.16,4.43-.9,8.66-1.62,13.14-1.69,4.59-.07,9.92.07,14.47.81,1.08.18,7.14,1.41,8.65,2.63.04.02.08.04.11.07.09.07.17.14.21.21.03.04.04.07.05.11,0,.02,0,.03,0,.04,0,0-.01.05-.01.08l.3.09s.02-.04.03-.1c.01-.05.02-.09.01-.13,0-.09-.03-.17-.06-.24Z"/>
    <path class="cls-6" d="M261.41,66.17c-.84-.75-1.72-1.4-2.62-2.03-.89-.63-1.79-1.22-2.7-1.8-.91-.58-1.82-1.14-2.74-1.69-.92-.55-1.83-1.09-2.76-1.61-.92-.52-1.85-1.04-2.79-1.54-.93-.5-1.88-.98-2.83-1.45-.48-.23-.95-.46-1.44-.68l-1.46-.63-1.48-.59-1.47-.53c-1.01-.34-1.99-.67-2.98-.98-.49-.16-.99-.31-1.49-.46-.5-.15-.99-.3-1.5-.44-1-.29-2-.54-3-.8l-1.51-.35c-.5-.12-1.02-.21-1.53-.32-.51-.11-1.01-.19-1.51-.28l-.77-.13c-.27-.04-.52-.07-.78-.1-1.02-.12-2.05-.2-3.07-.24-1.02-.04-2.05-.06-3.08,0-.51.03-1.03.09-1.55.19-.26.06-.52.12-.77.24-.13.06-.25.14-.36.25-.05.06-.1.13-.13.21-.01.04-.03.08-.03.13,0,.05,0,.07,0,.1h.31s0-.07.01-.07c0,0,.01-.02.02-.04.02-.03.04-.06.08-.09.07-.05.17-.1.27-.13.04-.01.08-.02.13-.03,1.81-.68,7.95.07,9.04.24,4.55.73,9.65,2.29,13.99,3.8,4.23,1.48,8.02,3.5,11.94,5.75,2.81,1.61,7.81,4.57,10.2,6.72-1.54.69-4.39-.26-6.14-.49-2.84-.38-6.9-2.97-9.67-3.93-1.91-.66-3.79-1.28-5.7-1.8.34.17.65.34.92.52.59.39,2.39,1.61,2.06,2.2-.38.68-3.92.16-4.61.06-5.41-.78-11.43-3.97-16.15-7.14-2.56-1.72-3.94-3.27-6.33-5.27.62.77,1.27,1.49,1.93,2.22.66.73,1.37,1.43,2.13,2.1.39.32.79.67,1.19.95l.3.22.15.11.09.06.08.05.63.43c.84.57,1.7,1.11,2.57,1.64.88.53,1.77,1.04,2.68,1.53.45.25.92.48,1.38.71.47.23.94.45,1.42.66.96.43,1.93.82,2.94,1.17,1.01.34,2.03.65,3.09.88.27.05.52.11.8.16.28.05.54.09.79.13.54.08,1.06.14,1.6.19.54.05,1.08.09,1.64.09.28,0,.57,0,.88-.04.16-.02.32-.04.5-.09.18-.06.4-.11.67-.34.03-.03.06-.06.11-.12.02-.02.05-.07.05-.07v-.02s.04-.05.04-.05l.02-.03.03-.07s.04-.09.05-.14c.05-.2.03-.37,0-.51-.07-.28-.19-.45-.29-.6-.12-.17-.25-.31-.38-.43.19.07.39.13.58.2.71.26,1.46.53,2.16.79.69.28,1.38.61,2.07.95,1.38.69,2.74,1.43,4.2,2.08.73.32,1.49.62,2.3.84l.31.08c.11.02.23.05.33.07l.57.1c.37.07.74.16,1.13.24.77.17,1.56.34,2.4.44.42.05.85.08,1.3.06.45-.02.93-.09,1.41-.29l.97-.41-.81-.72Z"/>
  </g>
  <path class="cls-2" d="M237.9,63.39c.69.1,4.23.62,4.61-.06.33-.59-1.48-1.81-2.06-2.2-.27-.18-.58-.35-.92-.52,1.92.52,3.8,1.15,5.7,1.8,2.78.95,6.83,3.54,9.67,3.93,1.74.24,4.6,1.18,6.14.49-2.39-2.15-7.4-5.11-10.2-6.72-3.92-2.25-7.71-4.27-11.94-5.75-4.34-1.52-9.44-3.07-13.99-3.8-1.09-.17-7.22-.92-9.04-.24.18-.05.37-.08.56-.1.48-.05.98-.04,1.48-.03.99.03,2,.11,3,.21.5.05,1,.11,1.5.17.5.06,1,.12,1.5.19.25.04.5.07.74.11l.74.14c.5.1,1.01.18,1.49.3.49.11.98.21,1.47.34l1.48.37c.98.27,1.97.54,2.95.85.49.14.98.3,1.47.46.49.16.98.31,1.47.48.97.32,1.96.67,2.91,1.02l1.46.56,1.41.59,1.41.64c.47.22.93.45,1.4.67.93.46,1.85.94,2.77,1.44.92.5,1.83,1.01,2.74,1.54,1.83,1.05,3.66,2.11,5.45,3.24.9.56,1.79,1.14,2.65,1.74.45.31.89.63,1.32.96-.2,0-.4-.02-.6-.04-.73-.07-1.48-.22-2.26-.37-.39-.07-.78-.15-1.19-.21l-.59-.08-.25-.04-.26-.06c-.71-.16-1.42-.42-2.13-.7-1.42-.56-2.81-1.23-4.24-1.87-.71-.32-1.43-.63-2.19-.89-.38-.13-.74-.24-1.11-.36l-1.11-.34c-.74-.23-1.48-.44-2.22-.65h-.03c-.05-.05-.11-.08-.16-.12l-.17-.11-.18-.11c-.12-.08-.25-.14-.37-.22-.25-.14-.49-.26-.74-.37-.5-.23-1-.43-1.5-.61-1-.37-1.99-.68-2.98-.98-.99-.3-1.97-.6-2.96-.88-.99-.27-2-.46-3-.68-1-.21-1.99-.49-2.93-.86l-1.05-.41.91.64c.63.44,1.31.76,1.99,1.07.69.31,1.39.59,2.09.86,1.41.54,2.84,1.03,4.29,1.49.58.18,1.16.35,1.75.5.46.16.92.33,1.37.5.47.18.93.38,1.37.59.22.11.43.22.64.34.1.06.2.12.3.18l.14.09.16.11c.41.28.8.58,1.13.89.07.06.13.13.19.19-.18.01-.38.02-.58.02-.48,0-.98-.05-1.48-.1-.5-.05-1.01-.12-1.5-.2-.26-.04-.51-.08-.75-.13-.24-.04-.48-.1-.73-.15-.97-.22-1.94-.5-2.89-.83-.95-.33-1.88-.69-2.8-1.09-1.84-.8-3.63-1.7-5.36-2.7-.87-.5-1.72-1.01-2.55-1.54l-.62-.4-.61-.41c-.43-.28-.8-.55-1.2-.82-.79-.57-1.57-1.16-2.37-1.74-.8-.58-1.62-1.15-2.5-1.64,2.39,2,3.78,3.55,6.33,5.27,4.73,3.18,10.75,6.37,16.15,7.14Z"/>
  <path class="cls-5" d="M198.6,53.65c-.07,1.77.99,3.44,2,4.91,1.49,2.18.7,5.02.76,7.37.09,3.65-1.25,18.17,1.86,21.61h.01c3.96-1.66,7.17-15.43,8.42-18.83.8-2.18.96-5.87,3.06-7.32,1.56-1.08,3.71-2.23,4.09-4.19l-9.31-9.5s-10.89,5.83-10.89,5.95Z"/>
  <path class="cls-1" d="M217.33,57.22c-.26.11-.52.23-.77.35.33-.21.65-.43.96-.69.34-.29-.3-.62-.55-.56-.44.1-.87.22-1.31.34.2-.27.38-.56.52-.88.15-.34-.35-.54-.61-.5-2.72.46-4.59,2.32-7,3.52-1.18.59-2.41,1.11-3.68,1.51-.17.05-.34.1-.5.15-.32.08-.65.15-.98.19-.29.09-.51-.02-.66-.31.23-.24.93-.35,1.22-.43,1.14-.29,2.22-.67,3.29-1.15.95-.43,1.84-.95,2.67-1.57,1.75-.59,3.4-1.46,4.68-2.81.27-.29-.44-.53-.61-.5-1.48.21-2.6.97-3.73,1.92-.36.3-.72.58-1.09.85-.71.23-1.43.42-2.15.59-.48.11-.99.19-1.5.25.7-.38,1.4-.78,2.11-1.16,1.93-1.03,4.12-1.67,5.7-3.22.37-.36-.38-.61-.65-.54-2.03.57-3.9,1.48-5.81,2.37,0,0,.02,0,.03-.01,1.68-.84,3.33-1.72,4.95-2.65.4-.23-.29-.56-.59-.55.15-.08.3-.15.46-.23.51-.26-.23-.72-.57-.58-1.82.71-3.58,1.52-5.31,2.45-1.37.74-3.09,2.15-4.75,2.54.95-.91,2.4-1.39,3.5-2.04,1.66-.98,3.3-1.96,4.92-2.99.29-.19-.03-.43-.33-.52.37-.22.73-.44,1.09-.67.3-.19-.07-.48-.39-.55.12-.2.15-.39.05-.55-.13-.19-.39-.31-.61-.26-.3.06-.53.25-.78.41-1.04.69-2.03,1.35-3.16,1.9-1.42.7-2.9,1.28-4.34,1.96-.41.12-.83.25-1.25.38-.21.07-.22.19-.13.31-.1.05-.19.1-.29.15-.1.06-.12.21-.05.31.24.39.65.51,1.12.48-.4.19-.81.38-1.22.57-.45.2.05.62.36.62.31,0,.6-.05.88-.14-.29.25-.55.52-.76.86-.18.29.3.5.51.51.2.01.4.01.59,0-.12.09-.24.17-.36.26-.39.29.39.69.66.54.03-.02.06-.03.08-.05h0c.1-.05.19-.11.29-.16-.04.03-.07.06-.11.1-.35.34.3.58.56.57,1.58-.08,2.94-1.02,4.26-1.77,1.39-.8,2.9-1.51,4.44-2.1-1.15.64-2.41,1.13-3.58,1.71-1.38.7-2.68,1.5-4.09,2.12-.62.14-1.22.34-1.75.66-.44.26.42.61.66.54.53-.15,1.05-.34,1.55-.55.79-.15,1.63-.19,2.38-.32.42-.07.84-.16,1.26-.26-.61.31-1.23.6-1.9.85-.96.37-2.56.41-3.32,1.18-.37.37.18,1,.54,1.14.05.02.09.03.14.05-.14.07-.28.13-.41.2-.25.14.02.45.2.51.65.22,1.28.24,1.89.14-.48.19-.95.38-1.43.57-.4.16-.07.48.26.58-.87.53-1.45,1.08-.92,1.44.52.34,1.27,0,1.76-.18.51-.19,1.01-.4,1.51-.61-.06.04-.13.08-.19.12-.12.08-.13.16-.1.24-.29.17-.59.33-.88.5-.17.1-.14.23-.02.33-.88.27-1.75.6-2.39,1.26-.29.3.18.54.44.57,1.12.11,2.24-.09,3.36-.43-.16.25.28.48.5.5.58.04,1.14-.03,1.69-.15-.09.05-.18.09-.27.14-.41.22-.85.4-1.29.56-1.32.35-2.63.73-3.88,1.28-.52.23.22.74.58.58.97-.42,1.98-.72,2.98-1.04.11-.03.21-.06.32-.09-1.26.66-2.5,1.35-3.66,2.2-.42.31.41.62.66.53.2-.07.39-.14.59-.22-.35.31-.67.65-.95,1.04-.23.31.41.55.62.5.9-.22,1.75-.54,2.59-.9-.65.56-1.23,1.19-1.66,1.94-.13.22.08.38.3.45-.2.13-.4.27-.61.41-.41.29.44.69.74.49.39-.26.78-.51,1.16-.78.66-.41,1.36-.75,2.13-.87-.36.56-1.09.88-1.65,1.13-.52.23.22.73.58.58.88-.39,2.01-.92,2.19-1.98.05-.27-.33-.42-.53-.42-.26,0-.5.01-.74.04.46-.4.89-.82,1.31-1.27.27-.3-.51-.58-.72-.47-.9.49-1.64,1.39-2.51,1.98,1.35-1.5,3.31-2.47,4.88-3.62.39-.29-.39-.66-.65-.53-1.89.91-3.69,1.99-5.66,2.72,1.48-1.32,3.49-2.05,5.1-3.13.34-.23-.13-.5-.46-.54.15-.08.29-.16.43-.24h0s.06-.03.08-.05c.23-.13.1-.3-.11-.41.98-.46,1.96-1,2.66-1.71.36-.37-.38-.61-.65-.53-1.44.42-2.88,1.34-4.4,1.65,1.5-1.05,3.29-1.8,4.94-2.48.53-.22-.23-.69-.57-.58-1.46.49-2.87,1.14-4.3,1.73-1.23.51-2.61,1.13-3.99,1.32,1.31-.79,3.13-1.1,4.45-1.67,2.22-.95,4.42-1.9,6.5-3.11.34-.2-.14-.5-.42-.55.9-.49,1.8-.99,2.71-1.47.52-.28-.24-.67-.57-.58-.15.04-.3.09-.45.14.76-.39,1.52-.76,2.3-1.1.51-.22-.22-.73-.57-.58ZM206.13,55.32c-.85.46-1.7,1.03-2.6,1.43.82-.54,1.72-1,2.6-1.43ZM204.8,61.16c-.31.11-.62.2-.94.25.16-.06.32-.11.49-.16.15-.02.3-.05.45-.09ZM210.21,58.7c1.53-.95,3.01-2,4.69-2.54-.29.41-.66.76-1.06,1.07-1.23.43-2.43.93-3.63,1.47ZM203.73,63.67c.36-.21.74-.39,1.11-.57.96-.47,1.96-.87,2.94-1.28,1.82-.77,3.54-1.72,5.29-2.62.33-.13.66-.25.98-.39-1.52.81-3.02,1.66-4.58,2.4-1.87.89-3.81,1.68-5.74,2.46ZM211.22,61.38c-.14.07-.27.14-.41.22,0,0-.02,0-.02,0,.04-.02.08-.05.12-.07.11-.05.21-.1.32-.15Z"/>
  <path class="cls-6" d="M230.48,68.31c-.25-.25-.62-.61-1.09-1.06-.93-.92-2.27-2.24-3.84-3.85-.79-.81-1.65-1.68-2.54-2.63-.91-.93-1.85-1.93-2.84-2.96-.98-1.04-2-2.11-3.04-3.2-1.04-1.09-2.09-2.21-3.14-3.33-1.16-1.24-2.32-2.49-3.47-3.72.77-.43,1.54-.85,2.3-1.27.64-.35,1.27-.69,1.89-1.03.62-.33,1.23-.66,1.82-.98,1.19-.65,2.3-1.3,3.3-1.94,1-.64,1.89-1.29,2.63-1.92.74-.63,1.33-1.25,1.76-1.82.42-.57.67-1.07.81-1.43.07-.18.11-.32.13-.41.03-.1.04-.14.04-.14,0,0-.02.05-.05.14-.03.09-.08.23-.16.4-.15.34-.44.82-.89,1.34-.45.52-1.07,1.09-1.84,1.66-.77.57-1.68,1.14-2.71,1.7-1.03.56-2.18,1.11-3.41,1.66-.61.29-1.24.56-1.88.88-.63.32-1.27.65-1.92.99-.84.44-1.7.89-2.56,1.35-.67-.72-1.34-1.43-1.99-2.12-.51-.53-1.01-1.05-1.49-1.56-.5-.51-1.01-.98-1.49-1.45-.98-.92-1.88-1.82-2.68-2.68-.79-.87-1.47-1.71-2.01-2.5-.54-.79-.94-1.53-1.2-2.17-.26-.64-.37-1.19-.4-1.56-.02-.19-.02-.33-.02-.43,0-.1,0-.15,0-.15,0,0,0,.05-.01.15,0,.1-.02.24,0,.44.01.38.08.94.3,1.62.21.67.57,1.45,1.06,2.29.49.84,1.12,1.74,1.86,2.67.73.94,1.57,1.91,2.48,2.92.46.49.92,1,1.4,1.52.47.52.96,1.05,1.45,1.59.58.64,1.17,1.3,1.76,1.96-1.49.79-2.99,1.59-4.5,2.38-1.36.72-2.72,1.43-4.06,2.12-.46.24-3.12,1.62-3.91,2.03-1.27.65-2.49,1.29-3.65,1.86-1.15.6-2.25,1.14-3.26,1.65-2.02,1.01-3.71,1.82-4.89,2.39-.6.27-1.06.5-1.38.65-.32.15-.49.23-.49.23,0,0,.18-.06.52-.17.34-.11.83-.27,1.46-.48.63-.21,1.38-.5,2.24-.81.86-.32,1.82-.72,2.88-1.14,1.04-.45,2.18-.93,3.37-1.47,1.19-.54,2.44-1.13,3.73-1.75.55-.27,1.11-.55,1.67-.83,0,.31.05.63.12.93.17.76.49,1.47.87,2.13.37.67.82,1.3,1.21,1.92.37.63.56,1.36.65,2.09.16,1.47-.08,2.95-.11,4.45,0,.04,0,.08,0,.12-.11.07-.2.15-.27.22-.14.14-.22.27-.24.37-.03.1-.02.16-.02.16,0,0,0-.06.06-.14.05-.08.14-.19.29-.28.06-.03.12-.07.19-.1,0,.63,0,1.25-.03,1.88l-.08,2.24c-.11,2.98-.19,5.97-.07,8.97.07,1.5.19,3,.45,4.49.13.74.29,1.49.53,2.21.24.72.56,1.44,1.08,2.03l.03.04h.05s.01.02.01.02h.06s.05,0,.05,0c.73-.32,1.27-.89,1.74-1.48.47-.6.86-1.24,1.22-1.9.72-1.32,1.3-2.71,1.84-4.11.83-2.19,1.54-4.43,2.21-6.66h.04s0-.04-.01-.09c.18-.6.36-1.2.54-1.79.21-.71.43-1.43.65-2.14.11-.36.24-.7.36-1.06.12-.36.21-.72.31-1.09.03-.12.06-.24.09-.37.08.06.16.12.22.17.3.22.48.35.48.35,0,0-.16-.14-.44-.39-.07-.06-.15-.13-.23-.21.14-.58.27-1.15.42-1.72.19-.71.42-1.42.74-2.07.32-.64.75-1.23,1.33-1.63.59-.41,1.2-.79,1.79-1.22.59-.43,1.15-.9,1.61-1.48.21-.27.4-.58.53-.91.22.22.44.44.65.66,1.02,1,2,1.97,2.95,2.87.94.9,1.86,1.73,2.7,2.49.86.75,1.63,1.44,2.34,2.02.71.58,1.33,1.1,1.85,1.5.52.4.94.71,1.22.93.28.21.43.32.43.32,0,0-.13-.13-.38-.38ZM211.93,67.31c-.09.36-.19.72-.3,1.07-.12.35-.25.7-.36,1.06-.23.71-.45,1.43-.66,2.14-.14.46-.28.92-.42,1.38-.04-.11-.09-.23-.16-.36-.1-.18-.23-.38-.39-.58-.16-.21-.36-.4-.58-.6-.23-.18-.48-.38-.75-.54-.28-.16-.57-.31-.89-.42-.31-.12-.64-.2-.96-.26-.66-.13-1.32-.14-1.94-.08-.31.03-.6.08-.88.15-.27.07-.53.14-.76.24-.23.09-.43.19-.6.3-.17.1-.31.2-.42.3-.11.09-.19.17-.24.23-.05.06-.08.09-.08.09l.02.02s.04-.01.11-.04c.07-.03.17-.07.3-.11.06-.02.14-.04.22-.06.08-.02.16-.05.25-.07.18-.04.38-.08.61-.11.22-.03.47-.05.73-.07.26,0,.53-.02.81,0,.28,0,.57.02.86.05.29.03.59.07.88.12.29.05.58.11.87.18.28.07.56.15.82.24.53.18.99.44,1.34.74.35.29.57.62.7.86.02.03.04.06.05.1-.7,2.3-1.43,4.59-2.29,6.83-.54,1.39-1.13,2.77-1.83,4.07-.36.65-.74,1.28-1.2,1.85-.43.54-.92,1.03-1.52,1.32-.42-.52-.71-1.16-.93-1.82-.23-.7-.39-1.43-.51-2.16-.25-1.47-.36-2.96-.43-4.44-.14-2.98-.07-5.97.02-8.95l.07-2.24c.02-.67.01-1.35,0-2.01.26-.09.58-.17.94-.23.61-.11,1.33-.18,2.1-.21.39-.02.79-.02,1.19-.02.4,0,.81-.01,1.21-.01.2,0,.4,0,.58.01.21.02.42.02.61.04.38.03.78.09,1.15.17.37.1.73.21,1.05.36.32.15.63.31.89.48.32.19.59.38.82.55-.04.15-.07.3-.11.46ZM217.99,58.64c-.44.56-.99,1.02-1.57,1.44-.58.42-1.19.8-1.79,1.21-.62.43-1.08,1.05-1.41,1.72-.33.67-.57,1.39-.76,2.12-.14.53-.27,1.07-.4,1.6-.21-.19-.45-.4-.73-.62-.51-.41-1.15-.83-1.91-1.18-.38-.17-.78-.33-1.21-.44-.22-.07-.42-.11-.63-.15-.23-.05-.45-.06-.67-.08-.44-.03-.87-.01-1.29.03-.42.05-.83.11-1.22.19-.79.16-1.51.34-2.11.57-.31.11-.58.24-.81.37.03-1.45.26-2.92.09-4.42-.09-.76-.29-1.52-.69-2.2-.41-.66-.85-1.25-1.22-1.91-.37-.65-.68-1.34-.84-2.06-.08-.33-.11-.67-.11-1,.68-.34,1.36-.68,2.04-1.03,1.34-.69,2.7-1.41,4.06-2.13,1.37-.72,2.72-1.46,4.06-2.19.22-.12.43-.24.65-.36.16.18.32.36.49.54.54.59,1.08,1.19,1.62,1.78l.06.08c.16.21.34.42.5.63.17.21.33.42.51.63l.53.61c.17.21.35.4.54.6l.55.58.58.56c.19.19.39.36.59.54.14.13.28.24.42.36.12.13.24.25.36.38.76.79,1.51,1.56,2.25,2.31-.13.34-.31.65-.54.94Z"/>
  <path class="cls-4" d="M209.92,73.12c-.06-.21-.5-.26-.66-.16-.38.24-.73.51-1.05.81-.02,0-.04,0-.05.01-1.79.82-3.3,2.25-4.91,3.43-.29.22-.6.4-.91.58.88-.5,1.68-1.34,2.49-1.99,1.16-.94,2.32-1.87,3.46-2.85.21-.18-.52-.31-.64-.25-1.37.59-2.7,1.35-4.07,1.96,1.16-1.03,1.3-1.42,1.54-1.96.47-.09.91-.19,1.22-.36-.12-.05-.52-.15-.9-.26.13-.26-.52-.31-.65-.24-.88.48-1.86.65-2.74,1.13-.27.15.41.4.6.29.3-.16.71-.26,1.16-.34-.83.73-1.8,1.4-2.03,2.49-.05.25.48.27.6.23,1.26-.4,2.45-1,3.63-1.6-1.56,1.28-3.02,2.42-4.56,3.74-.07.06,0,.17.04.2.67.54,1.39.14,2.03-.27,1.16-.75,2.2-1.68,3.3-2.49-1.3,1.36-2.69,2.63-4.05,3.92-.21.2.52.31.64.25.74-.34,1.43-.75,2.09-1.2-.91,1.08-1.87,2.11-2.92,3.05-.21.18.49.31.58.28.76-.24,1.49-.54,2.2-.88-.99.97-1.96,1.96-2.86,3.04-.17.2.52.39.69.21.74-.8,1.49-1.58,2.25-2.35-.43.8-.86,1.6-1.28,2.42-.46.47-.89.97-1.23,1.57-.09.16.11.25.32.28-.03.07-.07.15-.1.22-.11.24.59.28.71.16,1-.94,1.29-1.58,1.79-2.82,0,0,0,0,0,0,1.11-1.51,1.92-3.17,2.72-4.93.09-.19-.28-.27-.51-.21.33-.76.62-1.54.86-2.34.21.11.5.1.51-.07.02-.92.95-1.79.67-2.72ZM209.06,74.26c-.08-.06-.22-.09-.34-.1.16-.16.33-.31.5-.45-.03.18-.09.37-.16.55ZM205.97,77.01s-.04.08-.06.12c-.01.03-.02.06-.01.09-.21.16-.43.32-.65.48.24-.23.48-.45.71-.68ZM207.7,76.51c.11-.15-.1-.24-.32-.26.23-.31.48-.6.74-.88-.4,1.45-.97,2.8-1.61,4.12-.78.42-1.56.82-2.36,1.16,1.29-1.27,2.47-2.65,3.55-4.13Z"/>
  <path class="cls-2" d="M219.16,52.35c.17-.07.36-.12.54-.16.36-.08.73-.12,1.09-.15.36-.03.72-.04,1.08-.05h1.07c.36.01.71.03,1.05.03l1.06-.02c.72-.01,1.44-.01,2.16,0,1.44.01,2.86.03,4.28-.04.36-.02.71-.05,1.06-.07l.52-.05.54-.07,2.16-.31c1.44-.21,2.88-.43,4.32-.69,1.44-.25,2.87-.56,4.27-.94,1.41-.38,2.8-.83,4.1-1.44,1.03-.48,2.01-1.06,2.84-1.78-.12-.01-.24-.03-.37-.04-.21-.01-.42-.03-.64-.04-.21,0-.43-.01-.64,0-.22,0-.43,0-.65.02-.22,0-.43.02-.65.04-.44.03-.88.08-1.31.14-.44.06-.88.13-1.31.21-.43.08-.87.16-1.3.26-.43.1-.87.19-1.3.3l-1.29.3c.75-.2,1.51-.41,2.26-.63.2-.06.41-.12.61-.18l.97-.3c.43-.13.86-.26,1.29-.38.16-.04.33-.09.49-.13.39-.11.78-.22,1.17-.33.76-.22,1.53-.42,2.29-.6l1.16-.28c.38-.09.76-.18,1.13-.29.75-.21,1.49-.45,2.23-.72.73-.27,1.46-.57,2.18-.88.72-.31,1.44-.64,2.15-.98l2.15-1.04c.72-.35,1.43-.71,2.17-1.05,1.47-.68,2.96-1.29,4.42-1.94.73-.33,1.44-.67,2.13-1.05.35-.19.69-.39,1.02-.59.16-.1.33-.2.49-.31l.49-.33c.67-.47,1.34-.91,1.98-1.37.43-.31.83-.65,1.22-.99-1.13-.22-2.27-.39-3.42-.5-1.4-.13-2.82-.2-4.23-.21-1.41,0-2.83.03-4.23.1-1.41.07-2.81.17-4.21.3-.7.06-1.39.14-2.09.21-.69.08-1.38.18-2.07.26l-2.06.32c-.68.13-1.37.24-2.04.37l-1.01.21c-.33.07-.67.14-1.01.22l-1.02.24-.49.12-.5.13c-1.34.34-2.68.69-4,1.04-2.65.72-5.27,1.49-7.84,2.37-1.28.44-2.56.89-3.82,1.37-.63.24-1.26.48-1.88.74-.63.24-1.24.51-1.86.77-.61.27-1.21.52-1.83.81-.61.29-1.22.57-1.84.86l-1.84.84c-.61.27-1.21.55-1.81.84-1.2.57-2.38,1.17-3.49,1.87-.56.35-1.1.71-1.6,1.13-.5.42-.96.88-1.3,1.45h-.03s-.13.39-.12.71c.01.32.64.57,1.18.88.54.31,3.29,2.2,3.29,2.2v-.18h0,0c0-.06.04-.1.07-.14l-.04-.04c.12-.15.3-.25.48-.32Z"/>
  <path class="cls-6" d="M276.82,32.76c-1.41-.34-2.84-.57-4.28-.72-1.43-.15-2.87-.23-4.31-.27-1.43-.04-2.86-.04-4.29,0-1.42.04-2.84.1-4.26.2-.71.04-1.41.11-2.12.16-.7.06-1.41.14-2.11.21l-2.1.27c-.7.11-1.39.2-2.09.33l-1.05.19c-.35.06-.7.13-1.04.2l-1.02.21-.26.05-.27.06-.51.12c-1.36.31-2.71.65-4.05,1-1.34.35-2.67.73-4,1.11-1.33.4-2.64.79-3.95,1.23-1.31.42-2.6.89-3.89,1.38-1.28.49-2.55,1.02-3.8,1.59-1.26.59-2.46,1.21-3.64,1.84l-1.79.94c-.59.32-1.19.65-1.77.99-.59.34-1.16.7-1.73,1.08-.57.37-1.12.77-1.65,1.2-.53.43-1.04.89-1.5,1.39-.23.25-.43.53-.62.81-.18.28-.34.59-.45.9h.03s.03.02.03.02c.34-.57.8-1.03,1.3-1.45.5-.42,1.05-.78,1.6-1.13,1.12-.69,2.3-1.29,3.49-1.87.6-.29,1.2-.57,1.81-.84l1.84-.84c.62-.28,1.22-.57,1.84-.86.62-.29,1.22-.54,1.83-.81.62-.26,1.23-.52,1.86-.77.62-.26,1.25-.5,1.88-.74,1.26-.48,2.54-.93,3.82-1.37,2.57-.88,5.19-1.65,7.84-2.37,1.33-.36,2.66-.7,4-1.04l.5-.13.49-.12,1.02-.24c.34-.08.68-.16,1.01-.22l1.01-.21c.67-.14,1.36-.25,2.04-.37l2.06-.32c.69-.09,1.38-.18,2.07-.26.7-.07,1.39-.16,2.09-.21,1.4-.13,2.8-.23,4.21-.3,1.4-.07,2.82-.11,4.23-.1,1.41.01,2.83.08,4.23.21,1.15.11,2.3.27,3.42.5-.39.35-.79.68-1.22.99-.64.46-1.31.91-1.98,1.37l-.49.33c-.16.11-.33.21-.49.31-.33.2-.67.4-1.02.59-.69.37-1.41.72-2.13,1.05-1.45.65-2.94,1.25-4.42,1.94-.74.34-1.45.7-2.17,1.05l-2.15,1.04c-.71.34-1.43.67-2.15.98-.72.32-1.44.61-2.18.88-.73.27-1.48.51-2.23.72-.37.11-.75.2-1.13.29l-1.16.28c-.77.19-1.53.38-2.29.6-.39.11-.78.22-1.17.33-.16.04-.33.08-.49.13-.43.12-.86.25-1.29.38l-.97.3c-.2.06-.41.12-.61.18-.75.22-1.5.42-2.26.63l2.27-.59s.05-.01.07-.02c-.78.21-1.56.42-2.34.61l1.29-.3c.43-.1.87-.2,1.3-.3.43-.1.87-.18,1.3-.26.44-.08.88-.15,1.31-.21.44-.06.88-.1,1.31-.14.22-.02.44-.03.65-.04.22-.01.43-.01.65-.02.22,0,.43,0,.64,0,.21,0,.43.03.64.04.12.01.24.03.37.04-.83.72-1.81,1.31-2.84,1.78-1.31.6-2.7,1.05-4.1,1.44-1.41.38-2.83.68-4.27.94-1.43.25-2.87.48-4.32.69l-2.16.31-.54.07-.52.05c-.35.03-.71.05-1.06.07-1.42.07-2.84.05-4.28.04-.72,0-1.44,0-2.16,0l-1.06.02c-.34,0-.7-.02-1.05-.02h-1.07c-.36,0-.72.01-1.08.04-.36.03-.73.07-1.09.15-.18.04-.36.09-.54.16-.18.07-.35.17-.48.32l.04.04h.01c.29-.17.65-.16.99-.17.34,0,.69.02,1.04.05.35.03.7.06,1.04.09l1.05.1c.35.03.71.06,1.08.07.39.02.73,0,1.08,0,.71,0,1.42.02,2.13.05,1.43.04,2.88.1,4.35.05.37,0,.74-.03,1.1-.06l.56-.05.54-.06,2.18-.29c1.45-.19,2.91-.4,4.37-.67,1.46-.27,2.92-.58,4.37-.98,1.45-.4,2.89-.9,4.28-1.57,1.38-.67,2.72-1.52,3.76-2.7l.54-.61-.79-.14c-.19-.03-.37-.06-.56-.08l.35-.06c.4-.07.79-.14,1.19-.24.79-.17,1.57-.38,2.34-.62.77-.24,1.54-.5,2.3-.79.75-.29,1.5-.6,2.24-.93.74-.32,1.46-.67,2.19-1.01l2.16-1.03c1.44-.67,2.92-1.31,4.38-2.05.73-.37,1.46-.76,2.16-1.18.35-.21.7-.43,1.05-.66.17-.12.35-.24.51-.36l.49-.36c.62-.48,1.29-.94,1.94-1.43.65-.49,1.3-1.02,1.87-1.61l.48-.5-.68-.16Z"/>
  <path class="cls-2" d="M204.8,47.71c-.14-.65-.43-1.23-.78-1.78-.34-.56-.75-1.07-1.16-1.58-.84-1.01-1.77-1.95-2.73-2.87-.47-.46-.96-.92-1.45-1.37l-1.48-1.37c-.5-.47-.98-.93-1.47-1.39-.49-.47-.98-.9-1.48-1.35-.5-.44-1-.89-1.52-1.31-.51-.44-1.03-.87-1.55-1.29-1.05-.85-2.11-1.68-3.19-2.5-2.16-1.65-4.41-3.21-6.69-4.72-1.15-.76-2.31-1.51-3.47-2.25l-.44-.28-.43-.27-.89-.55c-.3-.19-.59-.36-.89-.53l-.89-.51c-.6-.34-1.21-.67-1.82-1l-1.85-.95c-.63-.3-1.25-.61-1.89-.9-.64-.29-1.27-.59-1.91-.86-1.28-.56-2.58-1.1-3.9-1.61-1.31-.51-2.64-.99-3.99-1.43-1.34-.44-2.71-.81-4.08-1.14-1.13-.26-2.27-.47-3.42-.61.26.45.54.9.86,1.33.46.64.96,1.27,1.45,1.93l.36.47c.12.16.25.3.37.45.25.3.51.59.78.88.54.57,1.11,1.13,1.69,1.67,1.17,1.07,2.4,2.12,3.58,3.23.6.56,1.15,1.12,1.73,1.68l1.71,1.66c.57.55,1.15,1.09,1.73,1.61.58.53,1.18,1.04,1.79,1.53.61.49,1.24.95,1.89,1.39.32.22.65.42.98.63l1.01.63c.67.42,1.34.84,1.99,1.3.38.26.76.52,1.14.78.09.06.19.12.29.18.38.25.74.51,1.1.77l.84.6c.17.12.34.24.51.35.64.45,1.29.88,1.95,1.31l-1.13-.7c-.38-.23-.76-.46-1.14-.69-.38-.23-.77-.44-1.16-.66-.39-.21-.78-.42-1.18-.61-.4-.19-.8-.38-1.2-.55-.2-.09-.4-.17-.61-.24-.2-.08-.41-.15-.61-.22-.2-.07-.41-.13-.61-.19-.21-.06-.41-.11-.62-.16-.12-.03-.24-.05-.36-.08.55.95,1.3,1.81,2.13,2.59,1.05.99,2.23,1.85,3.44,2.66,1.21.8,2.47,1.54,3.76,2.24,1.28.69,2.58,1.36,3.88,2.01l1.95.97.49.23.48.21c.33.14.65.28.98.41,1.32.52,2.68.95,4.05,1.39.68.22,1.37.44,2.05.68l1,.36c.32.11.67.21,1.01.31l1.02.33c.34.12.68.24,1.01.39.33.14.67.3.98.49.16.09.31.2.46.32.14.12.28.27.35.45l-.05.02c.02.05.03.1.02.16h0s-.06.17-.06.17c0,0,3.2-.93,3.82-1.05.61-.12,1.28-.16,1.4-.46.11-.3.12-.72.12-.72h0s-.04,0-.04,0Z"/>
  <path class="cls-6" d="M204.72,46.71c-.09-.33-.2-.65-.34-.96-.27-.63-.61-1.22-.98-1.8-.37-.57-.77-1.13-1.19-1.66-.42-.53-.85-1.06-1.3-1.57-.45-.51-.91-1.01-1.37-1.5l-1.4-1.46c-.92-.97-1.87-1.94-2.88-2.89-1-.94-2.04-1.84-3.1-2.71-1.06-.87-2.14-1.73-3.25-2.54-1.1-.83-2.23-1.62-3.36-2.41-1.14-.79-2.28-1.56-3.45-2.32-1.16-.76-2.34-1.51-3.53-2.23l-.45-.27-.23-.14-.23-.13-.9-.52c-.3-.18-.61-.35-.92-.52l-.93-.51c-.62-.34-1.26-.65-1.88-.97l-1.91-.92c-.65-.29-1.29-.59-1.94-.87-.65-.27-1.3-.56-1.96-.82-1.32-.53-2.64-1.04-3.98-1.53-1.35-.49-2.7-.94-4.08-1.35-1.38-.41-2.77-.79-4.18-1.1-1.41-.31-2.85-.54-4.29-.67l-.7-.06.3.63c.36.75.8,1.45,1.27,2.12.46.67.95,1.31,1.39,1.97l.35.5c.12.17.25.33.37.5.26.33.51.65.79.96.54.62,1.1,1.22,1.68,1.8,1.15,1.16,2.35,2.24,3.51,3.33l1.73,1.66c.58.55,1.16,1.11,1.76,1.65.6.54,1.21,1.07,1.83,1.59.63.51,1.27,1.01,1.93,1.47.66.47,1.33.92,2.03,1.33.34.21.7.4,1.05.6l.32.17c-.18-.04-.37-.07-.56-.1l-.79-.12.32.75c.62,1.45,1.62,2.68,2.72,3.75,1.1,1.07,2.31,2,3.56,2.84,1.25.83,2.54,1.59,3.84,2.31,1.3.72,2.62,1.37,3.94,2.01l1.97.96.5.23.52.23c.34.14.69.28,1.03.4,1.38.51,2.77.91,4.14,1.32.68.2,1.36.41,2.04.63.34.11.66.23,1.03.34.35.1.7.19,1.04.27l1.03.24c.34.07.68.16,1.02.24.34.08.67.18,1,.28.32.12.66.23.88.48h.02s.05-.03.05-.03c-.07-.18-.21-.33-.35-.45-.14-.12-.3-.23-.46-.32-.32-.19-.65-.34-.98-.49-.34-.14-.67-.26-1.01-.39l-1.02-.33c-.34-.11-.68-.2-1.01-.31l-1-.36c-.68-.24-1.36-.47-2.05-.68-1.37-.44-2.73-.87-4.05-1.39-.33-.13-.66-.27-.98-.41l-.48-.21-.49-.23-1.95-.97c-1.3-.65-2.6-1.32-3.88-2.01-1.28-.7-2.54-1.43-3.76-2.24-1.21-.81-2.39-1.67-3.44-2.66-.83-.78-1.58-1.64-2.13-2.59.12.02.24.05.36.08.2.05.41.1.62.16.21.06.41.12.61.19.2.07.41.14.61.22.2.08.41.16.61.24.4.17.81.35,1.2.55.4.19.79.4,1.18.61.39.22.78.43,1.16.66.38.23.76.46,1.14.69l1.13.7c-.65-.43-1.3-.86-1.95-1.31-.17-.12-.34-.24-.51-.35l-.84-.6c-.36-.26-.73-.52-1.1-.77-.09-.06-.19-.12-.29-.18-.38-.26-.76-.52-1.14-.78-.65-.45-1.32-.88-1.99-1.3l-1.01-.63c-.33-.21-.66-.41-.98-.63-.65-.43-1.27-.9-1.89-1.39-.61-.49-1.2-1-1.79-1.53-.59-.52-1.16-1.06-1.73-1.61l-1.71-1.66c-.57-.56-1.13-1.12-1.73-1.68-1.18-1.11-2.41-2.16-3.58-3.23-.59-.54-1.15-1.09-1.69-1.67-.27-.29-.53-.58-.78-.88-.12-.15-.25-.29-.37-.45l-.36-.47c-.49-.65-.98-1.29-1.45-1.93-.31-.43-.6-.88-.86-1.33,1.14.14,2.28.35,3.42.61,1.37.32,2.74.7,4.08,1.14,1.34.44,2.67.92,3.99,1.43,1.31.51,2.61,1.05,3.9,1.61.65.27,1.28.58,1.91.86.63.29,1.26.6,1.89.9l1.85.95c.61.33,1.22.66,1.82,1l.89.51c.3.17.59.34.89.53l.89.55.43.27.44.28c1.16.75,2.32,1.5,3.47,2.25,2.29,1.51,4.53,3.08,6.69,4.72,1.08.82,2.14,1.65,3.19,2.5.52.43,1.04.85,1.55,1.29.52.43,1.02.87,1.52,1.31.49.45.99.88,1.48,1.35.49.47.97.93,1.47,1.39l1.48,1.37c.49.45.98.91,1.45,1.37.96.92,1.89,1.86,2.73,2.87.42.51.82,1.03,1.16,1.58.34.56.63,1.14.78,1.78h.04s.02,0,.02,0c0-.32-.06-.66-.14-.99Z"/>
</svg>