<?xml version="1.0" encoding="UTF-8"?>
<svg xmlns="http://www.w3.org/2000/svg" xmlns:xlink="http://www.w3.org/1999/xlink" viewBox="0 0 300 100">
  <defs>
    <style>
      .cls-1 {
        fill: url(#radial-gradient-2);
      }

      .cls-2 {
        fill: url(#radial-gradient);
        mix-blend-mode: multiply;
      }

      .cls-3 {
        isolation: isolate;
      }

      .cls-4 {
        fill: #7b1e1e;
      }
    </style>
    <radialGradient id="radial-gradient" cx="64.34" cy="50" fx="64.34" fy="50" r="27.05" gradientUnits="userSpaceOnUse">
      <stop offset="0" stop-color="#8c8f91"/>
      <stop offset="1" stop-color="#fff"/>
    </radialGradient>
    <radialGradient id="radial-gradient-2" cx="64.27" cy="50.12" fx="64.27" fy="50.12" r="23.59" gradientUnits="userSpaceOnUse">
      <stop offset="0" stop-color="#fff"/>
      <stop offset="1" stop-color="#f3d99f"/>
    </radialGradient>
  </defs>
  <g class="cls-3">
    <g id="Layer_1" data-name="Layer 1">
      <g>
        <g>
          <path class="cls-4" d="M213.71,28.92v-2.57h-35.12v2.57c5.36.29,6.91,1.54,7.27,4.7.15,2.13.59,5.58.59,12.05v12.93h-.29l-28.07-32.26h-21.82v2.57c4.7.96,4.92,1.69,3.53,4.33-1.76,3.23-4.34,7.27-6.61,10.29-3.01-4.92-5.36-8.74-6.61-11.1-.88-1.76-1.03-2.57,3.09-3.53v-2.57h-22.19v2.57c4.92.51,6.91,1.84,9.04,5.29,3.89,6.1,6.91,11.17,10.43,16.97-4.19,6.32-9.33,12.93-11.98,16.31-2.13,2.42-4.78,3.6-8.74,4.04v2.57h18.44v-2.57c-5-.81-5.66-1.4-3.89-4.56,1.62-2.94,4.56-7.72,8.08-12.93,5.36,9.11,7.05,11.9,7.79,13.15,1.32,2.42,1.62,3.45-3.23,4.34v2.57h29.91v-2.57c-5.44-.22-6.69-1.62-7.05-4.85-.22-2.2-.59-5.44-.59-11.9v-16.53h.22l30.57,36.59h3.53v-29.17c0-6.47.44-9.92.66-12.2.28-2.58,1.25-3.75,3.47-4.25,3.21.57,3.66,1.82,3.66,6.97v28.14c0,6.17-.66,6.69-6.1,7.2v2.57h22.04v-2.57c-5.44-.51-6.1-1.03-6.1-7.2v-28.14c0-6.25.66-6.76,6.1-7.27ZM135.09,46.11c3.53-4.85,6.61-9.18,9.18-12.12,1.68-2.01,3.05-3.15,4.74-3.88.6.37,1.11.84,1.57,1.46,1.4,1.69,1.54,3.09,1.54,7.86v15.36c0,6.47-.44,9.7-.73,12.12-.1,1.08-.37,1.92-.83,2.58-1.08-.88-2.07-2.15-3.28-4.05-4.26-6.61-7.86-12.49-12.2-19.32Z"/>
          <path class="cls-4" d="M238.25,25.32c13.3,0,24.25,9.85,24.25,24.39,0,15.87-11.39,25.5-25.2,25.5-14.7,0-24.91-10.8-24.91-24.91,0-12.64,8.96-24.98,25.79-24.98h.07ZM236.78,28.33c-7.35,0-13.15,7.86-13.15,20.57s5.58,23.22,14.99,23.22c6.98,0,12.64-6.83,12.64-20.35,0-14.62-5.95-23.44-14.4-23.44h-.07Z"/>
        </g>
        <g>
          <rect class="cls-4" x="37.5" y="22.74" width="53.68" height="54.53"/>
          <rect class="cls-2" x="37.5" y="22.74" width="53.68" height="54.53"/>
          <path class="cls-1" d="M80.92,61.86l-11.75-11.75,11.75-11.75v6.89h6.94v-18.74h-18.74v6.94h3.47s3.42,0,3.42,0l-11.75,11.75-11.75-11.75h6.89v-6.94h-18.74v18.74h6.94v-6.89s11.75,11.75,11.75,11.75l-11.75,11.75v-6.89h-6.94v18.74h18.74v-6.94h-6.89l11.75-11.75,11.75,11.75h-6.89v6.94h18.74v-18.74h-6.94v6.89Z"/>
        </g>
      </g>
    </g>
  </g>
</svg>